%TF.GenerationSoftware,KiCad,Pcbnew,7.0.5*%
%TF.CreationDate,2024-05-26T12:45:06+03:00*%
%TF.ProjectId,LoRa_MuPr-VAF4751,4c6f5261-5f4d-4755-9072-2d5641463437,rev?*%
%TF.SameCoordinates,Original*%
%TF.FileFunction,Drillmap*%
%TF.FilePolarity,Positive*%
%FSLAX45Y45*%
G04 Gerber Fmt 4.5, Leading zero omitted, Abs format (unit mm)*
G04 Created by KiCad (PCBNEW 7.0.5) date 2024-05-26 12:45:06*
%MOMM*%
%LPD*%
G01*
G04 APERTURE LIST*
%ADD10C,0.100000*%
%ADD11C,0.200000*%
%ADD12C,0.075000*%
G04 APERTURE END LIST*
D10*
X9200000Y-5900000D02*
X9200000Y-13300000D01*
X18200000Y-13300000D02*
X18200000Y-5900000D01*
X10000000Y-14100000D02*
X17400000Y-14100000D01*
X9200000Y-13300000D02*
G75*
G03*
X10000000Y-14100000I800000J0D01*
G01*
X10000000Y-5100000D02*
G75*
G03*
X9200000Y-5900000I0J-800000D01*
G01*
X17400000Y-5100000D02*
X10000000Y-5100000D01*
X17400000Y-14100000D02*
G75*
G03*
X18200000Y-13300000I0J800000D01*
G01*
X18200000Y-5900000D02*
G75*
G03*
X17400000Y-5100000I-800000J0D01*
G01*
D11*
D12*
X9433750Y-10066250D02*
X9508750Y-10141250D01*
X9508750Y-10066250D02*
X9433750Y-10141250D01*
X9433750Y-10916250D02*
X9508750Y-10991250D01*
X9508750Y-10916250D02*
X9433750Y-10991250D01*
D11*
X9455777Y-14416484D02*
X9455777Y-14216484D01*
X9455777Y-14216484D02*
X9503396Y-14216484D01*
X9503396Y-14216484D02*
X9531967Y-14226008D01*
X9531967Y-14226008D02*
X9551015Y-14245055D01*
X9551015Y-14245055D02*
X9560539Y-14264103D01*
X9560539Y-14264103D02*
X9570063Y-14302198D01*
X9570063Y-14302198D02*
X9570063Y-14330769D01*
X9570063Y-14330769D02*
X9560539Y-14368865D01*
X9560539Y-14368865D02*
X9551015Y-14387912D01*
X9551015Y-14387912D02*
X9531967Y-14406960D01*
X9531967Y-14406960D02*
X9503396Y-14416484D01*
X9503396Y-14416484D02*
X9455777Y-14416484D01*
X9655777Y-14416484D02*
X9655777Y-14283150D01*
X9655777Y-14321246D02*
X9665301Y-14302198D01*
X9665301Y-14302198D02*
X9674824Y-14292674D01*
X9674824Y-14292674D02*
X9693872Y-14283150D01*
X9693872Y-14283150D02*
X9712920Y-14283150D01*
X9779586Y-14416484D02*
X9779586Y-14283150D01*
X9779586Y-14216484D02*
X9770063Y-14226008D01*
X9770063Y-14226008D02*
X9779586Y-14235531D01*
X9779586Y-14235531D02*
X9789110Y-14226008D01*
X9789110Y-14226008D02*
X9779586Y-14216484D01*
X9779586Y-14216484D02*
X9779586Y-14235531D01*
X9903396Y-14416484D02*
X9884348Y-14406960D01*
X9884348Y-14406960D02*
X9874824Y-14387912D01*
X9874824Y-14387912D02*
X9874824Y-14216484D01*
X10008158Y-14416484D02*
X9989110Y-14406960D01*
X9989110Y-14406960D02*
X9979586Y-14387912D01*
X9979586Y-14387912D02*
X9979586Y-14216484D01*
X10236729Y-14416484D02*
X10236729Y-14216484D01*
X10236729Y-14216484D02*
X10303396Y-14359341D01*
X10303396Y-14359341D02*
X10370063Y-14216484D01*
X10370063Y-14216484D02*
X10370063Y-14416484D01*
X10551015Y-14416484D02*
X10551015Y-14311722D01*
X10551015Y-14311722D02*
X10541491Y-14292674D01*
X10541491Y-14292674D02*
X10522444Y-14283150D01*
X10522444Y-14283150D02*
X10484348Y-14283150D01*
X10484348Y-14283150D02*
X10465301Y-14292674D01*
X10551015Y-14406960D02*
X10531967Y-14416484D01*
X10531967Y-14416484D02*
X10484348Y-14416484D01*
X10484348Y-14416484D02*
X10465301Y-14406960D01*
X10465301Y-14406960D02*
X10455777Y-14387912D01*
X10455777Y-14387912D02*
X10455777Y-14368865D01*
X10455777Y-14368865D02*
X10465301Y-14349817D01*
X10465301Y-14349817D02*
X10484348Y-14340293D01*
X10484348Y-14340293D02*
X10531967Y-14340293D01*
X10531967Y-14340293D02*
X10551015Y-14330769D01*
X10646253Y-14283150D02*
X10646253Y-14483150D01*
X10646253Y-14292674D02*
X10665301Y-14283150D01*
X10665301Y-14283150D02*
X10703396Y-14283150D01*
X10703396Y-14283150D02*
X10722444Y-14292674D01*
X10722444Y-14292674D02*
X10731967Y-14302198D01*
X10731967Y-14302198D02*
X10741491Y-14321246D01*
X10741491Y-14321246D02*
X10741491Y-14378388D01*
X10741491Y-14378388D02*
X10731967Y-14397436D01*
X10731967Y-14397436D02*
X10722444Y-14406960D01*
X10722444Y-14406960D02*
X10703396Y-14416484D01*
X10703396Y-14416484D02*
X10665301Y-14416484D01*
X10665301Y-14416484D02*
X10646253Y-14406960D01*
X10827205Y-14397436D02*
X10836729Y-14406960D01*
X10836729Y-14406960D02*
X10827205Y-14416484D01*
X10827205Y-14416484D02*
X10817682Y-14406960D01*
X10817682Y-14406960D02*
X10827205Y-14397436D01*
X10827205Y-14397436D02*
X10827205Y-14416484D01*
X10827205Y-14292674D02*
X10836729Y-14302198D01*
X10836729Y-14302198D02*
X10827205Y-14311722D01*
X10827205Y-14311722D02*
X10817682Y-14302198D01*
X10817682Y-14302198D02*
X10827205Y-14292674D01*
X10827205Y-14292674D02*
X10827205Y-14311722D01*
D12*
X9120000Y-14707500D02*
X9195000Y-14782500D01*
X9195000Y-14707500D02*
X9120000Y-14782500D01*
D11*
X9493872Y-14636484D02*
X9512920Y-14636484D01*
X9512920Y-14636484D02*
X9531967Y-14646008D01*
X9531967Y-14646008D02*
X9541491Y-14655531D01*
X9541491Y-14655531D02*
X9551015Y-14674579D01*
X9551015Y-14674579D02*
X9560539Y-14712674D01*
X9560539Y-14712674D02*
X9560539Y-14760293D01*
X9560539Y-14760293D02*
X9551015Y-14798388D01*
X9551015Y-14798388D02*
X9541491Y-14817436D01*
X9541491Y-14817436D02*
X9531967Y-14826960D01*
X9531967Y-14826960D02*
X9512920Y-14836484D01*
X9512920Y-14836484D02*
X9493872Y-14836484D01*
X9493872Y-14836484D02*
X9474824Y-14826960D01*
X9474824Y-14826960D02*
X9465301Y-14817436D01*
X9465301Y-14817436D02*
X9455777Y-14798388D01*
X9455777Y-14798388D02*
X9446253Y-14760293D01*
X9446253Y-14760293D02*
X9446253Y-14712674D01*
X9446253Y-14712674D02*
X9455777Y-14674579D01*
X9455777Y-14674579D02*
X9465301Y-14655531D01*
X9465301Y-14655531D02*
X9474824Y-14646008D01*
X9474824Y-14646008D02*
X9493872Y-14636484D01*
X9646253Y-14817436D02*
X9655777Y-14826960D01*
X9655777Y-14826960D02*
X9646253Y-14836484D01*
X9646253Y-14836484D02*
X9636729Y-14826960D01*
X9636729Y-14826960D02*
X9646253Y-14817436D01*
X9646253Y-14817436D02*
X9646253Y-14836484D01*
X9722444Y-14636484D02*
X9855777Y-14636484D01*
X9855777Y-14636484D02*
X9770063Y-14836484D01*
X10027205Y-14636484D02*
X9931967Y-14636484D01*
X9931967Y-14636484D02*
X9922444Y-14731722D01*
X9922444Y-14731722D02*
X9931967Y-14722198D01*
X9931967Y-14722198D02*
X9951015Y-14712674D01*
X9951015Y-14712674D02*
X9998634Y-14712674D01*
X9998634Y-14712674D02*
X10017682Y-14722198D01*
X10017682Y-14722198D02*
X10027205Y-14731722D01*
X10027205Y-14731722D02*
X10036729Y-14750769D01*
X10036729Y-14750769D02*
X10036729Y-14798388D01*
X10036729Y-14798388D02*
X10027205Y-14817436D01*
X10027205Y-14817436D02*
X10017682Y-14826960D01*
X10017682Y-14826960D02*
X9998634Y-14836484D01*
X9998634Y-14836484D02*
X9951015Y-14836484D01*
X9951015Y-14836484D02*
X9931967Y-14826960D01*
X9931967Y-14826960D02*
X9922444Y-14817436D01*
X10160539Y-14636484D02*
X10179586Y-14636484D01*
X10179586Y-14636484D02*
X10198634Y-14646008D01*
X10198634Y-14646008D02*
X10208158Y-14655531D01*
X10208158Y-14655531D02*
X10217682Y-14674579D01*
X10217682Y-14674579D02*
X10227205Y-14712674D01*
X10227205Y-14712674D02*
X10227205Y-14760293D01*
X10227205Y-14760293D02*
X10217682Y-14798388D01*
X10217682Y-14798388D02*
X10208158Y-14817436D01*
X10208158Y-14817436D02*
X10198634Y-14826960D01*
X10198634Y-14826960D02*
X10179586Y-14836484D01*
X10179586Y-14836484D02*
X10160539Y-14836484D01*
X10160539Y-14836484D02*
X10141491Y-14826960D01*
X10141491Y-14826960D02*
X10131967Y-14817436D01*
X10131967Y-14817436D02*
X10122444Y-14798388D01*
X10122444Y-14798388D02*
X10112920Y-14760293D01*
X10112920Y-14760293D02*
X10112920Y-14712674D01*
X10112920Y-14712674D02*
X10122444Y-14674579D01*
X10122444Y-14674579D02*
X10131967Y-14655531D01*
X10131967Y-14655531D02*
X10141491Y-14646008D01*
X10141491Y-14646008D02*
X10160539Y-14636484D01*
X10312920Y-14836484D02*
X10312920Y-14703150D01*
X10312920Y-14722198D02*
X10322444Y-14712674D01*
X10322444Y-14712674D02*
X10341491Y-14703150D01*
X10341491Y-14703150D02*
X10370063Y-14703150D01*
X10370063Y-14703150D02*
X10389110Y-14712674D01*
X10389110Y-14712674D02*
X10398634Y-14731722D01*
X10398634Y-14731722D02*
X10398634Y-14836484D01*
X10398634Y-14731722D02*
X10408158Y-14712674D01*
X10408158Y-14712674D02*
X10427205Y-14703150D01*
X10427205Y-14703150D02*
X10455777Y-14703150D01*
X10455777Y-14703150D02*
X10474825Y-14712674D01*
X10474825Y-14712674D02*
X10484348Y-14731722D01*
X10484348Y-14731722D02*
X10484348Y-14836484D01*
X10579586Y-14836484D02*
X10579586Y-14703150D01*
X10579586Y-14722198D02*
X10589110Y-14712674D01*
X10589110Y-14712674D02*
X10608158Y-14703150D01*
X10608158Y-14703150D02*
X10636729Y-14703150D01*
X10636729Y-14703150D02*
X10655777Y-14712674D01*
X10655777Y-14712674D02*
X10665301Y-14731722D01*
X10665301Y-14731722D02*
X10665301Y-14836484D01*
X10665301Y-14731722D02*
X10674825Y-14712674D01*
X10674825Y-14712674D02*
X10693872Y-14703150D01*
X10693872Y-14703150D02*
X10722444Y-14703150D01*
X10722444Y-14703150D02*
X10741491Y-14712674D01*
X10741491Y-14712674D02*
X10751015Y-14731722D01*
X10751015Y-14731722D02*
X10751015Y-14836484D01*
X11141491Y-14626960D02*
X10970063Y-14884103D01*
X11398634Y-14636484D02*
X11417682Y-14636484D01*
X11417682Y-14636484D02*
X11436729Y-14646008D01*
X11436729Y-14646008D02*
X11446253Y-14655531D01*
X11446253Y-14655531D02*
X11455777Y-14674579D01*
X11455777Y-14674579D02*
X11465301Y-14712674D01*
X11465301Y-14712674D02*
X11465301Y-14760293D01*
X11465301Y-14760293D02*
X11455777Y-14798388D01*
X11455777Y-14798388D02*
X11446253Y-14817436D01*
X11446253Y-14817436D02*
X11436729Y-14826960D01*
X11436729Y-14826960D02*
X11417682Y-14836484D01*
X11417682Y-14836484D02*
X11398634Y-14836484D01*
X11398634Y-14836484D02*
X11379586Y-14826960D01*
X11379586Y-14826960D02*
X11370063Y-14817436D01*
X11370063Y-14817436D02*
X11360539Y-14798388D01*
X11360539Y-14798388D02*
X11351015Y-14760293D01*
X11351015Y-14760293D02*
X11351015Y-14712674D01*
X11351015Y-14712674D02*
X11360539Y-14674579D01*
X11360539Y-14674579D02*
X11370063Y-14655531D01*
X11370063Y-14655531D02*
X11379586Y-14646008D01*
X11379586Y-14646008D02*
X11398634Y-14636484D01*
X11551015Y-14817436D02*
X11560539Y-14826960D01*
X11560539Y-14826960D02*
X11551015Y-14836484D01*
X11551015Y-14836484D02*
X11541491Y-14826960D01*
X11541491Y-14826960D02*
X11551015Y-14817436D01*
X11551015Y-14817436D02*
X11551015Y-14836484D01*
X11684348Y-14636484D02*
X11703396Y-14636484D01*
X11703396Y-14636484D02*
X11722444Y-14646008D01*
X11722444Y-14646008D02*
X11731967Y-14655531D01*
X11731967Y-14655531D02*
X11741491Y-14674579D01*
X11741491Y-14674579D02*
X11751015Y-14712674D01*
X11751015Y-14712674D02*
X11751015Y-14760293D01*
X11751015Y-14760293D02*
X11741491Y-14798388D01*
X11741491Y-14798388D02*
X11731967Y-14817436D01*
X11731967Y-14817436D02*
X11722444Y-14826960D01*
X11722444Y-14826960D02*
X11703396Y-14836484D01*
X11703396Y-14836484D02*
X11684348Y-14836484D01*
X11684348Y-14836484D02*
X11665301Y-14826960D01*
X11665301Y-14826960D02*
X11655777Y-14817436D01*
X11655777Y-14817436D02*
X11646253Y-14798388D01*
X11646253Y-14798388D02*
X11636729Y-14760293D01*
X11636729Y-14760293D02*
X11636729Y-14712674D01*
X11636729Y-14712674D02*
X11646253Y-14674579D01*
X11646253Y-14674579D02*
X11655777Y-14655531D01*
X11655777Y-14655531D02*
X11665301Y-14646008D01*
X11665301Y-14646008D02*
X11684348Y-14636484D01*
X11827206Y-14655531D02*
X11836729Y-14646008D01*
X11836729Y-14646008D02*
X11855777Y-14636484D01*
X11855777Y-14636484D02*
X11903396Y-14636484D01*
X11903396Y-14636484D02*
X11922444Y-14646008D01*
X11922444Y-14646008D02*
X11931967Y-14655531D01*
X11931967Y-14655531D02*
X11941491Y-14674579D01*
X11941491Y-14674579D02*
X11941491Y-14693627D01*
X11941491Y-14693627D02*
X11931967Y-14722198D01*
X11931967Y-14722198D02*
X11817682Y-14836484D01*
X11817682Y-14836484D02*
X11941491Y-14836484D01*
X12036729Y-14836484D02*
X12074825Y-14836484D01*
X12074825Y-14836484D02*
X12093872Y-14826960D01*
X12093872Y-14826960D02*
X12103396Y-14817436D01*
X12103396Y-14817436D02*
X12122444Y-14788865D01*
X12122444Y-14788865D02*
X12131967Y-14750769D01*
X12131967Y-14750769D02*
X12131967Y-14674579D01*
X12131967Y-14674579D02*
X12122444Y-14655531D01*
X12122444Y-14655531D02*
X12112920Y-14646008D01*
X12112920Y-14646008D02*
X12093872Y-14636484D01*
X12093872Y-14636484D02*
X12055777Y-14636484D01*
X12055777Y-14636484D02*
X12036729Y-14646008D01*
X12036729Y-14646008D02*
X12027206Y-14655531D01*
X12027206Y-14655531D02*
X12017682Y-14674579D01*
X12017682Y-14674579D02*
X12017682Y-14722198D01*
X12017682Y-14722198D02*
X12027206Y-14741246D01*
X12027206Y-14741246D02*
X12036729Y-14750769D01*
X12036729Y-14750769D02*
X12055777Y-14760293D01*
X12055777Y-14760293D02*
X12093872Y-14760293D01*
X12093872Y-14760293D02*
X12112920Y-14750769D01*
X12112920Y-14750769D02*
X12122444Y-14741246D01*
X12122444Y-14741246D02*
X12131967Y-14722198D01*
X12312920Y-14636484D02*
X12217682Y-14636484D01*
X12217682Y-14636484D02*
X12208158Y-14731722D01*
X12208158Y-14731722D02*
X12217682Y-14722198D01*
X12217682Y-14722198D02*
X12236729Y-14712674D01*
X12236729Y-14712674D02*
X12284348Y-14712674D01*
X12284348Y-14712674D02*
X12303396Y-14722198D01*
X12303396Y-14722198D02*
X12312920Y-14731722D01*
X12312920Y-14731722D02*
X12322444Y-14750769D01*
X12322444Y-14750769D02*
X12322444Y-14798388D01*
X12322444Y-14798388D02*
X12312920Y-14817436D01*
X12312920Y-14817436D02*
X12303396Y-14826960D01*
X12303396Y-14826960D02*
X12284348Y-14836484D01*
X12284348Y-14836484D02*
X12236729Y-14836484D01*
X12236729Y-14836484D02*
X12217682Y-14826960D01*
X12217682Y-14826960D02*
X12208158Y-14817436D01*
X12398634Y-14636484D02*
X12398634Y-14674579D01*
X12474825Y-14636484D02*
X12474825Y-14674579D01*
X12770063Y-14912674D02*
X12760539Y-14903150D01*
X12760539Y-14903150D02*
X12741491Y-14874579D01*
X12741491Y-14874579D02*
X12731968Y-14855531D01*
X12731968Y-14855531D02*
X12722444Y-14826960D01*
X12722444Y-14826960D02*
X12712920Y-14779341D01*
X12712920Y-14779341D02*
X12712920Y-14741246D01*
X12712920Y-14741246D02*
X12722444Y-14693627D01*
X12722444Y-14693627D02*
X12731968Y-14665055D01*
X12731968Y-14665055D02*
X12741491Y-14646008D01*
X12741491Y-14646008D02*
X12760539Y-14617436D01*
X12760539Y-14617436D02*
X12770063Y-14607912D01*
X12836729Y-14655531D02*
X12846253Y-14646008D01*
X12846253Y-14646008D02*
X12865301Y-14636484D01*
X12865301Y-14636484D02*
X12912920Y-14636484D01*
X12912920Y-14636484D02*
X12931968Y-14646008D01*
X12931968Y-14646008D02*
X12941491Y-14655531D01*
X12941491Y-14655531D02*
X12951015Y-14674579D01*
X12951015Y-14674579D02*
X12951015Y-14693627D01*
X12951015Y-14693627D02*
X12941491Y-14722198D01*
X12941491Y-14722198D02*
X12827206Y-14836484D01*
X12827206Y-14836484D02*
X12951015Y-14836484D01*
X13189110Y-14836484D02*
X13189110Y-14636484D01*
X13274825Y-14836484D02*
X13274825Y-14731722D01*
X13274825Y-14731722D02*
X13265301Y-14712674D01*
X13265301Y-14712674D02*
X13246253Y-14703150D01*
X13246253Y-14703150D02*
X13217682Y-14703150D01*
X13217682Y-14703150D02*
X13198634Y-14712674D01*
X13198634Y-14712674D02*
X13189110Y-14722198D01*
X13398634Y-14836484D02*
X13379587Y-14826960D01*
X13379587Y-14826960D02*
X13370063Y-14817436D01*
X13370063Y-14817436D02*
X13360539Y-14798388D01*
X13360539Y-14798388D02*
X13360539Y-14741246D01*
X13360539Y-14741246D02*
X13370063Y-14722198D01*
X13370063Y-14722198D02*
X13379587Y-14712674D01*
X13379587Y-14712674D02*
X13398634Y-14703150D01*
X13398634Y-14703150D02*
X13427206Y-14703150D01*
X13427206Y-14703150D02*
X13446253Y-14712674D01*
X13446253Y-14712674D02*
X13455777Y-14722198D01*
X13455777Y-14722198D02*
X13465301Y-14741246D01*
X13465301Y-14741246D02*
X13465301Y-14798388D01*
X13465301Y-14798388D02*
X13455777Y-14817436D01*
X13455777Y-14817436D02*
X13446253Y-14826960D01*
X13446253Y-14826960D02*
X13427206Y-14836484D01*
X13427206Y-14836484D02*
X13398634Y-14836484D01*
X13579587Y-14836484D02*
X13560539Y-14826960D01*
X13560539Y-14826960D02*
X13551015Y-14807912D01*
X13551015Y-14807912D02*
X13551015Y-14636484D01*
X13731968Y-14826960D02*
X13712920Y-14836484D01*
X13712920Y-14836484D02*
X13674825Y-14836484D01*
X13674825Y-14836484D02*
X13655777Y-14826960D01*
X13655777Y-14826960D02*
X13646253Y-14807912D01*
X13646253Y-14807912D02*
X13646253Y-14731722D01*
X13646253Y-14731722D02*
X13655777Y-14712674D01*
X13655777Y-14712674D02*
X13674825Y-14703150D01*
X13674825Y-14703150D02*
X13712920Y-14703150D01*
X13712920Y-14703150D02*
X13731968Y-14712674D01*
X13731968Y-14712674D02*
X13741491Y-14731722D01*
X13741491Y-14731722D02*
X13741491Y-14750769D01*
X13741491Y-14750769D02*
X13646253Y-14769817D01*
X13817682Y-14826960D02*
X13836730Y-14836484D01*
X13836730Y-14836484D02*
X13874825Y-14836484D01*
X13874825Y-14836484D02*
X13893872Y-14826960D01*
X13893872Y-14826960D02*
X13903396Y-14807912D01*
X13903396Y-14807912D02*
X13903396Y-14798388D01*
X13903396Y-14798388D02*
X13893872Y-14779341D01*
X13893872Y-14779341D02*
X13874825Y-14769817D01*
X13874825Y-14769817D02*
X13846253Y-14769817D01*
X13846253Y-14769817D02*
X13827206Y-14760293D01*
X13827206Y-14760293D02*
X13817682Y-14741246D01*
X13817682Y-14741246D02*
X13817682Y-14731722D01*
X13817682Y-14731722D02*
X13827206Y-14712674D01*
X13827206Y-14712674D02*
X13846253Y-14703150D01*
X13846253Y-14703150D02*
X13874825Y-14703150D01*
X13874825Y-14703150D02*
X13893872Y-14712674D01*
X13970063Y-14912674D02*
X13979587Y-14903150D01*
X13979587Y-14903150D02*
X13998634Y-14874579D01*
X13998634Y-14874579D02*
X14008158Y-14855531D01*
X14008158Y-14855531D02*
X14017682Y-14826960D01*
X14017682Y-14826960D02*
X14027206Y-14779341D01*
X14027206Y-14779341D02*
X14027206Y-14741246D01*
X14027206Y-14741246D02*
X14017682Y-14693627D01*
X14017682Y-14693627D02*
X14008158Y-14665055D01*
X14008158Y-14665055D02*
X13998634Y-14646008D01*
X13998634Y-14646008D02*
X13979587Y-14617436D01*
X13979587Y-14617436D02*
X13970063Y-14607912D01*
X14331968Y-14912674D02*
X14322444Y-14903150D01*
X14322444Y-14903150D02*
X14303396Y-14874579D01*
X14303396Y-14874579D02*
X14293872Y-14855531D01*
X14293872Y-14855531D02*
X14284349Y-14826960D01*
X14284349Y-14826960D02*
X14274825Y-14779341D01*
X14274825Y-14779341D02*
X14274825Y-14741246D01*
X14274825Y-14741246D02*
X14284349Y-14693627D01*
X14284349Y-14693627D02*
X14293872Y-14665055D01*
X14293872Y-14665055D02*
X14303396Y-14646008D01*
X14303396Y-14646008D02*
X14322444Y-14617436D01*
X14322444Y-14617436D02*
X14331968Y-14607912D01*
X14408158Y-14703150D02*
X14408158Y-14836484D01*
X14408158Y-14722198D02*
X14417682Y-14712674D01*
X14417682Y-14712674D02*
X14436730Y-14703150D01*
X14436730Y-14703150D02*
X14465301Y-14703150D01*
X14465301Y-14703150D02*
X14484349Y-14712674D01*
X14484349Y-14712674D02*
X14493872Y-14731722D01*
X14493872Y-14731722D02*
X14493872Y-14836484D01*
X14617682Y-14836484D02*
X14598634Y-14826960D01*
X14598634Y-14826960D02*
X14589111Y-14817436D01*
X14589111Y-14817436D02*
X14579587Y-14798388D01*
X14579587Y-14798388D02*
X14579587Y-14741246D01*
X14579587Y-14741246D02*
X14589111Y-14722198D01*
X14589111Y-14722198D02*
X14598634Y-14712674D01*
X14598634Y-14712674D02*
X14617682Y-14703150D01*
X14617682Y-14703150D02*
X14646253Y-14703150D01*
X14646253Y-14703150D02*
X14665301Y-14712674D01*
X14665301Y-14712674D02*
X14674825Y-14722198D01*
X14674825Y-14722198D02*
X14684349Y-14741246D01*
X14684349Y-14741246D02*
X14684349Y-14798388D01*
X14684349Y-14798388D02*
X14674825Y-14817436D01*
X14674825Y-14817436D02*
X14665301Y-14826960D01*
X14665301Y-14826960D02*
X14646253Y-14836484D01*
X14646253Y-14836484D02*
X14617682Y-14836484D01*
X14741492Y-14703150D02*
X14817682Y-14703150D01*
X14770063Y-14636484D02*
X14770063Y-14807912D01*
X14770063Y-14807912D02*
X14779587Y-14826960D01*
X14779587Y-14826960D02*
X14798634Y-14836484D01*
X14798634Y-14836484D02*
X14817682Y-14836484D01*
X15036730Y-14703150D02*
X15036730Y-14903150D01*
X15036730Y-14712674D02*
X15055777Y-14703150D01*
X15055777Y-14703150D02*
X15093873Y-14703150D01*
X15093873Y-14703150D02*
X15112920Y-14712674D01*
X15112920Y-14712674D02*
X15122444Y-14722198D01*
X15122444Y-14722198D02*
X15131968Y-14741246D01*
X15131968Y-14741246D02*
X15131968Y-14798388D01*
X15131968Y-14798388D02*
X15122444Y-14817436D01*
X15122444Y-14817436D02*
X15112920Y-14826960D01*
X15112920Y-14826960D02*
X15093873Y-14836484D01*
X15093873Y-14836484D02*
X15055777Y-14836484D01*
X15055777Y-14836484D02*
X15036730Y-14826960D01*
X15246253Y-14836484D02*
X15227206Y-14826960D01*
X15227206Y-14826960D02*
X15217682Y-14807912D01*
X15217682Y-14807912D02*
X15217682Y-14636484D01*
X15408158Y-14836484D02*
X15408158Y-14731722D01*
X15408158Y-14731722D02*
X15398634Y-14712674D01*
X15398634Y-14712674D02*
X15379587Y-14703150D01*
X15379587Y-14703150D02*
X15341492Y-14703150D01*
X15341492Y-14703150D02*
X15322444Y-14712674D01*
X15408158Y-14826960D02*
X15389111Y-14836484D01*
X15389111Y-14836484D02*
X15341492Y-14836484D01*
X15341492Y-14836484D02*
X15322444Y-14826960D01*
X15322444Y-14826960D02*
X15312920Y-14807912D01*
X15312920Y-14807912D02*
X15312920Y-14788865D01*
X15312920Y-14788865D02*
X15322444Y-14769817D01*
X15322444Y-14769817D02*
X15341492Y-14760293D01*
X15341492Y-14760293D02*
X15389111Y-14760293D01*
X15389111Y-14760293D02*
X15408158Y-14750769D01*
X15474825Y-14703150D02*
X15551015Y-14703150D01*
X15503396Y-14636484D02*
X15503396Y-14807912D01*
X15503396Y-14807912D02*
X15512920Y-14826960D01*
X15512920Y-14826960D02*
X15531968Y-14836484D01*
X15531968Y-14836484D02*
X15551015Y-14836484D01*
X15693873Y-14826960D02*
X15674825Y-14836484D01*
X15674825Y-14836484D02*
X15636730Y-14836484D01*
X15636730Y-14836484D02*
X15617682Y-14826960D01*
X15617682Y-14826960D02*
X15608158Y-14807912D01*
X15608158Y-14807912D02*
X15608158Y-14731722D01*
X15608158Y-14731722D02*
X15617682Y-14712674D01*
X15617682Y-14712674D02*
X15636730Y-14703150D01*
X15636730Y-14703150D02*
X15674825Y-14703150D01*
X15674825Y-14703150D02*
X15693873Y-14712674D01*
X15693873Y-14712674D02*
X15703396Y-14731722D01*
X15703396Y-14731722D02*
X15703396Y-14750769D01*
X15703396Y-14750769D02*
X15608158Y-14769817D01*
X15874825Y-14836484D02*
X15874825Y-14636484D01*
X15874825Y-14826960D02*
X15855777Y-14836484D01*
X15855777Y-14836484D02*
X15817682Y-14836484D01*
X15817682Y-14836484D02*
X15798634Y-14826960D01*
X15798634Y-14826960D02*
X15789111Y-14817436D01*
X15789111Y-14817436D02*
X15779587Y-14798388D01*
X15779587Y-14798388D02*
X15779587Y-14741246D01*
X15779587Y-14741246D02*
X15789111Y-14722198D01*
X15789111Y-14722198D02*
X15798634Y-14712674D01*
X15798634Y-14712674D02*
X15817682Y-14703150D01*
X15817682Y-14703150D02*
X15855777Y-14703150D01*
X15855777Y-14703150D02*
X15874825Y-14712674D01*
X15951015Y-14912674D02*
X15960539Y-14903150D01*
X15960539Y-14903150D02*
X15979587Y-14874579D01*
X15979587Y-14874579D02*
X15989111Y-14855531D01*
X15989111Y-14855531D02*
X15998634Y-14826960D01*
X15998634Y-14826960D02*
X16008158Y-14779341D01*
X16008158Y-14779341D02*
X16008158Y-14741246D01*
X16008158Y-14741246D02*
X15998634Y-14693627D01*
X15998634Y-14693627D02*
X15989111Y-14665055D01*
X15989111Y-14665055D02*
X15979587Y-14646008D01*
X15979587Y-14646008D02*
X15960539Y-14617436D01*
X15960539Y-14617436D02*
X15951015Y-14607912D01*
M02*
