%TF.GenerationSoftware,KiCad,Pcbnew,7.0.5*%
%TF.CreationDate,2024-05-26T12:31:29+03:00*%
%TF.ProjectId,LoRa_MuPr-VAF4751,4c6f5261-5f4d-4755-9072-2d5641463437,rev?*%
%TF.SameCoordinates,Original*%
%TF.FileFunction,Soldermask,Bot*%
%TF.FilePolarity,Negative*%
%FSLAX46Y46*%
G04 Gerber Fmt 4.6, Leading zero omitted, Abs format (unit mm)*
G04 Created by KiCad (PCBNEW 7.0.5) date 2024-05-26 12:31:29*
%MOMM*%
%LPD*%
G01*
G04 APERTURE LIST*
%ADD10R,1.350000X1.350000*%
%ADD11O,1.350000X1.350000*%
%ADD12R,1.700000X1.700000*%
%ADD13O,1.700000X1.700000*%
%ADD14O,0.890000X1.550000*%
%ADD15O,1.250000X0.950000*%
%ADD16R,1.000000X1.000000*%
%ADD17O,1.000000X1.000000*%
%ADD18C,0.750000*%
G04 APERTURE END LIST*
D10*
%TO.C,J11*%
X143095921Y-117576257D03*
D11*
X145095921Y-117576257D03*
X147095921Y-117576257D03*
X149095921Y-117576257D03*
X151095921Y-117576257D03*
X153095921Y-117576257D03*
X155095921Y-117576257D03*
X157095921Y-117576257D03*
X159095921Y-117576257D03*
X161095921Y-117576257D03*
X163095921Y-117576257D03*
X165095921Y-117576257D03*
X167095921Y-117576257D03*
%TD*%
D10*
%TO.C,J5*%
X152102000Y-59461101D03*
D11*
X154102000Y-59461101D03*
X156102000Y-59461101D03*
X158102000Y-59461101D03*
X160102000Y-59461101D03*
X162102000Y-59461101D03*
%TD*%
D12*
%TO.C,J3*%
X132760000Y-112160000D03*
D13*
X135300000Y-112160000D03*
X132760000Y-114700000D03*
X135300000Y-114700000D03*
X132760000Y-117240000D03*
X135300000Y-117240000D03*
%TD*%
D14*
%TO.C,U6*%
X148587500Y-139500000D03*
D15*
X149587500Y-136800000D03*
X154587500Y-136800000D03*
D14*
X155587500Y-139500000D03*
%TD*%
D16*
%TO.C,J6*%
X145301500Y-59511101D03*
D17*
X144031500Y-59511101D03*
X142761500Y-59511101D03*
X141491500Y-59511101D03*
X140221500Y-59511101D03*
X138951500Y-59511101D03*
X137681500Y-59511101D03*
X136411500Y-59511101D03*
%TD*%
D18*
%TO.C,J1*%
X94712500Y-101037500D03*
X94712500Y-109537500D03*
%TD*%
D10*
%TO.C,J10*%
X167095922Y-91719059D03*
D11*
X165095922Y-91719059D03*
X163095922Y-91719059D03*
X161095922Y-91719059D03*
X159095922Y-91719059D03*
X157095922Y-91719059D03*
X155095922Y-91719059D03*
X153095922Y-91719059D03*
X151095922Y-91719059D03*
X149095922Y-91719059D03*
X147095922Y-91719059D03*
X145095922Y-91719059D03*
X143095922Y-91719059D03*
%TD*%
D10*
%TO.C,J2*%
X173208946Y-108411371D03*
D11*
X173208946Y-106411371D03*
X173208946Y-104411371D03*
X173208946Y-102411371D03*
%TD*%
M02*
