%TF.GenerationSoftware,KiCad,Pcbnew,7.0.5*%
%TF.CreationDate,2024-05-26T12:31:29+03:00*%
%TF.ProjectId,LoRa_MuPr-VAF4751,4c6f5261-5f4d-4755-9072-2d5641463437,rev?*%
%TF.SameCoordinates,Original*%
%TF.FileFunction,Soldermask,Top*%
%TF.FilePolarity,Negative*%
%FSLAX46Y46*%
G04 Gerber Fmt 4.6, Leading zero omitted, Abs format (unit mm)*
G04 Created by KiCad (PCBNEW 7.0.5) date 2024-05-26 12:31:29*
%MOMM*%
%LPD*%
G01*
G04 APERTURE LIST*
G04 Aperture macros list*
%AMRoundRect*
0 Rectangle with rounded corners*
0 $1 Rounding radius*
0 $2 $3 $4 $5 $6 $7 $8 $9 X,Y pos of 4 corners*
0 Add a 4 corners polygon primitive as box body*
4,1,4,$2,$3,$4,$5,$6,$7,$8,$9,$2,$3,0*
0 Add four circle primitives for the rounded corners*
1,1,$1+$1,$2,$3*
1,1,$1+$1,$4,$5*
1,1,$1+$1,$6,$7*
1,1,$1+$1,$8,$9*
0 Add four rect primitives between the rounded corners*
20,1,$1+$1,$2,$3,$4,$5,0*
20,1,$1+$1,$4,$5,$6,$7,0*
20,1,$1+$1,$6,$7,$8,$9,0*
20,1,$1+$1,$8,$9,$2,$3,0*%
G04 Aperture macros list end*
%ADD10C,0.010000*%
%ADD11R,2.000000X1.500000*%
%ADD12R,2.000000X3.800000*%
%ADD13RoundRect,0.237500X0.250000X0.237500X-0.250000X0.237500X-0.250000X-0.237500X0.250000X-0.237500X0*%
%ADD14RoundRect,0.237500X-0.237500X0.300000X-0.237500X-0.300000X0.237500X-0.300000X0.237500X0.300000X0*%
%ADD15RoundRect,0.237500X0.237500X-0.300000X0.237500X0.300000X-0.237500X0.300000X-0.237500X-0.300000X0*%
%ADD16C,2.254000*%
%ADD17RoundRect,0.237500X0.237500X-0.287500X0.237500X0.287500X-0.237500X0.287500X-0.237500X-0.287500X0*%
%ADD18RoundRect,0.250000X-2.050000X-0.300000X2.050000X-0.300000X2.050000X0.300000X-2.050000X0.300000X0*%
%ADD19RoundRect,0.250002X-4.449998X-5.149998X4.449998X-5.149998X4.449998X5.149998X-4.449998X5.149998X0*%
%ADD20RoundRect,0.237500X-0.250000X-0.237500X0.250000X-0.237500X0.250000X0.237500X-0.250000X0.237500X0*%
%ADD21RoundRect,0.250000X-0.537500X-0.425000X0.537500X-0.425000X0.537500X0.425000X-0.537500X0.425000X0*%
%ADD22RoundRect,0.225000X0.225000X0.375000X-0.225000X0.375000X-0.225000X-0.375000X0.225000X-0.375000X0*%
%ADD23RoundRect,0.237500X0.300000X0.237500X-0.300000X0.237500X-0.300000X-0.237500X0.300000X-0.237500X0*%
%ADD24R,1.350000X1.350000*%
%ADD25O,1.350000X1.350000*%
%ADD26RoundRect,0.237500X0.237500X-0.250000X0.237500X0.250000X-0.237500X0.250000X-0.237500X-0.250000X0*%
%ADD27R,2.000000X4.500000*%
%ADD28RoundRect,0.237500X-0.237500X0.250000X-0.237500X-0.250000X0.237500X-0.250000X0.237500X0.250000X0*%
%ADD29RoundRect,0.250000X1.000000X-1.500000X1.000000X1.500000X-1.000000X1.500000X-1.000000X-1.500000X0*%
%ADD30RoundRect,0.237500X-0.300000X-0.237500X0.300000X-0.237500X0.300000X0.237500X-0.300000X0.237500X0*%
%ADD31RoundRect,0.250000X-1.000000X1.500000X-1.000000X-1.500000X1.000000X-1.500000X1.000000X1.500000X0*%
%ADD32R,1.700000X1.700000*%
%ADD33O,1.700000X1.700000*%
%ADD34R,0.400000X1.350000*%
%ADD35O,0.890000X1.550000*%
%ADD36R,1.200000X1.550000*%
%ADD37O,1.250000X0.950000*%
%ADD38R,1.500000X1.550000*%
%ADD39R,1.000000X1.000000*%
%ADD40O,1.000000X1.000000*%
%ADD41C,0.750000*%
%ADD42RoundRect,0.102000X-0.642500X0.400000X-0.642500X-0.400000X0.642500X-0.400000X0.642500X0.400000X0*%
%ADD43RoundRect,0.102000X-1.050000X0.445000X-1.050000X-0.445000X1.050000X-0.445000X1.050000X0.445000X0*%
%ADD44RoundRect,0.102000X-1.052500X0.445000X-1.052500X-0.445000X1.052500X-0.445000X1.052500X0.445000X0*%
%ADD45RoundRect,0.102000X-1.050000X0.405000X-1.050000X-0.405000X1.050000X-0.405000X1.050000X0.405000X0*%
%ADD46RoundRect,0.102000X-0.642500X0.350000X-0.642500X-0.350000X0.642500X-0.350000X0.642500X0.350000X0*%
%ADD47RoundRect,0.237500X0.287500X0.237500X-0.287500X0.237500X-0.287500X-0.237500X0.287500X-0.237500X0*%
%ADD48RoundRect,0.237500X-0.287500X-0.237500X0.287500X-0.237500X0.287500X0.237500X-0.287500X0.237500X0*%
%ADD49R,1.220000X0.650000*%
%ADD50O,0.600000X1.600000*%
%ADD51O,1.600000X0.600000*%
%ADD52R,0.900000X1.700000*%
%ADD53RoundRect,0.218750X-0.256250X0.218750X-0.256250X-0.218750X0.256250X-0.218750X0.256250X0.218750X0*%
%ADD54RoundRect,0.250000X0.425000X-0.537500X0.425000X0.537500X-0.425000X0.537500X-0.425000X-0.537500X0*%
%ADD55RoundRect,0.102000X-0.508000X0.762000X-0.508000X-0.762000X0.508000X-0.762000X0.508000X0.762000X0*%
%ADD56RoundRect,0.102000X-0.762000X-0.508000X0.762000X-0.508000X0.762000X0.508000X-0.762000X0.508000X0*%
%ADD57RoundRect,0.102000X0.508000X-0.762000X0.508000X0.762000X-0.508000X0.762000X-0.508000X-0.762000X0*%
%ADD58RoundRect,0.075000X-0.521491X0.415425X0.415425X-0.521491X0.521491X-0.415425X-0.415425X0.521491X0*%
%ADD59RoundRect,0.075000X-0.521491X-0.415425X-0.415425X-0.521491X0.521491X0.415425X0.415425X0.521491X0*%
%ADD60RoundRect,0.150000X0.150000X-0.512500X0.150000X0.512500X-0.150000X0.512500X-0.150000X-0.512500X0*%
G04 APERTURE END LIST*
%TO.C,U8*%
D10*
X95839000Y-63335000D02*
X95886000Y-63386000D01*
X95934000Y-63435000D01*
X95983000Y-63483000D01*
X96034000Y-63530000D01*
X96086000Y-63575000D01*
X96140000Y-63619000D01*
X96195000Y-63661000D01*
X96250000Y-63701000D01*
X96308000Y-63740000D01*
X96366000Y-63777000D01*
X96425000Y-63812000D01*
X96485000Y-63846000D01*
X96546000Y-63878000D01*
X96608000Y-63908000D01*
X96671000Y-63936000D01*
X96735000Y-63962000D01*
X96800000Y-63987000D01*
X96865000Y-64010000D01*
X96931000Y-64030000D01*
X96997000Y-64049000D01*
X97064000Y-64066000D01*
X97131000Y-64081000D01*
X97199000Y-64094000D01*
X97267000Y-64105000D01*
X97335000Y-64114000D01*
X97404000Y-64121000D01*
X97473000Y-64126000D01*
X97542000Y-64129000D01*
X97620000Y-64130000D01*
X97696000Y-64126000D01*
X97760000Y-64121000D01*
X97824000Y-64114000D01*
X97888000Y-64106000D01*
X97951000Y-64095000D01*
X98014000Y-64083000D01*
X98077000Y-64068000D01*
X98139000Y-64052000D01*
X98201000Y-64034000D01*
X98262000Y-64015000D01*
X98323000Y-63993000D01*
X98383000Y-63970000D01*
X98442000Y-63945000D01*
X98501000Y-63918000D01*
X98558000Y-63890000D01*
X98615000Y-63860000D01*
X98671000Y-63828000D01*
X98726000Y-63795000D01*
X98780000Y-63760000D01*
X98833000Y-63724000D01*
X98885000Y-63686000D01*
X98936000Y-63646000D01*
X98986000Y-63605000D01*
X99034000Y-63563000D01*
X99081000Y-63519000D01*
X99127000Y-63474000D01*
X99172000Y-63428000D01*
X99215000Y-63380000D01*
X99257000Y-63331000D01*
X99290000Y-63290000D01*
X101550000Y-63290000D01*
X101550000Y-65930000D01*
X93590000Y-65930000D01*
X93590000Y-63290000D01*
X95800000Y-63290000D01*
X95839000Y-63335000D01*
G36*
X95839000Y-63335000D02*
G01*
X95886000Y-63386000D01*
X95934000Y-63435000D01*
X95983000Y-63483000D01*
X96034000Y-63530000D01*
X96086000Y-63575000D01*
X96140000Y-63619000D01*
X96195000Y-63661000D01*
X96250000Y-63701000D01*
X96308000Y-63740000D01*
X96366000Y-63777000D01*
X96425000Y-63812000D01*
X96485000Y-63846000D01*
X96546000Y-63878000D01*
X96608000Y-63908000D01*
X96671000Y-63936000D01*
X96735000Y-63962000D01*
X96800000Y-63987000D01*
X96865000Y-64010000D01*
X96931000Y-64030000D01*
X96997000Y-64049000D01*
X97064000Y-64066000D01*
X97131000Y-64081000D01*
X97199000Y-64094000D01*
X97267000Y-64105000D01*
X97335000Y-64114000D01*
X97404000Y-64121000D01*
X97473000Y-64126000D01*
X97542000Y-64129000D01*
X97620000Y-64130000D01*
X97696000Y-64126000D01*
X97760000Y-64121000D01*
X97824000Y-64114000D01*
X97888000Y-64106000D01*
X97951000Y-64095000D01*
X98014000Y-64083000D01*
X98077000Y-64068000D01*
X98139000Y-64052000D01*
X98201000Y-64034000D01*
X98262000Y-64015000D01*
X98323000Y-63993000D01*
X98383000Y-63970000D01*
X98442000Y-63945000D01*
X98501000Y-63918000D01*
X98558000Y-63890000D01*
X98615000Y-63860000D01*
X98671000Y-63828000D01*
X98726000Y-63795000D01*
X98780000Y-63760000D01*
X98833000Y-63724000D01*
X98885000Y-63686000D01*
X98936000Y-63646000D01*
X98986000Y-63605000D01*
X99034000Y-63563000D01*
X99081000Y-63519000D01*
X99127000Y-63474000D01*
X99172000Y-63428000D01*
X99215000Y-63380000D01*
X99257000Y-63331000D01*
X99290000Y-63290000D01*
X101550000Y-63290000D01*
X101550000Y-65930000D01*
X93590000Y-65930000D01*
X93590000Y-63290000D01*
X95800000Y-63290000D01*
X95839000Y-63335000D01*
G37*
X101550000Y-60610000D02*
X99290000Y-60610000D01*
X99247000Y-60559000D01*
X99203000Y-60509000D01*
X99158000Y-60461000D01*
X99112000Y-60414000D01*
X99064000Y-60369000D01*
X99015000Y-60325000D01*
X98965000Y-60283000D01*
X98913000Y-60242000D01*
X98860000Y-60202000D01*
X98807000Y-60164000D01*
X98752000Y-60128000D01*
X98696000Y-60093000D01*
X98639000Y-60060000D01*
X98581000Y-60029000D01*
X98522000Y-59999000D01*
X98462000Y-59971000D01*
X98402000Y-59945000D01*
X98341000Y-59920000D01*
X98279000Y-59897000D01*
X98217000Y-59876000D01*
X98154000Y-59857000D01*
X98090000Y-59840000D01*
X98026000Y-59825000D01*
X97961000Y-59811000D01*
X97897000Y-59800000D01*
X97831000Y-59790000D01*
X97766000Y-59782000D01*
X97700000Y-59776000D01*
X97635000Y-59772000D01*
X97570000Y-59770000D01*
X97518000Y-59771000D01*
X97451000Y-59774000D01*
X97384000Y-59779000D01*
X97317000Y-59786000D01*
X97250000Y-59794000D01*
X97183000Y-59805000D01*
X97117000Y-59818000D01*
X97051000Y-59832000D01*
X96986000Y-59849000D01*
X96921000Y-59867000D01*
X96857000Y-59888000D01*
X96793000Y-59910000D01*
X96730000Y-59934000D01*
X96668000Y-59960000D01*
X96606000Y-59987000D01*
X96545000Y-60017000D01*
X96486000Y-60048000D01*
X96427000Y-60080000D01*
X96369000Y-60115000D01*
X96312000Y-60151000D01*
X96256000Y-60189000D01*
X96202000Y-60229000D01*
X96148000Y-60270000D01*
X96096000Y-60312000D01*
X96045000Y-60356000D01*
X95995000Y-60402000D01*
X95947000Y-60449000D01*
X95900000Y-60497000D01*
X95854000Y-60547000D01*
X95800000Y-60610000D01*
X93590000Y-60610000D01*
X93590000Y-57970000D01*
X101550000Y-57970000D01*
X101550000Y-60610000D01*
G36*
X101550000Y-60610000D02*
G01*
X99290000Y-60610000D01*
X99247000Y-60559000D01*
X99203000Y-60509000D01*
X99158000Y-60461000D01*
X99112000Y-60414000D01*
X99064000Y-60369000D01*
X99015000Y-60325000D01*
X98965000Y-60283000D01*
X98913000Y-60242000D01*
X98860000Y-60202000D01*
X98807000Y-60164000D01*
X98752000Y-60128000D01*
X98696000Y-60093000D01*
X98639000Y-60060000D01*
X98581000Y-60029000D01*
X98522000Y-59999000D01*
X98462000Y-59971000D01*
X98402000Y-59945000D01*
X98341000Y-59920000D01*
X98279000Y-59897000D01*
X98217000Y-59876000D01*
X98154000Y-59857000D01*
X98090000Y-59840000D01*
X98026000Y-59825000D01*
X97961000Y-59811000D01*
X97897000Y-59800000D01*
X97831000Y-59790000D01*
X97766000Y-59782000D01*
X97700000Y-59776000D01*
X97635000Y-59772000D01*
X97570000Y-59770000D01*
X97518000Y-59771000D01*
X97451000Y-59774000D01*
X97384000Y-59779000D01*
X97317000Y-59786000D01*
X97250000Y-59794000D01*
X97183000Y-59805000D01*
X97117000Y-59818000D01*
X97051000Y-59832000D01*
X96986000Y-59849000D01*
X96921000Y-59867000D01*
X96857000Y-59888000D01*
X96793000Y-59910000D01*
X96730000Y-59934000D01*
X96668000Y-59960000D01*
X96606000Y-59987000D01*
X96545000Y-60017000D01*
X96486000Y-60048000D01*
X96427000Y-60080000D01*
X96369000Y-60115000D01*
X96312000Y-60151000D01*
X96256000Y-60189000D01*
X96202000Y-60229000D01*
X96148000Y-60270000D01*
X96096000Y-60312000D01*
X96045000Y-60356000D01*
X95995000Y-60402000D01*
X95947000Y-60449000D01*
X95900000Y-60497000D01*
X95854000Y-60547000D01*
X95800000Y-60610000D01*
X93590000Y-60610000D01*
X93590000Y-57970000D01*
X101550000Y-57970000D01*
X101550000Y-60610000D01*
G37*
%TO.C,U7*%
X175380000Y-67880000D02*
X172740000Y-67880000D01*
X172740000Y-65670000D01*
X172785000Y-65631000D01*
X172836000Y-65584000D01*
X172885000Y-65536000D01*
X172933000Y-65487000D01*
X172980000Y-65436000D01*
X173025000Y-65384000D01*
X173069000Y-65330000D01*
X173111000Y-65275000D01*
X173151000Y-65220000D01*
X173190000Y-65162000D01*
X173227000Y-65104000D01*
X173262000Y-65045000D01*
X173296000Y-64985000D01*
X173328000Y-64924000D01*
X173358000Y-64862000D01*
X173386000Y-64799000D01*
X173412000Y-64735000D01*
X173437000Y-64670000D01*
X173460000Y-64605000D01*
X173480000Y-64539000D01*
X173499000Y-64473000D01*
X173516000Y-64406000D01*
X173531000Y-64339000D01*
X173544000Y-64271000D01*
X173555000Y-64203000D01*
X173564000Y-64135000D01*
X173571000Y-64066000D01*
X173576000Y-63997000D01*
X173579000Y-63928000D01*
X173580000Y-63850000D01*
X173576000Y-63774000D01*
X173571000Y-63710000D01*
X173564000Y-63646000D01*
X173556000Y-63582000D01*
X173545000Y-63519000D01*
X173533000Y-63456000D01*
X173518000Y-63393000D01*
X173502000Y-63331000D01*
X173484000Y-63269000D01*
X173465000Y-63208000D01*
X173443000Y-63147000D01*
X173420000Y-63087000D01*
X173395000Y-63028000D01*
X173368000Y-62969000D01*
X173340000Y-62912000D01*
X173310000Y-62855000D01*
X173278000Y-62799000D01*
X173245000Y-62744000D01*
X173210000Y-62690000D01*
X173174000Y-62637000D01*
X173136000Y-62585000D01*
X173096000Y-62534000D01*
X173055000Y-62484000D01*
X173013000Y-62436000D01*
X172969000Y-62389000D01*
X172924000Y-62343000D01*
X172878000Y-62298000D01*
X172830000Y-62255000D01*
X172781000Y-62213000D01*
X172740000Y-62180000D01*
X172740000Y-59920000D01*
X175380000Y-59920000D01*
X175380000Y-67880000D01*
G36*
X175380000Y-67880000D02*
G01*
X172740000Y-67880000D01*
X172740000Y-65670000D01*
X172785000Y-65631000D01*
X172836000Y-65584000D01*
X172885000Y-65536000D01*
X172933000Y-65487000D01*
X172980000Y-65436000D01*
X173025000Y-65384000D01*
X173069000Y-65330000D01*
X173111000Y-65275000D01*
X173151000Y-65220000D01*
X173190000Y-65162000D01*
X173227000Y-65104000D01*
X173262000Y-65045000D01*
X173296000Y-64985000D01*
X173328000Y-64924000D01*
X173358000Y-64862000D01*
X173386000Y-64799000D01*
X173412000Y-64735000D01*
X173437000Y-64670000D01*
X173460000Y-64605000D01*
X173480000Y-64539000D01*
X173499000Y-64473000D01*
X173516000Y-64406000D01*
X173531000Y-64339000D01*
X173544000Y-64271000D01*
X173555000Y-64203000D01*
X173564000Y-64135000D01*
X173571000Y-64066000D01*
X173576000Y-63997000D01*
X173579000Y-63928000D01*
X173580000Y-63850000D01*
X173576000Y-63774000D01*
X173571000Y-63710000D01*
X173564000Y-63646000D01*
X173556000Y-63582000D01*
X173545000Y-63519000D01*
X173533000Y-63456000D01*
X173518000Y-63393000D01*
X173502000Y-63331000D01*
X173484000Y-63269000D01*
X173465000Y-63208000D01*
X173443000Y-63147000D01*
X173420000Y-63087000D01*
X173395000Y-63028000D01*
X173368000Y-62969000D01*
X173340000Y-62912000D01*
X173310000Y-62855000D01*
X173278000Y-62799000D01*
X173245000Y-62744000D01*
X173210000Y-62690000D01*
X173174000Y-62637000D01*
X173136000Y-62585000D01*
X173096000Y-62534000D01*
X173055000Y-62484000D01*
X173013000Y-62436000D01*
X172969000Y-62389000D01*
X172924000Y-62343000D01*
X172878000Y-62298000D01*
X172830000Y-62255000D01*
X172781000Y-62213000D01*
X172740000Y-62180000D01*
X172740000Y-59920000D01*
X175380000Y-59920000D01*
X175380000Y-67880000D01*
G37*
X170060000Y-62180000D02*
X170009000Y-62223000D01*
X169959000Y-62267000D01*
X169911000Y-62312000D01*
X169864000Y-62358000D01*
X169819000Y-62406000D01*
X169775000Y-62455000D01*
X169733000Y-62505000D01*
X169692000Y-62557000D01*
X169652000Y-62610000D01*
X169614000Y-62663000D01*
X169578000Y-62718000D01*
X169543000Y-62774000D01*
X169510000Y-62831000D01*
X169479000Y-62889000D01*
X169449000Y-62948000D01*
X169421000Y-63008000D01*
X169395000Y-63068000D01*
X169370000Y-63129000D01*
X169347000Y-63191000D01*
X169326000Y-63253000D01*
X169307000Y-63316000D01*
X169290000Y-63380000D01*
X169275000Y-63444000D01*
X169261000Y-63509000D01*
X169250000Y-63573000D01*
X169240000Y-63639000D01*
X169232000Y-63704000D01*
X169226000Y-63770000D01*
X169222000Y-63835000D01*
X169220000Y-63900000D01*
X169221000Y-63952000D01*
X169224000Y-64019000D01*
X169229000Y-64086000D01*
X169236000Y-64153000D01*
X169244000Y-64220000D01*
X169255000Y-64287000D01*
X169268000Y-64353000D01*
X169282000Y-64419000D01*
X169299000Y-64484000D01*
X169317000Y-64549000D01*
X169338000Y-64613000D01*
X169360000Y-64677000D01*
X169384000Y-64740000D01*
X169410000Y-64802000D01*
X169437000Y-64864000D01*
X169467000Y-64925000D01*
X169498000Y-64984000D01*
X169530000Y-65043000D01*
X169565000Y-65101000D01*
X169601000Y-65158000D01*
X169639000Y-65214000D01*
X169679000Y-65268000D01*
X169720000Y-65322000D01*
X169762000Y-65374000D01*
X169806000Y-65425000D01*
X169852000Y-65475000D01*
X169899000Y-65523000D01*
X169947000Y-65570000D01*
X169997000Y-65616000D01*
X170060000Y-65670000D01*
X170060000Y-67880000D01*
X167420000Y-67880000D01*
X167420000Y-59920000D01*
X170060000Y-59920000D01*
X170060000Y-62180000D01*
G36*
X170060000Y-62180000D02*
G01*
X170009000Y-62223000D01*
X169959000Y-62267000D01*
X169911000Y-62312000D01*
X169864000Y-62358000D01*
X169819000Y-62406000D01*
X169775000Y-62455000D01*
X169733000Y-62505000D01*
X169692000Y-62557000D01*
X169652000Y-62610000D01*
X169614000Y-62663000D01*
X169578000Y-62718000D01*
X169543000Y-62774000D01*
X169510000Y-62831000D01*
X169479000Y-62889000D01*
X169449000Y-62948000D01*
X169421000Y-63008000D01*
X169395000Y-63068000D01*
X169370000Y-63129000D01*
X169347000Y-63191000D01*
X169326000Y-63253000D01*
X169307000Y-63316000D01*
X169290000Y-63380000D01*
X169275000Y-63444000D01*
X169261000Y-63509000D01*
X169250000Y-63573000D01*
X169240000Y-63639000D01*
X169232000Y-63704000D01*
X169226000Y-63770000D01*
X169222000Y-63835000D01*
X169220000Y-63900000D01*
X169221000Y-63952000D01*
X169224000Y-64019000D01*
X169229000Y-64086000D01*
X169236000Y-64153000D01*
X169244000Y-64220000D01*
X169255000Y-64287000D01*
X169268000Y-64353000D01*
X169282000Y-64419000D01*
X169299000Y-64484000D01*
X169317000Y-64549000D01*
X169338000Y-64613000D01*
X169360000Y-64677000D01*
X169384000Y-64740000D01*
X169410000Y-64802000D01*
X169437000Y-64864000D01*
X169467000Y-64925000D01*
X169498000Y-64984000D01*
X169530000Y-65043000D01*
X169565000Y-65101000D01*
X169601000Y-65158000D01*
X169639000Y-65214000D01*
X169679000Y-65268000D01*
X169720000Y-65322000D01*
X169762000Y-65374000D01*
X169806000Y-65425000D01*
X169852000Y-65475000D01*
X169899000Y-65523000D01*
X169947000Y-65570000D01*
X169997000Y-65616000D01*
X170060000Y-65670000D01*
X170060000Y-67880000D01*
X167420000Y-67880000D01*
X167420000Y-59920000D01*
X170060000Y-59920000D01*
X170060000Y-62180000D01*
G37*
%TD*%
D11*
%TO.C,U1*%
X160250000Y-131300000D03*
X160250000Y-133600000D03*
D12*
X166550000Y-133600000D03*
D11*
X160250000Y-135900000D03*
%TD*%
D13*
%TO.C,R18*%
X118812500Y-110012500D03*
X116987500Y-110012500D03*
%TD*%
D14*
%TO.C,C6*%
X104850000Y-124175000D03*
X104850000Y-125900000D03*
%TD*%
D15*
%TO.C,C14*%
X171739114Y-127204999D03*
X171739114Y-125479999D03*
%TD*%
D16*
%TO.C,U8*%
X97570000Y-61950000D03*
%TD*%
D17*
%TO.C,L2*%
X171410000Y-75665000D03*
X171410000Y-73915000D03*
%TD*%
D15*
%TO.C,C15*%
X174858669Y-127157499D03*
X174858669Y-125432499D03*
%TD*%
D18*
%TO.C,U2*%
X131175000Y-129025000D03*
X131175000Y-130725000D03*
X131175000Y-132425000D03*
D19*
X140325000Y-132425000D03*
D18*
X131175000Y-134125000D03*
X131175000Y-135825000D03*
%TD*%
D20*
%TO.C,R13*%
X159619284Y-125400000D03*
X161444284Y-125400000D03*
%TD*%
D21*
%TO.C,C2*%
X171866053Y-135003554D03*
X174741053Y-135003554D03*
%TD*%
D22*
%TO.C,D3*%
X114700000Y-124900000D03*
X111400000Y-124900000D03*
%TD*%
D23*
%TO.C,C23*%
X118762500Y-113362500D03*
X117037500Y-113362500D03*
%TD*%
D24*
%TO.C,J11*%
X143095921Y-117576257D03*
D25*
X145095921Y-117576257D03*
X147095921Y-117576257D03*
X149095921Y-117576257D03*
X151095921Y-117576257D03*
X153095921Y-117576257D03*
X155095921Y-117576257D03*
X157095921Y-117576257D03*
X159095921Y-117576257D03*
X161095921Y-117576257D03*
X163095921Y-117576257D03*
X165095921Y-117576257D03*
X167095921Y-117576257D03*
%TD*%
D26*
%TO.C,R17*%
X119700000Y-93525000D03*
X119700000Y-91700000D03*
%TD*%
D27*
%TO.C,Y1*%
X137474400Y-105300000D03*
X137474400Y-96800000D03*
%TD*%
D28*
%TO.C,R4*%
X107950000Y-124125000D03*
X107950000Y-125950000D03*
%TD*%
D26*
%TO.C,R8*%
X97547556Y-85100000D03*
X97547556Y-83275000D03*
%TD*%
D15*
%TO.C,C4*%
X150700000Y-131925000D03*
X150700000Y-130200000D03*
%TD*%
D24*
%TO.C,J5*%
X152102000Y-59461101D03*
D25*
X154102000Y-59461101D03*
X156102000Y-59461101D03*
X158102000Y-59461101D03*
X160102000Y-59461101D03*
X162102000Y-59461101D03*
%TD*%
D29*
%TO.C,C9*%
X117820000Y-136000000D03*
X117820000Y-129500000D03*
%TD*%
D30*
%TO.C,C22*%
X132937500Y-92971400D03*
X134662500Y-92971400D03*
%TD*%
D23*
%TO.C,C11*%
X126775001Y-130800000D03*
X125050001Y-130800000D03*
%TD*%
D31*
%TO.C,C10*%
X106049998Y-129785000D03*
X106049998Y-136285000D03*
%TD*%
D32*
%TO.C,J3*%
X132760000Y-112160000D03*
D33*
X135300000Y-112160000D03*
X132760000Y-114700000D03*
X135300000Y-114700000D03*
X132760000Y-117240000D03*
X135300000Y-117240000D03*
%TD*%
D28*
%TO.C,R7*%
X100497556Y-83275000D03*
X100497556Y-85100000D03*
%TD*%
D34*
%TO.C,U6*%
X150787500Y-136800000D03*
X151437500Y-136800000D03*
X152087500Y-136800000D03*
X152737500Y-136800000D03*
X153387500Y-136800000D03*
D35*
X148587500Y-139500000D03*
D36*
X149187500Y-139500000D03*
D37*
X149587500Y-136800000D03*
D38*
X151087500Y-139500000D03*
X153087500Y-139500000D03*
D37*
X154587500Y-136800000D03*
D36*
X154987500Y-139500000D03*
D35*
X155587500Y-139500000D03*
%TD*%
D26*
%TO.C,R15*%
X116297556Y-93525000D03*
X116297556Y-91700000D03*
%TD*%
D39*
%TO.C,J6*%
X145301500Y-59511101D03*
D40*
X144031500Y-59511101D03*
X142761500Y-59511101D03*
X141491500Y-59511101D03*
X140221500Y-59511101D03*
X138951500Y-59511101D03*
X137681500Y-59511101D03*
X136411500Y-59511101D03*
%TD*%
D41*
%TO.C,J1*%
X94712500Y-101037500D03*
X94712500Y-109537500D03*
D42*
X107015000Y-106287500D03*
X107015000Y-103747500D03*
X107015000Y-101207500D03*
D43*
X105462500Y-99442500D03*
D44*
X93460000Y-99442500D03*
D42*
X107015000Y-107557500D03*
D45*
X105462500Y-112592500D03*
X93462500Y-112592500D03*
D42*
X107015000Y-105017500D03*
X107015000Y-102477500D03*
D46*
X107015000Y-108647500D03*
%TD*%
D26*
%TO.C,R10*%
X138435600Y-118200099D03*
X138435600Y-116375099D03*
%TD*%
%TO.C,R22*%
X108950000Y-65342500D03*
X108950000Y-63517500D03*
%TD*%
%TO.C,R16*%
X123102448Y-93525000D03*
X123102448Y-91700000D03*
%TD*%
D14*
%TO.C,C8*%
X98650000Y-124175000D03*
X98650000Y-125900000D03*
%TD*%
D21*
%TO.C,C5*%
X118262500Y-124850000D03*
X121137500Y-124850000D03*
%TD*%
D20*
%TO.C,R12*%
X167947500Y-75710000D03*
X169772500Y-75710000D03*
%TD*%
D47*
%TO.C,D2*%
X156612142Y-125440000D03*
X154862142Y-125440000D03*
%TD*%
D15*
%TO.C,C16*%
X177978223Y-127137499D03*
X177978223Y-125412499D03*
%TD*%
%TO.C,C21*%
X165500000Y-127225000D03*
X165500000Y-125500000D03*
%TD*%
D13*
%TO.C,R19*%
X118812500Y-106662500D03*
X116987500Y-106662500D03*
%TD*%
D48*
%TO.C,L3*%
X107205000Y-61930000D03*
X108955000Y-61930000D03*
%TD*%
D24*
%TO.C,J10*%
X167095922Y-91719059D03*
D25*
X165095922Y-91719059D03*
X163095922Y-91719059D03*
X161095922Y-91719059D03*
X159095922Y-91719059D03*
X157095922Y-91719059D03*
X155095922Y-91719059D03*
X153095922Y-91719059D03*
X151095922Y-91719059D03*
X149095922Y-91719059D03*
X147095922Y-91719059D03*
X145095922Y-91719059D03*
X143095922Y-91719059D03*
%TD*%
D23*
%TO.C,C17*%
X143262500Y-97600000D03*
X141537500Y-97600000D03*
%TD*%
D30*
%TO.C,C3*%
X172403552Y-131603554D03*
X174128552Y-131603554D03*
%TD*%
D20*
%TO.C,R1*%
X150075000Y-125400000D03*
X151900000Y-125400000D03*
%TD*%
D28*
%TO.C,R5*%
X106010224Y-91700000D03*
X106010224Y-93525000D03*
%TD*%
D26*
%TO.C,R11*%
X138435600Y-113831299D03*
X138435600Y-112006299D03*
%TD*%
D49*
%TO.C,Q1*%
X100297554Y-89387500D03*
X100297554Y-87487500D03*
X97677554Y-88437500D03*
%TD*%
D26*
%TO.C,R21*%
X148325000Y-60400000D03*
X148325000Y-58575000D03*
%TD*%
D48*
%TO.C,D4*%
X98607557Y-93500000D03*
X100357557Y-93500000D03*
%TD*%
D50*
%TO.C,U4*%
X107847556Y-86550000D03*
X108947556Y-86550000D03*
X110047556Y-86550000D03*
X111147556Y-86550000D03*
X112247556Y-86550000D03*
X113347556Y-86550000D03*
X114447556Y-86550000D03*
X115547556Y-86550000D03*
X116647556Y-86550000D03*
X117747556Y-86550000D03*
X118847556Y-86550000D03*
X119947556Y-86550000D03*
D51*
X122697556Y-83100000D03*
X122697556Y-82000000D03*
X122697556Y-80900000D03*
X122697556Y-79800000D03*
X122697556Y-78700000D03*
X122697556Y-77600000D03*
X122697556Y-76500000D03*
X122697556Y-75400000D03*
X122697556Y-74300000D03*
D50*
X119947556Y-70850000D03*
X118847556Y-70850000D03*
X117747556Y-70850000D03*
X116647556Y-70850000D03*
X115547556Y-70850000D03*
X114447556Y-70850000D03*
X113347556Y-70850000D03*
X112247556Y-70850000D03*
X111147556Y-70850000D03*
X110047556Y-70850000D03*
X108947556Y-70850000D03*
X107847556Y-70850000D03*
D51*
X105097556Y-74300000D03*
X105097556Y-75400000D03*
X105097556Y-76500000D03*
X105097556Y-77600000D03*
X105097556Y-78700000D03*
X105097556Y-79800000D03*
X105097556Y-80900000D03*
X105097556Y-82000000D03*
X105097556Y-83100000D03*
%TD*%
D20*
%TO.C,R2*%
X125000001Y-134000000D03*
X126825001Y-134000000D03*
%TD*%
D52*
%TO.C,SW1*%
X140225000Y-91000000D03*
X136825000Y-91000000D03*
%TD*%
D15*
%TO.C,C19*%
X145839500Y-87475000D03*
X145839500Y-85750000D03*
%TD*%
%TO.C,C20*%
X148760499Y-87475000D03*
X148760499Y-85750000D03*
%TD*%
D28*
%TO.C,R6*%
X109412668Y-91700000D03*
X109412668Y-93525000D03*
%TD*%
D53*
%TO.C,L1*%
X151681499Y-85995001D03*
X151681499Y-87570001D03*
%TD*%
D16*
%TO.C,U7*%
X171400000Y-63900000D03*
%TD*%
D15*
%TO.C,C26*%
X108960000Y-68700000D03*
X108960000Y-66975000D03*
%TD*%
D30*
%TO.C,C25*%
X164527500Y-75710000D03*
X166252500Y-75710000D03*
%TD*%
D14*
%TO.C,C7*%
X101750000Y-124175000D03*
X101750000Y-125900000D03*
%TD*%
D15*
%TO.C,C13*%
X168619558Y-127224999D03*
X168619558Y-125499999D03*
%TD*%
D54*
%TO.C,C1*%
X155900000Y-132837500D03*
X155900000Y-129962500D03*
%TD*%
D28*
%TO.C,R9*%
X141400000Y-100197199D03*
X141400000Y-102022199D03*
%TD*%
D20*
%TO.C,R20*%
X116987500Y-99962500D03*
X118812500Y-99962500D03*
%TD*%
D30*
%TO.C,C24*%
X117037500Y-103312500D03*
X118762500Y-103312500D03*
%TD*%
D17*
%TO.C,D5*%
X112855112Y-93465000D03*
X112855112Y-91715000D03*
%TD*%
D24*
%TO.C,J2*%
X173208946Y-108411371D03*
D25*
X173208946Y-106411371D03*
X173208946Y-104411371D03*
X173208946Y-102411371D03*
%TD*%
D15*
%TO.C,C18*%
X141400000Y-106897899D03*
X141400000Y-105172899D03*
%TD*%
D55*
%TO.C,U5*%
X137035000Y-83340000D03*
X138305000Y-83340000D03*
X139575000Y-83340000D03*
X140845000Y-83340000D03*
X142115000Y-83340000D03*
X143385000Y-83340000D03*
X144655000Y-83340000D03*
X145925000Y-83340000D03*
X147195000Y-83340000D03*
X148465000Y-83340000D03*
X149735000Y-83340000D03*
X151005000Y-83340000D03*
X152275000Y-83340000D03*
X153545000Y-83340000D03*
X154815000Y-83340000D03*
X156085000Y-83340000D03*
X157355000Y-83340000D03*
X158625000Y-83340000D03*
X159895000Y-83340000D03*
X161165000Y-83340000D03*
D56*
X162435000Y-78260000D03*
X162435000Y-76990000D03*
X162435000Y-75720000D03*
X162435000Y-74450000D03*
X162435000Y-73180000D03*
X162435000Y-71910000D03*
X162435000Y-70640000D03*
D57*
X161165000Y-65560000D03*
X159895000Y-65560000D03*
X158625000Y-65560000D03*
X157355000Y-65560000D03*
X156085000Y-65560000D03*
X154815000Y-65560000D03*
X153545000Y-65560000D03*
X152275000Y-65560000D03*
X151005000Y-65560000D03*
X149735000Y-65560000D03*
X148465000Y-65560000D03*
X147195000Y-65560000D03*
X145925000Y-65560000D03*
X144655000Y-65560000D03*
X143385000Y-65560000D03*
X142115000Y-65560000D03*
X140845000Y-65560000D03*
X139575000Y-65560000D03*
X138305000Y-65560000D03*
X137035000Y-65560000D03*
%TD*%
D20*
%TO.C,R14*%
X132887500Y-90025000D03*
X134712500Y-90025000D03*
%TD*%
D58*
%TO.C,U3*%
X151789088Y-99713336D03*
X151435534Y-100066890D03*
X151081981Y-100420443D03*
X150728427Y-100773997D03*
X150374874Y-101127550D03*
X150021321Y-101481103D03*
X149667767Y-101834657D03*
X149314214Y-102188210D03*
X148960661Y-102541763D03*
X148607107Y-102895317D03*
X148253554Y-103248870D03*
X147900000Y-103602424D03*
D59*
X147900000Y-105600000D03*
X148253554Y-105953554D03*
X148607107Y-106307107D03*
X148960661Y-106660661D03*
X149314214Y-107014214D03*
X149667767Y-107367767D03*
X150021321Y-107721321D03*
X150374874Y-108074874D03*
X150728427Y-108428427D03*
X151081981Y-108781981D03*
X151435534Y-109135534D03*
X151789088Y-109489088D03*
D58*
X153786664Y-109489088D03*
X154140218Y-109135534D03*
X154493771Y-108781981D03*
X154847325Y-108428427D03*
X155200878Y-108074874D03*
X155554431Y-107721321D03*
X155907985Y-107367767D03*
X156261538Y-107014214D03*
X156615091Y-106660661D03*
X156968645Y-106307107D03*
X157322198Y-105953554D03*
X157675752Y-105600000D03*
D59*
X157675752Y-103602424D03*
X157322198Y-103248870D03*
X156968645Y-102895317D03*
X156615091Y-102541763D03*
X156261538Y-102188210D03*
X155907985Y-101834657D03*
X155554431Y-101481103D03*
X155200878Y-101127550D03*
X154847325Y-100773997D03*
X154493771Y-100420443D03*
X154140218Y-100066890D03*
X153786664Y-99713336D03*
%TD*%
D13*
%TO.C,R3*%
X126825001Y-137200000D03*
X125000001Y-137200000D03*
%TD*%
D30*
%TO.C,C12*%
X125050001Y-127600000D03*
X126775001Y-127600000D03*
%TD*%
D60*
%TO.C,D1*%
X111550000Y-116437500D03*
X112500000Y-116437500D03*
X113450000Y-116437500D03*
X113450000Y-114162500D03*
X112500000Y-114162500D03*
X111550000Y-114162500D03*
%TD*%
M02*
