%TF.GenerationSoftware,KiCad,Pcbnew,7.0.5*%
%TF.CreationDate,2024-05-26T12:31:29+03:00*%
%TF.ProjectId,LoRa_MuPr-VAF4751,4c6f5261-5f4d-4755-9072-2d5641463437,rev?*%
%TF.SameCoordinates,Original*%
%TF.FileFunction,Legend,Bot*%
%TF.FilePolarity,Positive*%
%FSLAX46Y46*%
G04 Gerber Fmt 4.6, Leading zero omitted, Abs format (unit mm)*
G04 Created by KiCad (PCBNEW 7.0.5) date 2024-05-26 12:31:29*
%MOMM*%
%LPD*%
G01*
G04 APERTURE LIST*
%ADD10C,0.150000*%
%ADD11C,0.300000*%
%ADD12C,0.800000*%
G04 APERTURE END LIST*
D10*
X156000000Y-133000000D02*
X174000000Y-133000000D01*
D11*
X155000000Y-120250000D02*
X155000000Y-134000000D01*
D10*
X174000000Y-133000000D02*
X174000000Y-121250000D01*
X156000000Y-121250000D02*
X174000000Y-121250000D01*
D11*
X175000000Y-120250000D02*
X155000000Y-120250000D01*
X155000000Y-134000000D02*
X175000000Y-134000000D01*
D10*
X156000000Y-121250000D02*
X156000000Y-133000000D01*
D11*
X175000000Y-134000000D02*
X175000000Y-120250000D01*
G36*
X172974438Y-121871566D02*
G01*
X172974438Y-123163513D01*
X172719448Y-123163513D01*
X172719448Y-123503500D01*
X173416420Y-123503500D01*
X173416420Y-121871566D01*
X172974438Y-121871566D01*
G37*
G36*
X172229076Y-122143806D02*
G01*
X172248941Y-122144557D01*
X172268354Y-122145809D01*
X172287316Y-122147562D01*
X172305828Y-122149815D01*
X172323888Y-122152570D01*
X172341497Y-122155825D01*
X172358656Y-122159581D01*
X172375363Y-122163837D01*
X172391620Y-122168595D01*
X172407425Y-122173853D01*
X172422779Y-122179612D01*
X172437683Y-122185872D01*
X172452135Y-122192633D01*
X172466137Y-122199895D01*
X172479687Y-122207657D01*
X172492756Y-122215833D01*
X172505313Y-122224335D01*
X172517359Y-122233164D01*
X172528892Y-122242320D01*
X172539914Y-122251801D01*
X172550424Y-122261610D01*
X172560421Y-122271745D01*
X172574459Y-122287559D01*
X172587344Y-122304108D01*
X172599078Y-122321392D01*
X172609660Y-122339410D01*
X172619090Y-122358163D01*
X172627369Y-122377650D01*
X172632301Y-122391152D01*
X172636914Y-122405274D01*
X172641210Y-122420015D01*
X172645187Y-122435377D01*
X172648846Y-122451358D01*
X172652187Y-122467959D01*
X172655210Y-122485179D01*
X172657914Y-122503020D01*
X172660301Y-122521480D01*
X172662369Y-122540560D01*
X172664119Y-122560260D01*
X172665551Y-122580579D01*
X172666664Y-122601518D01*
X172667460Y-122623077D01*
X172667937Y-122645256D01*
X172668096Y-122668055D01*
X172668096Y-123004499D01*
X172668009Y-123025247D01*
X172667748Y-123045348D01*
X172667312Y-123064802D01*
X172666702Y-123083608D01*
X172665917Y-123101766D01*
X172664959Y-123119278D01*
X172663826Y-123136141D01*
X172662518Y-123152358D01*
X172661037Y-123167927D01*
X172659381Y-123182848D01*
X172656570Y-123204016D01*
X172653367Y-123223728D01*
X172649772Y-123241982D01*
X172645785Y-123258780D01*
X172642832Y-123269355D01*
X172637958Y-123284865D01*
X172632548Y-123299951D01*
X172626603Y-123314613D01*
X172620122Y-123328853D01*
X172613106Y-123342669D01*
X172605555Y-123356062D01*
X172597468Y-123369031D01*
X172588846Y-123381577D01*
X172579689Y-123393700D01*
X172569996Y-123405399D01*
X172563192Y-123412893D01*
X172552375Y-123423683D01*
X172540823Y-123433931D01*
X172528536Y-123443637D01*
X172515515Y-123452802D01*
X172501759Y-123461425D01*
X172487268Y-123469506D01*
X172472043Y-123477046D01*
X172456084Y-123484045D01*
X172439389Y-123490501D01*
X172421960Y-123496416D01*
X172409939Y-123500019D01*
X172391315Y-123504987D01*
X172371981Y-123509432D01*
X172351937Y-123513354D01*
X172331184Y-123516753D01*
X172316954Y-123518728D01*
X172302409Y-123520471D01*
X172287549Y-123521982D01*
X172272373Y-123523260D01*
X172256881Y-123524306D01*
X172241074Y-123525119D01*
X172224952Y-123525700D01*
X172208515Y-123526049D01*
X172191762Y-123526165D01*
X172184174Y-123526131D01*
X172169162Y-123525857D01*
X172154365Y-123525309D01*
X172139783Y-123524488D01*
X172125418Y-123523392D01*
X172111269Y-123522022D01*
X172090449Y-123519454D01*
X172070115Y-123516270D01*
X172050267Y-123512470D01*
X172030904Y-123508053D01*
X172012027Y-123503019D01*
X171993635Y-123497370D01*
X171975729Y-123491104D01*
X171964042Y-123486569D01*
X171947009Y-123479197D01*
X171930574Y-123471139D01*
X171914737Y-123462396D01*
X171899497Y-123452969D01*
X171884856Y-123442857D01*
X171870811Y-123432060D01*
X171857364Y-123420579D01*
X171844515Y-123408412D01*
X171832264Y-123395561D01*
X171820610Y-123382025D01*
X171813163Y-123372733D01*
X171802621Y-123358644D01*
X171792831Y-123344375D01*
X171783795Y-123329924D01*
X171775512Y-123315294D01*
X171767983Y-123300483D01*
X171761207Y-123285491D01*
X171755184Y-123270319D01*
X171749914Y-123254966D01*
X171745397Y-123239433D01*
X171741634Y-123223719D01*
X171740501Y-123218338D01*
X171737318Y-123201098D01*
X171734458Y-123182214D01*
X171731923Y-123161687D01*
X171730719Y-123150056D01*
X172148201Y-123150056D01*
X172148238Y-123160261D01*
X172148434Y-123174661D01*
X172148957Y-123192167D01*
X172149779Y-123207736D01*
X172151226Y-123224473D01*
X172153580Y-123240564D01*
X172157763Y-123255239D01*
X172158379Y-123256568D01*
X172167574Y-123268403D01*
X172181205Y-123275133D01*
X172195657Y-123276842D01*
X172197345Y-123276819D01*
X172212396Y-123274038D01*
X172225118Y-123265627D01*
X172233197Y-123253114D01*
X172235521Y-123246031D01*
X172238427Y-123231422D01*
X172240315Y-123215596D01*
X172241477Y-123200544D01*
X172242329Y-123183368D01*
X172242765Y-123169091D01*
X172243026Y-123153619D01*
X172243114Y-123136952D01*
X172243114Y-122536664D01*
X172243075Y-122524528D01*
X172242872Y-122507459D01*
X172242494Y-122491753D01*
X172241942Y-122477411D01*
X172240935Y-122460409D01*
X172239618Y-122445831D01*
X172237536Y-122431016D01*
X172233197Y-122415190D01*
X172232538Y-122413817D01*
X172222955Y-122401594D01*
X172209103Y-122394643D01*
X172194595Y-122392878D01*
X172192843Y-122392900D01*
X172178789Y-122395023D01*
X172165797Y-122402335D01*
X172157409Y-122414836D01*
X172155251Y-122421543D01*
X172152553Y-122436168D01*
X172150800Y-122452541D01*
X172149720Y-122468378D01*
X172148929Y-122486650D01*
X172148525Y-122501952D01*
X172148282Y-122518623D01*
X172148201Y-122536664D01*
X172148201Y-123150056D01*
X171730719Y-123150056D01*
X171730412Y-123147090D01*
X171729045Y-123131762D01*
X171727822Y-123115703D01*
X171726743Y-123098914D01*
X171725808Y-123081394D01*
X171725017Y-123063145D01*
X171724369Y-123044164D01*
X171723866Y-123024453D01*
X171723506Y-123004012D01*
X171723290Y-122982841D01*
X171723218Y-122960938D01*
X171723218Y-122639368D01*
X171723238Y-122630650D01*
X171723396Y-122613626D01*
X171723711Y-122597152D01*
X171724184Y-122581229D01*
X171724815Y-122565856D01*
X171725604Y-122551035D01*
X171727082Y-122529834D01*
X171728915Y-122509873D01*
X171731104Y-122491150D01*
X171733647Y-122473666D01*
X171736545Y-122457421D01*
X171739797Y-122442415D01*
X171743405Y-122428648D01*
X171747429Y-122415471D01*
X171753742Y-122398018D01*
X171761141Y-122380698D01*
X171767402Y-122367794D01*
X171774272Y-122354966D01*
X171781753Y-122342213D01*
X171789844Y-122329534D01*
X171798545Y-122316929D01*
X171807856Y-122304400D01*
X171817777Y-122291945D01*
X171824727Y-122283723D01*
X171835817Y-122271770D01*
X171847703Y-122260271D01*
X171860386Y-122249226D01*
X171873866Y-122238635D01*
X171888142Y-122228500D01*
X171903216Y-122218818D01*
X171919087Y-122209591D01*
X171935754Y-122200819D01*
X171953218Y-122192501D01*
X171971479Y-122184637D01*
X171984068Y-122179662D01*
X172003512Y-122172802D01*
X172023628Y-122166664D01*
X172037412Y-122162973D01*
X172051495Y-122159603D01*
X172065877Y-122156554D01*
X172080558Y-122153826D01*
X172095537Y-122151419D01*
X172110816Y-122149332D01*
X172126393Y-122147567D01*
X172142269Y-122146123D01*
X172158444Y-122145000D01*
X172174917Y-122144197D01*
X172191690Y-122143716D01*
X172208761Y-122143555D01*
X172229076Y-122143806D01*
G37*
G36*
X171607411Y-123503500D02*
G01*
X171165429Y-123503500D01*
X171165429Y-122778196D01*
X171148883Y-122778616D01*
X171133953Y-122779878D01*
X171117563Y-122782638D01*
X171101228Y-122787685D01*
X171088529Y-122794624D01*
X171078307Y-122805112D01*
X171075143Y-122811027D01*
X171070560Y-122824745D01*
X171067517Y-122839193D01*
X171065027Y-122856729D01*
X171063522Y-122871908D01*
X171062329Y-122888823D01*
X171061447Y-122907475D01*
X171060876Y-122927864D01*
X171060669Y-122942422D01*
X171060600Y-122957751D01*
X171060600Y-123503500D01*
X170648367Y-123503500D01*
X170648367Y-123068247D01*
X170648409Y-123044312D01*
X170648538Y-123021559D01*
X170648753Y-122999988D01*
X170649053Y-122979598D01*
X170649439Y-122960389D01*
X170649910Y-122942362D01*
X170650468Y-122925516D01*
X170651111Y-122909852D01*
X170651840Y-122895369D01*
X170653095Y-122875860D01*
X170654542Y-122859009D01*
X170656182Y-122844816D01*
X170659345Y-122827069D01*
X170660065Y-122824227D01*
X170664658Y-122809771D01*
X170670911Y-122794899D01*
X170678824Y-122779613D01*
X170686349Y-122767084D01*
X170694938Y-122754291D01*
X170704588Y-122741231D01*
X170715301Y-122727906D01*
X170721215Y-122721265D01*
X170735061Y-122708770D01*
X170747209Y-122700088D01*
X170760871Y-122691999D01*
X170776045Y-122684500D01*
X170792732Y-122677593D01*
X170810932Y-122671278D01*
X170830644Y-122665553D01*
X170844626Y-122662066D01*
X170859281Y-122658841D01*
X170874608Y-122655879D01*
X170890607Y-122653180D01*
X170881734Y-122652961D01*
X170864541Y-122652140D01*
X170848084Y-122650806D01*
X170832363Y-122648961D01*
X170817378Y-122646603D01*
X170803129Y-122643734D01*
X170783135Y-122638470D01*
X170764798Y-122632055D01*
X170748116Y-122624488D01*
X170733090Y-122615770D01*
X170719720Y-122605900D01*
X170708006Y-122594878D01*
X170697948Y-122582704D01*
X170694897Y-122578312D01*
X170686327Y-122563690D01*
X170678629Y-122546903D01*
X170671801Y-122527949D01*
X170667734Y-122514109D01*
X170664054Y-122499307D01*
X170660762Y-122483541D01*
X170657857Y-122466813D01*
X170655339Y-122449122D01*
X170653208Y-122430468D01*
X170651465Y-122410852D01*
X170650110Y-122390272D01*
X170649224Y-122370567D01*
X171060600Y-122370567D01*
X171060695Y-122382941D01*
X171061196Y-122400263D01*
X171062127Y-122416098D01*
X171063487Y-122430444D01*
X171065969Y-122447258D01*
X171070145Y-122464555D01*
X171075514Y-122477720D01*
X171085036Y-122489208D01*
X171089895Y-122492246D01*
X171103387Y-122498172D01*
X171117353Y-122501957D01*
X171133534Y-122504547D01*
X171148712Y-122505792D01*
X171165429Y-122506207D01*
X171165429Y-122166221D01*
X171158431Y-122166304D01*
X171142076Y-122167238D01*
X171127346Y-122169209D01*
X171111816Y-122172944D01*
X171096656Y-122179191D01*
X171084682Y-122187470D01*
X171081766Y-122190284D01*
X171073041Y-122203314D01*
X171067396Y-122218420D01*
X171063986Y-122233787D01*
X171062105Y-122247897D01*
X171060976Y-122263624D01*
X171060600Y-122280966D01*
X171060600Y-122370567D01*
X170649224Y-122370567D01*
X170649141Y-122368730D01*
X170648560Y-122346224D01*
X170648367Y-122322756D01*
X170648635Y-122296988D01*
X170649440Y-122272096D01*
X170650782Y-122248081D01*
X170652661Y-122224944D01*
X170655076Y-122202684D01*
X170658028Y-122181300D01*
X170661517Y-122160794D01*
X170665543Y-122141165D01*
X170670105Y-122122413D01*
X170675205Y-122104538D01*
X170680841Y-122087540D01*
X170687013Y-122071419D01*
X170693723Y-122056175D01*
X170700969Y-122041809D01*
X170708752Y-122028319D01*
X170717072Y-122015706D01*
X170721383Y-122009692D01*
X170730237Y-121998096D01*
X170739400Y-121987079D01*
X170753727Y-121971637D01*
X170768751Y-121957496D01*
X170784472Y-121944656D01*
X170800890Y-121933117D01*
X170818005Y-121922880D01*
X170835818Y-121913943D01*
X170854328Y-121906308D01*
X170873535Y-121899974D01*
X170893440Y-121894941D01*
X170907683Y-121892110D01*
X170923410Y-121889462D01*
X170940620Y-121886997D01*
X170959312Y-121884714D01*
X170979488Y-121882614D01*
X171001146Y-121880697D01*
X171024288Y-121878962D01*
X171048913Y-121877410D01*
X171075020Y-121876040D01*
X171102611Y-121874853D01*
X171116962Y-121874328D01*
X171131685Y-121873849D01*
X171146778Y-121873415D01*
X171162241Y-121873027D01*
X171178076Y-121872685D01*
X171194281Y-121872388D01*
X171210857Y-121872137D01*
X171227804Y-121871932D01*
X171245121Y-121871772D01*
X171262809Y-121871658D01*
X171280868Y-121871589D01*
X171299298Y-121871566D01*
X171607411Y-121871566D01*
X171607411Y-123503500D01*
G37*
G36*
X170100997Y-122143804D02*
G01*
X170121897Y-122144551D01*
X170142300Y-122145796D01*
X170162204Y-122147540D01*
X170181611Y-122149781D01*
X170200519Y-122152520D01*
X170218929Y-122155757D01*
X170236842Y-122159492D01*
X170254256Y-122163725D01*
X170271172Y-122168457D01*
X170287591Y-122173686D01*
X170303511Y-122179413D01*
X170318933Y-122185639D01*
X170333857Y-122192362D01*
X170348284Y-122199583D01*
X170362212Y-122207303D01*
X170375607Y-122215349D01*
X170388436Y-122223549D01*
X170400697Y-122231905D01*
X170412391Y-122240416D01*
X170428868Y-122253473D01*
X170444069Y-122266878D01*
X170457994Y-122280632D01*
X170470643Y-122294734D01*
X170482016Y-122309185D01*
X170492112Y-122323985D01*
X170500932Y-122339133D01*
X170508476Y-122354630D01*
X170512894Y-122365343D01*
X170518985Y-122382409D01*
X170524435Y-122400670D01*
X170529245Y-122420126D01*
X170533412Y-122440778D01*
X170535835Y-122455209D01*
X170537972Y-122470172D01*
X170539824Y-122485666D01*
X170541392Y-122501692D01*
X170542674Y-122518248D01*
X170543672Y-122535336D01*
X170544384Y-122552955D01*
X170544812Y-122571105D01*
X170544954Y-122589787D01*
X170544954Y-122687533D01*
X170144762Y-122687533D01*
X170144762Y-122540914D01*
X170144730Y-122528051D01*
X170144563Y-122509991D01*
X170144253Y-122493413D01*
X170143800Y-122478317D01*
X170142972Y-122460493D01*
X170141891Y-122445303D01*
X170140180Y-122430020D01*
X170136617Y-122414128D01*
X170134868Y-122410330D01*
X170124677Y-122399602D01*
X170110255Y-122394206D01*
X170095181Y-122392878D01*
X170088253Y-122393288D01*
X170074445Y-122397204D01*
X170061994Y-122406417D01*
X170053391Y-122419086D01*
X170050237Y-122426755D01*
X170046294Y-122442451D01*
X170043731Y-122459374D01*
X170042154Y-122475427D01*
X170040998Y-122493716D01*
X170040406Y-122508899D01*
X170040051Y-122525340D01*
X170039933Y-122543039D01*
X170039945Y-122547834D01*
X170040236Y-122565971D01*
X170040914Y-122582436D01*
X170041979Y-122597230D01*
X170043855Y-122613373D01*
X170046906Y-122629297D01*
X170052329Y-122644681D01*
X170063364Y-122655434D01*
X170077818Y-122664664D01*
X170092384Y-122672669D01*
X170110144Y-122681601D01*
X170123758Y-122688071D01*
X170138791Y-122694954D01*
X170155244Y-122702248D01*
X170173117Y-122709955D01*
X170192408Y-122718074D01*
X170213119Y-122726606D01*
X170235249Y-122735550D01*
X170258799Y-122744906D01*
X170281764Y-122753963D01*
X170303644Y-122762895D01*
X170324439Y-122771704D01*
X170344150Y-122780387D01*
X170362776Y-122788946D01*
X170380318Y-122797381D01*
X170396775Y-122805691D01*
X170412147Y-122813877D01*
X170426435Y-122821938D01*
X170439638Y-122829874D01*
X170457409Y-122841546D01*
X170472740Y-122852937D01*
X170485631Y-122864048D01*
X170496081Y-122874879D01*
X170504815Y-122886354D01*
X170512690Y-122899528D01*
X170519706Y-122914401D01*
X170525863Y-122930974D01*
X170531161Y-122949246D01*
X170535600Y-122969218D01*
X170538081Y-122983477D01*
X170540181Y-122998491D01*
X170541900Y-123014260D01*
X170543236Y-123030785D01*
X170544191Y-123048065D01*
X170544763Y-123066101D01*
X170544954Y-123084892D01*
X170544954Y-123194325D01*
X170544864Y-123207132D01*
X170544145Y-123231898D01*
X170542706Y-123255532D01*
X170540548Y-123278034D01*
X170537671Y-123299405D01*
X170534074Y-123319644D01*
X170529757Y-123338752D01*
X170524722Y-123356728D01*
X170518967Y-123373572D01*
X170512493Y-123389285D01*
X170505299Y-123403866D01*
X170497386Y-123417316D01*
X170488753Y-123429634D01*
X170479401Y-123440820D01*
X170469330Y-123450874D01*
X170452875Y-123463834D01*
X170441298Y-123471382D01*
X170423685Y-123481791D01*
X170405772Y-123491104D01*
X170387561Y-123499322D01*
X170369051Y-123506443D01*
X170350242Y-123512470D01*
X170331135Y-123517400D01*
X170311728Y-123521235D01*
X170292023Y-123523974D01*
X170272019Y-123525617D01*
X170251716Y-123526165D01*
X170236181Y-123525838D01*
X170221050Y-123524858D01*
X170206324Y-123523224D01*
X170192003Y-123520936D01*
X170173537Y-123516869D01*
X170155791Y-123511639D01*
X170138764Y-123505248D01*
X170122456Y-123497695D01*
X170106868Y-123488979D01*
X170099425Y-123484348D01*
X170085569Y-123475184D01*
X170073085Y-123466153D01*
X170059410Y-123455051D01*
X170047879Y-123444157D01*
X170036873Y-123431358D01*
X170028954Y-123418857D01*
X170028954Y-123503500D01*
X169614951Y-123503500D01*
X169614951Y-122880192D01*
X170039933Y-122880192D01*
X170039933Y-123137306D01*
X170039971Y-123149520D01*
X170040167Y-123166664D01*
X170040531Y-123182394D01*
X170041063Y-123196711D01*
X170042034Y-123213603D01*
X170043304Y-123227982D01*
X170045312Y-123242423D01*
X170049495Y-123257364D01*
X170050731Y-123259722D01*
X170060542Y-123269975D01*
X170073892Y-123275301D01*
X170089515Y-123276842D01*
X170099084Y-123276202D01*
X170113782Y-123271826D01*
X170125231Y-123263303D01*
X170133429Y-123250635D01*
X170137845Y-123235354D01*
X170140335Y-123219956D01*
X170141929Y-123204949D01*
X170143169Y-123187552D01*
X170143866Y-123172934D01*
X170144364Y-123156973D01*
X170144663Y-123139666D01*
X170144762Y-123121015D01*
X170144706Y-123109897D01*
X170144408Y-123093857D01*
X170143855Y-123078583D01*
X170143046Y-123064075D01*
X170141572Y-123045922D01*
X170139643Y-123029130D01*
X170137261Y-123013700D01*
X170134425Y-122999631D01*
X170130242Y-122983958D01*
X170126981Y-122975103D01*
X170119153Y-122959942D01*
X170110736Y-122947453D01*
X170100405Y-122934643D01*
X170088159Y-122921511D01*
X170077718Y-122911452D01*
X170066200Y-122901213D01*
X170053605Y-122890792D01*
X170039933Y-122880192D01*
X169614951Y-122880192D01*
X169614951Y-122833090D01*
X169614972Y-122812874D01*
X169615035Y-122793087D01*
X169615141Y-122773729D01*
X169615288Y-122754800D01*
X169615478Y-122736299D01*
X169615710Y-122718228D01*
X169615984Y-122700585D01*
X169616301Y-122683372D01*
X169616660Y-122666587D01*
X169617060Y-122650231D01*
X169617503Y-122634304D01*
X169617989Y-122618805D01*
X169618516Y-122603736D01*
X169619086Y-122589095D01*
X169620351Y-122561101D01*
X169621786Y-122534821D01*
X169623389Y-122510258D01*
X169625162Y-122487409D01*
X169627102Y-122466276D01*
X169629212Y-122446859D01*
X169631491Y-122429157D01*
X169633938Y-122413170D01*
X169636554Y-122398899D01*
X169641291Y-122379071D01*
X169647535Y-122359829D01*
X169655286Y-122341172D01*
X169664543Y-122323099D01*
X169675307Y-122305612D01*
X169687577Y-122288711D01*
X169696594Y-122277768D01*
X169706280Y-122267085D01*
X169716637Y-122256663D01*
X169727662Y-122246500D01*
X169739358Y-122236598D01*
X169751723Y-122226955D01*
X169764757Y-122217573D01*
X169778521Y-122208610D01*
X169793073Y-122200225D01*
X169808413Y-122192419D01*
X169824542Y-122185190D01*
X169841460Y-122178540D01*
X169859166Y-122172469D01*
X169877661Y-122166975D01*
X169896944Y-122162060D01*
X169917016Y-122157723D01*
X169937877Y-122153964D01*
X169959525Y-122150784D01*
X169981963Y-122148181D01*
X170005189Y-122146158D01*
X170029204Y-122144712D01*
X170054007Y-122143844D01*
X170079598Y-122143555D01*
X170100997Y-122143804D01*
G37*
G36*
X169588035Y-123639494D02*
G01*
X168414729Y-123639494D01*
X168414729Y-123752823D01*
X169588035Y-123752823D01*
X169588035Y-123639494D01*
G37*
G36*
X167055139Y-121871566D02*
G01*
X167055139Y-123503500D01*
X167444352Y-123503500D01*
X167433019Y-122405628D01*
X167569722Y-123503500D01*
X167849502Y-123503500D01*
X167993996Y-122428294D01*
X167982663Y-123503500D01*
X168371877Y-123503500D01*
X168371877Y-121871566D01*
X167808066Y-121871566D01*
X167804831Y-121890736D01*
X167801587Y-121910263D01*
X167798334Y-121930147D01*
X167795074Y-121950387D01*
X167791805Y-121970985D01*
X167788527Y-121991939D01*
X167785242Y-122013251D01*
X167781948Y-122034919D01*
X167778646Y-122056944D01*
X167775335Y-122079327D01*
X167772016Y-122102066D01*
X167768689Y-122125162D01*
X167765354Y-122148614D01*
X167762010Y-122172424D01*
X167758658Y-122196591D01*
X167755298Y-122221115D01*
X167708904Y-122634410D01*
X167623199Y-121871566D01*
X167055139Y-121871566D01*
G37*
G36*
X165984891Y-122166221D02*
G01*
X165984891Y-123503500D01*
X166417665Y-123503500D01*
X166412707Y-123424524D01*
X166421580Y-123436468D01*
X166433591Y-123448661D01*
X166445997Y-123459013D01*
X166457490Y-123467418D01*
X166470378Y-123475934D01*
X166484660Y-123484561D01*
X166496287Y-123491104D01*
X166512517Y-123499322D01*
X166529334Y-123506443D01*
X166546737Y-123512470D01*
X166564727Y-123517400D01*
X166578604Y-123520379D01*
X166592811Y-123522741D01*
X166607349Y-123524488D01*
X166622216Y-123525617D01*
X166637413Y-123526131D01*
X166642552Y-123526165D01*
X166659812Y-123525876D01*
X166676530Y-123525007D01*
X166692706Y-123523560D01*
X166708341Y-123521534D01*
X166723434Y-123518928D01*
X166737986Y-123515744D01*
X166751996Y-123511981D01*
X166769834Y-123506063D01*
X166786709Y-123499115D01*
X166798733Y-123493229D01*
X166813807Y-123484569D01*
X166827862Y-123475234D01*
X166840899Y-123465223D01*
X166852918Y-123454538D01*
X166863919Y-123443177D01*
X166873902Y-123431142D01*
X166882866Y-123418431D01*
X166890812Y-123405045D01*
X166897896Y-123391266D01*
X166904270Y-123377377D01*
X166909937Y-123363377D01*
X166914895Y-123349266D01*
X166919145Y-123335045D01*
X166922686Y-123320713D01*
X166925519Y-123306270D01*
X166927644Y-123291717D01*
X166929304Y-123275365D01*
X166930404Y-123260813D01*
X166931379Y-123244300D01*
X166932230Y-123225827D01*
X166932957Y-123205392D01*
X166933372Y-123190679D01*
X166933731Y-123175095D01*
X166934036Y-123158640D01*
X166934285Y-123141313D01*
X166934478Y-123123114D01*
X166934617Y-123104044D01*
X166934700Y-123084102D01*
X166934727Y-123063288D01*
X166934727Y-122166221D01*
X166509745Y-122166221D01*
X166509745Y-123076038D01*
X166509714Y-123094616D01*
X166509623Y-123112189D01*
X166509471Y-123128758D01*
X166509258Y-123144323D01*
X166508984Y-123158883D01*
X166508459Y-123178841D01*
X166507797Y-123196538D01*
X166506998Y-123211976D01*
X166505720Y-123229044D01*
X166503780Y-123244731D01*
X166501953Y-123252760D01*
X166494525Y-123265459D01*
X166481977Y-123273456D01*
X166466308Y-123276630D01*
X166460163Y-123276842D01*
X166445749Y-123275656D01*
X166431300Y-123270644D01*
X166420634Y-123260476D01*
X166416957Y-123252051D01*
X166414550Y-123237854D01*
X166413222Y-123223090D01*
X166412115Y-123204087D01*
X166411430Y-123187054D01*
X166410870Y-123167636D01*
X166410566Y-123153366D01*
X166410317Y-123138037D01*
X166410123Y-123121647D01*
X166409985Y-123104199D01*
X166409902Y-123085690D01*
X166409874Y-123066122D01*
X166409874Y-122166221D01*
X165984891Y-122166221D01*
G37*
G36*
X165857397Y-123503500D02*
G01*
X165415415Y-123503500D01*
X165415415Y-122846193D01*
X165314127Y-122846193D01*
X165305435Y-122846155D01*
X165288352Y-122845854D01*
X165271674Y-122845251D01*
X165255400Y-122844346D01*
X165239529Y-122843140D01*
X165224063Y-122841632D01*
X165209000Y-122839822D01*
X165194341Y-122837711D01*
X165180087Y-122835298D01*
X165159462Y-122831114D01*
X165139747Y-122826251D01*
X165120940Y-122820709D01*
X165103042Y-122814489D01*
X165086053Y-122807591D01*
X165075245Y-122802588D01*
X165059836Y-122794587D01*
X165045392Y-122785987D01*
X165031913Y-122776790D01*
X165019399Y-122766996D01*
X165007850Y-122756604D01*
X164997266Y-122745614D01*
X164987647Y-122734027D01*
X164978993Y-122721841D01*
X164971303Y-122709059D01*
X164964579Y-122695678D01*
X164962531Y-122691039D01*
X164956777Y-122676156D01*
X164951608Y-122659829D01*
X164947024Y-122642058D01*
X164943025Y-122622842D01*
X164939611Y-122602182D01*
X164937661Y-122587607D01*
X164935970Y-122572389D01*
X164934540Y-122556530D01*
X164933369Y-122540029D01*
X164932459Y-122522885D01*
X164931809Y-122505100D01*
X164931419Y-122486673D01*
X164931289Y-122467605D01*
X164931289Y-122417669D01*
X165304565Y-122417669D01*
X165304736Y-122433074D01*
X165305250Y-122447414D01*
X165306467Y-122464878D01*
X165308293Y-122480449D01*
X165311432Y-122497253D01*
X165316454Y-122513513D01*
X165324043Y-122527102D01*
X165335841Y-122537793D01*
X165349541Y-122544642D01*
X165363793Y-122548651D01*
X165380361Y-122550942D01*
X165395936Y-122551539D01*
X165401105Y-122551522D01*
X165415415Y-122551184D01*
X165415415Y-122166221D01*
X165399627Y-122166559D01*
X165385201Y-122167571D01*
X165369083Y-122169786D01*
X165352548Y-122173837D01*
X165339077Y-122179407D01*
X165327231Y-122187824D01*
X165324486Y-122190699D01*
X165316274Y-122204203D01*
X165310962Y-122220040D01*
X165307752Y-122236244D01*
X165305982Y-122251173D01*
X165304919Y-122267852D01*
X165304565Y-122286279D01*
X165304565Y-122417669D01*
X164931289Y-122417669D01*
X164931289Y-122328777D01*
X164931355Y-122310221D01*
X164931554Y-122292272D01*
X164931886Y-122274928D01*
X164932351Y-122258190D01*
X164932949Y-122242058D01*
X164933679Y-122226532D01*
X164934543Y-122211612D01*
X164936086Y-122190368D01*
X164937929Y-122170487D01*
X164940071Y-122151970D01*
X164942511Y-122134816D01*
X164945250Y-122119026D01*
X164948288Y-122104599D01*
X164953030Y-122086598D01*
X164958758Y-122069250D01*
X164965470Y-122052555D01*
X164973167Y-122036513D01*
X164981850Y-122021124D01*
X164991517Y-122006388D01*
X165002169Y-121992305D01*
X165013806Y-121978875D01*
X165026572Y-121966081D01*
X165040788Y-121954084D01*
X165052402Y-121945609D01*
X165064830Y-121937583D01*
X165078075Y-121930004D01*
X165092135Y-121922874D01*
X165107010Y-121916192D01*
X165122701Y-121909959D01*
X165139208Y-121904173D01*
X165156530Y-121898836D01*
X165174884Y-121893963D01*
X165194620Y-121889569D01*
X165208546Y-121886906D01*
X165223085Y-121884456D01*
X165238239Y-121882219D01*
X165254007Y-121880195D01*
X165270389Y-121878384D01*
X165287386Y-121876786D01*
X165304997Y-121875401D01*
X165323222Y-121874230D01*
X165342061Y-121873271D01*
X165361514Y-121872525D01*
X165381582Y-121871993D01*
X165402264Y-121871673D01*
X165423560Y-121871566D01*
X165857397Y-121871566D01*
X165857397Y-123503500D01*
G37*
G36*
X164424497Y-122166221D02*
G01*
X164452829Y-122367025D01*
X164442455Y-122341373D01*
X164431254Y-122317272D01*
X164419225Y-122294724D01*
X164406369Y-122273728D01*
X164392686Y-122254285D01*
X164378175Y-122236393D01*
X164362837Y-122220054D01*
X164346672Y-122205266D01*
X164329680Y-122192031D01*
X164311860Y-122180348D01*
X164293213Y-122170218D01*
X164273739Y-122161639D01*
X164253437Y-122154613D01*
X164232309Y-122149139D01*
X164210353Y-122145217D01*
X164187569Y-122142847D01*
X164187569Y-122642202D01*
X164202168Y-122642308D01*
X164223035Y-122642867D01*
X164242662Y-122643906D01*
X164261051Y-122645424D01*
X164278200Y-122647421D01*
X164294111Y-122649898D01*
X164308783Y-122652854D01*
X164326419Y-122657541D01*
X164341852Y-122663080D01*
X164355083Y-122669471D01*
X164369235Y-122678529D01*
X164381589Y-122688659D01*
X164392145Y-122699861D01*
X164400902Y-122712136D01*
X164407860Y-122725482D01*
X164413020Y-122739900D01*
X164414581Y-122745968D01*
X164417154Y-122760339D01*
X164419384Y-122779015D01*
X164420831Y-122795847D01*
X164422086Y-122815101D01*
X164422815Y-122829282D01*
X164423458Y-122844540D01*
X164424016Y-122860874D01*
X164424487Y-122878284D01*
X164424873Y-122896771D01*
X164425174Y-122916333D01*
X164425388Y-122936972D01*
X164425517Y-122958688D01*
X164425560Y-122981479D01*
X164425560Y-123503500D01*
X164850542Y-123503500D01*
X164850542Y-122166221D01*
X164424497Y-122166221D01*
G37*
G36*
X164207756Y-123639494D02*
G01*
X163034450Y-123639494D01*
X163034450Y-123752823D01*
X164207756Y-123752823D01*
X164207756Y-123639494D01*
G37*
G36*
X161970931Y-121871566D02*
G01*
X162187318Y-123503500D01*
X162843562Y-123503500D01*
X163088989Y-121871566D01*
X162623279Y-121871566D01*
X162618465Y-121913525D01*
X162613761Y-121955110D01*
X162609169Y-121996324D01*
X162604686Y-122037166D01*
X162600315Y-122077635D01*
X162596054Y-122117733D01*
X162591904Y-122157458D01*
X162587864Y-122196811D01*
X162583935Y-122235792D01*
X162580117Y-122274401D01*
X162576410Y-122312637D01*
X162572813Y-122350502D01*
X162569326Y-122387994D01*
X162565951Y-122425115D01*
X162562686Y-122461863D01*
X162559532Y-122498239D01*
X162556488Y-122534243D01*
X162553556Y-122569874D01*
X162550733Y-122605134D01*
X162548022Y-122640021D01*
X162545421Y-122674537D01*
X162542931Y-122708680D01*
X162540552Y-122742451D01*
X162538283Y-122775850D01*
X162536125Y-122808876D01*
X162534077Y-122841531D01*
X162532140Y-122873814D01*
X162530314Y-122905724D01*
X162528599Y-122937262D01*
X162526994Y-122968428D01*
X162525500Y-122999222D01*
X162524117Y-123029644D01*
X162522753Y-122999200D01*
X162521361Y-122969005D01*
X162519942Y-122939058D01*
X162518495Y-122909360D01*
X162517020Y-122879909D01*
X162515517Y-122850707D01*
X162513987Y-122821754D01*
X162512430Y-122793048D01*
X162510844Y-122764591D01*
X162509231Y-122736382D01*
X162507591Y-122708422D01*
X162505922Y-122680710D01*
X162504226Y-122653246D01*
X162502502Y-122626031D01*
X162500751Y-122599064D01*
X162498972Y-122572345D01*
X162497165Y-122545875D01*
X162495331Y-122519652D01*
X162493469Y-122493679D01*
X162491579Y-122467953D01*
X162489662Y-122442476D01*
X162487717Y-122417247D01*
X162485744Y-122392267D01*
X162483743Y-122367534D01*
X162481715Y-122343051D01*
X162479660Y-122318815D01*
X162477576Y-122294828D01*
X162475465Y-122271089D01*
X162473326Y-122247598D01*
X162471160Y-122224356D01*
X162468966Y-122201362D01*
X162466744Y-122178616D01*
X162436641Y-121871566D01*
X161970931Y-121871566D01*
G37*
G36*
X162053449Y-123503500D02*
G01*
X161595530Y-123503500D01*
X161570739Y-123208845D01*
X161441120Y-123208845D01*
X161420225Y-123503500D01*
X160967264Y-123503500D01*
X161055123Y-122914190D01*
X161455286Y-122914190D01*
X161573927Y-122914190D01*
X161571878Y-122886910D01*
X161570744Y-122872464D01*
X161569538Y-122857482D01*
X161568260Y-122841963D01*
X161566909Y-122825907D01*
X161565485Y-122809314D01*
X161563988Y-122792185D01*
X161562419Y-122774519D01*
X161560777Y-122756316D01*
X161559063Y-122737576D01*
X161557276Y-122718300D01*
X161555416Y-122698487D01*
X161553484Y-122678137D01*
X161551479Y-122657250D01*
X161549402Y-122635827D01*
X161547251Y-122613867D01*
X161545029Y-122591370D01*
X161542733Y-122568336D01*
X161540365Y-122544765D01*
X161537924Y-122520658D01*
X161535411Y-122496014D01*
X161532825Y-122470833D01*
X161530167Y-122445116D01*
X161527435Y-122418862D01*
X161524632Y-122392071D01*
X161521755Y-122364743D01*
X161518806Y-122336878D01*
X161515784Y-122308477D01*
X161512690Y-122279539D01*
X161509523Y-122250064D01*
X161506284Y-122220052D01*
X161504990Y-122246333D01*
X161503677Y-122272317D01*
X161502345Y-122298006D01*
X161500993Y-122323398D01*
X161499622Y-122348495D01*
X161498232Y-122373295D01*
X161496822Y-122397799D01*
X161495393Y-122422007D01*
X161493945Y-122445920D01*
X161492477Y-122469536D01*
X161490990Y-122492856D01*
X161489483Y-122515880D01*
X161487958Y-122538608D01*
X161486412Y-122561040D01*
X161484848Y-122583176D01*
X161483264Y-122605016D01*
X161481660Y-122626559D01*
X161480038Y-122647807D01*
X161478395Y-122668759D01*
X161476734Y-122689414D01*
X161475053Y-122709774D01*
X161473353Y-122729838D01*
X161471633Y-122749605D01*
X161469894Y-122769077D01*
X161468136Y-122788252D01*
X161466358Y-122807131D01*
X161464561Y-122825715D01*
X161462745Y-122844002D01*
X161460909Y-122861993D01*
X161459054Y-122879688D01*
X161457179Y-122897087D01*
X161455286Y-122914190D01*
X161055123Y-122914190D01*
X161210566Y-121871566D01*
X161837062Y-121871566D01*
X162053449Y-123503500D01*
G37*
G36*
X160926182Y-121871566D02*
G01*
X160193087Y-121871566D01*
X160193087Y-122211553D01*
X160484200Y-122211553D01*
X160484200Y-122483541D01*
X160224961Y-122483541D01*
X160224961Y-122823527D01*
X160484200Y-122823527D01*
X160484200Y-123503500D01*
X160926182Y-123503500D01*
X160926182Y-121871566D01*
G37*
G36*
X160190254Y-122923752D02*
G01*
X160190254Y-123208845D01*
X159712149Y-123208845D01*
X159712149Y-123503500D01*
X159287166Y-123503500D01*
X159287166Y-123208845D01*
X159172775Y-123208845D01*
X159172775Y-122914190D01*
X159287166Y-122914190D01*
X159287166Y-122239176D01*
X159700816Y-122239176D01*
X159712149Y-122914190D01*
X159863726Y-122914190D01*
X159700816Y-122239176D01*
X159287166Y-122239176D01*
X159287166Y-121871566D01*
X159839644Y-121871566D01*
X160190254Y-122923752D01*
G37*
G36*
X158518302Y-121871566D02*
G01*
X158518302Y-123503500D01*
X158943639Y-123503500D01*
X158943639Y-122618473D01*
X158943672Y-122595607D01*
X158943772Y-122573933D01*
X158943938Y-122553452D01*
X158944170Y-122534163D01*
X158944469Y-122516067D01*
X158944834Y-122499163D01*
X158945266Y-122483451D01*
X158945764Y-122468933D01*
X158946635Y-122449390D01*
X158947656Y-122432531D01*
X158948826Y-122418355D01*
X158950619Y-122403627D01*
X158952138Y-122395712D01*
X158957058Y-122381203D01*
X158964689Y-122368355D01*
X158975031Y-122357168D01*
X158988085Y-122347641D01*
X158996762Y-122342943D01*
X159010616Y-122337740D01*
X159025236Y-122334212D01*
X159042999Y-122331249D01*
X159058384Y-122329397D01*
X159075537Y-122327862D01*
X159094458Y-122326645D01*
X159115147Y-122325746D01*
X159129921Y-122325322D01*
X159145482Y-122325040D01*
X159161828Y-122324899D01*
X159170296Y-122324881D01*
X159221294Y-122324881D01*
X159221294Y-122128681D01*
X159202887Y-122124613D01*
X159184762Y-122120289D01*
X159166921Y-122115709D01*
X159149362Y-122110874D01*
X159132087Y-122105782D01*
X159115094Y-122100435D01*
X159098384Y-122094831D01*
X159081957Y-122088972D01*
X159065813Y-122082856D01*
X159049952Y-122076485D01*
X159034374Y-122069858D01*
X159019079Y-122062975D01*
X159004066Y-122055836D01*
X158989337Y-122048441D01*
X158974890Y-122040790D01*
X158960727Y-122032883D01*
X158946846Y-122024720D01*
X158933248Y-122016301D01*
X158919933Y-122007627D01*
X158906901Y-121998696D01*
X158894152Y-121989510D01*
X158881686Y-121980067D01*
X158869502Y-121970369D01*
X158857602Y-121960414D01*
X158845984Y-121950204D01*
X158834650Y-121939738D01*
X158823598Y-121929016D01*
X158812829Y-121918038D01*
X158802343Y-121906804D01*
X158792140Y-121895314D01*
X158782220Y-121883568D01*
X158772583Y-121871566D01*
X158518302Y-121871566D01*
G37*
G36*
X157488428Y-121871566D02*
G01*
X157488428Y-122120890D01*
X157987428Y-122120890D01*
X157987428Y-122370567D01*
X157977524Y-122359545D01*
X157967025Y-122349235D01*
X157955932Y-122339635D01*
X157944244Y-122330747D01*
X157931960Y-122322570D01*
X157919082Y-122315103D01*
X157905609Y-122308348D01*
X157891541Y-122302304D01*
X157876879Y-122296971D01*
X157861621Y-122292349D01*
X157845769Y-122288438D01*
X157829321Y-122285238D01*
X157812279Y-122282750D01*
X157794642Y-122280972D01*
X157776410Y-122279905D01*
X157757583Y-122279550D01*
X157736525Y-122279929D01*
X157716114Y-122281066D01*
X157696351Y-122282961D01*
X157677235Y-122285615D01*
X157658766Y-122289026D01*
X157640945Y-122293196D01*
X157623772Y-122298123D01*
X157607246Y-122303809D01*
X157591367Y-122310253D01*
X157576136Y-122317455D01*
X157561552Y-122325415D01*
X157547615Y-122334133D01*
X157534326Y-122343610D01*
X157521685Y-122353844D01*
X157509691Y-122364837D01*
X157498344Y-122376587D01*
X157487622Y-122389348D01*
X157477593Y-122403459D01*
X157468255Y-122418920D01*
X157459608Y-122435731D01*
X157451654Y-122453892D01*
X157444391Y-122473404D01*
X157437820Y-122494266D01*
X157431940Y-122516478D01*
X157426753Y-122540040D01*
X157422257Y-122564952D01*
X157418452Y-122591215D01*
X157415339Y-122618827D01*
X157414043Y-122633140D01*
X157412919Y-122647790D01*
X157411967Y-122662778D01*
X157411189Y-122678104D01*
X157410584Y-122693767D01*
X157410152Y-122709767D01*
X157409892Y-122726105D01*
X157409806Y-122742781D01*
X157409806Y-122973334D01*
X157409872Y-122994541D01*
X157410071Y-123015046D01*
X157410403Y-123034848D01*
X157410868Y-123053948D01*
X157411466Y-123072344D01*
X157412196Y-123090038D01*
X157413060Y-123107029D01*
X157414056Y-123123317D01*
X157415185Y-123138903D01*
X157416446Y-123153785D01*
X157417841Y-123167965D01*
X157420181Y-123187917D01*
X157422821Y-123206288D01*
X157425759Y-123223078D01*
X157426805Y-123228323D01*
X157430269Y-123243626D01*
X157434417Y-123258724D01*
X157439250Y-123273616D01*
X157444767Y-123288302D01*
X157450970Y-123302783D01*
X157457857Y-123317059D01*
X157465429Y-123331129D01*
X157473686Y-123344994D01*
X157482628Y-123358654D01*
X157492254Y-123372108D01*
X157499052Y-123380963D01*
X157509794Y-123393888D01*
X157521302Y-123406234D01*
X157533575Y-123418000D01*
X157546614Y-123429188D01*
X157560418Y-123439797D01*
X157574989Y-123449827D01*
X157590325Y-123459279D01*
X157606427Y-123468151D01*
X157623294Y-123476444D01*
X157640927Y-123484158D01*
X157653108Y-123488979D01*
X157671939Y-123495625D01*
X157691510Y-123501617D01*
X157711823Y-123506955D01*
X157725776Y-123510151D01*
X157740058Y-123513056D01*
X157754669Y-123515670D01*
X157769610Y-123517994D01*
X157784880Y-123520028D01*
X157800480Y-123521771D01*
X157816408Y-123523224D01*
X157832666Y-123524386D01*
X157849253Y-123525257D01*
X157866169Y-123525838D01*
X157883415Y-123526129D01*
X157892161Y-123526165D01*
X157911763Y-123525948D01*
X157931079Y-123525296D01*
X157950111Y-123524210D01*
X157968857Y-123522690D01*
X157987319Y-123520735D01*
X158005495Y-123518346D01*
X158023387Y-123515523D01*
X158040993Y-123512265D01*
X158058315Y-123508572D01*
X158075352Y-123504446D01*
X158092103Y-123499885D01*
X158108570Y-123494889D01*
X158124752Y-123489459D01*
X158140649Y-123483595D01*
X158156260Y-123477296D01*
X158171587Y-123470563D01*
X158186497Y-123463400D01*
X158200860Y-123455811D01*
X158214675Y-123447795D01*
X158227942Y-123439354D01*
X158240661Y-123430486D01*
X158252832Y-123421192D01*
X158264455Y-123411473D01*
X158275531Y-123401327D01*
X158286058Y-123390755D01*
X158296038Y-123379757D01*
X158305470Y-123368332D01*
X158314355Y-123356482D01*
X158322691Y-123344206D01*
X158330480Y-123331503D01*
X158337720Y-123318375D01*
X158344413Y-123304820D01*
X158350589Y-123290596D01*
X158356366Y-123275459D01*
X158361745Y-123259408D01*
X158366725Y-123242445D01*
X158371307Y-123224569D01*
X158375490Y-123205779D01*
X158379275Y-123186077D01*
X158382662Y-123165461D01*
X158385650Y-123143933D01*
X158388240Y-123121491D01*
X158390431Y-123098136D01*
X158392224Y-123073869D01*
X158393618Y-123048688D01*
X158394614Y-123022594D01*
X158395212Y-122995587D01*
X158395411Y-122967667D01*
X158395411Y-122868859D01*
X157970429Y-122868859D01*
X157970429Y-122985729D01*
X157970390Y-123005750D01*
X157970274Y-123024996D01*
X157970080Y-123043467D01*
X157969809Y-123061163D01*
X157969460Y-123078085D01*
X157969034Y-123094232D01*
X157968531Y-123109605D01*
X157967950Y-123124203D01*
X157966933Y-123144647D01*
X157965742Y-123163347D01*
X157964376Y-123180305D01*
X157962837Y-123195520D01*
X157960512Y-123213095D01*
X157957242Y-123228036D01*
X157951178Y-123243910D01*
X157942917Y-123256672D01*
X157932460Y-123266321D01*
X157919807Y-123272858D01*
X157904958Y-123276282D01*
X157894994Y-123276842D01*
X157880434Y-123275217D01*
X157866575Y-123269674D01*
X157854975Y-123260197D01*
X157845978Y-123248209D01*
X157840412Y-123235134D01*
X157838330Y-123222303D01*
X157837676Y-123205499D01*
X157837272Y-123189155D01*
X157836955Y-123173680D01*
X157836625Y-123155447D01*
X157836282Y-123134456D01*
X157836047Y-123118930D01*
X157835807Y-123102179D01*
X157835560Y-123084201D01*
X157835309Y-123064998D01*
X157835051Y-123044570D01*
X157834788Y-123022915D01*
X157834788Y-122683637D01*
X157834935Y-122666661D01*
X157835374Y-122650792D01*
X157836105Y-122636032D01*
X157837536Y-122618076D01*
X157839486Y-122602089D01*
X157841957Y-122588072D01*
X157845777Y-122573322D01*
X157851434Y-122559684D01*
X157859699Y-122547679D01*
X157871552Y-122537569D01*
X157885972Y-122531310D01*
X157900697Y-122528993D01*
X157905265Y-122528873D01*
X157920296Y-122530798D01*
X157933737Y-122536573D01*
X157944576Y-122545164D01*
X157954235Y-122556497D01*
X157961813Y-122569720D01*
X157965471Y-122580225D01*
X157967867Y-122596445D01*
X157969029Y-122613328D01*
X157969731Y-122631107D01*
X157970119Y-122647757D01*
X157970351Y-122666566D01*
X157970424Y-122682089D01*
X157970429Y-122687533D01*
X158391870Y-122687533D01*
X158374162Y-121871566D01*
X157488428Y-121871566D01*
G37*
G36*
X156629255Y-121871566D02*
G01*
X156629255Y-122246614D01*
X156888494Y-123503500D01*
X157312060Y-123503500D01*
X157026259Y-122188887D01*
X157420785Y-122188887D01*
X157420785Y-121871566D01*
X156629255Y-121871566D01*
G37*
G36*
X157987079Y-124745045D02*
G01*
X158245000Y-124745045D01*
X158245000Y-123805687D01*
X158042400Y-123805687D01*
X157999098Y-123830893D01*
X157956844Y-123855449D01*
X157915638Y-123879356D01*
X157875481Y-123902613D01*
X157836372Y-123925220D01*
X157798311Y-123947178D01*
X157761299Y-123968486D01*
X157725335Y-123989144D01*
X157690419Y-124009152D01*
X157656551Y-124028511D01*
X157623732Y-124047220D01*
X157591961Y-124065279D01*
X157561238Y-124082688D01*
X157531564Y-124099448D01*
X157502938Y-124115558D01*
X157475360Y-124131018D01*
X157448830Y-124145829D01*
X157423349Y-124159990D01*
X157398916Y-124173501D01*
X157375531Y-124186362D01*
X157353195Y-124198574D01*
X157331907Y-124210136D01*
X157311667Y-124221048D01*
X157292475Y-124231311D01*
X157274332Y-124240923D01*
X157257237Y-124249886D01*
X157241190Y-124258200D01*
X157226192Y-124265863D01*
X157212242Y-124272877D01*
X157187487Y-124284956D01*
X157176681Y-124290020D01*
X157156364Y-124299248D01*
X157136627Y-124307881D01*
X157117472Y-124315918D01*
X157098898Y-124323360D01*
X157080904Y-124330206D01*
X157063492Y-124336457D01*
X157046661Y-124342113D01*
X157030410Y-124347173D01*
X157014741Y-124351638D01*
X156999653Y-124355508D01*
X156985146Y-124358782D01*
X156964474Y-124362578D01*
X156945110Y-124365034D01*
X156927054Y-124366150D01*
X156921325Y-124366224D01*
X156904953Y-124365904D01*
X156889726Y-124364942D01*
X156872303Y-124362838D01*
X156856668Y-124359733D01*
X156840267Y-124354684D01*
X156826443Y-124348192D01*
X156822407Y-124345708D01*
X156810273Y-124335750D01*
X156801119Y-124323829D01*
X156794946Y-124309944D01*
X156791753Y-124294096D01*
X156791266Y-124284159D01*
X156792896Y-124267314D01*
X156797788Y-124252362D01*
X156805940Y-124239304D01*
X156817352Y-124228139D01*
X156825338Y-124222609D01*
X156840644Y-124215637D01*
X156857472Y-124210929D01*
X156873600Y-124207883D01*
X156892099Y-124205479D01*
X156907528Y-124204097D01*
X156924290Y-124203075D01*
X156942386Y-124202414D01*
X156961814Y-124202113D01*
X156968586Y-124202093D01*
X157142976Y-124202093D01*
X157142976Y-123805687D01*
X157071901Y-123805687D01*
X157054859Y-123805744D01*
X157038264Y-123805916D01*
X157022116Y-123806202D01*
X157006413Y-123806603D01*
X156991158Y-123807118D01*
X156976349Y-123807748D01*
X156954972Y-123808907D01*
X156934600Y-123810324D01*
X156915233Y-123811998D01*
X156896871Y-123813930D01*
X156879513Y-123816120D01*
X156863159Y-123818567D01*
X156852815Y-123820341D01*
X156837653Y-123823538D01*
X156822530Y-123827494D01*
X156807445Y-123832210D01*
X156792400Y-123837686D01*
X156777392Y-123843923D01*
X156762423Y-123850919D01*
X156747493Y-123858674D01*
X156732602Y-123867190D01*
X156717749Y-123876466D01*
X156702935Y-123886502D01*
X156693080Y-123893614D01*
X156678584Y-123904842D01*
X156664770Y-123916682D01*
X156651639Y-123929134D01*
X156639191Y-123942198D01*
X156627425Y-123955873D01*
X156616341Y-123970160D01*
X156605941Y-123985059D01*
X156596223Y-124000570D01*
X156587188Y-124016692D01*
X156578835Y-124033427D01*
X156573646Y-124044923D01*
X156566444Y-124062755D01*
X156559950Y-124081219D01*
X156554165Y-124100313D01*
X156549088Y-124120039D01*
X156544719Y-124140396D01*
X156541059Y-124161384D01*
X156538108Y-124183003D01*
X156536533Y-124197766D01*
X156535274Y-124212810D01*
X156534330Y-124228134D01*
X156533700Y-124243739D01*
X156533385Y-124259624D01*
X156533346Y-124267672D01*
X156533473Y-124283353D01*
X156533854Y-124298795D01*
X156534489Y-124313998D01*
X156535378Y-124328964D01*
X156536521Y-124343691D01*
X156539569Y-124372431D01*
X156543634Y-124400217D01*
X156548714Y-124427050D01*
X156554810Y-124452931D01*
X156561923Y-124477858D01*
X156570052Y-124501832D01*
X156579197Y-124524852D01*
X156589358Y-124546920D01*
X156600534Y-124568035D01*
X156612728Y-124588196D01*
X156625937Y-124607405D01*
X156640162Y-124625660D01*
X156655403Y-124642962D01*
X156663405Y-124651256D01*
X156679886Y-124667094D01*
X156696904Y-124681910D01*
X156714461Y-124695704D01*
X156732556Y-124708477D01*
X156751189Y-124720228D01*
X156770360Y-124730957D01*
X156790070Y-124740664D01*
X156810317Y-124749350D01*
X156831102Y-124757013D01*
X156852426Y-124763655D01*
X156874288Y-124769275D01*
X156896687Y-124773873D01*
X156919625Y-124777449D01*
X156943101Y-124780004D01*
X156967115Y-124781537D01*
X156991667Y-124782048D01*
X157010415Y-124781764D01*
X157029288Y-124780914D01*
X157048288Y-124779497D01*
X157067413Y-124777514D01*
X157086664Y-124774964D01*
X157106042Y-124771847D01*
X157125545Y-124768163D01*
X157145174Y-124763913D01*
X157164929Y-124759096D01*
X157184810Y-124753712D01*
X157204817Y-124747761D01*
X157224950Y-124741244D01*
X157245209Y-124734160D01*
X157265593Y-124726509D01*
X157286104Y-124718292D01*
X157306741Y-124709508D01*
X157328761Y-124699444D01*
X157353515Y-124687297D01*
X157366917Y-124680442D01*
X157381002Y-124673066D01*
X157395771Y-124665169D01*
X157411223Y-124656751D01*
X157427359Y-124647812D01*
X157444177Y-124638353D01*
X157461679Y-124628372D01*
X157479865Y-124617871D01*
X157498734Y-124606848D01*
X157518286Y-124595305D01*
X157538521Y-124583241D01*
X157559440Y-124570655D01*
X157581043Y-124557549D01*
X157603328Y-124543922D01*
X157626297Y-124529774D01*
X157649950Y-124515105D01*
X157674285Y-124499916D01*
X157699304Y-124484205D01*
X157725007Y-124467973D01*
X157751392Y-124451221D01*
X157778461Y-124433947D01*
X157806214Y-124416153D01*
X157834650Y-124397837D01*
X157863769Y-124379001D01*
X157893571Y-124359644D01*
X157924057Y-124339766D01*
X157955226Y-124319367D01*
X157987079Y-124298447D01*
X157987079Y-124745045D01*
G37*
G36*
X157731722Y-124878134D02*
G01*
X157752600Y-124878430D01*
X157772743Y-124878924D01*
X157792150Y-124879615D01*
X157810822Y-124880504D01*
X157828758Y-124881590D01*
X157845959Y-124882874D01*
X157862424Y-124884355D01*
X157878153Y-124886034D01*
X157893147Y-124887910D01*
X157914258Y-124891094D01*
X157933714Y-124894723D01*
X157951516Y-124898797D01*
X157967662Y-124903314D01*
X157977847Y-124906612D01*
X157993023Y-124912073D01*
X158008076Y-124918152D01*
X158023007Y-124924850D01*
X158037816Y-124932165D01*
X158052503Y-124940099D01*
X158067067Y-124948652D01*
X158081508Y-124957822D01*
X158095828Y-124967611D01*
X158110025Y-124978018D01*
X158124099Y-124989043D01*
X158133243Y-124996804D01*
X158146383Y-125009041D01*
X158158835Y-125021993D01*
X158170598Y-125035660D01*
X158181671Y-125050042D01*
X158192056Y-125065138D01*
X158201751Y-125080949D01*
X158210758Y-125097475D01*
X158219075Y-125114716D01*
X158226703Y-125132672D01*
X158233642Y-125151343D01*
X158237857Y-125164221D01*
X158243669Y-125184264D01*
X158248869Y-125205175D01*
X158251996Y-125219600D01*
X158254851Y-125234410D01*
X158257434Y-125249607D01*
X158259746Y-125265191D01*
X158261785Y-125281160D01*
X158263552Y-125297516D01*
X158265048Y-125314259D01*
X158266272Y-125331388D01*
X158267223Y-125348903D01*
X158267903Y-125366805D01*
X158268311Y-125385093D01*
X158268447Y-125403768D01*
X158268317Y-125418153D01*
X158267633Y-125439410D01*
X158266363Y-125460280D01*
X158264507Y-125480763D01*
X158262065Y-125500860D01*
X158259038Y-125520571D01*
X158255424Y-125539895D01*
X158251224Y-125558833D01*
X158246438Y-125577384D01*
X158241066Y-125595549D01*
X158235108Y-125613328D01*
X158230727Y-125624990D01*
X158223528Y-125642081D01*
X158215576Y-125658689D01*
X158206870Y-125674813D01*
X158197411Y-125690455D01*
X158187198Y-125705614D01*
X158176232Y-125720289D01*
X158164512Y-125734482D01*
X158152039Y-125748192D01*
X158138812Y-125761418D01*
X158124832Y-125774162D01*
X158115218Y-125782362D01*
X158100636Y-125793987D01*
X158085860Y-125804799D01*
X158070891Y-125814801D01*
X158055729Y-125823990D01*
X158040374Y-125832369D01*
X158024826Y-125839936D01*
X158009085Y-125846691D01*
X157993150Y-125852636D01*
X157977022Y-125857768D01*
X157960701Y-125862090D01*
X157955130Y-125863397D01*
X157937231Y-125867070D01*
X157917554Y-125870369D01*
X157896101Y-125873295D01*
X157880811Y-125875038D01*
X157864731Y-125876615D01*
X157847861Y-125878026D01*
X157830201Y-125879271D01*
X157811751Y-125880350D01*
X157792511Y-125881264D01*
X157772481Y-125882011D01*
X157751661Y-125882592D01*
X157730052Y-125883007D01*
X157707652Y-125883256D01*
X157684462Y-125883339D01*
X157134549Y-125883339D01*
X157122856Y-125883320D01*
X157100064Y-125883168D01*
X157078065Y-125882865D01*
X157056859Y-125882410D01*
X157036446Y-125881803D01*
X157016825Y-125881044D01*
X156997997Y-125880134D01*
X156979963Y-125879072D01*
X156962721Y-125877859D01*
X156946271Y-125876493D01*
X156930615Y-125874976D01*
X156915752Y-125873308D01*
X156894943Y-125870520D01*
X156875918Y-125867391D01*
X156858677Y-125863921D01*
X156847799Y-125861352D01*
X156831735Y-125856968D01*
X156815973Y-125851946D01*
X156800514Y-125846286D01*
X156785357Y-125839989D01*
X156770503Y-125833054D01*
X156755952Y-125825482D01*
X156741703Y-125817272D01*
X156727758Y-125808424D01*
X156714115Y-125798939D01*
X156700774Y-125788817D01*
X156687713Y-125777958D01*
X156675044Y-125766126D01*
X156662768Y-125753323D01*
X156650886Y-125739546D01*
X156639396Y-125724798D01*
X156628298Y-125709077D01*
X156617594Y-125692383D01*
X156607283Y-125674717D01*
X156597364Y-125656079D01*
X156587838Y-125636468D01*
X156581706Y-125622854D01*
X156575850Y-125608955D01*
X156570371Y-125594827D01*
X156565271Y-125580470D01*
X156560548Y-125565884D01*
X156556203Y-125551069D01*
X156552236Y-125536025D01*
X156548647Y-125520753D01*
X156545436Y-125505251D01*
X156542602Y-125489520D01*
X156540146Y-125473560D01*
X156538068Y-125457371D01*
X156536368Y-125440954D01*
X156535046Y-125424307D01*
X156534101Y-125407431D01*
X156533535Y-125390327D01*
X156533446Y-125382152D01*
X156791266Y-125382152D01*
X156792669Y-125398096D01*
X156797706Y-125412968D01*
X156807752Y-125425429D01*
X156820575Y-125432711D01*
X156826985Y-125434675D01*
X156841733Y-125437519D01*
X156857189Y-125439408D01*
X156875896Y-125440954D01*
X156892061Y-125441888D01*
X156910054Y-125442628D01*
X156929876Y-125443176D01*
X156951528Y-125443530D01*
X156966978Y-125443659D01*
X156983241Y-125443702D01*
X157825879Y-125443702D01*
X157840863Y-125443651D01*
X157861996Y-125443388D01*
X157881520Y-125442900D01*
X157899434Y-125442186D01*
X157915738Y-125441247D01*
X157930432Y-125440083D01*
X157947520Y-125438179D01*
X157964854Y-125435237D01*
X157979752Y-125430879D01*
X157993216Y-125423048D01*
X158003764Y-125410406D01*
X158009054Y-125395763D01*
X158010526Y-125380321D01*
X158009625Y-125366698D01*
X158005618Y-125351459D01*
X157997278Y-125338312D01*
X157984881Y-125329396D01*
X157983138Y-125328675D01*
X157967768Y-125324828D01*
X157952842Y-125322721D01*
X157934171Y-125320981D01*
X157917712Y-125319916D01*
X157899146Y-125319058D01*
X157878475Y-125318405D01*
X157863524Y-125318084D01*
X157847637Y-125317855D01*
X157830815Y-125317718D01*
X157813056Y-125317672D01*
X156983241Y-125317672D01*
X156967502Y-125317722D01*
X156945320Y-125317985D01*
X156924852Y-125318474D01*
X156906096Y-125319187D01*
X156889054Y-125320127D01*
X156873725Y-125321291D01*
X156855950Y-125323195D01*
X156838015Y-125326137D01*
X156822773Y-125330495D01*
X156820835Y-125331344D01*
X156807543Y-125339913D01*
X156798189Y-125351643D01*
X156792774Y-125366532D01*
X156791266Y-125382152D01*
X156533446Y-125382152D01*
X156533346Y-125372993D01*
X156533619Y-125351801D01*
X156534439Y-125330999D01*
X156535806Y-125310585D01*
X156537719Y-125290561D01*
X156540179Y-125270926D01*
X156543186Y-125251681D01*
X156546739Y-125232825D01*
X156550840Y-125214357D01*
X156555486Y-125196280D01*
X156560680Y-125178591D01*
X156566420Y-125161292D01*
X156572707Y-125144382D01*
X156579540Y-125127861D01*
X156586921Y-125111730D01*
X156594848Y-125095987D01*
X156603321Y-125080635D01*
X156612248Y-125065834D01*
X156621536Y-125051657D01*
X156631185Y-125038105D01*
X156641194Y-125025176D01*
X156651564Y-125012871D01*
X156662294Y-125001191D01*
X156673386Y-124990134D01*
X156684837Y-124979701D01*
X156696650Y-124969892D01*
X156708823Y-124960707D01*
X156721356Y-124952147D01*
X156734251Y-124944210D01*
X156747506Y-124936897D01*
X156761121Y-124930208D01*
X156775097Y-124924143D01*
X156789434Y-124918702D01*
X156804392Y-124913777D01*
X156820232Y-124909170D01*
X156836953Y-124904881D01*
X156854556Y-124900910D01*
X156873040Y-124897256D01*
X156892406Y-124893920D01*
X156912653Y-124890902D01*
X156933782Y-124888202D01*
X156955792Y-124885819D01*
X156978684Y-124883754D01*
X157002458Y-124882006D01*
X157027113Y-124880577D01*
X157052650Y-124879465D01*
X157079068Y-124878671D01*
X157106368Y-124878194D01*
X157134549Y-124878035D01*
X157710108Y-124878035D01*
X157731722Y-124878134D01*
G37*
G36*
X157987079Y-126924180D02*
G01*
X158245000Y-126924180D01*
X158245000Y-125984822D01*
X158042400Y-125984822D01*
X157999098Y-126010028D01*
X157956844Y-126034584D01*
X157915638Y-126058491D01*
X157875481Y-126081748D01*
X157836372Y-126104355D01*
X157798311Y-126126313D01*
X157761299Y-126147620D01*
X157725335Y-126168278D01*
X157690419Y-126188287D01*
X157656551Y-126207645D01*
X157623732Y-126226354D01*
X157591961Y-126244414D01*
X157561238Y-126261823D01*
X157531564Y-126278583D01*
X157502938Y-126294693D01*
X157475360Y-126310153D01*
X157448830Y-126324964D01*
X157423349Y-126339124D01*
X157398916Y-126352636D01*
X157375531Y-126365497D01*
X157353195Y-126377709D01*
X157331907Y-126389271D01*
X157311667Y-126400183D01*
X157292475Y-126410445D01*
X157274332Y-126420058D01*
X157257237Y-126429021D01*
X157241190Y-126437334D01*
X157226192Y-126444998D01*
X157212242Y-126452012D01*
X157187487Y-126464090D01*
X157176681Y-126469155D01*
X157156364Y-126478383D01*
X157136627Y-126487015D01*
X157117472Y-126495052D01*
X157098898Y-126502494D01*
X157080904Y-126509341D01*
X157063492Y-126515592D01*
X157046661Y-126521248D01*
X157030410Y-126526308D01*
X157014741Y-126530773D01*
X156999653Y-126534643D01*
X156985146Y-126537917D01*
X156964474Y-126541712D01*
X156945110Y-126544168D01*
X156927054Y-126545284D01*
X156921325Y-126545359D01*
X156904953Y-126545038D01*
X156889726Y-126544077D01*
X156872303Y-126541973D01*
X156856668Y-126538867D01*
X156840267Y-126533818D01*
X156826443Y-126527327D01*
X156822407Y-126524842D01*
X156810273Y-126514885D01*
X156801119Y-126502964D01*
X156794946Y-126489079D01*
X156791753Y-126473231D01*
X156791266Y-126463293D01*
X156792896Y-126446448D01*
X156797788Y-126431497D01*
X156805940Y-126418439D01*
X156817352Y-126407274D01*
X156825338Y-126401744D01*
X156840644Y-126394772D01*
X156857472Y-126390063D01*
X156873600Y-126387018D01*
X156892099Y-126384614D01*
X156907528Y-126383231D01*
X156924290Y-126382209D01*
X156942386Y-126381548D01*
X156961814Y-126381248D01*
X156968586Y-126381228D01*
X157142976Y-126381228D01*
X157142976Y-125984822D01*
X157071901Y-125984822D01*
X157054859Y-125984879D01*
X157038264Y-125985051D01*
X157022116Y-125985337D01*
X157006413Y-125985737D01*
X156991158Y-125986253D01*
X156976349Y-125986882D01*
X156954972Y-125988042D01*
X156934600Y-125989458D01*
X156915233Y-125991133D01*
X156896871Y-125993065D01*
X156879513Y-125995254D01*
X156863159Y-125997702D01*
X156852815Y-125999476D01*
X156837653Y-126002673D01*
X156822530Y-126006629D01*
X156807445Y-126011345D01*
X156792400Y-126016821D01*
X156777392Y-126023057D01*
X156762423Y-126030053D01*
X156747493Y-126037809D01*
X156732602Y-126046325D01*
X156717749Y-126055601D01*
X156702935Y-126065636D01*
X156693080Y-126072749D01*
X156678584Y-126083977D01*
X156664770Y-126095817D01*
X156651639Y-126108269D01*
X156639191Y-126121332D01*
X156627425Y-126135008D01*
X156616341Y-126149295D01*
X156605941Y-126164194D01*
X156596223Y-126179704D01*
X156587188Y-126195827D01*
X156578835Y-126212561D01*
X156573646Y-126224057D01*
X156566444Y-126241890D01*
X156559950Y-126260353D01*
X156554165Y-126279448D01*
X156549088Y-126299174D01*
X156544719Y-126319530D01*
X156541059Y-126340518D01*
X156538108Y-126362137D01*
X156536533Y-126376901D01*
X156535274Y-126391945D01*
X156534330Y-126407269D01*
X156533700Y-126422874D01*
X156533385Y-126438759D01*
X156533346Y-126446807D01*
X156533473Y-126462487D01*
X156533854Y-126477929D01*
X156534489Y-126493133D01*
X156535378Y-126508098D01*
X156536521Y-126522826D01*
X156539569Y-126551565D01*
X156543634Y-126579352D01*
X156548714Y-126606185D01*
X156554810Y-126632065D01*
X156561923Y-126656992D01*
X156570052Y-126680966D01*
X156579197Y-126703987D01*
X156589358Y-126726055D01*
X156600534Y-126747169D01*
X156612728Y-126767331D01*
X156625937Y-126786539D01*
X156640162Y-126804795D01*
X156655403Y-126822097D01*
X156663405Y-126830390D01*
X156679886Y-126846228D01*
X156696904Y-126861045D01*
X156714461Y-126874839D01*
X156732556Y-126887612D01*
X156751189Y-126899363D01*
X156770360Y-126910092D01*
X156790070Y-126919799D01*
X156810317Y-126928484D01*
X156831102Y-126936148D01*
X156852426Y-126942790D01*
X156874288Y-126948410D01*
X156896687Y-126953008D01*
X156919625Y-126956584D01*
X156943101Y-126959139D01*
X156967115Y-126960671D01*
X156991667Y-126961182D01*
X157010415Y-126960899D01*
X157029288Y-126960049D01*
X157048288Y-126958632D01*
X157067413Y-126956649D01*
X157086664Y-126954098D01*
X157106042Y-126950981D01*
X157125545Y-126947298D01*
X157145174Y-126943047D01*
X157164929Y-126938230D01*
X157184810Y-126932846D01*
X157204817Y-126926896D01*
X157224950Y-126920379D01*
X157245209Y-126913295D01*
X157265593Y-126905644D01*
X157286104Y-126897426D01*
X157306741Y-126888642D01*
X157328761Y-126878579D01*
X157353515Y-126866431D01*
X157366917Y-126859576D01*
X157381002Y-126852200D01*
X157395771Y-126844304D01*
X157411223Y-126835886D01*
X157427359Y-126826947D01*
X157444177Y-126817487D01*
X157461679Y-126807507D01*
X157479865Y-126797005D01*
X157498734Y-126785983D01*
X157518286Y-126774440D01*
X157538521Y-126762375D01*
X157559440Y-126749790D01*
X157581043Y-126736684D01*
X157603328Y-126723057D01*
X157626297Y-126708909D01*
X157649950Y-126694240D01*
X157674285Y-126679050D01*
X157699304Y-126663340D01*
X157725007Y-126647108D01*
X157751392Y-126630355D01*
X157778461Y-126613082D01*
X157806214Y-126595287D01*
X157834650Y-126576972D01*
X157863769Y-126558136D01*
X157893571Y-126538779D01*
X157924057Y-126518901D01*
X157955226Y-126498501D01*
X157987079Y-126477581D01*
X157987079Y-126924180D01*
G37*
G36*
X157940184Y-127447348D02*
G01*
X158245000Y-127447348D01*
X158245000Y-127886985D01*
X157940184Y-127886985D01*
X157940184Y-128005321D01*
X157635369Y-128005321D01*
X157635369Y-127886985D01*
X156556793Y-127886985D01*
X156556793Y-127459071D01*
X156937079Y-127459071D01*
X157635369Y-127447348D01*
X157635369Y-127290544D01*
X156937079Y-127459071D01*
X156556793Y-127459071D01*
X156556793Y-127315457D01*
X157645261Y-126952756D01*
X157940184Y-126952756D01*
X157940184Y-127447348D01*
G37*
G36*
X157400896Y-128595900D02*
G01*
X157705711Y-128595900D01*
X157705711Y-128025104D01*
X157400896Y-128025104D01*
X157400896Y-128595900D01*
G37*
G36*
X156556793Y-129346214D02*
G01*
X158245000Y-129346214D01*
X158245000Y-128906210D01*
X157329455Y-128906210D01*
X157305800Y-128906176D01*
X157283379Y-128906073D01*
X157262192Y-128905901D01*
X157242238Y-128905661D01*
X157223517Y-128905352D01*
X157206030Y-128904974D01*
X157189777Y-128904527D01*
X157174758Y-128904012D01*
X157154542Y-128903110D01*
X157137101Y-128902054D01*
X157122436Y-128900844D01*
X157107201Y-128898989D01*
X157099012Y-128897418D01*
X157084003Y-128892328D01*
X157070712Y-128884434D01*
X157059139Y-128873735D01*
X157049284Y-128860232D01*
X157044424Y-128851256D01*
X157039041Y-128836923D01*
X157035392Y-128821799D01*
X157032326Y-128803424D01*
X157030410Y-128787508D01*
X157028823Y-128769764D01*
X157027564Y-128750191D01*
X157026633Y-128728788D01*
X157026195Y-128713504D01*
X157025903Y-128697407D01*
X157025757Y-128680497D01*
X157025739Y-128671737D01*
X157025739Y-128618981D01*
X156822773Y-128618981D01*
X156818565Y-128638023D01*
X156814092Y-128656772D01*
X156809355Y-128675229D01*
X156804352Y-128693393D01*
X156799085Y-128711264D01*
X156793553Y-128728843D01*
X156787756Y-128746129D01*
X156781695Y-128763122D01*
X156775369Y-128779823D01*
X156768778Y-128796231D01*
X156761922Y-128812346D01*
X156754801Y-128828169D01*
X156747416Y-128843699D01*
X156739766Y-128858936D01*
X156731851Y-128873881D01*
X156723672Y-128888533D01*
X156715228Y-128902893D01*
X156706519Y-128916959D01*
X156697545Y-128930733D01*
X156688306Y-128944215D01*
X156678803Y-128957404D01*
X156669035Y-128970300D01*
X156659002Y-128982903D01*
X156648705Y-128995214D01*
X156638142Y-129007232D01*
X156627315Y-129018957D01*
X156616223Y-129030390D01*
X156604867Y-129041530D01*
X156593245Y-129052378D01*
X156581359Y-129062933D01*
X156569209Y-129073195D01*
X156556793Y-129083164D01*
X156556793Y-129346214D01*
G37*
G36*
X157096081Y-130434316D02*
G01*
X157096081Y-130007868D01*
X156960526Y-130007868D01*
X156945493Y-130007755D01*
X156927192Y-130007254D01*
X156910883Y-130006352D01*
X156893299Y-130004662D01*
X156878826Y-130002345D01*
X156863795Y-129998050D01*
X156857944Y-129995045D01*
X156846681Y-129984403D01*
X156840093Y-129969605D01*
X156838180Y-129954407D01*
X156838161Y-129952547D01*
X156839786Y-129937182D01*
X156845502Y-129922142D01*
X156855333Y-129909477D01*
X156864173Y-129902355D01*
X156878965Y-129894821D01*
X156895138Y-129889995D01*
X156911401Y-129887170D01*
X156926646Y-129885741D01*
X156943430Y-129885152D01*
X156946971Y-129885136D01*
X156964980Y-129885468D01*
X156981821Y-129886464D01*
X156997495Y-129888124D01*
X157012001Y-129890448D01*
X157028491Y-129894287D01*
X157043156Y-129899163D01*
X157058346Y-129906385D01*
X157070490Y-129914596D01*
X157083798Y-129926635D01*
X157095281Y-129939023D01*
X157107509Y-129953860D01*
X157117167Y-129966597D01*
X157127245Y-129980711D01*
X157137741Y-129996203D01*
X157148656Y-130013074D01*
X157156165Y-130025087D01*
X157167385Y-130043103D01*
X157178469Y-130060698D01*
X157189416Y-130077873D01*
X157200226Y-130094627D01*
X157210899Y-130110961D01*
X157221436Y-130126873D01*
X157231837Y-130142365D01*
X157242100Y-130157436D01*
X157252227Y-130172086D01*
X157262217Y-130186316D01*
X157272071Y-130200124D01*
X157281788Y-130213512D01*
X157291368Y-130226480D01*
X157300812Y-130239026D01*
X157310118Y-130251152D01*
X157319289Y-130262857D01*
X157337219Y-130285005D01*
X157354603Y-130305470D01*
X157371440Y-130324252D01*
X157387730Y-130341351D01*
X157403474Y-130356767D01*
X157418671Y-130370500D01*
X157433321Y-130382549D01*
X157447424Y-130392916D01*
X157461823Y-130402277D01*
X157477266Y-130411034D01*
X157493754Y-130419187D01*
X157511286Y-130426736D01*
X157529864Y-130433682D01*
X157549486Y-130440023D01*
X157570152Y-130445760D01*
X157591864Y-130450894D01*
X157614620Y-130455423D01*
X157638420Y-130459349D01*
X157663266Y-130462670D01*
X157689156Y-130465388D01*
X157716091Y-130467502D01*
X157744071Y-130469011D01*
X157773095Y-130469917D01*
X157787999Y-130470144D01*
X157803164Y-130470219D01*
X157825062Y-130470050D01*
X157846241Y-130469544D01*
X157866701Y-130468699D01*
X157886443Y-130467517D01*
X157905467Y-130465998D01*
X157923772Y-130464140D01*
X157941359Y-130461945D01*
X157958228Y-130459412D01*
X157974378Y-130456541D01*
X157989810Y-130453332D01*
X158004523Y-130449786D01*
X158025246Y-130443833D01*
X158044352Y-130437121D01*
X158061842Y-130429648D01*
X158067313Y-130426988D01*
X158083142Y-130418184D01*
X158098482Y-130407982D01*
X158113333Y-130396382D01*
X158127694Y-130383385D01*
X158141566Y-130368991D01*
X158154948Y-130353199D01*
X158167841Y-130336009D01*
X158176165Y-130323773D01*
X158184270Y-130310916D01*
X158192159Y-130297438D01*
X158199829Y-130283339D01*
X158207283Y-130268618D01*
X158210928Y-130261025D01*
X158217893Y-130245578D01*
X158224409Y-130229827D01*
X158230475Y-130213773D01*
X158236092Y-130197415D01*
X158241260Y-130180754D01*
X158245978Y-130163790D01*
X158250247Y-130146522D01*
X158254067Y-130128951D01*
X158257437Y-130111076D01*
X158260358Y-130092898D01*
X158262830Y-130074417D01*
X158264852Y-130055632D01*
X158266425Y-130036544D01*
X158267548Y-130017153D01*
X158268222Y-129997458D01*
X158268447Y-129977459D01*
X158268183Y-129955493D01*
X158267394Y-129933925D01*
X158266077Y-129912755D01*
X158264234Y-129891982D01*
X158261864Y-129871607D01*
X158258967Y-129851630D01*
X158255544Y-129832051D01*
X158251594Y-129812870D01*
X158247118Y-129794087D01*
X158242114Y-129775701D01*
X158236585Y-129757714D01*
X158230528Y-129740124D01*
X158223945Y-129722932D01*
X158216835Y-129706138D01*
X158209199Y-129689742D01*
X158201036Y-129673743D01*
X158192418Y-129658285D01*
X158183508Y-129643507D01*
X158174306Y-129629410D01*
X158164812Y-129615995D01*
X158155026Y-129603261D01*
X158144948Y-129591208D01*
X158134578Y-129579837D01*
X158123916Y-129569146D01*
X158112962Y-129559137D01*
X158095984Y-129545401D01*
X158078350Y-129533197D01*
X158060058Y-129522526D01*
X158041109Y-129513387D01*
X158028112Y-129508147D01*
X158007650Y-129501141D01*
X157993178Y-129496853D01*
X157978043Y-129492872D01*
X157962244Y-129489197D01*
X157945780Y-129485828D01*
X157928653Y-129482766D01*
X157910861Y-129480009D01*
X157892405Y-129477559D01*
X157873286Y-129475415D01*
X157853502Y-129473578D01*
X157833054Y-129472047D01*
X157811943Y-129470822D01*
X157790167Y-129469903D01*
X157767727Y-129469290D01*
X157744623Y-129468984D01*
X157732822Y-129468946D01*
X157611922Y-129468946D01*
X157611922Y-129895394D01*
X157827344Y-129895394D01*
X157843781Y-129895519D01*
X157859020Y-129895896D01*
X157877476Y-129896789D01*
X157893802Y-129898129D01*
X157911215Y-129900431D01*
X157927719Y-129904115D01*
X157940917Y-129909682D01*
X157951897Y-129919664D01*
X157959284Y-129933124D01*
X157962833Y-129948007D01*
X157963632Y-129960973D01*
X157962212Y-129976125D01*
X157957111Y-129991295D01*
X157948301Y-130004175D01*
X157935782Y-130014765D01*
X157933956Y-130015928D01*
X157919378Y-130023208D01*
X157904343Y-130028025D01*
X157886963Y-130031529D01*
X157870690Y-130033444D01*
X157852788Y-130034448D01*
X157841266Y-130034612D01*
X157823890Y-130034466D01*
X157807297Y-130034028D01*
X157791489Y-130033298D01*
X157776465Y-130032277D01*
X157755400Y-130030197D01*
X157736099Y-130027460D01*
X157718563Y-130024066D01*
X157702792Y-130020015D01*
X157688785Y-130015307D01*
X157672854Y-130008009D01*
X157660060Y-129999542D01*
X157657351Y-129997243D01*
X157645547Y-129985382D01*
X157635507Y-129974022D01*
X157624450Y-129960549D01*
X157612375Y-129944965D01*
X157599282Y-129927267D01*
X157589989Y-129914296D01*
X157580243Y-129900385D01*
X157570045Y-129885536D01*
X157559395Y-129869748D01*
X157548292Y-129853021D01*
X157536737Y-129835356D01*
X157524730Y-129816751D01*
X157512271Y-129797208D01*
X157499570Y-129777299D01*
X157487295Y-129758236D01*
X157475447Y-129740021D01*
X157464025Y-129722653D01*
X157453030Y-129706132D01*
X157442461Y-129690459D01*
X157432319Y-129675632D01*
X157422603Y-129661653D01*
X157413314Y-129648522D01*
X157404451Y-129636237D01*
X157391956Y-129619398D01*
X157380421Y-129604466D01*
X157369846Y-129591440D01*
X157360230Y-129580321D01*
X157347378Y-129567143D01*
X157333371Y-129554538D01*
X157318207Y-129542505D01*
X157306075Y-129533856D01*
X157293292Y-129525529D01*
X157279860Y-129517524D01*
X157265776Y-129509841D01*
X157251043Y-129502480D01*
X157235659Y-129495441D01*
X157225041Y-129490928D01*
X157208421Y-129484642D01*
X157190982Y-129478975D01*
X157172726Y-129473926D01*
X157153652Y-129469495D01*
X157133760Y-129465683D01*
X157113050Y-129462489D01*
X157091522Y-129459913D01*
X157076716Y-129458539D01*
X157061546Y-129457440D01*
X157046013Y-129456615D01*
X157030116Y-129456066D01*
X157013856Y-129455791D01*
X157005589Y-129455757D01*
X156982079Y-129455954D01*
X156959359Y-129456547D01*
X156937428Y-129457534D01*
X156916288Y-129458917D01*
X156895937Y-129460694D01*
X156876377Y-129462866D01*
X156857607Y-129465434D01*
X156839626Y-129468396D01*
X156822436Y-129471754D01*
X156806035Y-129475506D01*
X156790425Y-129479653D01*
X156775604Y-129484196D01*
X156761573Y-129489133D01*
X156742009Y-129497280D01*
X156724221Y-129506315D01*
X156707674Y-129516336D01*
X156691828Y-129527438D01*
X156676685Y-129539623D01*
X156662243Y-129552889D01*
X156648503Y-129567237D01*
X156635465Y-129582668D01*
X156623130Y-129599180D01*
X156611496Y-129616774D01*
X156600564Y-129635450D01*
X156593666Y-129648501D01*
X156587080Y-129662034D01*
X156583904Y-129668981D01*
X156577782Y-129683170D01*
X156572054Y-129697712D01*
X156566722Y-129712605D01*
X156561785Y-129727851D01*
X156557242Y-129743448D01*
X156553095Y-129759398D01*
X156549343Y-129775700D01*
X156545985Y-129792354D01*
X156543023Y-129809360D01*
X156540455Y-129826718D01*
X156538283Y-129844428D01*
X156536506Y-129862490D01*
X156535123Y-129880904D01*
X156534136Y-129899670D01*
X156533543Y-129918788D01*
X156533346Y-129938258D01*
X156533565Y-129959498D01*
X156534221Y-129980350D01*
X156535316Y-130000817D01*
X156536849Y-130020896D01*
X156538820Y-130040590D01*
X156541228Y-130059897D01*
X156544075Y-130078818D01*
X156547359Y-130097352D01*
X156551081Y-130115500D01*
X156555242Y-130133262D01*
X156559840Y-130150637D01*
X156564876Y-130167625D01*
X156570350Y-130184228D01*
X156576262Y-130200444D01*
X156582612Y-130216273D01*
X156589399Y-130231716D01*
X156596523Y-130246690D01*
X156603882Y-130261020D01*
X156611476Y-130274705D01*
X156619304Y-130287747D01*
X156627367Y-130300145D01*
X156639901Y-130317534D01*
X156652964Y-130333474D01*
X156666554Y-130347965D01*
X156680673Y-130361007D01*
X156695319Y-130372600D01*
X156710494Y-130382744D01*
X156726197Y-130391439D01*
X156731549Y-130394016D01*
X156748637Y-130401218D01*
X156767754Y-130407711D01*
X156788900Y-130413497D01*
X156804124Y-130416960D01*
X156820250Y-130420108D01*
X156837277Y-130422942D01*
X156855206Y-130425461D01*
X156874037Y-130427665D01*
X156893769Y-130429554D01*
X156914403Y-130431128D01*
X156935938Y-130432387D01*
X156958375Y-130433332D01*
X156981714Y-130433961D01*
X157005954Y-130434276D01*
X157018412Y-130434316D01*
X157096081Y-130434316D01*
G37*
G36*
X169352180Y-130806793D02*
G01*
X169604239Y-131570296D01*
X169328733Y-132495000D01*
X169802076Y-132495000D01*
X169968039Y-131769598D01*
X169956315Y-132495000D01*
X170413538Y-132495000D01*
X170413538Y-130806793D01*
X169956315Y-130806793D01*
X169968039Y-131465150D01*
X169784124Y-130806793D01*
X169352180Y-130806793D01*
G37*
G36*
X168389375Y-130806793D02*
G01*
X168389375Y-131158503D01*
X168646929Y-131158503D01*
X168646929Y-132495000D01*
X169104152Y-132495000D01*
X169104152Y-131158503D01*
X169360607Y-131158503D01*
X169360607Y-130806793D01*
X168389375Y-130806793D01*
G37*
G36*
X167309699Y-130806793D02*
G01*
X167309699Y-131923471D01*
X167309750Y-131946668D01*
X167309900Y-131968998D01*
X167310150Y-131990460D01*
X167310501Y-132011055D01*
X167310952Y-132030783D01*
X167311503Y-132049644D01*
X167312154Y-132067637D01*
X167312905Y-132084763D01*
X167313757Y-132101022D01*
X167314708Y-132116414D01*
X167316324Y-132137875D01*
X167318164Y-132157385D01*
X167320231Y-132174943D01*
X167322522Y-132190551D01*
X167325364Y-132205221D01*
X167329082Y-132219969D01*
X167333676Y-132234794D01*
X167339146Y-132249696D01*
X167345492Y-132264675D01*
X167352713Y-132279732D01*
X167360810Y-132294866D01*
X167369783Y-132310077D01*
X167379632Y-132325366D01*
X167390357Y-132340732D01*
X167397993Y-132351018D01*
X167410022Y-132366123D01*
X167422753Y-132380526D01*
X167436186Y-132394228D01*
X167450320Y-132407227D01*
X167465157Y-132419524D01*
X167480696Y-132431119D01*
X167496936Y-132442012D01*
X167513879Y-132452204D01*
X167531523Y-132461693D01*
X167549870Y-132470480D01*
X167562491Y-132475949D01*
X167581900Y-132483543D01*
X167601934Y-132490391D01*
X167622592Y-132496492D01*
X167643875Y-132501846D01*
X167658411Y-132505000D01*
X167673224Y-132507822D01*
X167688315Y-132510312D01*
X167703684Y-132512470D01*
X167719330Y-132514297D01*
X167735254Y-132515791D01*
X167751456Y-132516953D01*
X167767935Y-132517783D01*
X167784692Y-132518281D01*
X167801727Y-132518447D01*
X167820594Y-132518251D01*
X167839187Y-132517663D01*
X167857506Y-132516682D01*
X167875549Y-132515310D01*
X167893318Y-132513545D01*
X167910812Y-132511389D01*
X167928031Y-132508840D01*
X167944975Y-132505899D01*
X167961645Y-132502566D01*
X167978039Y-132498841D01*
X167994159Y-132494723D01*
X168010005Y-132490214D01*
X168025575Y-132485312D01*
X168040871Y-132480019D01*
X168055892Y-132474333D01*
X168070638Y-132468255D01*
X168085019Y-132461861D01*
X168098945Y-132455226D01*
X168112416Y-132448351D01*
X168125432Y-132441236D01*
X168144103Y-132430112D01*
X168161750Y-132418447D01*
X168178372Y-132406241D01*
X168193971Y-132393494D01*
X168208546Y-132380206D01*
X168222097Y-132366377D01*
X168234624Y-132352007D01*
X168246127Y-132337096D01*
X168256696Y-132321779D01*
X168266421Y-132306326D01*
X168275303Y-132290738D01*
X168283341Y-132275015D01*
X168290536Y-132259156D01*
X168296887Y-132243163D01*
X168302394Y-132227034D01*
X168307057Y-132210770D01*
X168310877Y-132194370D01*
X168313854Y-132177835D01*
X168315369Y-132166737D01*
X168317203Y-132148298D01*
X168318856Y-132126504D01*
X168319857Y-132110111D01*
X168320779Y-132092226D01*
X168321620Y-132072851D01*
X168322382Y-132051984D01*
X168323063Y-132029625D01*
X168323664Y-132005776D01*
X168324185Y-131980435D01*
X168324626Y-131953603D01*
X168324986Y-131925280D01*
X168325137Y-131910559D01*
X168325267Y-131895466D01*
X168325377Y-131879999D01*
X168325467Y-131864160D01*
X168325537Y-131847948D01*
X168325587Y-131831364D01*
X168325618Y-131814406D01*
X168325628Y-131797076D01*
X168325628Y-130806793D01*
X167868405Y-130806793D01*
X167868405Y-132057194D01*
X167868318Y-132076338D01*
X167868057Y-132094065D01*
X167867622Y-132110376D01*
X167867014Y-132125269D01*
X167865932Y-132142923D01*
X167864541Y-132158059D01*
X167862367Y-132173436D01*
X167858513Y-132188353D01*
X167850384Y-132201683D01*
X167837476Y-132210645D01*
X167822134Y-132213607D01*
X167820411Y-132213632D01*
X167805344Y-132211869D01*
X167791788Y-132205670D01*
X167780940Y-132193549D01*
X167777180Y-132185422D01*
X167773183Y-132168484D01*
X167770929Y-132150955D01*
X167769487Y-132133673D01*
X167768615Y-132118810D01*
X167767924Y-132102319D01*
X167767413Y-132084197D01*
X167767082Y-132064447D01*
X167766932Y-132043067D01*
X167766922Y-132035579D01*
X167766922Y-130806793D01*
X167309699Y-130806793D01*
G37*
G36*
X166179832Y-130806793D02*
G01*
X166179832Y-132495000D01*
X166580635Y-132495000D01*
X166797522Y-131726367D01*
X166785799Y-132495000D01*
X167171946Y-132495000D01*
X167171946Y-130806793D01*
X166789096Y-130806793D01*
X166554256Y-131568098D01*
X166565980Y-130806793D01*
X166179832Y-130806793D01*
G37*
G36*
X165513415Y-131650896D02*
G01*
X165513415Y-131955711D01*
X166084211Y-131955711D01*
X166084211Y-131650896D01*
X165513415Y-131650896D01*
G37*
G36*
X164507745Y-132237079D02*
G01*
X164507745Y-132495000D01*
X165447103Y-132495000D01*
X165447103Y-132292400D01*
X165421897Y-132249098D01*
X165397341Y-132206844D01*
X165373434Y-132165638D01*
X165350177Y-132125481D01*
X165327570Y-132086372D01*
X165305612Y-132048311D01*
X165284305Y-132011299D01*
X165263647Y-131975335D01*
X165243638Y-131940419D01*
X165224280Y-131906551D01*
X165205571Y-131873732D01*
X165187511Y-131841961D01*
X165170102Y-131811238D01*
X165153342Y-131781564D01*
X165137232Y-131752938D01*
X165121772Y-131725360D01*
X165106961Y-131698830D01*
X165092801Y-131673349D01*
X165079289Y-131648916D01*
X165066428Y-131625531D01*
X165054216Y-131603195D01*
X165042654Y-131581907D01*
X165031742Y-131561667D01*
X165021480Y-131542475D01*
X165011867Y-131524332D01*
X165002904Y-131507237D01*
X164994591Y-131491190D01*
X164986927Y-131476192D01*
X164979913Y-131462242D01*
X164967835Y-131437487D01*
X164962770Y-131426681D01*
X164953542Y-131406364D01*
X164944910Y-131386627D01*
X164936873Y-131367472D01*
X164929431Y-131348898D01*
X164922584Y-131330904D01*
X164916333Y-131313492D01*
X164910677Y-131296661D01*
X164905617Y-131280410D01*
X164901152Y-131264741D01*
X164897282Y-131249653D01*
X164894008Y-131235146D01*
X164890213Y-131214474D01*
X164887757Y-131195110D01*
X164886641Y-131177054D01*
X164886566Y-131171325D01*
X164886887Y-131154953D01*
X164887848Y-131139726D01*
X164889952Y-131122303D01*
X164893058Y-131106668D01*
X164898107Y-131090267D01*
X164904598Y-131076443D01*
X164907083Y-131072407D01*
X164917040Y-131060273D01*
X164928961Y-131051119D01*
X164942846Y-131044946D01*
X164958694Y-131041753D01*
X164968632Y-131041266D01*
X164985477Y-131042896D01*
X165000428Y-131047788D01*
X165013486Y-131055940D01*
X165024651Y-131067352D01*
X165030181Y-131075338D01*
X165037153Y-131090644D01*
X165041862Y-131107472D01*
X165044907Y-131123600D01*
X165047311Y-131142099D01*
X165048694Y-131157528D01*
X165049716Y-131174290D01*
X165050377Y-131192386D01*
X165050677Y-131211814D01*
X165050697Y-131218586D01*
X165050697Y-131392976D01*
X165447103Y-131392976D01*
X165447103Y-131321901D01*
X165447046Y-131304859D01*
X165446875Y-131288264D01*
X165446588Y-131272116D01*
X165446188Y-131256413D01*
X165445672Y-131241158D01*
X165445043Y-131226349D01*
X165443883Y-131204972D01*
X165442467Y-131184600D01*
X165440792Y-131165233D01*
X165438860Y-131146871D01*
X165436671Y-131129513D01*
X165434223Y-131113159D01*
X165432449Y-131102815D01*
X165429253Y-131087653D01*
X165425296Y-131072530D01*
X165420580Y-131057445D01*
X165415104Y-131042400D01*
X165408868Y-131027392D01*
X165401872Y-131012423D01*
X165394116Y-130997493D01*
X165385600Y-130982602D01*
X165376324Y-130967749D01*
X165366289Y-130952935D01*
X165359176Y-130943080D01*
X165347948Y-130928584D01*
X165336108Y-130914770D01*
X165323656Y-130901639D01*
X165310593Y-130889191D01*
X165296917Y-130877425D01*
X165282630Y-130866341D01*
X165267731Y-130855941D01*
X165252221Y-130846223D01*
X165236098Y-130837188D01*
X165219364Y-130828835D01*
X165207868Y-130823646D01*
X165190035Y-130816444D01*
X165171572Y-130809950D01*
X165152477Y-130804165D01*
X165132751Y-130799088D01*
X165112395Y-130794719D01*
X165091407Y-130791059D01*
X165069788Y-130788108D01*
X165055024Y-130786533D01*
X165039980Y-130785274D01*
X165024656Y-130784330D01*
X165009051Y-130783700D01*
X164993166Y-130783385D01*
X164985118Y-130783346D01*
X164969438Y-130783473D01*
X164953996Y-130783854D01*
X164938792Y-130784489D01*
X164923827Y-130785378D01*
X164909099Y-130786521D01*
X164880360Y-130789569D01*
X164852573Y-130793634D01*
X164825740Y-130798714D01*
X164799860Y-130804810D01*
X164774933Y-130811923D01*
X164750959Y-130820052D01*
X164727938Y-130829197D01*
X164705870Y-130839358D01*
X164684756Y-130850534D01*
X164664594Y-130862728D01*
X164645386Y-130875937D01*
X164627131Y-130890162D01*
X164609828Y-130905403D01*
X164601535Y-130913405D01*
X164585697Y-130929886D01*
X164570880Y-130946904D01*
X164557086Y-130964461D01*
X164544313Y-130982556D01*
X164532562Y-131001189D01*
X164521833Y-131020360D01*
X164512126Y-131040070D01*
X164503441Y-131060317D01*
X164495777Y-131081102D01*
X164489135Y-131102426D01*
X164483515Y-131124288D01*
X164478917Y-131146687D01*
X164475341Y-131169625D01*
X164472786Y-131193101D01*
X164471254Y-131217115D01*
X164470743Y-131241667D01*
X164471026Y-131260415D01*
X164471876Y-131279288D01*
X164473293Y-131298288D01*
X164475276Y-131317413D01*
X164477827Y-131336664D01*
X164480944Y-131356042D01*
X164484627Y-131375545D01*
X164488878Y-131395174D01*
X164493695Y-131414929D01*
X164499079Y-131434810D01*
X164505029Y-131454817D01*
X164511547Y-131474950D01*
X164518631Y-131495209D01*
X164526281Y-131515593D01*
X164534499Y-131536104D01*
X164543283Y-131556741D01*
X164553346Y-131578761D01*
X164565494Y-131603515D01*
X164572349Y-131616917D01*
X164579725Y-131631002D01*
X164587621Y-131645771D01*
X164596039Y-131661223D01*
X164604978Y-131677359D01*
X164614438Y-131694177D01*
X164624418Y-131711679D01*
X164634920Y-131729865D01*
X164645942Y-131748734D01*
X164657485Y-131768286D01*
X164669550Y-131788521D01*
X164682135Y-131809440D01*
X164695241Y-131831043D01*
X164708868Y-131853328D01*
X164723016Y-131876297D01*
X164737685Y-131899950D01*
X164752875Y-131924285D01*
X164768585Y-131949304D01*
X164784817Y-131975007D01*
X164801570Y-132001392D01*
X164818843Y-132028461D01*
X164836638Y-132056214D01*
X164854953Y-132084650D01*
X164873789Y-132113769D01*
X164893146Y-132143571D01*
X164913025Y-132174057D01*
X164933424Y-132205226D01*
X164954344Y-132237079D01*
X164507745Y-132237079D01*
G37*
G36*
X163900989Y-130783619D02*
G01*
X163921792Y-130784439D01*
X163942205Y-130785806D01*
X163962229Y-130787719D01*
X163981864Y-130790179D01*
X164001109Y-130793186D01*
X164019966Y-130796739D01*
X164038433Y-130800840D01*
X164056511Y-130805486D01*
X164074199Y-130810680D01*
X164091498Y-130816420D01*
X164108408Y-130822707D01*
X164124929Y-130829540D01*
X164141061Y-130836921D01*
X164156803Y-130844848D01*
X164172156Y-130853321D01*
X164186956Y-130862248D01*
X164201133Y-130871536D01*
X164214686Y-130881185D01*
X164227614Y-130891194D01*
X164239919Y-130901564D01*
X164251600Y-130912294D01*
X164262656Y-130923386D01*
X164273089Y-130934837D01*
X164282898Y-130946650D01*
X164292083Y-130958823D01*
X164300644Y-130971356D01*
X164308581Y-130984251D01*
X164315894Y-130997506D01*
X164322583Y-131011121D01*
X164328648Y-131025097D01*
X164334089Y-131039434D01*
X164339013Y-131054392D01*
X164343620Y-131070232D01*
X164347909Y-131086953D01*
X164351880Y-131104556D01*
X164355534Y-131123040D01*
X164358870Y-131142406D01*
X164361888Y-131162653D01*
X164364589Y-131183782D01*
X164366971Y-131205792D01*
X164369037Y-131228684D01*
X164370784Y-131252458D01*
X164372214Y-131277113D01*
X164373326Y-131302650D01*
X164374120Y-131329068D01*
X164374596Y-131356368D01*
X164374755Y-131384549D01*
X164374755Y-131960108D01*
X164374657Y-131981722D01*
X164374360Y-132002600D01*
X164373867Y-132022743D01*
X164373175Y-132042150D01*
X164372287Y-132060822D01*
X164371200Y-132078758D01*
X164369917Y-132095959D01*
X164368435Y-132112424D01*
X164366757Y-132128153D01*
X164364881Y-132143147D01*
X164361696Y-132164258D01*
X164358067Y-132183714D01*
X164353994Y-132201516D01*
X164349476Y-132217662D01*
X164346179Y-132227847D01*
X164340718Y-132243023D01*
X164334638Y-132258076D01*
X164327941Y-132273007D01*
X164320625Y-132287816D01*
X164312691Y-132302503D01*
X164304139Y-132317067D01*
X164294968Y-132331508D01*
X164285179Y-132345828D01*
X164274772Y-132360025D01*
X164263747Y-132374099D01*
X164255986Y-132383243D01*
X164243749Y-132396383D01*
X164230797Y-132408835D01*
X164217130Y-132420598D01*
X164202749Y-132431671D01*
X164187652Y-132442056D01*
X164171841Y-132451751D01*
X164155315Y-132460758D01*
X164138074Y-132469075D01*
X164120118Y-132476703D01*
X164101448Y-132483642D01*
X164088569Y-132487857D01*
X164068527Y-132493669D01*
X164047615Y-132498869D01*
X164033191Y-132501996D01*
X164018380Y-132504851D01*
X164003183Y-132507434D01*
X163987600Y-132509746D01*
X163971630Y-132511785D01*
X163955274Y-132513552D01*
X163938531Y-132515048D01*
X163921402Y-132516272D01*
X163903887Y-132517223D01*
X163885985Y-132517903D01*
X163867697Y-132518311D01*
X163849023Y-132518447D01*
X163834637Y-132518317D01*
X163813381Y-132517633D01*
X163792511Y-132516363D01*
X163772027Y-132514507D01*
X163751930Y-132512065D01*
X163732220Y-132509038D01*
X163712895Y-132505424D01*
X163693957Y-132501224D01*
X163675406Y-132496438D01*
X163657241Y-132491066D01*
X163639462Y-132485108D01*
X163627800Y-132480727D01*
X163610709Y-132473528D01*
X163594102Y-132465576D01*
X163577977Y-132456870D01*
X163562335Y-132447411D01*
X163547177Y-132437198D01*
X163532501Y-132426232D01*
X163518308Y-132414512D01*
X163504599Y-132402039D01*
X163491372Y-132388812D01*
X163478628Y-132374832D01*
X163470428Y-132365218D01*
X163458804Y-132350636D01*
X163447991Y-132335860D01*
X163437990Y-132320891D01*
X163428800Y-132305729D01*
X163420421Y-132290374D01*
X163412854Y-132274826D01*
X163406099Y-132259085D01*
X163400155Y-132243150D01*
X163395022Y-132227022D01*
X163390701Y-132210701D01*
X163389394Y-132205130D01*
X163385721Y-132187231D01*
X163382421Y-132167554D01*
X163379495Y-132146101D01*
X163377752Y-132130811D01*
X163376175Y-132114731D01*
X163374764Y-132097861D01*
X163373519Y-132080201D01*
X163373266Y-132075879D01*
X163809089Y-132075879D01*
X163809139Y-132090863D01*
X163809402Y-132111996D01*
X163809890Y-132131520D01*
X163810604Y-132149434D01*
X163811543Y-132165738D01*
X163812708Y-132180432D01*
X163814611Y-132197520D01*
X163817554Y-132214854D01*
X163821912Y-132229752D01*
X163829743Y-132243216D01*
X163842384Y-132253764D01*
X163857027Y-132259054D01*
X163872470Y-132260526D01*
X163886093Y-132259625D01*
X163901331Y-132255618D01*
X163914478Y-132247278D01*
X163923394Y-132234881D01*
X163924116Y-132233138D01*
X163927963Y-132217768D01*
X163930069Y-132202842D01*
X163931809Y-132184171D01*
X163932874Y-132167712D01*
X163933733Y-132149146D01*
X163934385Y-132128475D01*
X163934706Y-132113524D01*
X163934935Y-132097637D01*
X163935072Y-132080815D01*
X163935118Y-132063056D01*
X163935118Y-131233241D01*
X163935068Y-131217502D01*
X163934805Y-131195320D01*
X163934317Y-131174852D01*
X163933603Y-131156096D01*
X163932664Y-131139054D01*
X163931499Y-131123725D01*
X163929596Y-131105950D01*
X163926653Y-131088015D01*
X163922295Y-131072773D01*
X163921446Y-131070835D01*
X163912877Y-131057543D01*
X163901148Y-131048189D01*
X163886258Y-131042774D01*
X163870638Y-131041266D01*
X163854695Y-131042669D01*
X163839823Y-131047706D01*
X163827361Y-131057752D01*
X163820080Y-131070575D01*
X163818116Y-131076985D01*
X163815271Y-131091733D01*
X163813382Y-131107189D01*
X163811837Y-131125896D01*
X163810903Y-131142061D01*
X163810162Y-131160054D01*
X163809615Y-131179876D01*
X163809261Y-131201528D01*
X163809132Y-131216978D01*
X163809089Y-131233241D01*
X163809089Y-132075879D01*
X163373266Y-132075879D01*
X163372440Y-132061751D01*
X163371527Y-132042511D01*
X163370780Y-132022481D01*
X163370199Y-132001661D01*
X163369784Y-131980052D01*
X163369535Y-131957652D01*
X163369452Y-131934462D01*
X163369452Y-131384549D01*
X163369471Y-131372856D01*
X163369622Y-131350064D01*
X163369926Y-131328065D01*
X163370381Y-131306859D01*
X163370988Y-131286446D01*
X163371746Y-131266825D01*
X163372656Y-131247997D01*
X163373718Y-131229963D01*
X163374932Y-131212721D01*
X163376297Y-131196271D01*
X163377814Y-131180615D01*
X163379483Y-131165752D01*
X163382270Y-131144943D01*
X163385399Y-131125918D01*
X163388869Y-131108677D01*
X163391438Y-131097799D01*
X163395822Y-131081735D01*
X163400845Y-131065973D01*
X163406504Y-131050514D01*
X163412801Y-131035357D01*
X163419736Y-131020503D01*
X163427309Y-131005952D01*
X163435519Y-130991703D01*
X163444366Y-130977758D01*
X163453851Y-130964115D01*
X163463974Y-130950774D01*
X163474833Y-130937713D01*
X163486664Y-130925044D01*
X163499468Y-130912768D01*
X163513244Y-130900886D01*
X163527993Y-130889396D01*
X163543714Y-130878298D01*
X163560407Y-130867594D01*
X163578073Y-130857283D01*
X163596712Y-130847364D01*
X163616323Y-130837838D01*
X163629937Y-130831706D01*
X163643836Y-130825850D01*
X163657964Y-130820371D01*
X163672320Y-130815271D01*
X163686906Y-130810548D01*
X163701721Y-130806203D01*
X163716765Y-130802236D01*
X163732038Y-130798647D01*
X163747540Y-130795436D01*
X163763270Y-130792602D01*
X163779230Y-130790146D01*
X163795419Y-130788068D01*
X163811837Y-130786368D01*
X163828483Y-130785046D01*
X163845359Y-130784101D01*
X163862464Y-130783535D01*
X163879797Y-130783346D01*
X163900989Y-130783619D01*
G37*
G36*
X162583967Y-130806793D02*
G01*
X162583967Y-132495000D01*
X163023970Y-132495000D01*
X163023970Y-131579455D01*
X163024005Y-131555800D01*
X163024108Y-131533379D01*
X163024279Y-131512192D01*
X163024520Y-131492238D01*
X163024829Y-131473517D01*
X163025207Y-131456030D01*
X163025653Y-131439777D01*
X163026168Y-131424758D01*
X163027070Y-131404542D01*
X163028126Y-131387101D01*
X163029337Y-131372436D01*
X163031192Y-131357201D01*
X163032763Y-131349012D01*
X163037852Y-131334003D01*
X163045746Y-131320712D01*
X163056445Y-131309139D01*
X163069949Y-131299284D01*
X163078925Y-131294424D01*
X163093257Y-131289041D01*
X163108381Y-131285392D01*
X163126757Y-131282326D01*
X163142672Y-131280410D01*
X163160417Y-131278823D01*
X163179990Y-131277564D01*
X163201392Y-131276633D01*
X163216676Y-131276195D01*
X163232773Y-131275903D01*
X163249683Y-131275757D01*
X163258443Y-131275739D01*
X163311200Y-131275739D01*
X163311200Y-131072773D01*
X163292158Y-131068565D01*
X163273408Y-131064092D01*
X163254952Y-131059355D01*
X163236788Y-131054352D01*
X163218916Y-131049085D01*
X163201338Y-131043553D01*
X163184052Y-131037756D01*
X163167058Y-131031695D01*
X163150358Y-131025369D01*
X163133950Y-131018778D01*
X163117834Y-131011922D01*
X163102012Y-131004801D01*
X163086481Y-130997416D01*
X163071244Y-130989766D01*
X163056299Y-130981851D01*
X163041647Y-130973672D01*
X163027288Y-130965228D01*
X163013221Y-130956519D01*
X162999447Y-130947545D01*
X162985966Y-130938306D01*
X162972777Y-130928803D01*
X162959881Y-130919035D01*
X162947277Y-130909002D01*
X162934967Y-130898705D01*
X162922948Y-130888142D01*
X162911223Y-130877315D01*
X162899790Y-130866223D01*
X162888650Y-130854867D01*
X162877803Y-130843245D01*
X162867248Y-130831359D01*
X162856986Y-130819209D01*
X162847016Y-130806793D01*
X162583967Y-130806793D01*
G37*
G36*
X161529937Y-132237079D02*
G01*
X161529937Y-132495000D01*
X162469295Y-132495000D01*
X162469295Y-132292400D01*
X162444089Y-132249098D01*
X162419532Y-132206844D01*
X162395625Y-132165638D01*
X162372368Y-132125481D01*
X162349761Y-132086372D01*
X162327804Y-132048311D01*
X162306496Y-132011299D01*
X162285838Y-131975335D01*
X162265829Y-131940419D01*
X162246471Y-131906551D01*
X162227762Y-131873732D01*
X162209703Y-131841961D01*
X162192293Y-131811238D01*
X162175534Y-131781564D01*
X162159423Y-131752938D01*
X162143963Y-131725360D01*
X162129153Y-131698830D01*
X162114992Y-131673349D01*
X162101481Y-131648916D01*
X162088619Y-131625531D01*
X162076408Y-131603195D01*
X162064846Y-131581907D01*
X162053933Y-131561667D01*
X162043671Y-131542475D01*
X162034058Y-131524332D01*
X162025095Y-131507237D01*
X162016782Y-131491190D01*
X162009118Y-131476192D01*
X162002104Y-131462242D01*
X161990026Y-131437487D01*
X161984961Y-131426681D01*
X161975733Y-131406364D01*
X161967101Y-131386627D01*
X161959064Y-131367472D01*
X161951622Y-131348898D01*
X161944776Y-131330904D01*
X161938524Y-131313492D01*
X161932869Y-131296661D01*
X161927808Y-131280410D01*
X161923343Y-131264741D01*
X161919474Y-131249653D01*
X161916199Y-131235146D01*
X161912404Y-131214474D01*
X161909948Y-131195110D01*
X161908832Y-131177054D01*
X161908757Y-131171325D01*
X161909078Y-131154953D01*
X161910040Y-131139726D01*
X161912143Y-131122303D01*
X161915249Y-131106668D01*
X161920298Y-131090267D01*
X161926789Y-131076443D01*
X161929274Y-131072407D01*
X161939231Y-131060273D01*
X161951153Y-131051119D01*
X161965037Y-131044946D01*
X161980885Y-131041753D01*
X161990823Y-131041266D01*
X162007668Y-131042896D01*
X162022619Y-131047788D01*
X162035678Y-131055940D01*
X162046842Y-131067352D01*
X162052372Y-131075338D01*
X162059345Y-131090644D01*
X162064053Y-131107472D01*
X162067098Y-131123600D01*
X162069503Y-131142099D01*
X162070885Y-131157528D01*
X162071907Y-131174290D01*
X162072568Y-131192386D01*
X162072869Y-131211814D01*
X162072889Y-131218586D01*
X162072889Y-131392976D01*
X162469295Y-131392976D01*
X162469295Y-131321901D01*
X162469237Y-131304859D01*
X162469066Y-131288264D01*
X162468779Y-131272116D01*
X162468379Y-131256413D01*
X162467864Y-131241158D01*
X162467234Y-131226349D01*
X162466075Y-131204972D01*
X162464658Y-131184600D01*
X162462983Y-131165233D01*
X162461051Y-131146871D01*
X162458862Y-131129513D01*
X162456415Y-131113159D01*
X162454640Y-131102815D01*
X162451444Y-131087653D01*
X162447487Y-131072530D01*
X162442771Y-131057445D01*
X162437295Y-131042400D01*
X162431059Y-131027392D01*
X162424063Y-131012423D01*
X162416307Y-130997493D01*
X162407791Y-130982602D01*
X162398516Y-130967749D01*
X162388480Y-130952935D01*
X162381367Y-130943080D01*
X162370139Y-130928584D01*
X162358299Y-130914770D01*
X162345847Y-130901639D01*
X162332784Y-130889191D01*
X162319109Y-130877425D01*
X162304821Y-130866341D01*
X162289923Y-130855941D01*
X162274412Y-130846223D01*
X162258289Y-130837188D01*
X162241555Y-130828835D01*
X162230059Y-130823646D01*
X162212226Y-130816444D01*
X162193763Y-130809950D01*
X162174668Y-130804165D01*
X162154943Y-130799088D01*
X162134586Y-130794719D01*
X162113598Y-130791059D01*
X162091979Y-130788108D01*
X162077216Y-130786533D01*
X162062172Y-130785274D01*
X162046847Y-130784330D01*
X162031243Y-130783700D01*
X162015357Y-130783385D01*
X162007309Y-130783346D01*
X161991629Y-130783473D01*
X161976187Y-130783854D01*
X161960983Y-130784489D01*
X161946018Y-130785378D01*
X161931291Y-130786521D01*
X161902551Y-130789569D01*
X161874765Y-130793634D01*
X161847931Y-130798714D01*
X161822051Y-130804810D01*
X161797124Y-130811923D01*
X161773150Y-130820052D01*
X161750129Y-130829197D01*
X161728061Y-130839358D01*
X161706947Y-130850534D01*
X161686785Y-130862728D01*
X161667577Y-130875937D01*
X161649322Y-130890162D01*
X161632020Y-130905403D01*
X161623726Y-130913405D01*
X161607888Y-130929886D01*
X161593072Y-130946904D01*
X161579277Y-130964461D01*
X161566504Y-130982556D01*
X161554754Y-131001189D01*
X161544025Y-131020360D01*
X161534317Y-131040070D01*
X161525632Y-131060317D01*
X161517968Y-131081102D01*
X161511327Y-131102426D01*
X161505707Y-131124288D01*
X161501108Y-131146687D01*
X161497532Y-131169625D01*
X161494978Y-131193101D01*
X161493445Y-131217115D01*
X161492934Y-131241667D01*
X161493217Y-131260415D01*
X161494067Y-131279288D01*
X161495484Y-131298288D01*
X161497468Y-131317413D01*
X161500018Y-131336664D01*
X161503135Y-131356042D01*
X161506819Y-131375545D01*
X161511069Y-131395174D01*
X161515886Y-131414929D01*
X161521270Y-131434810D01*
X161527220Y-131454817D01*
X161533738Y-131474950D01*
X161540822Y-131495209D01*
X161548472Y-131515593D01*
X161556690Y-131536104D01*
X161565474Y-131556741D01*
X161575538Y-131578761D01*
X161587685Y-131603515D01*
X161594540Y-131616917D01*
X161601916Y-131631002D01*
X161609813Y-131645771D01*
X161618230Y-131661223D01*
X161627169Y-131677359D01*
X161636629Y-131694177D01*
X161646609Y-131711679D01*
X161657111Y-131729865D01*
X161668133Y-131748734D01*
X161679677Y-131768286D01*
X161691741Y-131788521D01*
X161704326Y-131809440D01*
X161717432Y-131831043D01*
X161731059Y-131853328D01*
X161745207Y-131876297D01*
X161759876Y-131899950D01*
X161775066Y-131924285D01*
X161790777Y-131949304D01*
X161807008Y-131975007D01*
X161823761Y-132001392D01*
X161841034Y-132028461D01*
X161858829Y-132056214D01*
X161877144Y-132084650D01*
X161895980Y-132113769D01*
X161915338Y-132143571D01*
X161935216Y-132174057D01*
X161955615Y-132205226D01*
X161976535Y-132237079D01*
X161529937Y-132237079D01*
G37*
G36*
X160923180Y-130783619D02*
G01*
X160943983Y-130784439D01*
X160964396Y-130785806D01*
X160984420Y-130787719D01*
X161004055Y-130790179D01*
X161023301Y-130793186D01*
X161042157Y-130796739D01*
X161060624Y-130800840D01*
X161078702Y-130805486D01*
X161096390Y-130810680D01*
X161113690Y-130816420D01*
X161130600Y-130822707D01*
X161147120Y-130829540D01*
X161163252Y-130836921D01*
X161178994Y-130844848D01*
X161194347Y-130853321D01*
X161209148Y-130862248D01*
X161223324Y-130871536D01*
X161236877Y-130881185D01*
X161249805Y-130891194D01*
X161262110Y-130901564D01*
X161273791Y-130912294D01*
X161284848Y-130923386D01*
X161295280Y-130934837D01*
X161305089Y-130946650D01*
X161314274Y-130958823D01*
X161322835Y-130971356D01*
X161330772Y-130984251D01*
X161338085Y-130997506D01*
X161344774Y-131011121D01*
X161350839Y-131025097D01*
X161356280Y-131039434D01*
X161361204Y-131054392D01*
X161365811Y-131070232D01*
X161370100Y-131086953D01*
X161374072Y-131104556D01*
X161377725Y-131123040D01*
X161381061Y-131142406D01*
X161384079Y-131162653D01*
X161386780Y-131183782D01*
X161389163Y-131205792D01*
X161391228Y-131228684D01*
X161392975Y-131252458D01*
X161394405Y-131277113D01*
X161395517Y-131302650D01*
X161396311Y-131329068D01*
X161396788Y-131356368D01*
X161396946Y-131384549D01*
X161396946Y-131960108D01*
X161396848Y-131981722D01*
X161396551Y-132002600D01*
X161396058Y-132022743D01*
X161395367Y-132042150D01*
X161394478Y-132060822D01*
X161393392Y-132078758D01*
X161392108Y-132095959D01*
X161390627Y-132112424D01*
X161388948Y-132128153D01*
X161387072Y-132143147D01*
X161383887Y-132164258D01*
X161380258Y-132183714D01*
X161376185Y-132201516D01*
X161371667Y-132217662D01*
X161368370Y-132227847D01*
X161362909Y-132243023D01*
X161356830Y-132258076D01*
X161350132Y-132273007D01*
X161342816Y-132287816D01*
X161334882Y-132302503D01*
X161326330Y-132317067D01*
X161317159Y-132331508D01*
X161307370Y-132345828D01*
X161296963Y-132360025D01*
X161285938Y-132374099D01*
X161278177Y-132383243D01*
X161265940Y-132396383D01*
X161252988Y-132408835D01*
X161239321Y-132420598D01*
X161224940Y-132431671D01*
X161209843Y-132442056D01*
X161194032Y-132451751D01*
X161177506Y-132460758D01*
X161160265Y-132469075D01*
X161142309Y-132476703D01*
X161123639Y-132483642D01*
X161110760Y-132487857D01*
X161090718Y-132493669D01*
X161069806Y-132498869D01*
X161055382Y-132501996D01*
X161040571Y-132504851D01*
X161025374Y-132507434D01*
X161009791Y-132509746D01*
X160993821Y-132511785D01*
X160977465Y-132513552D01*
X160960723Y-132515048D01*
X160943594Y-132516272D01*
X160926078Y-132517223D01*
X160908176Y-132517903D01*
X160889888Y-132518311D01*
X160871214Y-132518447D01*
X160856828Y-132518317D01*
X160835572Y-132517633D01*
X160814702Y-132516363D01*
X160794219Y-132514507D01*
X160774121Y-132512065D01*
X160754411Y-132509038D01*
X160735087Y-132505424D01*
X160716149Y-132501224D01*
X160697597Y-132496438D01*
X160679432Y-132491066D01*
X160661653Y-132485108D01*
X160649991Y-132480727D01*
X160632901Y-132473528D01*
X160616293Y-132465576D01*
X160600168Y-132456870D01*
X160584527Y-132447411D01*
X160569368Y-132437198D01*
X160554692Y-132426232D01*
X160540499Y-132414512D01*
X160526790Y-132402039D01*
X160513563Y-132388812D01*
X160500819Y-132374832D01*
X160492619Y-132365218D01*
X160480995Y-132350636D01*
X160470182Y-132335860D01*
X160460181Y-132320891D01*
X160450991Y-132305729D01*
X160442613Y-132290374D01*
X160435046Y-132274826D01*
X160428290Y-132259085D01*
X160422346Y-132243150D01*
X160417213Y-132227022D01*
X160412892Y-132210701D01*
X160411585Y-132205130D01*
X160407912Y-132187231D01*
X160404612Y-132167554D01*
X160401686Y-132146101D01*
X160399943Y-132130811D01*
X160398366Y-132114731D01*
X160396955Y-132097861D01*
X160395710Y-132080201D01*
X160395457Y-132075879D01*
X160831280Y-132075879D01*
X160831330Y-132090863D01*
X160831593Y-132111996D01*
X160832081Y-132131520D01*
X160832795Y-132149434D01*
X160833734Y-132165738D01*
X160834899Y-132180432D01*
X160836802Y-132197520D01*
X160839745Y-132214854D01*
X160844103Y-132229752D01*
X160851934Y-132243216D01*
X160864576Y-132253764D01*
X160879219Y-132259054D01*
X160894661Y-132260526D01*
X160908284Y-132259625D01*
X160923522Y-132255618D01*
X160936670Y-132247278D01*
X160945586Y-132234881D01*
X160946307Y-132233138D01*
X160950154Y-132217768D01*
X160952260Y-132202842D01*
X160954001Y-132184171D01*
X160955065Y-132167712D01*
X160955924Y-132149146D01*
X160956577Y-132128475D01*
X160956897Y-132113524D01*
X160957126Y-132097637D01*
X160957264Y-132080815D01*
X160957309Y-132063056D01*
X160957309Y-131233241D01*
X160957259Y-131217502D01*
X160956996Y-131195320D01*
X160956508Y-131174852D01*
X160955794Y-131156096D01*
X160954855Y-131139054D01*
X160953690Y-131123725D01*
X160951787Y-131105950D01*
X160948844Y-131088015D01*
X160944487Y-131072773D01*
X160943638Y-131070835D01*
X160935068Y-131057543D01*
X160923339Y-131048189D01*
X160908449Y-131042774D01*
X160892829Y-131041266D01*
X160876886Y-131042669D01*
X160862014Y-131047706D01*
X160849552Y-131057752D01*
X160842271Y-131070575D01*
X160840307Y-131076985D01*
X160837462Y-131091733D01*
X160835573Y-131107189D01*
X160834028Y-131125896D01*
X160833094Y-131142061D01*
X160832353Y-131160054D01*
X160831806Y-131179876D01*
X160831452Y-131201528D01*
X160831323Y-131216978D01*
X160831280Y-131233241D01*
X160831280Y-132075879D01*
X160395457Y-132075879D01*
X160394631Y-132061751D01*
X160393718Y-132042511D01*
X160392971Y-132022481D01*
X160392390Y-132001661D01*
X160391975Y-131980052D01*
X160391726Y-131957652D01*
X160391643Y-131934462D01*
X160391643Y-131384549D01*
X160391662Y-131372856D01*
X160391814Y-131350064D01*
X160392117Y-131328065D01*
X160392572Y-131306859D01*
X160393179Y-131286446D01*
X160393937Y-131266825D01*
X160394848Y-131247997D01*
X160395909Y-131229963D01*
X160397123Y-131212721D01*
X160398488Y-131196271D01*
X160400005Y-131180615D01*
X160401674Y-131165752D01*
X160404461Y-131144943D01*
X160407590Y-131125918D01*
X160411060Y-131108677D01*
X160413629Y-131097799D01*
X160418014Y-131081735D01*
X160423036Y-131065973D01*
X160428695Y-131050514D01*
X160434993Y-131035357D01*
X160441927Y-131020503D01*
X160449500Y-131005952D01*
X160457710Y-130991703D01*
X160466557Y-130977758D01*
X160476042Y-130964115D01*
X160486165Y-130950774D01*
X160497024Y-130937713D01*
X160508855Y-130925044D01*
X160521659Y-130912768D01*
X160535435Y-130900886D01*
X160550184Y-130889396D01*
X160565905Y-130878298D01*
X160582598Y-130867594D01*
X160600264Y-130857283D01*
X160618903Y-130847364D01*
X160638514Y-130837838D01*
X160652128Y-130831706D01*
X160666027Y-130825850D01*
X160680155Y-130820371D01*
X160694512Y-130815271D01*
X160709098Y-130810548D01*
X160723912Y-130806203D01*
X160738956Y-130802236D01*
X160754229Y-130798647D01*
X160769731Y-130795436D01*
X160785462Y-130792602D01*
X160801421Y-130790146D01*
X160817610Y-130788068D01*
X160834028Y-130786368D01*
X160850674Y-130785046D01*
X160867550Y-130784101D01*
X160884655Y-130783535D01*
X160901988Y-130783346D01*
X160923180Y-130783619D01*
G37*
G36*
X159350802Y-132237079D02*
G01*
X159350802Y-132495000D01*
X160290160Y-132495000D01*
X160290160Y-132292400D01*
X160264954Y-132249098D01*
X160240397Y-132206844D01*
X160216491Y-132165638D01*
X160193234Y-132125481D01*
X160170627Y-132086372D01*
X160148669Y-132048311D01*
X160127361Y-132011299D01*
X160106703Y-131975335D01*
X160086695Y-131940419D01*
X160067336Y-131906551D01*
X160048627Y-131873732D01*
X160030568Y-131841961D01*
X160013159Y-131811238D01*
X159996399Y-131781564D01*
X159980289Y-131752938D01*
X159964829Y-131725360D01*
X159950018Y-131698830D01*
X159935857Y-131673349D01*
X159922346Y-131648916D01*
X159909485Y-131625531D01*
X159897273Y-131603195D01*
X159885711Y-131581907D01*
X159874799Y-131561667D01*
X159864536Y-131542475D01*
X159854924Y-131524332D01*
X159845960Y-131507237D01*
X159837647Y-131491190D01*
X159829984Y-131476192D01*
X159822970Y-131462242D01*
X159810891Y-131437487D01*
X159805826Y-131426681D01*
X159796599Y-131406364D01*
X159787966Y-131386627D01*
X159779929Y-131367472D01*
X159772487Y-131348898D01*
X159765641Y-131330904D01*
X159759390Y-131313492D01*
X159753734Y-131296661D01*
X159748674Y-131280410D01*
X159744209Y-131264741D01*
X159740339Y-131249653D01*
X159737064Y-131235146D01*
X159733269Y-131214474D01*
X159730813Y-131195110D01*
X159729697Y-131177054D01*
X159729623Y-131171325D01*
X159729943Y-131154953D01*
X159730905Y-131139726D01*
X159733009Y-131122303D01*
X159736114Y-131106668D01*
X159741163Y-131090267D01*
X159747655Y-131076443D01*
X159750139Y-131072407D01*
X159760097Y-131060273D01*
X159772018Y-131051119D01*
X159785903Y-131044946D01*
X159801751Y-131041753D01*
X159811688Y-131041266D01*
X159828533Y-131042896D01*
X159843485Y-131047788D01*
X159856543Y-131055940D01*
X159867708Y-131067352D01*
X159873237Y-131075338D01*
X159880210Y-131090644D01*
X159884918Y-131107472D01*
X159887964Y-131123600D01*
X159890368Y-131142099D01*
X159891750Y-131157528D01*
X159892772Y-131174290D01*
X159893433Y-131192386D01*
X159893734Y-131211814D01*
X159893754Y-131218586D01*
X159893754Y-131392976D01*
X160290160Y-131392976D01*
X160290160Y-131321901D01*
X160290103Y-131304859D01*
X160289931Y-131288264D01*
X160289645Y-131272116D01*
X160289244Y-131256413D01*
X160288729Y-131241158D01*
X160288099Y-131226349D01*
X160286940Y-131204972D01*
X160285523Y-131184600D01*
X160283849Y-131165233D01*
X160281917Y-131146871D01*
X160279727Y-131129513D01*
X160277280Y-131113159D01*
X160275505Y-131102815D01*
X160272309Y-131087653D01*
X160268353Y-131072530D01*
X160263637Y-131057445D01*
X160258160Y-131042400D01*
X160251924Y-131027392D01*
X160244928Y-131012423D01*
X160237172Y-130997493D01*
X160228657Y-130982602D01*
X160219381Y-130967749D01*
X160209345Y-130952935D01*
X160202233Y-130943080D01*
X160191004Y-130928584D01*
X160179165Y-130914770D01*
X160166713Y-130901639D01*
X160153649Y-130889191D01*
X160139974Y-130877425D01*
X160125687Y-130866341D01*
X160110788Y-130855941D01*
X160095277Y-130846223D01*
X160079155Y-130837188D01*
X160062420Y-130828835D01*
X160050924Y-130823646D01*
X160033092Y-130816444D01*
X160014628Y-130809950D01*
X159995534Y-130804165D01*
X159975808Y-130799088D01*
X159955451Y-130794719D01*
X159934463Y-130791059D01*
X159912844Y-130788108D01*
X159898081Y-130786533D01*
X159883037Y-130785274D01*
X159867713Y-130784330D01*
X159852108Y-130783700D01*
X159836223Y-130783385D01*
X159828175Y-130783346D01*
X159812494Y-130783473D01*
X159797052Y-130783854D01*
X159781849Y-130784489D01*
X159766883Y-130785378D01*
X159752156Y-130786521D01*
X159723416Y-130789569D01*
X159695630Y-130793634D01*
X159668797Y-130798714D01*
X159642916Y-130804810D01*
X159617989Y-130811923D01*
X159594015Y-130820052D01*
X159570994Y-130829197D01*
X159548927Y-130839358D01*
X159527812Y-130850534D01*
X159507651Y-130862728D01*
X159488442Y-130875937D01*
X159470187Y-130890162D01*
X159452885Y-130905403D01*
X159444591Y-130913405D01*
X159428753Y-130929886D01*
X159413937Y-130946904D01*
X159400142Y-130964461D01*
X159387370Y-130982556D01*
X159375619Y-131001189D01*
X159364890Y-131020360D01*
X159355183Y-131040070D01*
X159346497Y-131060317D01*
X159338834Y-131081102D01*
X159332192Y-131102426D01*
X159326572Y-131124288D01*
X159321974Y-131146687D01*
X159318397Y-131169625D01*
X159315843Y-131193101D01*
X159314310Y-131217115D01*
X159313799Y-131241667D01*
X159314083Y-131260415D01*
X159314933Y-131279288D01*
X159316349Y-131298288D01*
X159318333Y-131317413D01*
X159320883Y-131336664D01*
X159324000Y-131356042D01*
X159327684Y-131375545D01*
X159331934Y-131395174D01*
X159336751Y-131414929D01*
X159342135Y-131434810D01*
X159348086Y-131454817D01*
X159354603Y-131474950D01*
X159361687Y-131495209D01*
X159369338Y-131515593D01*
X159377555Y-131536104D01*
X159386339Y-131556741D01*
X159396403Y-131578761D01*
X159408550Y-131603515D01*
X159415405Y-131616917D01*
X159422781Y-131631002D01*
X159430678Y-131645771D01*
X159439096Y-131661223D01*
X159448035Y-131677359D01*
X159457494Y-131694177D01*
X159467475Y-131711679D01*
X159477976Y-131729865D01*
X159488999Y-131748734D01*
X159500542Y-131768286D01*
X159512606Y-131788521D01*
X159525191Y-131809440D01*
X159538298Y-131831043D01*
X159551925Y-131853328D01*
X159566073Y-131876297D01*
X159580741Y-131899950D01*
X159595931Y-131924285D01*
X159611642Y-131949304D01*
X159627874Y-131975007D01*
X159644626Y-132001392D01*
X159661900Y-132028461D01*
X159679694Y-132056214D01*
X159698009Y-132084650D01*
X159716846Y-132113769D01*
X159736203Y-132143571D01*
X159756081Y-132174057D01*
X159776480Y-132205226D01*
X159797400Y-132237079D01*
X159350802Y-132237079D01*
G37*
G36*
X158744046Y-130783619D02*
G01*
X158764848Y-130784439D01*
X158785262Y-130785806D01*
X158805286Y-130787719D01*
X158824920Y-130790179D01*
X158844166Y-130793186D01*
X158863022Y-130796739D01*
X158881489Y-130800840D01*
X158899567Y-130805486D01*
X158917256Y-130810680D01*
X158934555Y-130816420D01*
X158951465Y-130822707D01*
X158967986Y-130829540D01*
X158984117Y-130836921D01*
X158999859Y-130844848D01*
X159015212Y-130853321D01*
X159030013Y-130862248D01*
X159044189Y-130871536D01*
X159057742Y-130881185D01*
X159070671Y-130891194D01*
X159082975Y-130901564D01*
X159094656Y-130912294D01*
X159105713Y-130923386D01*
X159116146Y-130934837D01*
X159125955Y-130946650D01*
X159135139Y-130958823D01*
X159143700Y-130971356D01*
X159151637Y-130984251D01*
X159158950Y-130997506D01*
X159165639Y-131011121D01*
X159171704Y-131025097D01*
X159177145Y-131039434D01*
X159182070Y-131054392D01*
X159186677Y-131070232D01*
X159190966Y-131086953D01*
X159194937Y-131104556D01*
X159198591Y-131123040D01*
X159201926Y-131142406D01*
X159204945Y-131162653D01*
X159207645Y-131183782D01*
X159210028Y-131205792D01*
X159212093Y-131228684D01*
X159213840Y-131252458D01*
X159215270Y-131277113D01*
X159216382Y-131302650D01*
X159217176Y-131329068D01*
X159217653Y-131356368D01*
X159217812Y-131384549D01*
X159217812Y-131960108D01*
X159217713Y-131981722D01*
X159217417Y-132002600D01*
X159216923Y-132022743D01*
X159216232Y-132042150D01*
X159215343Y-132060822D01*
X159214257Y-132078758D01*
X159212973Y-132095959D01*
X159211492Y-132112424D01*
X159209813Y-132128153D01*
X159207937Y-132143147D01*
X159204753Y-132164258D01*
X159201124Y-132183714D01*
X159197050Y-132201516D01*
X159192533Y-132217662D01*
X159189235Y-132227847D01*
X159183774Y-132243023D01*
X159177695Y-132258076D01*
X159170997Y-132273007D01*
X159163681Y-132287816D01*
X159155747Y-132302503D01*
X159147195Y-132317067D01*
X159138025Y-132331508D01*
X159128236Y-132345828D01*
X159117829Y-132360025D01*
X159106803Y-132374099D01*
X159099042Y-132383243D01*
X159086805Y-132396383D01*
X159073854Y-132408835D01*
X159060187Y-132420598D01*
X159045805Y-132431671D01*
X159030709Y-132442056D01*
X159014897Y-132451751D01*
X158998371Y-132460758D01*
X158981130Y-132469075D01*
X158963175Y-132476703D01*
X158944504Y-132483642D01*
X158931625Y-132487857D01*
X158911583Y-132493669D01*
X158890671Y-132498869D01*
X158876247Y-132501996D01*
X158861437Y-132504851D01*
X158846240Y-132507434D01*
X158830656Y-132509746D01*
X158814687Y-132511785D01*
X158798330Y-132513552D01*
X158781588Y-132515048D01*
X158764459Y-132516272D01*
X158746944Y-132517223D01*
X158729042Y-132517903D01*
X158710754Y-132518311D01*
X158692079Y-132518447D01*
X158677694Y-132518317D01*
X158656437Y-132517633D01*
X158635567Y-132516363D01*
X158615084Y-132514507D01*
X158594987Y-132512065D01*
X158575276Y-132509038D01*
X158555952Y-132505424D01*
X158537014Y-132501224D01*
X158518462Y-132496438D01*
X158500297Y-132491066D01*
X158482519Y-132485108D01*
X158470857Y-132480727D01*
X158453766Y-132473528D01*
X158437158Y-132465576D01*
X158421034Y-132456870D01*
X158405392Y-132447411D01*
X158390233Y-132437198D01*
X158375557Y-132426232D01*
X158361365Y-132414512D01*
X158347655Y-132402039D01*
X158334428Y-132388812D01*
X158321685Y-132374832D01*
X158313485Y-132365218D01*
X158301860Y-132350636D01*
X158291048Y-132335860D01*
X158281046Y-132320891D01*
X158271856Y-132305729D01*
X158263478Y-132290374D01*
X158255911Y-132274826D01*
X158249155Y-132259085D01*
X158243211Y-132243150D01*
X158238079Y-132227022D01*
X158233757Y-132210701D01*
X158232450Y-132205130D01*
X158228777Y-132187231D01*
X158225478Y-132167554D01*
X158222552Y-132146101D01*
X158220809Y-132130811D01*
X158219232Y-132114731D01*
X158217821Y-132097861D01*
X158216575Y-132080201D01*
X158216322Y-132075879D01*
X158652145Y-132075879D01*
X158652195Y-132090863D01*
X158652458Y-132111996D01*
X158652947Y-132131520D01*
X158653661Y-132149434D01*
X158654600Y-132165738D01*
X158655764Y-132180432D01*
X158657668Y-132197520D01*
X158660610Y-132214854D01*
X158664968Y-132229752D01*
X158672799Y-132243216D01*
X158685441Y-132253764D01*
X158700084Y-132259054D01*
X158715526Y-132260526D01*
X158729149Y-132259625D01*
X158744388Y-132255618D01*
X158757535Y-132247278D01*
X158766451Y-132234881D01*
X158767172Y-132233138D01*
X158771019Y-132217768D01*
X158773126Y-132202842D01*
X158774866Y-132184171D01*
X158775931Y-132167712D01*
X158776789Y-132149146D01*
X158777442Y-132128475D01*
X158777762Y-132113524D01*
X158777991Y-132097637D01*
X158778129Y-132080815D01*
X158778175Y-132063056D01*
X158778175Y-131233241D01*
X158778125Y-131217502D01*
X158777862Y-131195320D01*
X158777373Y-131174852D01*
X158776659Y-131156096D01*
X158775720Y-131139054D01*
X158774556Y-131123725D01*
X158772652Y-131105950D01*
X158769710Y-131088015D01*
X158765352Y-131072773D01*
X158764503Y-131070835D01*
X158755933Y-131057543D01*
X158744204Y-131048189D01*
X158729315Y-131042774D01*
X158713695Y-131041266D01*
X158697751Y-131042669D01*
X158682879Y-131047706D01*
X158670418Y-131057752D01*
X158663136Y-131070575D01*
X158661172Y-131076985D01*
X158658328Y-131091733D01*
X158656439Y-131107189D01*
X158654893Y-131125896D01*
X158653959Y-131142061D01*
X158653219Y-131160054D01*
X158652671Y-131179876D01*
X158652317Y-131201528D01*
X158652188Y-131216978D01*
X158652145Y-131233241D01*
X158652145Y-132075879D01*
X158216322Y-132075879D01*
X158215496Y-132061751D01*
X158214583Y-132042511D01*
X158213836Y-132022481D01*
X158213255Y-132001661D01*
X158212840Y-131980052D01*
X158212591Y-131957652D01*
X158212508Y-131934462D01*
X158212508Y-131384549D01*
X158212527Y-131372856D01*
X158212679Y-131350064D01*
X158212982Y-131328065D01*
X158213437Y-131306859D01*
X158214044Y-131286446D01*
X158214803Y-131266825D01*
X158215713Y-131247997D01*
X158216775Y-131229963D01*
X158217988Y-131212721D01*
X158219354Y-131196271D01*
X158220871Y-131180615D01*
X158222539Y-131165752D01*
X158225327Y-131144943D01*
X158228455Y-131125918D01*
X158231926Y-131108677D01*
X158234494Y-131097799D01*
X158238879Y-131081735D01*
X158243901Y-131065973D01*
X158249561Y-131050514D01*
X158255858Y-131035357D01*
X158262793Y-131020503D01*
X158270365Y-131005952D01*
X158278575Y-130991703D01*
X158287423Y-130977758D01*
X158296908Y-130964115D01*
X158307030Y-130950774D01*
X158317889Y-130937713D01*
X158329720Y-130925044D01*
X158342524Y-130912768D01*
X158356300Y-130900886D01*
X158371049Y-130889396D01*
X158386770Y-130878298D01*
X158403464Y-130867594D01*
X158421130Y-130857283D01*
X158439768Y-130847364D01*
X158459379Y-130837838D01*
X158472993Y-130831706D01*
X158486892Y-130825850D01*
X158501020Y-130820371D01*
X158515377Y-130815271D01*
X158529963Y-130810548D01*
X158544778Y-130806203D01*
X158559822Y-130802236D01*
X158575094Y-130798647D01*
X158590596Y-130795436D01*
X158606327Y-130792602D01*
X158622287Y-130790146D01*
X158638475Y-130788068D01*
X158654893Y-130786368D01*
X158671540Y-130785046D01*
X158688415Y-130784101D01*
X158705520Y-130783535D01*
X158722854Y-130783346D01*
X158744046Y-130783619D01*
G37*
G36*
X157427023Y-130806793D02*
G01*
X157427023Y-132495000D01*
X157867027Y-132495000D01*
X157867027Y-131579455D01*
X157867061Y-131555800D01*
X157867164Y-131533379D01*
X157867336Y-131512192D01*
X157867576Y-131492238D01*
X157867885Y-131473517D01*
X157868263Y-131456030D01*
X157868710Y-131439777D01*
X157869225Y-131424758D01*
X157870127Y-131404542D01*
X157871183Y-131387101D01*
X157872393Y-131372436D01*
X157874248Y-131357201D01*
X157875819Y-131349012D01*
X157880908Y-131334003D01*
X157888802Y-131320712D01*
X157899501Y-131309139D01*
X157913005Y-131299284D01*
X157921981Y-131294424D01*
X157936314Y-131289041D01*
X157951438Y-131285392D01*
X157969813Y-131282326D01*
X157985729Y-131280410D01*
X158003473Y-131278823D01*
X158023046Y-131277564D01*
X158044449Y-131276633D01*
X158059733Y-131276195D01*
X158075830Y-131275903D01*
X158092740Y-131275757D01*
X158101500Y-131275739D01*
X158154256Y-131275739D01*
X158154256Y-131072773D01*
X158135214Y-131068565D01*
X158116465Y-131064092D01*
X158098008Y-131059355D01*
X158079844Y-131054352D01*
X158061973Y-131049085D01*
X158044394Y-131043553D01*
X158027108Y-131037756D01*
X158010115Y-131031695D01*
X157993414Y-131025369D01*
X157977006Y-131018778D01*
X157960891Y-131011922D01*
X157945068Y-131004801D01*
X157929538Y-130997416D01*
X157914301Y-130989766D01*
X157899356Y-130981851D01*
X157884704Y-130973672D01*
X157870344Y-130965228D01*
X157856278Y-130956519D01*
X157842504Y-130947545D01*
X157829022Y-130938306D01*
X157815833Y-130928803D01*
X157802937Y-130919035D01*
X157790334Y-130909002D01*
X157778023Y-130898705D01*
X157766005Y-130888142D01*
X157754280Y-130877315D01*
X157742847Y-130866223D01*
X157731707Y-130854867D01*
X157720859Y-130843245D01*
X157710304Y-130831359D01*
X157700042Y-130819209D01*
X157690073Y-130806793D01*
X157427023Y-130806793D01*
G37*
G36*
X156536758Y-130806793D02*
G01*
X156536758Y-131194773D01*
X156804937Y-132495000D01*
X157243108Y-132495000D01*
X156947452Y-131135055D01*
X157355582Y-131135055D01*
X157355582Y-130806793D01*
X156536758Y-130806793D01*
G37*
D12*
%TO.C,REF\u002A\u002A*%
X96928932Y-139606602D02*
X96928932Y-132535534D01*
X96928932Y-132535534D02*
X104000000Y-132535534D01*
X105414214Y-131121320D02*
X98343146Y-131121320D01*
X106828427Y-129707107D02*
X106828427Y-122636039D01*
X106828427Y-129707107D02*
X110363961Y-126171573D01*
X105414214Y-124050253D02*
X105414214Y-131121320D01*
X106828427Y-122636039D02*
X106828427Y-129707107D01*
X111778175Y-124757359D02*
X111778175Y-117686292D01*
X111778175Y-117686292D02*
X108242641Y-121221825D01*
X112928932Y-123606602D02*
X112928932Y-116535534D01*
X112928932Y-116535534D02*
X120000000Y-116535534D01*
X121414214Y-115121320D02*
X114343146Y-115121320D01*
X122828427Y-113707107D02*
X122828427Y-106636039D01*
X122828427Y-113707107D02*
X126363961Y-110171573D01*
X121414214Y-108050253D02*
X121414214Y-115121320D01*
X122828427Y-106636039D02*
X122828427Y-113707107D01*
X127778175Y-108757359D02*
X127778175Y-101686292D01*
X127778175Y-101686292D02*
X124242641Y-105221825D01*
X160928932Y-75606602D02*
X160928932Y-68535534D01*
X160928932Y-68535534D02*
X168000000Y-68535534D01*
X169414214Y-67121320D02*
X162343146Y-67121320D01*
X170828427Y-65707107D02*
X170828427Y-58636039D01*
X170828427Y-65707107D02*
X174363961Y-62171573D01*
X169414214Y-60050253D02*
X169414214Y-67121320D01*
X170828427Y-58636039D02*
X170828427Y-65707107D01*
X175778175Y-60757359D02*
X175778175Y-53686292D01*
X175778175Y-53686292D02*
X172242641Y-57221825D01*
X144928932Y-91606602D02*
X144928932Y-84535534D01*
X144928932Y-84535534D02*
X152000000Y-84535534D01*
X153414214Y-83121320D02*
X146343146Y-83121320D01*
X154828427Y-81707107D02*
X154828427Y-74636039D01*
X154828427Y-81707107D02*
X158363961Y-78171573D01*
X153414214Y-76050253D02*
X153414214Y-83121320D01*
X154828427Y-74636039D02*
X154828427Y-81707107D01*
X159778175Y-76757359D02*
X159778175Y-69686292D01*
X159778175Y-69686292D02*
X156242641Y-73221825D01*
X128928932Y-107606602D02*
X128928932Y-100535534D01*
X128928932Y-100535534D02*
X136000000Y-100535534D01*
X137414214Y-99121320D02*
X130343146Y-99121320D01*
X138828427Y-97707107D02*
X138828427Y-90636039D01*
X138828427Y-97707107D02*
X142363961Y-94171573D01*
X137414214Y-92050253D02*
X137414214Y-99121320D01*
X138828427Y-90636039D02*
X138828427Y-97707107D01*
X143778175Y-92757359D02*
X143778175Y-85686292D01*
X143778175Y-85686292D02*
X140242641Y-89221825D01*
%TO.C,G\u002A\u002A\u002A*%
G36*
X162012927Y-125037396D02*
G01*
X162012927Y-125154663D01*
X161895660Y-125154663D01*
X161778393Y-125154663D01*
X161778393Y-125037396D01*
X161778393Y-124920129D01*
X161895660Y-124920129D01*
X162012927Y-124920129D01*
X162012927Y-125037396D01*
G37*
G36*
X161778393Y-125271930D02*
G01*
X161778393Y-125389196D01*
X161661127Y-125389196D01*
X161543860Y-125389196D01*
X161543860Y-125271930D01*
X161543860Y-125154663D01*
X161661127Y-125154663D01*
X161778393Y-125154663D01*
X161778393Y-125271930D01*
G37*
G36*
X161778393Y-124802862D02*
G01*
X161778393Y-124920129D01*
X161661127Y-124920129D01*
X161543860Y-124920129D01*
X161543860Y-124802862D01*
X161543860Y-124685595D01*
X161661127Y-124685595D01*
X161778393Y-124685595D01*
X161778393Y-124802862D01*
G37*
G36*
X173270545Y-130431671D02*
G01*
X173270545Y-130548938D01*
X166234534Y-130548938D01*
X159198523Y-130548938D01*
X159198523Y-130431671D01*
X159198523Y-130314404D01*
X166234534Y-130314404D01*
X173270545Y-130314404D01*
X173270545Y-130431671D01*
G37*
G36*
X172332410Y-124099261D02*
G01*
X172332410Y-124216528D01*
X165530933Y-124216528D01*
X158729455Y-124216528D01*
X158729455Y-124099261D01*
X158729455Y-123981994D01*
X165530933Y-123981994D01*
X172332410Y-123981994D01*
X172332410Y-124099261D01*
G37*
G36*
X173270545Y-127500000D02*
G01*
X173270545Y-127734533D01*
X173270545Y-130079870D01*
X172684211Y-130079870D01*
X172097876Y-130079870D01*
X172097876Y-129962604D01*
X172097876Y-129845337D01*
X171980609Y-129845337D01*
X171863343Y-129845337D01*
X171863343Y-129728070D01*
X171863343Y-129610803D01*
X171980609Y-129610803D01*
X172097876Y-129610803D01*
X172097876Y-128672668D01*
X172097876Y-127734533D01*
X171980609Y-127734533D01*
X171863343Y-127734533D01*
X171863343Y-128672668D01*
X171863343Y-129610803D01*
X171746076Y-129610803D01*
X171628809Y-129610803D01*
X171628809Y-128672668D01*
X171628809Y-127734533D01*
X171394275Y-127734533D01*
X171159741Y-127734533D01*
X171159741Y-127617267D01*
X171159741Y-127500000D01*
X171042475Y-127500000D01*
X170925208Y-127500000D01*
X170925208Y-127382733D01*
X170925208Y-127265466D01*
X171042475Y-127265466D01*
X171159741Y-127265466D01*
X171159741Y-127030932D01*
X171159741Y-126796399D01*
X171628809Y-126796399D01*
X172097876Y-126796399D01*
X172097876Y-126679132D01*
X172097876Y-126561865D01*
X171628809Y-126561865D01*
X171159741Y-126561865D01*
X171159741Y-126679132D01*
X171159741Y-126796399D01*
X171042475Y-126796399D01*
X170925208Y-126796399D01*
X170925208Y-127030932D01*
X170925208Y-127265466D01*
X170807941Y-127265466D01*
X170690674Y-127265466D01*
X170690674Y-126796399D01*
X170690674Y-126327331D01*
X171394275Y-126327331D01*
X172097876Y-126327331D01*
X172097876Y-126092798D01*
X172097876Y-125858264D01*
X171159741Y-125858264D01*
X170221607Y-125858264D01*
X170221607Y-127969067D01*
X170221607Y-130079870D01*
X169635272Y-130079870D01*
X169048938Y-130079870D01*
X169048938Y-129962604D01*
X169048938Y-129845337D01*
X168931671Y-129845337D01*
X168814404Y-129845337D01*
X168814404Y-129728070D01*
X168814404Y-129610803D01*
X168697138Y-129610803D01*
X168579871Y-129610803D01*
X168579871Y-127734533D01*
X168579871Y-125858264D01*
X168814404Y-125858264D01*
X168814404Y-127734533D01*
X168814404Y-129610803D01*
X168931671Y-129610803D01*
X169048938Y-129610803D01*
X169048938Y-127734533D01*
X169048938Y-125858264D01*
X168931671Y-125858264D01*
X168814404Y-125858264D01*
X168579871Y-125858264D01*
X168462604Y-125858264D01*
X168345337Y-125858264D01*
X168345337Y-125740997D01*
X168345337Y-125623730D01*
X168228070Y-125623730D01*
X168110803Y-125623730D01*
X168110803Y-125506463D01*
X168110803Y-125389196D01*
X167993536Y-125389196D01*
X167876270Y-125389196D01*
X167876270Y-127734533D01*
X167876270Y-130079870D01*
X167289935Y-130079870D01*
X166703601Y-130079870D01*
X166703601Y-129962604D01*
X166703601Y-129845337D01*
X166586334Y-129845337D01*
X166469067Y-129845337D01*
X166469067Y-129728070D01*
X166469067Y-129610803D01*
X166586334Y-129610803D01*
X166703601Y-129610803D01*
X166703601Y-128672668D01*
X166703601Y-127734533D01*
X166586334Y-127734533D01*
X166469067Y-127734533D01*
X166469067Y-128672668D01*
X166469067Y-129610803D01*
X166351801Y-129610803D01*
X166234534Y-129610803D01*
X166234534Y-129845337D01*
X166234534Y-130079870D01*
X165648199Y-130079870D01*
X165061865Y-130079870D01*
X165061865Y-129962604D01*
X165061865Y-129845337D01*
X164944598Y-129845337D01*
X164827332Y-129845337D01*
X164827332Y-129728070D01*
X164827332Y-129610803D01*
X164710065Y-129610803D01*
X164592798Y-129610803D01*
X164592798Y-127030932D01*
X164592798Y-124451062D01*
X165179132Y-124451062D01*
X165765466Y-124451062D01*
X165765466Y-124568328D01*
X165765466Y-124685595D01*
X165413666Y-124685595D01*
X165061865Y-124685595D01*
X165061865Y-124802862D01*
X165061865Y-124920129D01*
X164944598Y-124920129D01*
X164827332Y-124920129D01*
X164827332Y-127265466D01*
X164827332Y-129610803D01*
X164944598Y-129610803D01*
X165061865Y-129610803D01*
X165061865Y-127265466D01*
X165061865Y-124920129D01*
X165413666Y-124920129D01*
X165765466Y-124920129D01*
X165765466Y-124802862D01*
X165765466Y-124685595D01*
X165882733Y-124685595D01*
X166000000Y-124685595D01*
X166000000Y-124802862D01*
X166000000Y-124920129D01*
X166117267Y-124920129D01*
X166234534Y-124920129D01*
X166234534Y-124685595D01*
X166234534Y-124451062D01*
X166820868Y-124451062D01*
X167407202Y-124451062D01*
X167407202Y-124568328D01*
X167407202Y-124685595D01*
X167055402Y-124685595D01*
X166703601Y-124685595D01*
X166703601Y-124802862D01*
X166703601Y-124920129D01*
X166586334Y-124920129D01*
X166469067Y-124920129D01*
X166469067Y-125858264D01*
X166469067Y-126796399D01*
X166586334Y-126796399D01*
X166703601Y-126796399D01*
X166703601Y-125858264D01*
X166703601Y-124920129D01*
X167055402Y-124920129D01*
X167407202Y-124920129D01*
X167407202Y-124802862D01*
X167407202Y-124685595D01*
X167524469Y-124685595D01*
X167641736Y-124685595D01*
X167641736Y-124802862D01*
X167641736Y-124920129D01*
X167759003Y-124920129D01*
X167876270Y-124920129D01*
X167876270Y-124685595D01*
X167876270Y-124451062D01*
X170338874Y-124451062D01*
X172801477Y-124451062D01*
X172801477Y-124568328D01*
X172801477Y-124685595D01*
X170573407Y-124685595D01*
X168345337Y-124685595D01*
X168345337Y-124802862D01*
X168345337Y-124920129D01*
X168228070Y-124920129D01*
X168110803Y-124920129D01*
X168110803Y-125154663D01*
X168110803Y-125389196D01*
X168228070Y-125389196D01*
X168345337Y-125389196D01*
X168345337Y-125154663D01*
X168345337Y-124920129D01*
X170573407Y-124920129D01*
X172801477Y-124920129D01*
X172801477Y-124802862D01*
X172801477Y-124685595D01*
X172918744Y-124685595D01*
X173036011Y-124685595D01*
X173036011Y-124802862D01*
X173036011Y-124920129D01*
X173153278Y-124920129D01*
X173270545Y-124920129D01*
X173270545Y-126561865D01*
X173270545Y-127500000D01*
G37*
G36*
X164358264Y-127500000D02*
G01*
X164358264Y-129610803D01*
X164240997Y-129610803D01*
X164123730Y-129610803D01*
X164123730Y-129728070D01*
X164123730Y-129845337D01*
X163889197Y-129845337D01*
X163654663Y-129845337D01*
X163654663Y-129962604D01*
X163654663Y-130079870D01*
X163185596Y-130079870D01*
X162716528Y-130079870D01*
X162716528Y-129962604D01*
X162716528Y-129845337D01*
X162599261Y-129845337D01*
X162481994Y-129845337D01*
X162481994Y-129728070D01*
X162481994Y-129610803D01*
X162364728Y-129610803D01*
X162247461Y-129610803D01*
X162247461Y-129845337D01*
X162247461Y-130079870D01*
X161895660Y-130079870D01*
X161543860Y-130079870D01*
X161543860Y-129962604D01*
X161543860Y-129845337D01*
X161426593Y-129845337D01*
X161309326Y-129845337D01*
X161309326Y-129728070D01*
X161309326Y-129610803D01*
X161426593Y-129610803D01*
X161543860Y-129610803D01*
X161543860Y-128555401D01*
X161543860Y-127500000D01*
X162012927Y-127500000D01*
X162481994Y-127500000D01*
X162481994Y-127382733D01*
X162481994Y-127265466D01*
X162599261Y-127265466D01*
X162716528Y-127265466D01*
X162716528Y-127382733D01*
X162716528Y-127500000D01*
X162833795Y-127500000D01*
X162951062Y-127500000D01*
X162951062Y-128203601D01*
X162951062Y-128907202D01*
X162833795Y-128907202D01*
X162716528Y-128907202D01*
X162716528Y-129024469D01*
X162716528Y-129141736D01*
X162951062Y-129141736D01*
X163185596Y-129141736D01*
X163185596Y-127500000D01*
X163185596Y-125858264D01*
X163068329Y-125858264D01*
X162951062Y-125858264D01*
X162951062Y-126444598D01*
X162951062Y-127030932D01*
X162716528Y-127030932D01*
X162481994Y-127030932D01*
X162481994Y-127148199D01*
X162481994Y-127265466D01*
X162012927Y-127265466D01*
X161543860Y-127265466D01*
X161543860Y-127382733D01*
X161543860Y-127500000D01*
X161426593Y-127500000D01*
X161309326Y-127500000D01*
X161309326Y-128555401D01*
X161309326Y-129610803D01*
X161192059Y-129610803D01*
X161074792Y-129610803D01*
X161074792Y-129845337D01*
X161074792Y-130079870D01*
X160136657Y-130079870D01*
X159198523Y-130079870D01*
X159198523Y-129962604D01*
X159198523Y-129845337D01*
X159081256Y-129845337D01*
X158963989Y-129845337D01*
X158963989Y-129728070D01*
X158963989Y-129610803D01*
X158846722Y-129610803D01*
X158729455Y-129610803D01*
X158729455Y-129141736D01*
X158729455Y-128672668D01*
X159081256Y-128672668D01*
X159433056Y-128672668D01*
X159433056Y-126561865D01*
X159433056Y-124451062D01*
X160019391Y-124451062D01*
X160605725Y-124451062D01*
X160605725Y-124568328D01*
X160605725Y-124685595D01*
X160253924Y-124685595D01*
X159902124Y-124685595D01*
X159902124Y-124802862D01*
X159902124Y-124920129D01*
X159784857Y-124920129D01*
X159667590Y-124920129D01*
X159667590Y-126913665D01*
X159667590Y-128907202D01*
X159433056Y-128907202D01*
X159198523Y-128907202D01*
X159198523Y-129024469D01*
X159198523Y-129141736D01*
X159081256Y-129141736D01*
X158963989Y-129141736D01*
X158963989Y-129376269D01*
X158963989Y-129610803D01*
X159081256Y-129610803D01*
X159198523Y-129610803D01*
X159198523Y-129376269D01*
X159198523Y-129141736D01*
X159433056Y-129141736D01*
X159667590Y-129141736D01*
X159667590Y-129024469D01*
X159667590Y-128907202D01*
X159784857Y-128907202D01*
X159902124Y-128907202D01*
X159902124Y-127030932D01*
X161074792Y-127030932D01*
X161309326Y-127030932D01*
X161543860Y-127030932D01*
X161543860Y-126913665D01*
X161543860Y-126796399D01*
X161426593Y-126796399D01*
X161309326Y-126796399D01*
X161309326Y-126679132D01*
X161309326Y-126561865D01*
X161192059Y-126561865D01*
X161074792Y-126561865D01*
X161074792Y-126796399D01*
X161074792Y-127030932D01*
X159902124Y-127030932D01*
X159902124Y-126913665D01*
X159902124Y-124920129D01*
X160253924Y-124920129D01*
X160605725Y-124920129D01*
X160605725Y-124802862D01*
X160605725Y-124685595D01*
X160722992Y-124685595D01*
X160840259Y-124685595D01*
X160840259Y-124802862D01*
X160840259Y-124920129D01*
X160957525Y-124920129D01*
X161074792Y-124920129D01*
X161074792Y-125037396D01*
X161074792Y-125154663D01*
X161192059Y-125154663D01*
X161309326Y-125154663D01*
X161309326Y-125037396D01*
X161309326Y-124920129D01*
X161426593Y-124920129D01*
X161543860Y-124920129D01*
X161543860Y-125037396D01*
X161543860Y-125154663D01*
X161426593Y-125154663D01*
X161309326Y-125154663D01*
X161309326Y-125389196D01*
X161309326Y-125623730D01*
X161426593Y-125623730D01*
X161543860Y-125623730D01*
X161543860Y-125740997D01*
X161543860Y-125858264D01*
X161426593Y-125858264D01*
X161309326Y-125858264D01*
X161309326Y-126210064D01*
X161309326Y-126561865D01*
X161426593Y-126561865D01*
X161543860Y-126561865D01*
X161543860Y-126210064D01*
X161543860Y-125858264D01*
X161661127Y-125858264D01*
X161778393Y-125858264D01*
X161778393Y-125623730D01*
X161778393Y-125389196D01*
X161895660Y-125389196D01*
X162012927Y-125389196D01*
X162012927Y-125271930D01*
X162012927Y-125154663D01*
X162130194Y-125154663D01*
X162247461Y-125154663D01*
X162247461Y-125037396D01*
X162247461Y-124920129D01*
X162716528Y-124920129D01*
X163185596Y-124920129D01*
X163185596Y-124802862D01*
X163185596Y-124685595D01*
X163302862Y-124685595D01*
X163420129Y-124685595D01*
X163420129Y-124802862D01*
X163420129Y-124920129D01*
X163537396Y-124920129D01*
X163654663Y-124920129D01*
X163654663Y-125037396D01*
X163654663Y-125154663D01*
X163889197Y-125154663D01*
X164123730Y-125154663D01*
X164123730Y-125271930D01*
X164123730Y-125389196D01*
X164240997Y-125389196D01*
X164358264Y-125389196D01*
X164358264Y-125858264D01*
X164358264Y-127500000D01*
G37*
G36*
X163185596Y-124568328D02*
G01*
X163185596Y-124685595D01*
X162716528Y-124685595D01*
X162247461Y-124685595D01*
X162247461Y-124802862D01*
X162247461Y-124920129D01*
X162130194Y-124920129D01*
X162012927Y-124920129D01*
X162012927Y-124802862D01*
X162012927Y-124685595D01*
X161895660Y-124685595D01*
X161778393Y-124685595D01*
X161778393Y-124568328D01*
X161778393Y-124451062D01*
X162481994Y-124451062D01*
X163185596Y-124451062D01*
X163185596Y-124568328D01*
G37*
%TD*%
M02*
