M48
; DRILL file {KiCad 7.0.5} date Sun May 26 12:45:07 2024
; FORMAT={-:-/ absolute / inch / decimal}
; #@! TF.CreationDate,2024-05-26T12:45:07+03:00
; #@! TF.GenerationSoftware,Kicad,Pcbnew,7.0.5
; #@! TF.FileFunction,Plated,1,2,PTH
FMAT,2
INCH
; #@! TA.AperFunction,Plated,PTH,ViaDrill
T1C0.0118
; #@! TA.AperFunction,Plated,PTH,ViaDrill
T2C0.0157
; #@! TA.AperFunction,Plated,PTH,ComponentDrill
T3C0.0197
; #@! TA.AperFunction,Plated,PTH,ComponentDrill
T4C0.0217
; #@! TA.AperFunction,Plated,PTH,ViaDrill
T5C0.0236
; #@! TA.AperFunction,Plated,PTH,ComponentDrill
T6C0.0256
; #@! TA.AperFunction,Plated,PTH,ComponentDrill
T7C0.0315
; #@! TA.AperFunction,Plated,PTH,ComponentDrill
T8C0.0394
%
G90
G05
T1
X3.6614Y-3.5827
X3.6614Y-2.6378
X3.6614Y-2.9528
X3.6614Y-3.1102
X3.6614Y-3.2677
X3.6614Y-3.4252
X3.6614Y-3.7402
X3.6614Y-4.3701
X3.6614Y-4.5276
X3.6614Y-4.6063
X3.6614Y-4.685
X3.6614Y-4.7638
X3.6614Y-4.8425
X3.6614Y-4.9213
X3.6614Y-5.0
X3.6614Y-5.0787
X3.6614Y-5.1575
X3.6614Y-5.2362
X3.6614Y-5.315
X3.6614Y-2.7953
X3.7402Y-2.126
X3.7402Y-2.6772
X3.7402Y-2.7559
X3.7402Y-2.8346
X3.7402Y-2.9134
X3.7402Y-2.9921
X3.7402Y-3.0709
X3.7402Y-3.1496
X3.7402Y-3.2283
X3.7402Y-3.3071
X3.7402Y-3.3858
X3.7402Y-3.4646
X3.7402Y-3.5433
X3.7402Y-3.622
X3.7402Y-3.7008
X3.7402Y-3.7795
X3.7402Y-3.8583
X3.7402Y-3.8583
X3.7402Y-4.6457
X3.7402Y-4.7244
X3.7402Y-4.8031
X3.7402Y-4.8819
X3.7402Y-4.9606
X3.7402Y-5.0394
X3.7402Y-5.1181
X3.7402Y-5.1969
X3.7402Y-5.2756
X3.7402Y-5.3543
X3.7402Y-5.4331
X3.7589Y-4.3469
X3.7795Y-2.2047
X3.8189Y-2.126
X3.8189Y-2.6378
X3.8189Y-2.9528
X3.8189Y-3.1102
X3.8189Y-3.4252
X3.8189Y-3.7402
X3.8189Y-5.0787
X3.8189Y-5.2362
X3.8189Y-5.3937
X3.8189Y-2.7953
X3.8189Y-3.5827
X3.8376Y-3.9139
X3.8376Y-3.9926
X3.8376Y-4.0714
X3.8376Y-4.1501
X3.8376Y-4.2288
X3.8376Y-4.3076
X3.8376Y-4.3863
X3.8976Y-2.6772
X3.8976Y-2.7559
X3.8976Y-2.8346
X3.8976Y-2.9134
X3.8976Y-2.9921
X3.8976Y-3.0709
X3.8976Y-3.1496
X3.8976Y-3.2283
X3.8976Y-5.1181
X3.8976Y-5.2756
X3.8976Y-5.4331
X3.8976Y-2.126
X3.9163Y-3.9532
X3.9163Y-4.1895
X3.9163Y-4.2682
X3.9163Y-4.3469
X3.937Y-2.0472
X3.937Y-2.2047
X3.9764Y-2.126
X3.9764Y-2.6378
X3.9764Y-2.7953
X3.9764Y-5.0
X3.9764Y-5.1575
X3.9764Y-5.315
X3.9764Y-5.4724
X3.9951Y-3.9926
X3.9951Y-4.0714
X3.9951Y-4.3076
X3.9951Y-4.3863
X4.0354Y-2.3622
X4.0354Y-2.5098
X4.0354Y-2.5492
X4.0354Y-2.5886
X4.0551Y-2.126
X4.0551Y-2.6772
X4.0551Y-2.7559
X4.0551Y-2.8346
X4.0551Y-2.9134
X4.0551Y-5.0394
X4.0551Y-5.1969
X4.0551Y-5.3543
X4.0551Y-5.5118
X4.0551Y-2.2835
X4.0738Y-3.9532
X4.0738Y-4.032
X4.0738Y-4.1107
X4.0738Y-4.1895
X4.0738Y-4.2682
X4.0738Y-4.3469
X4.0748Y-2.3622
X4.0748Y-2.5098
X4.0945Y-2.0472
X4.0945Y-2.2047
X4.1142Y-2.3622
X4.1142Y-2.5098
X4.1339Y-2.126
X4.1339Y-2.6378
X4.1339Y-2.7992
X4.1339Y-5.4724
X4.1339Y-2.2835
X4.1437Y-3.8287
X4.1526Y-3.9926
X4.1526Y-4.0714
X4.1526Y-4.1501
X4.1526Y-4.3076
X4.1526Y-4.3863
X4.1535Y-2.3622
X4.1535Y-2.5098
X4.1604Y-4.2357
X4.1929Y-2.3622
X4.1929Y-2.5098
X4.2028Y-3.8287
X4.2126Y-2.126
X4.2126Y-2.5295
X4.2126Y-2.5689
X4.2126Y-2.6083
X4.2126Y-2.6476
X4.2126Y-2.687
X4.2126Y-2.7264
X4.2126Y-5.5118
X4.2126Y-2.2835
X4.2313Y-4.4257
X4.2323Y-2.3622
X4.252Y-2.0472
X4.252Y-2.2047
X4.2618Y-3.8287
X4.2717Y-2.3622
X4.2913Y-2.126
X4.2913Y-2.2835
X4.2913Y-2.9528
X4.2913Y-3.1102
X4.2913Y-3.2677
X4.2913Y-5.0787
X4.2913Y-5.2362
X4.2913Y-5.3937
X4.311Y-2.3622
X4.3209Y-3.8287
X4.3484Y-4.0586
X4.3488Y-2.3791
X4.3494Y-4.0123
X4.3701Y-2.126
X4.3701Y-2.4114
X4.3701Y-2.4508
X4.3701Y-2.4902
X4.3701Y-2.5295
X4.3701Y-2.5689
X4.3701Y-2.6083
X4.3701Y-2.6476
X4.3701Y-2.687
X4.3701Y-2.7264
X4.3701Y-3.0315
X4.3701Y-3.189
X4.3701Y-3.3465
X4.3701Y-5.0394
X4.3701Y-5.3543
X4.3701Y-5.5118
X4.3701Y-2.2835
X4.3717Y-5.2003
X4.3799Y-3.8287
X4.4094Y-2.0472
X4.4094Y-2.2047
X4.4094Y-2.4409
X4.4094Y-2.9528
X4.4094Y-3.1102
X4.4094Y-3.2677
X4.4094Y-2.5984
X4.439Y-3.8287
X4.4488Y-2.126
X4.4488Y-2.2835
X4.4488Y-2.3622
X4.4488Y-2.5197
X4.4488Y-2.6772
X4.4488Y-5.1575
X4.4488Y-5.315
X4.4488Y-5.4724
X4.4882Y-2.4409
X4.4882Y-3.0315
X4.4882Y-3.189
X4.4882Y-3.3465
X4.4882Y-2.5984
X4.498Y-3.8287
X4.5276Y-2.126
X4.5276Y-2.9528
X4.5276Y-3.1102
X4.5276Y-3.2677
X4.5276Y-5.0394
X4.5276Y-5.1969
X4.5276Y-5.3543
X4.5276Y-5.5118
X4.5276Y-2.2835
X4.5295Y-4.1885
X4.5571Y-3.8287
X4.5669Y-2.0472
X4.5669Y-2.2047
X4.5669Y-2.4409
X4.5669Y-2.5984
X4.5836Y-3.7579
X4.6063Y-3.0315
X4.6063Y-3.189
X4.6063Y-3.3465
X4.6063Y-5.2362
X4.6063Y-5.4724
X4.6063Y-2.126
X4.6063Y-2.5197
X4.6063Y-2.6772
X4.6063Y-2.2835
X4.6161Y-3.8287
X4.6457Y-2.4409
X4.6457Y-2.9528
X4.6457Y-3.1102
X4.6457Y-3.2677
X4.6457Y-2.5984
X4.6752Y-3.8287
X4.685Y-2.126
X4.685Y-5.5118
X4.685Y-2.2835
X4.7244Y-2.4409
X4.7244Y-2.0472
X4.7244Y-2.2047
X4.7244Y-2.5984
X4.7244Y-3.0315
X4.7244Y-3.189
X4.7244Y-3.3465
X4.7343Y-3.8287
X4.7638Y-2.126
X4.7638Y-2.3622
X4.7638Y-2.5197
X4.7638Y-2.6772
X4.7638Y-5.4724
X4.7638Y-2.2835
X4.7922Y-3.7461
X4.8031Y-2.4409
X4.8031Y-2.5984
X4.811Y-4.7008
X4.8425Y-2.126
X4.8425Y-4.6772
X4.8425Y-5.4331
X4.8425Y-5.5118
X4.8425Y-2.2835
X4.874Y-3.937
X4.874Y-3.9764
X4.874Y-4.0157
X4.874Y-4.0551
X4.874Y-4.0945
X4.874Y-4.1339
X4.874Y-4.1732
X4.874Y-4.2126
X4.874Y-4.252
X4.874Y-4.2913
X4.874Y-4.3307
X4.874Y-4.3701
X4.874Y-4.4094
X4.874Y-4.4488
X4.874Y-4.4882
X4.874Y-4.5276
X4.874Y-4.5669
X4.874Y-4.6063
X4.874Y-4.6457
X4.874Y-4.7638
X4.8819Y-2.0472
X4.8819Y-2.2047
X4.8819Y-2.4409
X4.8819Y-2.5984
X4.9055Y-4.7323
X4.9134Y-3.8287
X4.9213Y-2.126
X4.9213Y-5.4724
X4.9213Y-2.2835
X4.937Y-4.7008
X4.9508Y-3.8484
X4.9685Y-3.8976
X4.9685Y-3.937
X4.9685Y-3.9764
X4.9685Y-4.0157
X4.9685Y-4.0551
X4.9685Y-4.0945
X4.9685Y-4.1339
X4.9685Y-4.1732
X4.9685Y-4.2126
X4.9685Y-4.252
X4.9685Y-4.2913
X4.9685Y-4.3307
X4.9685Y-4.3701
X4.9685Y-4.4094
X4.9685Y-4.4488
X4.9685Y-4.4882
X4.9685Y-4.5276
X4.9685Y-4.5669
X4.9685Y-4.6063
X4.9685Y-4.6457
X4.9803Y-2.5394
X4.9803Y-2.0669
X4.9803Y-2.2244
X4.9803Y-2.3819
X4.9803Y-2.6969
X4.9803Y-2.8543
X4.9803Y-3.0118
X5.0Y-5.5118
X5.0197Y-4.8622
X5.0591Y-2.1063
X5.0591Y-2.185
X5.0591Y-2.2638
X5.0591Y-2.3425
X5.0591Y-2.4213
X5.0591Y-2.5
X5.0591Y-2.5787
X5.0591Y-2.6575
X5.0591Y-2.7362
X5.0591Y-2.815
X5.0591Y-2.8937
X5.0591Y-2.9724
X5.0591Y-3.0512
X5.0591Y-3.1299
X5.0591Y-3.2087
X5.0591Y-3.2874
X5.0591Y-3.3661
X5.0591Y-3.4449
X5.0591Y-3.5236
X5.0591Y-3.6024
X5.0591Y-3.6811
X5.0591Y-3.7598
X5.0787Y-3.8386
X5.0787Y-3.878
X5.0787Y-3.9173
X5.0787Y-3.9567
X5.0787Y-3.9961
X5.0787Y-4.0354
X5.0787Y-4.0748
X5.0787Y-4.1142
X5.0787Y-4.1535
X5.0787Y-4.1929
X5.0787Y-4.2323
X5.0787Y-4.2717
X5.0787Y-4.311
X5.0787Y-4.3504
X5.0787Y-4.3898
X5.0787Y-4.4291
X5.0787Y-4.4685
X5.0787Y-4.5079
X5.0787Y-4.5472
X5.0787Y-4.5866
X5.0787Y-4.626
X5.0787Y-4.6654
X5.0787Y-4.8622
X5.0787Y-5.4724
X5.1181Y-4.7047
X5.1378Y-2.0669
X5.1378Y-2.2244
X5.1378Y-2.3819
X5.1378Y-2.6969
X5.1378Y-2.8543
X5.1378Y-3.0118
X5.1378Y-3.1693
X5.1378Y-4.8622
X5.1378Y-2.5394
X5.1575Y-4.7441
X5.1575Y-5.4331
X5.1575Y-5.5118
X5.1732Y-4.5197
X5.1969Y-4.8622
X5.2165Y-2.5787
X5.2165Y-2.1063
X5.2165Y-2.185
X5.2165Y-2.2638
X5.2165Y-2.3425
X5.2165Y-2.4213
X5.2165Y-2.5
X5.2165Y-2.6575
X5.2165Y-2.7362
X5.2165Y-2.815
X5.2165Y-2.8937
X5.2165Y-2.9724
X5.2165Y-3.0512
X5.2165Y-3.1299
X5.2165Y-4.7441
X5.2362Y-5.4724
X5.2559Y-4.8622
X5.2756Y-4.7441
X5.2953Y-2.0669
X5.2953Y-2.2244
X5.2953Y-2.3819
X5.2953Y-2.6969
X5.2953Y-2.8543
X5.2953Y-3.0118
X5.2953Y-2.5394
X5.315Y-4.8622
X5.315Y-5.5118
X5.3346Y-4.7441
X5.3543Y-2.126
X5.3543Y-2.126
X5.374Y-4.8622
X5.3937Y-4.7047
X5.3937Y-4.7441
X5.3937Y-5.4724
X5.4301Y-4.5305
X5.4331Y-2.126
X5.4331Y-4.8622
X5.4715Y-4.5305
X5.4724Y-2.0472
X5.4724Y-2.2047
X5.4724Y-5.5118
X5.4921Y-4.8622
X5.5118Y-2.126
X5.5256Y-3.6762
X5.5276Y-5.2126
X5.5512Y-3.5039
X5.5512Y-4.7638
X5.5512Y-4.8622
X5.5512Y-5.4724
X5.5906Y-2.126
X5.6102Y-3.4646
X5.6102Y-4.8622
X5.6299Y-2.0472
X5.6299Y-2.2047
X5.6299Y-4.7244
X5.6299Y-4.8031
X5.6299Y-5.5118
X5.6535Y-3.9262
X5.6614Y-3.4882
X5.6693Y-2.126
X5.6693Y-3.4252
X5.6693Y-4.8622
X5.685Y-4.0167
X5.6945Y-2.6492
X5.7087Y-3.5039
X5.7087Y-4.7638
X5.7087Y-5.4724
X5.7283Y-4.8622
X5.7411Y-3.7854
X5.7421Y-3.9006
X5.748Y-2.126
X5.748Y-3.5039
X5.7492Y-3.1524
X5.7874Y-2.0472
X5.7874Y-2.2047
X5.7874Y-4.7244
X5.7874Y-4.8031
X5.7874Y-5.0394
X5.7874Y-5.1181
X5.7874Y-5.1969
X5.7874Y-5.2756
X5.7874Y-5.3543
X5.7874Y-5.4331
X5.7874Y-5.5118
X5.7887Y-4.8628
X5.8071Y-3.5039
X5.815Y-3.8868
X5.8268Y-2.126
X5.8415Y-3.9203
X5.8465Y-4.8622
X5.8661Y-3.5039
X5.8661Y-4.1142
X5.8661Y-4.7638
X5.8661Y-5.2362
X5.8661Y-5.315
X5.8996Y-4.3681
X5.9055Y-2.126
X5.9055Y-4.1142
X5.9055Y-4.8622
X5.9252Y-3.5039
X5.9449Y-2.0472
X5.9449Y-2.2047
X5.9449Y-4.0748
X5.9449Y-4.1142
X5.9449Y-4.1535
X5.9449Y-4.7244
X5.9449Y-4.8031
X5.9646Y-4.8622
X5.9811Y-5.2862
X5.9843Y-2.126
X5.9843Y-3.5039
X5.9843Y-3.9961
X5.9843Y-4.0354
X5.9843Y-4.0748
X5.9843Y-4.1535
X5.9843Y-4.1929
X5.9843Y-4.2323
X6.0157Y-4.3533
X6.0167Y-3.8809
X6.0236Y-3.3858
X6.0236Y-3.4646
X6.0236Y-4.7638
X6.0236Y-4.8228
X6.0236Y-5.4409
X6.0315Y-5.2677
X6.0433Y-3.5039
X6.0433Y-3.9961
X6.0433Y-4.0354
X6.0433Y-4.0748
X6.0433Y-4.1535
X6.0433Y-4.1929
X6.0433Y-4.2323
X6.063Y-2.126
X6.0827Y-4.0748
X6.0827Y-4.1535
X6.1024Y-2.0472
X6.1024Y-2.2047
X6.1024Y-3.3465
X6.1024Y-3.4252
X6.1024Y-4.7244
X6.1024Y-4.8031
X6.122Y-3.5039
X6.122Y-4.0748
X6.122Y-4.1535
X6.1417Y-2.126
X6.1496Y-2.4173
X6.1545Y-3.8159
X6.1811Y-3.3858
X6.1811Y-3.4646
X6.1811Y-3.5039
X6.1811Y-4.7638
X6.1811Y-4.8031
X6.1811Y-5.3543
X6.1811Y-5.3937
X6.1811Y-5.5118
X6.2205Y-2.126
X6.2205Y-5.4331
X6.2402Y-3.5039
X6.252Y-4.9921
X6.2598Y-2.0472
X6.2598Y-2.2047
X6.2598Y-3.3465
X6.2598Y-3.4252
X6.2598Y-4.7244
X6.2598Y-4.8031
X6.2598Y-5.4724
X6.2628Y-4.1506
X6.2795Y-5.4331
X6.2839Y-4.889
X6.2992Y-3.5039
X6.2992Y-2.126
X6.315Y-2.9291
X6.3386Y-3.3858
X6.3386Y-3.4646
X6.3386Y-4.7638
X6.3386Y-4.8031
X6.3386Y-5.4331
X6.3386Y-5.5118
X6.3583Y-3.5039
X6.378Y-2.126
X6.3976Y-5.4331
X6.4006Y-4.3031
X6.4173Y-2.0472
X6.4173Y-2.2047
X6.4173Y-3.2677
X6.4173Y-3.3465
X6.4173Y-3.4252
X6.4173Y-3.5039
X6.4173Y-3.8976
X6.4173Y-3.9764
X6.4173Y-4.7244
X6.4173Y-4.8031
X6.4173Y-5.4724
X6.4469Y-3.1398
X6.4469Y-4.2815
X6.4567Y-2.126
X6.4567Y-2.9035
X6.4567Y-3.061
X6.4567Y-5.4331
X6.4567Y-2.2835
X6.4764Y-3.5039
X6.4764Y-4.8031
X6.4862Y-3.061
X6.4961Y-2.9035
X6.4961Y-3.2283
X6.4961Y-3.3071
X6.4961Y-3.3858
X6.4961Y-3.4646
X6.4961Y-3.8583
X6.4961Y-3.937
X6.4961Y-5.5118
X6.5059Y-3.1398
X6.5079Y-4.2648
X6.5157Y-2.3425
X6.5157Y-2.4213
X6.5157Y-2.5
X6.5157Y-2.5787
X6.5157Y-2.6575
X6.5157Y-2.7362
X6.5157Y-2.815
X6.5157Y-4.7638
X6.5256Y-3.061
X6.5354Y-2.126
X6.5354Y-2.9035
X6.5354Y-3.5039
X6.5354Y-5.4331
X6.5354Y-2.2835
X6.5463Y-4.2136
X6.5551Y-4.7244
X6.5551Y-4.8819
X6.565Y-3.061
X6.565Y-3.1398
X6.5748Y-2.9035
X6.5748Y-3.3465
X6.5748Y-3.4252
X6.5748Y-3.7402
X6.5748Y-3.8189
X6.5748Y-3.8976
X6.5748Y-3.9764
X6.5748Y-5.4724
X6.5748Y-2.0472
X6.5748Y-2.2047
X6.5945Y-2.7165
X6.5945Y-3.5039
X6.5945Y-5.4331
X6.5945Y-2.7756
X6.6043Y-3.061
X6.6043Y-3.1693
X6.6142Y-2.126
X6.6142Y-2.9035
X6.6142Y-4.8819
X6.6142Y-2.2835
X6.6437Y-2.7165
X6.6437Y-3.061
X6.6437Y-3.2087
X6.6535Y-2.9035
X6.6535Y-3.3858
X6.6535Y-3.5039
X6.6535Y-3.622
X6.6535Y-3.7008
X6.6535Y-3.7795
X6.6535Y-3.8583
X6.6535Y-3.937
X6.6535Y-5.4331
X6.6535Y-5.5118
X6.6732Y-2.7264
X6.6732Y-2.7657
X6.6732Y-2.8051
X6.6732Y-2.8445
X6.6732Y-2.8839
X6.6732Y-3.1299
X6.6732Y-3.2087
X6.6831Y-3.061
X6.6831Y-3.248
X6.6929Y-2.126
X6.6929Y-2.2835
X6.7224Y-3.061
X6.7224Y-3.2874
X6.7323Y-2.0472
X6.7323Y-5.4331
X6.7323Y-5.4724
X6.752Y-2.1457
X6.752Y-3.0906
X6.752Y-3.248
X6.752Y-3.3268
X6.752Y-3.3858
X6.752Y-3.4449
X6.752Y-3.5039
X6.752Y-3.563
X6.752Y-3.6417
X6.752Y-3.7205
X6.752Y-3.7992
X6.752Y-3.878
X6.752Y-3.9567
X6.752Y-4.8819
X6.7559Y-4.4252
X6.7559Y-4.5039
X6.7559Y-4.5827
X6.7559Y-4.6614
X6.7559Y-4.7402
X6.7559Y-4.8189
X6.7618Y-3.061
X6.7913Y-5.4331
X6.811Y-4.8819
X6.811Y-5.5118
X6.8209Y-2.7165
X6.8209Y-2.7559
X6.8209Y-2.7953
X6.8209Y-2.8346
X6.8209Y-2.874
X6.8209Y-2.9134
X6.8209Y-2.9528
X6.8209Y-2.9921
X6.8307Y-2.1063
X6.8307Y-2.185
X6.8307Y-2.2638
X6.8307Y-3.1299
X6.8307Y-3.2087
X6.8307Y-3.2874
X6.8307Y-3.3661
X6.8307Y-3.4449
X6.8307Y-3.5236
X6.8307Y-3.6024
X6.8307Y-3.6811
X6.8307Y-3.7598
X6.8307Y-3.8386
X6.8307Y-3.9173
X6.8307Y-4.3898
X6.8307Y-4.4685
X6.8307Y-4.5472
X6.8307Y-4.626
X6.8307Y-4.7047
X6.8307Y-4.7835
X6.8504Y-5.4331
X6.8602Y-2.7165
X6.8701Y-4.8819
X6.8898Y-5.4724
X6.909Y-3.0906
X6.9094Y-2.1457
X6.9094Y-2.3031
X6.9094Y-2.7165
X6.9094Y-2.7854
X6.9094Y-2.9331
X6.9094Y-3.4055
X6.9094Y-3.563
X6.9094Y-3.7205
X6.9094Y-3.878
X6.9094Y-4.0354
X6.9094Y-4.1929
X6.9094Y-4.3504
X6.9094Y-4.5079
X6.9094Y-4.6654
X6.9094Y-4.8228
X6.9094Y-5.4331
X6.9094Y-3.248
X6.9291Y-4.8819
X6.9685Y-5.4331
X6.9685Y-5.5118
X6.9882Y-2.1063
X6.9882Y-2.185
X6.9882Y-2.2638
X6.9882Y-2.3425
X6.9882Y-2.4213
X6.9882Y-2.5
X6.9882Y-2.5787
X6.9882Y-2.6575
X6.9882Y-2.7362
X6.9882Y-2.815
X6.9882Y-2.8937
X6.9882Y-2.9724
X6.9882Y-3.0512
X6.9882Y-3.1299
X6.9882Y-3.2087
X6.9882Y-3.2874
X6.9882Y-3.3661
X6.9882Y-3.4449
X6.9882Y-3.5236
X6.9882Y-3.6024
X6.9882Y-3.6811
X6.9882Y-3.7598
X6.9882Y-3.8386
X6.9882Y-3.9173
X6.9882Y-3.9961
X6.9882Y-4.0748
X6.9882Y-4.1535
X6.9882Y-4.2323
X6.9882Y-4.311
X6.9882Y-4.3898
X6.9882Y-4.4685
X6.9882Y-4.5472
X6.9882Y-4.626
X6.9882Y-4.7047
X6.9882Y-4.7835
X6.9882Y-4.8819
X7.0276Y-5.4331
X7.0472Y-4.8819
X7.0669Y-2.1457
X7.0669Y-2.3031
X7.0669Y-2.4606
X7.0669Y-2.6181
X7.0669Y-2.7854
X7.0669Y-2.9331
X7.0669Y-3.0906
X7.0669Y-3.248
X7.0669Y-3.4055
X7.0669Y-3.563
X7.0669Y-3.7205
X7.0669Y-3.878
X7.0669Y-4.0354
X7.0669Y-4.1929
X7.0669Y-4.3504
X7.0669Y-4.5079
X7.0669Y-4.6654
X7.0669Y-4.8228
X7.0866Y-4.9016
X7.0866Y-5.4134
X7.1063Y-4.9409
X7.1063Y-5.0
X7.1063Y-5.0591
X7.1063Y-5.1181
X7.1063Y-5.1772
X7.1063Y-5.2362
X7.1063Y-5.2953
X7.1063Y-5.3543
T2
X3.9487Y-3.0148
X4.1594Y-3.3622
X4.2263Y-3.2461
X4.56Y-4.5792
X4.8425Y-4.9134
X5.0079Y-4.9134
X5.2362Y-3.7402
X5.2677Y-3.7953
X5.2884Y-3.4754
X5.5118Y-3.4449
X5.5906Y-3.4252
X5.5906Y-4.3465
X5.9488Y-3.1545
X6.4685Y-5.0472
X6.6683Y-5.0807
X6.7343Y-5.0807
X6.9173Y-5.1811
X6.9449Y-5.315
T5
X3.878Y-4.7992
X3.8799Y-4.7106
X3.9487Y-2.9646
X4.874Y-5.3307
X4.8898Y-4.9685
T6
X5.3705Y-2.343
X5.4205Y-2.343
X5.4705Y-2.343
X5.5205Y-2.343
X5.5705Y-2.343
X5.6205Y-2.343
X5.6705Y-2.343
X5.7205Y-2.343
T7
X5.6337Y-4.629
X5.6337Y-3.611
X5.7124Y-4.629
X5.7124Y-3.611
X5.7912Y-4.629
X5.7912Y-3.611
X5.8699Y-4.629
X5.8699Y-3.611
X5.9487Y-4.629
X5.9487Y-3.611
X5.9883Y-2.341
X6.0274Y-4.629
X6.0274Y-3.611
X6.067Y-2.341
X6.1061Y-4.629
X6.1061Y-3.611
X6.1457Y-2.341
X6.1849Y-4.629
X6.1849Y-3.611
X6.2245Y-2.341
X6.2636Y-4.629
X6.2636Y-3.611
X6.3032Y-2.341
X6.3424Y-4.629
X6.3424Y-3.611
X6.382Y-2.341
X6.4211Y-4.629
X6.4211Y-3.611
X6.4998Y-4.629
X6.4998Y-3.611
X6.5786Y-4.629
X6.5786Y-3.611
X6.8192Y-4.0319
X6.8192Y-4.1107
X6.8192Y-4.1894
X6.8192Y-4.2682
T8
X5.2268Y-4.4157
X5.2268Y-4.5157
X5.2268Y-4.6157
X5.3268Y-4.4157
X5.3268Y-4.5157
X5.3268Y-4.6157
T3
G00X5.8499Y-5.4793
M15
G01X5.8499Y-5.5049
M16
G05
G00X6.1255Y-5.4793
M15
G01X6.1255Y-5.5049
M16
G05
T4
G00X5.8834Y-5.3858
M15
G01X5.8952Y-5.3858
M16
G05
G00X6.0802Y-5.3858
M15
G01X6.092Y-5.3858
M16
G05
T0
M30
