%TF.GenerationSoftware,KiCad,Pcbnew,7.0.5*%
%TF.CreationDate,2024-05-26T12:31:29+03:00*%
%TF.ProjectId,LoRa_MuPr-VAF4751,4c6f5261-5f4d-4755-9072-2d5641463437,rev?*%
%TF.SameCoordinates,Original*%
%TF.FileFunction,Paste,Top*%
%TF.FilePolarity,Positive*%
%FSLAX46Y46*%
G04 Gerber Fmt 4.6, Leading zero omitted, Abs format (unit mm)*
G04 Created by KiCad (PCBNEW 7.0.5) date 2024-05-26 12:31:29*
%MOMM*%
%LPD*%
G01*
G04 APERTURE LIST*
G04 Aperture macros list*
%AMRoundRect*
0 Rectangle with rounded corners*
0 $1 Rounding radius*
0 $2 $3 $4 $5 $6 $7 $8 $9 X,Y pos of 4 corners*
0 Add a 4 corners polygon primitive as box body*
4,1,4,$2,$3,$4,$5,$6,$7,$8,$9,$2,$3,0*
0 Add four circle primitives for the rounded corners*
1,1,$1+$1,$2,$3*
1,1,$1+$1,$4,$5*
1,1,$1+$1,$6,$7*
1,1,$1+$1,$8,$9*
0 Add four rect primitives between the rounded corners*
20,1,$1+$1,$2,$3,$4,$5,0*
20,1,$1+$1,$4,$5,$6,$7,0*
20,1,$1+$1,$6,$7,$8,$9,0*
20,1,$1+$1,$8,$9,$2,$3,0*%
G04 Aperture macros list end*
%ADD10C,0.010000*%
%ADD11R,2.000000X1.500000*%
%ADD12R,2.000000X3.800000*%
%ADD13RoundRect,0.237500X0.250000X0.237500X-0.250000X0.237500X-0.250000X-0.237500X0.250000X-0.237500X0*%
%ADD14RoundRect,0.237500X-0.237500X0.300000X-0.237500X-0.300000X0.237500X-0.300000X0.237500X0.300000X0*%
%ADD15RoundRect,0.237500X0.237500X-0.300000X0.237500X0.300000X-0.237500X0.300000X-0.237500X-0.300000X0*%
%ADD16C,2.050000*%
%ADD17RoundRect,0.237500X0.237500X-0.287500X0.237500X0.287500X-0.237500X0.287500X-0.237500X-0.287500X0*%
%ADD18RoundRect,0.250000X-2.050000X-0.300000X2.050000X-0.300000X2.050000X0.300000X-2.050000X0.300000X0*%
%ADD19RoundRect,0.250000X-2.025000X-2.375000X2.025000X-2.375000X2.025000X2.375000X-2.025000X2.375000X0*%
%ADD20RoundRect,0.237500X-0.250000X-0.237500X0.250000X-0.237500X0.250000X0.237500X-0.250000X0.237500X0*%
%ADD21RoundRect,0.250000X-0.537500X-0.425000X0.537500X-0.425000X0.537500X0.425000X-0.537500X0.425000X0*%
%ADD22RoundRect,0.225000X0.225000X0.375000X-0.225000X0.375000X-0.225000X-0.375000X0.225000X-0.375000X0*%
%ADD23RoundRect,0.237500X0.300000X0.237500X-0.300000X0.237500X-0.300000X-0.237500X0.300000X-0.237500X0*%
%ADD24RoundRect,0.237500X0.237500X-0.250000X0.237500X0.250000X-0.237500X0.250000X-0.237500X-0.250000X0*%
%ADD25R,2.000000X4.500000*%
%ADD26RoundRect,0.237500X-0.237500X0.250000X-0.237500X-0.250000X0.237500X-0.250000X0.237500X0.250000X0*%
%ADD27RoundRect,0.250000X1.000000X-1.500000X1.000000X1.500000X-1.000000X1.500000X-1.000000X-1.500000X0*%
%ADD28RoundRect,0.237500X-0.300000X-0.237500X0.300000X-0.237500X0.300000X0.237500X-0.300000X0.237500X0*%
%ADD29RoundRect,0.250000X-1.000000X1.500000X-1.000000X-1.500000X1.000000X-1.500000X1.000000X1.500000X0*%
%ADD30O,0.890000X1.550000*%
%ADD31O,1.250000X0.950000*%
%ADD32R,0.400000X1.350000*%
%ADD33R,1.200000X1.550000*%
%ADD34R,1.500000X1.550000*%
%ADD35R,1.285000X0.800000*%
%ADD36R,2.100000X0.890000*%
%ADD37R,2.105000X0.890000*%
%ADD38R,2.100000X0.810000*%
%ADD39R,1.285000X0.700000*%
%ADD40RoundRect,0.237500X0.287500X0.237500X-0.287500X0.237500X-0.287500X-0.237500X0.287500X-0.237500X0*%
%ADD41RoundRect,0.237500X-0.287500X-0.237500X0.287500X-0.237500X0.287500X0.237500X-0.287500X0.237500X0*%
%ADD42R,1.220000X0.650000*%
%ADD43O,0.550000X1.800000*%
%ADD44O,1.800000X0.550000*%
%ADD45R,0.900000X1.700000*%
%ADD46RoundRect,0.218750X-0.256250X0.218750X-0.256250X-0.218750X0.256250X-0.218750X0.256250X0.218750X0*%
%ADD47RoundRect,0.250000X0.425000X-0.537500X0.425000X0.537500X-0.425000X0.537500X-0.425000X-0.537500X0*%
%ADD48R,1.016000X1.524000*%
%ADD49R,1.524000X1.016000*%
%ADD50RoundRect,0.075000X-0.521491X0.415425X0.415425X-0.521491X0.521491X-0.415425X-0.415425X0.521491X0*%
%ADD51RoundRect,0.075000X-0.521491X-0.415425X-0.415425X-0.521491X0.521491X0.415425X0.415425X0.521491X0*%
%ADD52RoundRect,0.150000X0.150000X-0.512500X0.150000X0.512500X-0.150000X0.512500X-0.150000X-0.512500X0*%
G04 APERTURE END LIST*
%TO.C,U8*%
D10*
X95854000Y-63453000D02*
X95900000Y-63503000D01*
X95947000Y-63551000D01*
X95995000Y-63598000D01*
X96045000Y-63644000D01*
X96096000Y-63688000D01*
X96148000Y-63730000D01*
X96202000Y-63771000D01*
X96256000Y-63811000D01*
X96312000Y-63849000D01*
X96369000Y-63885000D01*
X96427000Y-63920000D01*
X96486000Y-63952000D01*
X96545000Y-63983000D01*
X96606000Y-64013000D01*
X96668000Y-64040000D01*
X96730000Y-64066000D01*
X96793000Y-64090000D01*
X96857000Y-64112000D01*
X96921000Y-64133000D01*
X96986000Y-64151000D01*
X97051000Y-64168000D01*
X97117000Y-64182000D01*
X97183000Y-64195000D01*
X97250000Y-64206000D01*
X97317000Y-64214000D01*
X97384000Y-64221000D01*
X97451000Y-64226000D01*
X97518000Y-64229000D01*
X97570000Y-64230000D01*
X97622000Y-64229000D01*
X97689000Y-64226000D01*
X97756000Y-64221000D01*
X97823000Y-64214000D01*
X97890000Y-64206000D01*
X97957000Y-64195000D01*
X98023000Y-64182000D01*
X98089000Y-64168000D01*
X98154000Y-64151000D01*
X98219000Y-64133000D01*
X98283000Y-64112000D01*
X98347000Y-64090000D01*
X98410000Y-64066000D01*
X98472000Y-64040000D01*
X98534000Y-64013000D01*
X98595000Y-63983000D01*
X98654000Y-63952000D01*
X98713000Y-63920000D01*
X98771000Y-63885000D01*
X98828000Y-63849000D01*
X98884000Y-63811000D01*
X98938000Y-63771000D01*
X98992000Y-63730000D01*
X99044000Y-63688000D01*
X99095000Y-63644000D01*
X99145000Y-63598000D01*
X99193000Y-63551000D01*
X99240000Y-63503000D01*
X99286000Y-63453000D01*
X99340000Y-63390000D01*
X101450000Y-63390000D01*
X101450000Y-65830000D01*
X93690000Y-65830000D01*
X93690000Y-63390000D01*
X95800000Y-63390000D01*
X95854000Y-63453000D01*
G36*
X95854000Y-63453000D02*
G01*
X95900000Y-63503000D01*
X95947000Y-63551000D01*
X95995000Y-63598000D01*
X96045000Y-63644000D01*
X96096000Y-63688000D01*
X96148000Y-63730000D01*
X96202000Y-63771000D01*
X96256000Y-63811000D01*
X96312000Y-63849000D01*
X96369000Y-63885000D01*
X96427000Y-63920000D01*
X96486000Y-63952000D01*
X96545000Y-63983000D01*
X96606000Y-64013000D01*
X96668000Y-64040000D01*
X96730000Y-64066000D01*
X96793000Y-64090000D01*
X96857000Y-64112000D01*
X96921000Y-64133000D01*
X96986000Y-64151000D01*
X97051000Y-64168000D01*
X97117000Y-64182000D01*
X97183000Y-64195000D01*
X97250000Y-64206000D01*
X97317000Y-64214000D01*
X97384000Y-64221000D01*
X97451000Y-64226000D01*
X97518000Y-64229000D01*
X97570000Y-64230000D01*
X97622000Y-64229000D01*
X97689000Y-64226000D01*
X97756000Y-64221000D01*
X97823000Y-64214000D01*
X97890000Y-64206000D01*
X97957000Y-64195000D01*
X98023000Y-64182000D01*
X98089000Y-64168000D01*
X98154000Y-64151000D01*
X98219000Y-64133000D01*
X98283000Y-64112000D01*
X98347000Y-64090000D01*
X98410000Y-64066000D01*
X98472000Y-64040000D01*
X98534000Y-64013000D01*
X98595000Y-63983000D01*
X98654000Y-63952000D01*
X98713000Y-63920000D01*
X98771000Y-63885000D01*
X98828000Y-63849000D01*
X98884000Y-63811000D01*
X98938000Y-63771000D01*
X98992000Y-63730000D01*
X99044000Y-63688000D01*
X99095000Y-63644000D01*
X99145000Y-63598000D01*
X99193000Y-63551000D01*
X99240000Y-63503000D01*
X99286000Y-63453000D01*
X99340000Y-63390000D01*
X101450000Y-63390000D01*
X101450000Y-65830000D01*
X93690000Y-65830000D01*
X93690000Y-63390000D01*
X95800000Y-63390000D01*
X95854000Y-63453000D01*
G37*
X101450000Y-60510000D02*
X99340000Y-60510000D01*
X99286000Y-60447000D01*
X99240000Y-60397000D01*
X99193000Y-60349000D01*
X99145000Y-60302000D01*
X99095000Y-60256000D01*
X99044000Y-60212000D01*
X98992000Y-60170000D01*
X98938000Y-60129000D01*
X98884000Y-60089000D01*
X98828000Y-60051000D01*
X98771000Y-60015000D01*
X98713000Y-59980000D01*
X98654000Y-59948000D01*
X98595000Y-59917000D01*
X98534000Y-59887000D01*
X98472000Y-59860000D01*
X98410000Y-59834000D01*
X98347000Y-59810000D01*
X98283000Y-59788000D01*
X98219000Y-59767000D01*
X98154000Y-59749000D01*
X98089000Y-59732000D01*
X98023000Y-59718000D01*
X97957000Y-59705000D01*
X97890000Y-59694000D01*
X97823000Y-59686000D01*
X97756000Y-59679000D01*
X97689000Y-59674000D01*
X97622000Y-59671000D01*
X97570000Y-59670000D01*
X97518000Y-59671000D01*
X97451000Y-59674000D01*
X97384000Y-59679000D01*
X97317000Y-59686000D01*
X97250000Y-59694000D01*
X97183000Y-59705000D01*
X97117000Y-59718000D01*
X97051000Y-59732000D01*
X96986000Y-59749000D01*
X96921000Y-59767000D01*
X96857000Y-59788000D01*
X96793000Y-59810000D01*
X96730000Y-59834000D01*
X96668000Y-59860000D01*
X96606000Y-59887000D01*
X96545000Y-59917000D01*
X96486000Y-59948000D01*
X96427000Y-59980000D01*
X96369000Y-60015000D01*
X96312000Y-60051000D01*
X96256000Y-60089000D01*
X96202000Y-60129000D01*
X96148000Y-60170000D01*
X96096000Y-60212000D01*
X96045000Y-60256000D01*
X95995000Y-60302000D01*
X95947000Y-60349000D01*
X95900000Y-60397000D01*
X95854000Y-60447000D01*
X95800000Y-60510000D01*
X93690000Y-60510000D01*
X93690000Y-58070000D01*
X101450000Y-58070000D01*
X101450000Y-60510000D01*
G36*
X101450000Y-60510000D02*
G01*
X99340000Y-60510000D01*
X99286000Y-60447000D01*
X99240000Y-60397000D01*
X99193000Y-60349000D01*
X99145000Y-60302000D01*
X99095000Y-60256000D01*
X99044000Y-60212000D01*
X98992000Y-60170000D01*
X98938000Y-60129000D01*
X98884000Y-60089000D01*
X98828000Y-60051000D01*
X98771000Y-60015000D01*
X98713000Y-59980000D01*
X98654000Y-59948000D01*
X98595000Y-59917000D01*
X98534000Y-59887000D01*
X98472000Y-59860000D01*
X98410000Y-59834000D01*
X98347000Y-59810000D01*
X98283000Y-59788000D01*
X98219000Y-59767000D01*
X98154000Y-59749000D01*
X98089000Y-59732000D01*
X98023000Y-59718000D01*
X97957000Y-59705000D01*
X97890000Y-59694000D01*
X97823000Y-59686000D01*
X97756000Y-59679000D01*
X97689000Y-59674000D01*
X97622000Y-59671000D01*
X97570000Y-59670000D01*
X97518000Y-59671000D01*
X97451000Y-59674000D01*
X97384000Y-59679000D01*
X97317000Y-59686000D01*
X97250000Y-59694000D01*
X97183000Y-59705000D01*
X97117000Y-59718000D01*
X97051000Y-59732000D01*
X96986000Y-59749000D01*
X96921000Y-59767000D01*
X96857000Y-59788000D01*
X96793000Y-59810000D01*
X96730000Y-59834000D01*
X96668000Y-59860000D01*
X96606000Y-59887000D01*
X96545000Y-59917000D01*
X96486000Y-59948000D01*
X96427000Y-59980000D01*
X96369000Y-60015000D01*
X96312000Y-60051000D01*
X96256000Y-60089000D01*
X96202000Y-60129000D01*
X96148000Y-60170000D01*
X96096000Y-60212000D01*
X96045000Y-60256000D01*
X95995000Y-60302000D01*
X95947000Y-60349000D01*
X95900000Y-60397000D01*
X95854000Y-60447000D01*
X95800000Y-60510000D01*
X93690000Y-60510000D01*
X93690000Y-58070000D01*
X101450000Y-58070000D01*
X101450000Y-60510000D01*
G37*
%TO.C,U7*%
X175280000Y-67780000D02*
X172840000Y-67780000D01*
X172840000Y-65670000D01*
X172903000Y-65616000D01*
X172953000Y-65570000D01*
X173001000Y-65523000D01*
X173048000Y-65475000D01*
X173094000Y-65425000D01*
X173138000Y-65374000D01*
X173180000Y-65322000D01*
X173221000Y-65268000D01*
X173261000Y-65214000D01*
X173299000Y-65158000D01*
X173335000Y-65101000D01*
X173370000Y-65043000D01*
X173402000Y-64984000D01*
X173433000Y-64925000D01*
X173463000Y-64864000D01*
X173490000Y-64802000D01*
X173516000Y-64740000D01*
X173540000Y-64677000D01*
X173562000Y-64613000D01*
X173583000Y-64549000D01*
X173601000Y-64484000D01*
X173618000Y-64419000D01*
X173632000Y-64353000D01*
X173645000Y-64287000D01*
X173656000Y-64220000D01*
X173664000Y-64153000D01*
X173671000Y-64086000D01*
X173676000Y-64019000D01*
X173679000Y-63952000D01*
X173680000Y-63900000D01*
X173679000Y-63848000D01*
X173676000Y-63781000D01*
X173671000Y-63714000D01*
X173664000Y-63647000D01*
X173656000Y-63580000D01*
X173645000Y-63513000D01*
X173632000Y-63447000D01*
X173618000Y-63381000D01*
X173601000Y-63316000D01*
X173583000Y-63251000D01*
X173562000Y-63187000D01*
X173540000Y-63123000D01*
X173516000Y-63060000D01*
X173490000Y-62998000D01*
X173463000Y-62936000D01*
X173433000Y-62875000D01*
X173402000Y-62816000D01*
X173370000Y-62757000D01*
X173335000Y-62699000D01*
X173299000Y-62642000D01*
X173261000Y-62586000D01*
X173221000Y-62532000D01*
X173180000Y-62478000D01*
X173138000Y-62426000D01*
X173094000Y-62375000D01*
X173048000Y-62325000D01*
X173001000Y-62277000D01*
X172953000Y-62230000D01*
X172903000Y-62184000D01*
X172840000Y-62130000D01*
X172840000Y-60020000D01*
X175280000Y-60020000D01*
X175280000Y-67780000D01*
G36*
X175280000Y-67780000D02*
G01*
X172840000Y-67780000D01*
X172840000Y-65670000D01*
X172903000Y-65616000D01*
X172953000Y-65570000D01*
X173001000Y-65523000D01*
X173048000Y-65475000D01*
X173094000Y-65425000D01*
X173138000Y-65374000D01*
X173180000Y-65322000D01*
X173221000Y-65268000D01*
X173261000Y-65214000D01*
X173299000Y-65158000D01*
X173335000Y-65101000D01*
X173370000Y-65043000D01*
X173402000Y-64984000D01*
X173433000Y-64925000D01*
X173463000Y-64864000D01*
X173490000Y-64802000D01*
X173516000Y-64740000D01*
X173540000Y-64677000D01*
X173562000Y-64613000D01*
X173583000Y-64549000D01*
X173601000Y-64484000D01*
X173618000Y-64419000D01*
X173632000Y-64353000D01*
X173645000Y-64287000D01*
X173656000Y-64220000D01*
X173664000Y-64153000D01*
X173671000Y-64086000D01*
X173676000Y-64019000D01*
X173679000Y-63952000D01*
X173680000Y-63900000D01*
X173679000Y-63848000D01*
X173676000Y-63781000D01*
X173671000Y-63714000D01*
X173664000Y-63647000D01*
X173656000Y-63580000D01*
X173645000Y-63513000D01*
X173632000Y-63447000D01*
X173618000Y-63381000D01*
X173601000Y-63316000D01*
X173583000Y-63251000D01*
X173562000Y-63187000D01*
X173540000Y-63123000D01*
X173516000Y-63060000D01*
X173490000Y-62998000D01*
X173463000Y-62936000D01*
X173433000Y-62875000D01*
X173402000Y-62816000D01*
X173370000Y-62757000D01*
X173335000Y-62699000D01*
X173299000Y-62642000D01*
X173261000Y-62586000D01*
X173221000Y-62532000D01*
X173180000Y-62478000D01*
X173138000Y-62426000D01*
X173094000Y-62375000D01*
X173048000Y-62325000D01*
X173001000Y-62277000D01*
X172953000Y-62230000D01*
X172903000Y-62184000D01*
X172840000Y-62130000D01*
X172840000Y-60020000D01*
X175280000Y-60020000D01*
X175280000Y-67780000D01*
G37*
X169960000Y-62130000D02*
X169897000Y-62184000D01*
X169847000Y-62230000D01*
X169799000Y-62277000D01*
X169752000Y-62325000D01*
X169706000Y-62375000D01*
X169662000Y-62426000D01*
X169620000Y-62478000D01*
X169579000Y-62532000D01*
X169539000Y-62586000D01*
X169501000Y-62642000D01*
X169465000Y-62699000D01*
X169430000Y-62757000D01*
X169398000Y-62816000D01*
X169367000Y-62875000D01*
X169337000Y-62936000D01*
X169310000Y-62998000D01*
X169284000Y-63060000D01*
X169260000Y-63123000D01*
X169238000Y-63187000D01*
X169217000Y-63251000D01*
X169199000Y-63316000D01*
X169182000Y-63381000D01*
X169168000Y-63447000D01*
X169155000Y-63513000D01*
X169144000Y-63580000D01*
X169136000Y-63647000D01*
X169129000Y-63714000D01*
X169124000Y-63781000D01*
X169121000Y-63848000D01*
X169120000Y-63900000D01*
X169121000Y-63952000D01*
X169124000Y-64019000D01*
X169129000Y-64086000D01*
X169136000Y-64153000D01*
X169144000Y-64220000D01*
X169155000Y-64287000D01*
X169168000Y-64353000D01*
X169182000Y-64419000D01*
X169199000Y-64484000D01*
X169217000Y-64549000D01*
X169238000Y-64613000D01*
X169260000Y-64677000D01*
X169284000Y-64740000D01*
X169310000Y-64802000D01*
X169337000Y-64864000D01*
X169367000Y-64925000D01*
X169398000Y-64984000D01*
X169430000Y-65043000D01*
X169465000Y-65101000D01*
X169501000Y-65158000D01*
X169539000Y-65214000D01*
X169579000Y-65268000D01*
X169620000Y-65322000D01*
X169662000Y-65374000D01*
X169706000Y-65425000D01*
X169752000Y-65475000D01*
X169799000Y-65523000D01*
X169847000Y-65570000D01*
X169897000Y-65616000D01*
X169960000Y-65670000D01*
X169960000Y-67780000D01*
X167520000Y-67780000D01*
X167520000Y-60020000D01*
X169960000Y-60020000D01*
X169960000Y-62130000D01*
G36*
X169960000Y-62130000D02*
G01*
X169897000Y-62184000D01*
X169847000Y-62230000D01*
X169799000Y-62277000D01*
X169752000Y-62325000D01*
X169706000Y-62375000D01*
X169662000Y-62426000D01*
X169620000Y-62478000D01*
X169579000Y-62532000D01*
X169539000Y-62586000D01*
X169501000Y-62642000D01*
X169465000Y-62699000D01*
X169430000Y-62757000D01*
X169398000Y-62816000D01*
X169367000Y-62875000D01*
X169337000Y-62936000D01*
X169310000Y-62998000D01*
X169284000Y-63060000D01*
X169260000Y-63123000D01*
X169238000Y-63187000D01*
X169217000Y-63251000D01*
X169199000Y-63316000D01*
X169182000Y-63381000D01*
X169168000Y-63447000D01*
X169155000Y-63513000D01*
X169144000Y-63580000D01*
X169136000Y-63647000D01*
X169129000Y-63714000D01*
X169124000Y-63781000D01*
X169121000Y-63848000D01*
X169120000Y-63900000D01*
X169121000Y-63952000D01*
X169124000Y-64019000D01*
X169129000Y-64086000D01*
X169136000Y-64153000D01*
X169144000Y-64220000D01*
X169155000Y-64287000D01*
X169168000Y-64353000D01*
X169182000Y-64419000D01*
X169199000Y-64484000D01*
X169217000Y-64549000D01*
X169238000Y-64613000D01*
X169260000Y-64677000D01*
X169284000Y-64740000D01*
X169310000Y-64802000D01*
X169337000Y-64864000D01*
X169367000Y-64925000D01*
X169398000Y-64984000D01*
X169430000Y-65043000D01*
X169465000Y-65101000D01*
X169501000Y-65158000D01*
X169539000Y-65214000D01*
X169579000Y-65268000D01*
X169620000Y-65322000D01*
X169662000Y-65374000D01*
X169706000Y-65425000D01*
X169752000Y-65475000D01*
X169799000Y-65523000D01*
X169847000Y-65570000D01*
X169897000Y-65616000D01*
X169960000Y-65670000D01*
X169960000Y-67780000D01*
X167520000Y-67780000D01*
X167520000Y-60020000D01*
X169960000Y-60020000D01*
X169960000Y-62130000D01*
G37*
%TD*%
D11*
%TO.C,U1*%
X160250000Y-131300000D03*
X160250000Y-133600000D03*
D12*
X166550000Y-133600000D03*
D11*
X160250000Y-135900000D03*
%TD*%
D13*
%TO.C,R18*%
X118812500Y-110012500D03*
X116987500Y-110012500D03*
%TD*%
D14*
%TO.C,C6*%
X104850000Y-124175000D03*
X104850000Y-125900000D03*
%TD*%
D15*
%TO.C,C14*%
X171739114Y-127204999D03*
X171739114Y-125479999D03*
%TD*%
D16*
%TO.C,U8*%
X97570000Y-61950000D03*
%TD*%
D17*
%TO.C,L2*%
X171410000Y-75665000D03*
X171410000Y-73915000D03*
%TD*%
D15*
%TO.C,C15*%
X174858669Y-127157499D03*
X174858669Y-125432499D03*
%TD*%
D18*
%TO.C,U2*%
X131175000Y-129025000D03*
X131175000Y-130725000D03*
X131175000Y-132425000D03*
D19*
X137900000Y-129650000D03*
X137900000Y-135200000D03*
X142750000Y-129650000D03*
X142750000Y-135200000D03*
D18*
X131175000Y-134125000D03*
X131175000Y-135825000D03*
%TD*%
D20*
%TO.C,R13*%
X159619284Y-125400000D03*
X161444284Y-125400000D03*
%TD*%
D21*
%TO.C,C2*%
X171866053Y-135003554D03*
X174741053Y-135003554D03*
%TD*%
D22*
%TO.C,D3*%
X114700000Y-124900000D03*
X111400000Y-124900000D03*
%TD*%
D23*
%TO.C,C23*%
X118762500Y-113362500D03*
X117037500Y-113362500D03*
%TD*%
D24*
%TO.C,R17*%
X119700000Y-93525000D03*
X119700000Y-91700000D03*
%TD*%
D25*
%TO.C,Y1*%
X137474400Y-105300000D03*
X137474400Y-96800000D03*
%TD*%
D26*
%TO.C,R4*%
X107950000Y-124125000D03*
X107950000Y-125950000D03*
%TD*%
D24*
%TO.C,R8*%
X97547556Y-85100000D03*
X97547556Y-83275000D03*
%TD*%
D15*
%TO.C,C4*%
X150700000Y-131925000D03*
X150700000Y-130200000D03*
%TD*%
D27*
%TO.C,C9*%
X117820000Y-136000000D03*
X117820000Y-129500000D03*
%TD*%
D28*
%TO.C,C22*%
X132937500Y-92971400D03*
X134662500Y-92971400D03*
%TD*%
D23*
%TO.C,C11*%
X126775001Y-130800000D03*
X125050001Y-130800000D03*
%TD*%
D29*
%TO.C,C10*%
X106049998Y-129785000D03*
X106049998Y-136285000D03*
%TD*%
D26*
%TO.C,R7*%
X100497556Y-83275000D03*
X100497556Y-85100000D03*
%TD*%
D30*
%TO.C,U6*%
X148587500Y-139500000D03*
D31*
X149587500Y-136800000D03*
X154587500Y-136800000D03*
D30*
X155587500Y-139500000D03*
D32*
X150787500Y-136800000D03*
X151437500Y-136800000D03*
X152087500Y-136800000D03*
X152737500Y-136800000D03*
X153387500Y-136800000D03*
D33*
X149187500Y-139500000D03*
D34*
X151087500Y-139500000D03*
X153087500Y-139500000D03*
D33*
X154987500Y-139500000D03*
%TD*%
D24*
%TO.C,R15*%
X116297556Y-93525000D03*
X116297556Y-91700000D03*
%TD*%
D35*
%TO.C,J1*%
X107015000Y-106287500D03*
X107015000Y-103747500D03*
X107015000Y-101207500D03*
D36*
X105462500Y-99442500D03*
D37*
X93460000Y-99442500D03*
D35*
X107015000Y-107557500D03*
D38*
X105462500Y-112592500D03*
X93462500Y-112592500D03*
D35*
X107015000Y-105017500D03*
X107015000Y-102477500D03*
D39*
X107015000Y-108647500D03*
%TD*%
D24*
%TO.C,R10*%
X138435600Y-118200099D03*
X138435600Y-116375099D03*
%TD*%
%TO.C,R22*%
X108950000Y-65342500D03*
X108950000Y-63517500D03*
%TD*%
%TO.C,R16*%
X123102448Y-93525000D03*
X123102448Y-91700000D03*
%TD*%
D14*
%TO.C,C8*%
X98650000Y-124175000D03*
X98650000Y-125900000D03*
%TD*%
D21*
%TO.C,C5*%
X118262500Y-124850000D03*
X121137500Y-124850000D03*
%TD*%
D20*
%TO.C,R12*%
X167947500Y-75710000D03*
X169772500Y-75710000D03*
%TD*%
D40*
%TO.C,D2*%
X156612142Y-125440000D03*
X154862142Y-125440000D03*
%TD*%
D15*
%TO.C,C16*%
X177978223Y-127137499D03*
X177978223Y-125412499D03*
%TD*%
%TO.C,C21*%
X165500000Y-127225000D03*
X165500000Y-125500000D03*
%TD*%
D13*
%TO.C,R19*%
X118812500Y-106662500D03*
X116987500Y-106662500D03*
%TD*%
D41*
%TO.C,L3*%
X107205000Y-61930000D03*
X108955000Y-61930000D03*
%TD*%
D23*
%TO.C,C17*%
X143262500Y-97600000D03*
X141537500Y-97600000D03*
%TD*%
D28*
%TO.C,C3*%
X172403552Y-131603554D03*
X174128552Y-131603554D03*
%TD*%
D20*
%TO.C,R1*%
X150075000Y-125400000D03*
X151900000Y-125400000D03*
%TD*%
D26*
%TO.C,R5*%
X106010224Y-91700000D03*
X106010224Y-93525000D03*
%TD*%
D24*
%TO.C,R11*%
X138435600Y-113831299D03*
X138435600Y-112006299D03*
%TD*%
D42*
%TO.C,Q1*%
X100297554Y-89387500D03*
X100297554Y-87487500D03*
X97677554Y-88437500D03*
%TD*%
D24*
%TO.C,R21*%
X148325000Y-60400000D03*
X148325000Y-58575000D03*
%TD*%
D41*
%TO.C,D4*%
X98607557Y-93500000D03*
X100357557Y-93500000D03*
%TD*%
D43*
%TO.C,U4*%
X107847556Y-86650000D03*
X108947556Y-86650000D03*
X110047556Y-86650000D03*
X111147556Y-86650000D03*
X112247556Y-86650000D03*
X113347556Y-86650000D03*
X114447556Y-86650000D03*
X115547556Y-86650000D03*
X116647556Y-86650000D03*
X117747556Y-86650000D03*
X118847556Y-86650000D03*
X119947556Y-86650000D03*
D44*
X104997556Y-83100000D03*
X122797556Y-83100000D03*
X104997556Y-82000000D03*
X122797556Y-82000000D03*
X104997556Y-80900000D03*
X122797556Y-80900000D03*
X104997556Y-79800000D03*
X122797556Y-79800000D03*
X104997556Y-78700000D03*
X122797556Y-78700000D03*
X104997556Y-77600000D03*
X122797556Y-77600000D03*
X104997556Y-76500000D03*
X122797556Y-76500000D03*
X104997556Y-75400000D03*
X122797556Y-75400000D03*
X104997556Y-74300000D03*
X122797556Y-74300000D03*
D43*
X107847556Y-70750000D03*
X108947556Y-70750000D03*
X110047556Y-70750000D03*
X111147556Y-70750000D03*
X112247556Y-70750000D03*
X113347556Y-70750000D03*
X114447556Y-70750000D03*
X115547556Y-70750000D03*
X116647556Y-70750000D03*
X117747556Y-70750000D03*
X118847556Y-70750000D03*
X119947556Y-70750000D03*
%TD*%
D20*
%TO.C,R2*%
X125000001Y-134000000D03*
X126825001Y-134000000D03*
%TD*%
D45*
%TO.C,SW1*%
X140225000Y-91000000D03*
X136825000Y-91000000D03*
%TD*%
D15*
%TO.C,C19*%
X145839500Y-87475000D03*
X145839500Y-85750000D03*
%TD*%
%TO.C,C20*%
X148760499Y-87475000D03*
X148760499Y-85750000D03*
%TD*%
D26*
%TO.C,R6*%
X109412668Y-91700000D03*
X109412668Y-93525000D03*
%TD*%
D46*
%TO.C,L1*%
X151681499Y-85995001D03*
X151681499Y-87570001D03*
%TD*%
D16*
%TO.C,U7*%
X171400000Y-63900000D03*
%TD*%
D15*
%TO.C,C26*%
X108960000Y-68700000D03*
X108960000Y-66975000D03*
%TD*%
D28*
%TO.C,C25*%
X164527500Y-75710000D03*
X166252500Y-75710000D03*
%TD*%
D14*
%TO.C,C7*%
X101750000Y-124175000D03*
X101750000Y-125900000D03*
%TD*%
D15*
%TO.C,C13*%
X168619558Y-127224999D03*
X168619558Y-125499999D03*
%TD*%
D47*
%TO.C,C1*%
X155900000Y-132837500D03*
X155900000Y-129962500D03*
%TD*%
D26*
%TO.C,R9*%
X141400000Y-100197199D03*
X141400000Y-102022199D03*
%TD*%
D20*
%TO.C,R20*%
X116987500Y-99962500D03*
X118812500Y-99962500D03*
%TD*%
D28*
%TO.C,C24*%
X117037500Y-103312500D03*
X118762500Y-103312500D03*
%TD*%
D17*
%TO.C,D5*%
X112855112Y-93465000D03*
X112855112Y-91715000D03*
%TD*%
D15*
%TO.C,C18*%
X141400000Y-106897899D03*
X141400000Y-105172899D03*
%TD*%
D48*
%TO.C,U5*%
X137035000Y-83340000D03*
X138305000Y-83340000D03*
X139575000Y-83340000D03*
X140845000Y-83340000D03*
X142115000Y-83340000D03*
X143385000Y-83340000D03*
X144655000Y-83340000D03*
X145925000Y-83340000D03*
X147195000Y-83340000D03*
X148465000Y-83340000D03*
X149735000Y-83340000D03*
X151005000Y-83340000D03*
X152275000Y-83340000D03*
X153545000Y-83340000D03*
X154815000Y-83340000D03*
X156085000Y-83340000D03*
X157355000Y-83340000D03*
X158625000Y-83340000D03*
X159895000Y-83340000D03*
X161165000Y-83340000D03*
D49*
X162435000Y-78260000D03*
X162435000Y-76990000D03*
X162435000Y-75720000D03*
X162435000Y-74450000D03*
X162435000Y-73180000D03*
X162435000Y-71910000D03*
X162435000Y-70640000D03*
D48*
X161165000Y-65560000D03*
X159895000Y-65560000D03*
X158625000Y-65560000D03*
X157355000Y-65560000D03*
X156085000Y-65560000D03*
X154815000Y-65560000D03*
X153545000Y-65560000D03*
X152275000Y-65560000D03*
X151005000Y-65560000D03*
X149735000Y-65560000D03*
X148465000Y-65560000D03*
X147195000Y-65560000D03*
X145925000Y-65560000D03*
X144655000Y-65560000D03*
X143385000Y-65560000D03*
X142115000Y-65560000D03*
X140845000Y-65560000D03*
X139575000Y-65560000D03*
X138305000Y-65560000D03*
X137035000Y-65560000D03*
%TD*%
D20*
%TO.C,R14*%
X132887500Y-90025000D03*
X134712500Y-90025000D03*
%TD*%
D50*
%TO.C,U3*%
X151789088Y-99713336D03*
X151435534Y-100066890D03*
X151081981Y-100420443D03*
X150728427Y-100773997D03*
X150374874Y-101127550D03*
X150021321Y-101481103D03*
X149667767Y-101834657D03*
X149314214Y-102188210D03*
X148960661Y-102541763D03*
X148607107Y-102895317D03*
X148253554Y-103248870D03*
X147900000Y-103602424D03*
D51*
X147900000Y-105600000D03*
X148253554Y-105953554D03*
X148607107Y-106307107D03*
X148960661Y-106660661D03*
X149314214Y-107014214D03*
X149667767Y-107367767D03*
X150021321Y-107721321D03*
X150374874Y-108074874D03*
X150728427Y-108428427D03*
X151081981Y-108781981D03*
X151435534Y-109135534D03*
X151789088Y-109489088D03*
D50*
X153786664Y-109489088D03*
X154140218Y-109135534D03*
X154493771Y-108781981D03*
X154847325Y-108428427D03*
X155200878Y-108074874D03*
X155554431Y-107721321D03*
X155907985Y-107367767D03*
X156261538Y-107014214D03*
X156615091Y-106660661D03*
X156968645Y-106307107D03*
X157322198Y-105953554D03*
X157675752Y-105600000D03*
D51*
X157675752Y-103602424D03*
X157322198Y-103248870D03*
X156968645Y-102895317D03*
X156615091Y-102541763D03*
X156261538Y-102188210D03*
X155907985Y-101834657D03*
X155554431Y-101481103D03*
X155200878Y-101127550D03*
X154847325Y-100773997D03*
X154493771Y-100420443D03*
X154140218Y-100066890D03*
X153786664Y-99713336D03*
%TD*%
D13*
%TO.C,R3*%
X126825001Y-137200000D03*
X125000001Y-137200000D03*
%TD*%
D28*
%TO.C,C12*%
X125050001Y-127600000D03*
X126775001Y-127600000D03*
%TD*%
D52*
%TO.C,D1*%
X111550000Y-116437500D03*
X112500000Y-116437500D03*
X113450000Y-116437500D03*
X113450000Y-114162500D03*
X112500000Y-114162500D03*
X111550000Y-114162500D03*
%TD*%
M02*
