%TF.GenerationSoftware,KiCad,Pcbnew,7.0.5*%
%TF.CreationDate,2024-05-26T12:51:26+03:00*%
%TF.ProjectId,LoRa_MuPr-VAF4751_L,4c6f5261-5f4d-4755-9072-2d5641463437,rev?*%
%TF.SameCoordinates,Original*%
%TF.FileFunction,Paste,Top*%
%TF.FilePolarity,Positive*%
%FSLAX46Y46*%
G04 Gerber Fmt 4.6, Leading zero omitted, Abs format (unit mm)*
G04 Created by KiCad (PCBNEW 7.0.5) date 2024-05-26 12:51:26*
%MOMM*%
%LPD*%
G01*
G04 APERTURE LIST*
G04 Aperture macros list*
%AMRoundRect*
0 Rectangle with rounded corners*
0 $1 Rounding radius*
0 $2 $3 $4 $5 $6 $7 $8 $9 X,Y pos of 4 corners*
0 Add a 4 corners polygon primitive as box body*
4,1,4,$2,$3,$4,$5,$6,$7,$8,$9,$2,$3,0*
0 Add four circle primitives for the rounded corners*
1,1,$1+$1,$2,$3*
1,1,$1+$1,$4,$5*
1,1,$1+$1,$6,$7*
1,1,$1+$1,$8,$9*
0 Add four rect primitives between the rounded corners*
20,1,$1+$1,$2,$3,$4,$5,0*
20,1,$1+$1,$4,$5,$6,$7,0*
20,1,$1+$1,$6,$7,$8,$9,0*
20,1,$1+$1,$8,$9,$2,$3,0*%
G04 Aperture macros list end*
%ADD10C,0.010000*%
%ADD11RoundRect,0.237500X0.237500X-0.250000X0.237500X0.250000X-0.237500X0.250000X-0.237500X-0.250000X0*%
%ADD12RoundRect,0.237500X-0.250000X-0.237500X0.250000X-0.237500X0.250000X0.237500X-0.250000X0.237500X0*%
%ADD13RoundRect,0.237500X-0.237500X0.250000X-0.237500X-0.250000X0.237500X-0.250000X0.237500X0.250000X0*%
%ADD14RoundRect,0.237500X0.237500X-0.300000X0.237500X0.300000X-0.237500X0.300000X-0.237500X-0.300000X0*%
%ADD15RoundRect,0.237500X-0.300000X-0.237500X0.300000X-0.237500X0.300000X0.237500X-0.300000X0.237500X0*%
%ADD16RoundRect,0.237500X0.300000X0.237500X-0.300000X0.237500X-0.300000X-0.237500X0.300000X-0.237500X0*%
%ADD17R,1.700000X0.900000*%
%ADD18RoundRect,0.250000X-0.537500X-0.425000X0.537500X-0.425000X0.537500X0.425000X-0.537500X0.425000X0*%
%ADD19R,4.500000X2.000000*%
%ADD20RoundRect,0.218750X0.218750X0.256250X-0.218750X0.256250X-0.218750X-0.256250X0.218750X-0.256250X0*%
%ADD21RoundRect,0.237500X-0.237500X0.287500X-0.237500X-0.287500X0.237500X-0.287500X0.237500X0.287500X0*%
%ADD22R,1.524000X1.016000*%
%ADD23R,1.016000X1.524000*%
%ADD24RoundRect,0.250000X0.537500X0.425000X-0.537500X0.425000X-0.537500X-0.425000X0.537500X-0.425000X0*%
%ADD25C,2.050000*%
%ADD26RoundRect,0.075000X-0.415425X-0.521491X0.521491X0.415425X0.415425X0.521491X-0.521491X-0.415425X0*%
%ADD27RoundRect,0.075000X0.415425X-0.521491X0.521491X-0.415425X-0.415425X0.521491X-0.521491X0.415425X0*%
%ADD28RoundRect,0.237500X0.287500X0.237500X-0.287500X0.237500X-0.287500X-0.237500X0.287500X-0.237500X0*%
%ADD29RoundRect,0.237500X-0.237500X0.300000X-0.237500X-0.300000X0.237500X-0.300000X0.237500X0.300000X0*%
%ADD30RoundRect,0.237500X0.250000X0.237500X-0.250000X0.237500X-0.250000X-0.237500X0.250000X-0.237500X0*%
%ADD31R,2.000000X1.500000*%
%ADD32R,2.000000X3.800000*%
%ADD33RoundRect,0.237500X0.237500X-0.287500X0.237500X0.287500X-0.237500X0.287500X-0.237500X-0.287500X0*%
%ADD34O,0.890000X1.550000*%
%ADD35O,1.250000X0.950000*%
%ADD36R,0.400000X1.350000*%
%ADD37R,1.200000X1.550000*%
%ADD38R,1.500000X1.550000*%
G04 APERTURE END LIST*
%TO.C,U5*%
D10*
X132210000Y-53280000D02*
X132147000Y-53334000D01*
X132097000Y-53380000D01*
X132049000Y-53427000D01*
X132002000Y-53475000D01*
X131956000Y-53525000D01*
X131912000Y-53576000D01*
X131870000Y-53628000D01*
X131829000Y-53682000D01*
X131789000Y-53736000D01*
X131751000Y-53792000D01*
X131715000Y-53849000D01*
X131680000Y-53907000D01*
X131648000Y-53966000D01*
X131617000Y-54025000D01*
X131587000Y-54086000D01*
X131560000Y-54148000D01*
X131534000Y-54210000D01*
X131510000Y-54273000D01*
X131488000Y-54337000D01*
X131467000Y-54401000D01*
X131449000Y-54466000D01*
X131432000Y-54531000D01*
X131418000Y-54597000D01*
X131405000Y-54663000D01*
X131394000Y-54730000D01*
X131386000Y-54797000D01*
X131379000Y-54864000D01*
X131374000Y-54931000D01*
X131371000Y-54998000D01*
X131370000Y-55050000D01*
X131371000Y-55102000D01*
X131374000Y-55169000D01*
X131379000Y-55236000D01*
X131386000Y-55303000D01*
X131394000Y-55370000D01*
X131405000Y-55437000D01*
X131418000Y-55503000D01*
X131432000Y-55569000D01*
X131449000Y-55634000D01*
X131467000Y-55699000D01*
X131488000Y-55763000D01*
X131510000Y-55827000D01*
X131534000Y-55890000D01*
X131560000Y-55952000D01*
X131587000Y-56014000D01*
X131617000Y-56075000D01*
X131648000Y-56134000D01*
X131680000Y-56193000D01*
X131715000Y-56251000D01*
X131751000Y-56308000D01*
X131789000Y-56364000D01*
X131829000Y-56418000D01*
X131870000Y-56472000D01*
X131912000Y-56524000D01*
X131956000Y-56575000D01*
X132002000Y-56625000D01*
X132049000Y-56673000D01*
X132097000Y-56720000D01*
X132147000Y-56766000D01*
X132210000Y-56820000D01*
X132210000Y-58930000D01*
X129770000Y-58930000D01*
X129770000Y-51170000D01*
X132210000Y-51170000D01*
X132210000Y-53280000D01*
G36*
X132210000Y-53280000D02*
G01*
X132147000Y-53334000D01*
X132097000Y-53380000D01*
X132049000Y-53427000D01*
X132002000Y-53475000D01*
X131956000Y-53525000D01*
X131912000Y-53576000D01*
X131870000Y-53628000D01*
X131829000Y-53682000D01*
X131789000Y-53736000D01*
X131751000Y-53792000D01*
X131715000Y-53849000D01*
X131680000Y-53907000D01*
X131648000Y-53966000D01*
X131617000Y-54025000D01*
X131587000Y-54086000D01*
X131560000Y-54148000D01*
X131534000Y-54210000D01*
X131510000Y-54273000D01*
X131488000Y-54337000D01*
X131467000Y-54401000D01*
X131449000Y-54466000D01*
X131432000Y-54531000D01*
X131418000Y-54597000D01*
X131405000Y-54663000D01*
X131394000Y-54730000D01*
X131386000Y-54797000D01*
X131379000Y-54864000D01*
X131374000Y-54931000D01*
X131371000Y-54998000D01*
X131370000Y-55050000D01*
X131371000Y-55102000D01*
X131374000Y-55169000D01*
X131379000Y-55236000D01*
X131386000Y-55303000D01*
X131394000Y-55370000D01*
X131405000Y-55437000D01*
X131418000Y-55503000D01*
X131432000Y-55569000D01*
X131449000Y-55634000D01*
X131467000Y-55699000D01*
X131488000Y-55763000D01*
X131510000Y-55827000D01*
X131534000Y-55890000D01*
X131560000Y-55952000D01*
X131587000Y-56014000D01*
X131617000Y-56075000D01*
X131648000Y-56134000D01*
X131680000Y-56193000D01*
X131715000Y-56251000D01*
X131751000Y-56308000D01*
X131789000Y-56364000D01*
X131829000Y-56418000D01*
X131870000Y-56472000D01*
X131912000Y-56524000D01*
X131956000Y-56575000D01*
X132002000Y-56625000D01*
X132049000Y-56673000D01*
X132097000Y-56720000D01*
X132147000Y-56766000D01*
X132210000Y-56820000D01*
X132210000Y-58930000D01*
X129770000Y-58930000D01*
X129770000Y-51170000D01*
X132210000Y-51170000D01*
X132210000Y-53280000D01*
G37*
X137530000Y-58930000D02*
X135090000Y-58930000D01*
X135090000Y-56820000D01*
X135153000Y-56766000D01*
X135203000Y-56720000D01*
X135251000Y-56673000D01*
X135298000Y-56625000D01*
X135344000Y-56575000D01*
X135388000Y-56524000D01*
X135430000Y-56472000D01*
X135471000Y-56418000D01*
X135511000Y-56364000D01*
X135549000Y-56308000D01*
X135585000Y-56251000D01*
X135620000Y-56193000D01*
X135652000Y-56134000D01*
X135683000Y-56075000D01*
X135713000Y-56014000D01*
X135740000Y-55952000D01*
X135766000Y-55890000D01*
X135790000Y-55827000D01*
X135812000Y-55763000D01*
X135833000Y-55699000D01*
X135851000Y-55634000D01*
X135868000Y-55569000D01*
X135882000Y-55503000D01*
X135895000Y-55437000D01*
X135906000Y-55370000D01*
X135914000Y-55303000D01*
X135921000Y-55236000D01*
X135926000Y-55169000D01*
X135929000Y-55102000D01*
X135930000Y-55050000D01*
X135929000Y-54998000D01*
X135926000Y-54931000D01*
X135921000Y-54864000D01*
X135914000Y-54797000D01*
X135906000Y-54730000D01*
X135895000Y-54663000D01*
X135882000Y-54597000D01*
X135868000Y-54531000D01*
X135851000Y-54466000D01*
X135833000Y-54401000D01*
X135812000Y-54337000D01*
X135790000Y-54273000D01*
X135766000Y-54210000D01*
X135740000Y-54148000D01*
X135713000Y-54086000D01*
X135683000Y-54025000D01*
X135652000Y-53966000D01*
X135620000Y-53907000D01*
X135585000Y-53849000D01*
X135549000Y-53792000D01*
X135511000Y-53736000D01*
X135471000Y-53682000D01*
X135430000Y-53628000D01*
X135388000Y-53576000D01*
X135344000Y-53525000D01*
X135298000Y-53475000D01*
X135251000Y-53427000D01*
X135203000Y-53380000D01*
X135153000Y-53334000D01*
X135090000Y-53280000D01*
X135090000Y-51170000D01*
X137530000Y-51170000D01*
X137530000Y-58930000D01*
G36*
X137530000Y-58930000D02*
G01*
X135090000Y-58930000D01*
X135090000Y-56820000D01*
X135153000Y-56766000D01*
X135203000Y-56720000D01*
X135251000Y-56673000D01*
X135298000Y-56625000D01*
X135344000Y-56575000D01*
X135388000Y-56524000D01*
X135430000Y-56472000D01*
X135471000Y-56418000D01*
X135511000Y-56364000D01*
X135549000Y-56308000D01*
X135585000Y-56251000D01*
X135620000Y-56193000D01*
X135652000Y-56134000D01*
X135683000Y-56075000D01*
X135713000Y-56014000D01*
X135740000Y-55952000D01*
X135766000Y-55890000D01*
X135790000Y-55827000D01*
X135812000Y-55763000D01*
X135833000Y-55699000D01*
X135851000Y-55634000D01*
X135868000Y-55569000D01*
X135882000Y-55503000D01*
X135895000Y-55437000D01*
X135906000Y-55370000D01*
X135914000Y-55303000D01*
X135921000Y-55236000D01*
X135926000Y-55169000D01*
X135929000Y-55102000D01*
X135930000Y-55050000D01*
X135929000Y-54998000D01*
X135926000Y-54931000D01*
X135921000Y-54864000D01*
X135914000Y-54797000D01*
X135906000Y-54730000D01*
X135895000Y-54663000D01*
X135882000Y-54597000D01*
X135868000Y-54531000D01*
X135851000Y-54466000D01*
X135833000Y-54401000D01*
X135812000Y-54337000D01*
X135790000Y-54273000D01*
X135766000Y-54210000D01*
X135740000Y-54148000D01*
X135713000Y-54086000D01*
X135683000Y-54025000D01*
X135652000Y-53966000D01*
X135620000Y-53907000D01*
X135585000Y-53849000D01*
X135549000Y-53792000D01*
X135511000Y-53736000D01*
X135471000Y-53682000D01*
X135430000Y-53628000D01*
X135388000Y-53576000D01*
X135344000Y-53525000D01*
X135298000Y-53475000D01*
X135251000Y-53427000D01*
X135203000Y-53380000D01*
X135153000Y-53334000D01*
X135090000Y-53280000D01*
X135090000Y-51170000D01*
X137530000Y-51170000D01*
X137530000Y-58930000D01*
G37*
%TD*%
D11*
%TO.C,R9*%
X133600000Y-69712500D03*
X133600000Y-67887500D03*
%TD*%
D12*
%TO.C,R3*%
X169402502Y-99849999D03*
X171227502Y-99849999D03*
%TD*%
D13*
%TO.C,R5*%
X179240000Y-110275000D03*
X179240000Y-112100000D03*
%TD*%
D14*
%TO.C,C11*%
X157882501Y-117762500D03*
X157882501Y-116037500D03*
%TD*%
%TO.C,C9*%
X167835001Y-117762500D03*
X167835001Y-116037500D03*
%TD*%
%TO.C,C12*%
X161200000Y-117762500D03*
X161200000Y-116037500D03*
%TD*%
D15*
%TO.C,C15*%
X135287500Y-69750000D03*
X137012500Y-69750000D03*
%TD*%
D16*
%TO.C,C2*%
X141759999Y-111155001D03*
X140034999Y-111155001D03*
%TD*%
D17*
%TO.C,SW1*%
X157894227Y-106926605D03*
X157894227Y-110326605D03*
%TD*%
D18*
%TO.C,C4*%
X145519999Y-111015001D03*
X148394999Y-111015001D03*
%TD*%
D19*
%TO.C,Y1*%
X174650000Y-103800000D03*
X166150000Y-103800000D03*
%TD*%
D16*
%TO.C,C1*%
X125982499Y-118527501D03*
X124257499Y-118527501D03*
%TD*%
D20*
%TO.C,L1*%
X154100000Y-107200000D03*
X152525000Y-107200000D03*
%TD*%
D16*
%TO.C,C8*%
X174992501Y-99849999D03*
X173267501Y-99849999D03*
%TD*%
D21*
%TO.C,D1*%
X121329999Y-113615001D03*
X121329999Y-115365001D03*
%TD*%
D12*
%TO.C,R8*%
X170975000Y-119550000D03*
X172800000Y-119550000D03*
%TD*%
D15*
%TO.C,C5*%
X165637500Y-99850000D03*
X167362500Y-99850000D03*
%TD*%
D22*
%TO.C,U3*%
X145000000Y-97230000D03*
X145000000Y-95960000D03*
X145000000Y-94690000D03*
X145000000Y-93420000D03*
X145000000Y-92150000D03*
X145000000Y-90880000D03*
X145000000Y-89610000D03*
X145000000Y-88340000D03*
X145000000Y-87070000D03*
X145000000Y-85800000D03*
X145000000Y-84530000D03*
X145000000Y-83260000D03*
X145000000Y-81990000D03*
X145000000Y-80720000D03*
X145000000Y-79450000D03*
X145000000Y-78180000D03*
X145000000Y-76910000D03*
X145000000Y-75640000D03*
X145000000Y-74370000D03*
X145000000Y-73100000D03*
D23*
X139920000Y-71830000D03*
X138650000Y-71830000D03*
X137380000Y-71830000D03*
X136110000Y-71830000D03*
X134840000Y-71830000D03*
X133570000Y-71830000D03*
X132300000Y-71830000D03*
D22*
X127220000Y-73100000D03*
X127220000Y-74370000D03*
X127220000Y-75640000D03*
X127220000Y-76910000D03*
X127220000Y-78180000D03*
X127220000Y-79450000D03*
X127220000Y-80720000D03*
X127220000Y-81990000D03*
X127220000Y-83260000D03*
X127220000Y-84530000D03*
X127220000Y-85800000D03*
X127220000Y-87070000D03*
X127220000Y-88340000D03*
X127220000Y-89610000D03*
X127220000Y-90880000D03*
X127220000Y-92150000D03*
X127220000Y-93420000D03*
X127220000Y-94690000D03*
X127220000Y-95960000D03*
X127220000Y-97230000D03*
%TD*%
D24*
%TO.C,C3*%
X127404999Y-111517501D03*
X124529999Y-111517501D03*
%TD*%
D25*
%TO.C,U5*%
X133650000Y-55050000D03*
%TD*%
D16*
%TO.C,C7*%
X150562500Y-107200000D03*
X148837500Y-107200000D03*
%TD*%
D12*
%TO.C,R4*%
X137000000Y-114450000D03*
X138825000Y-114450000D03*
%TD*%
D15*
%TO.C,C14*%
X158574227Y-112599105D03*
X160299227Y-112599105D03*
%TD*%
D26*
%TO.C,U4*%
X163771739Y-89297894D03*
X164125293Y-89651448D03*
X164478846Y-90005001D03*
X164832400Y-90358555D03*
X165185953Y-90712108D03*
X165539506Y-91065661D03*
X165893060Y-91419215D03*
X166246613Y-91772768D03*
X166600166Y-92126321D03*
X166953720Y-92479875D03*
X167307273Y-92833428D03*
X167660827Y-93186982D03*
D27*
X169658403Y-93186982D03*
X170011957Y-92833428D03*
X170365510Y-92479875D03*
X170719064Y-92126321D03*
X171072617Y-91772768D03*
X171426170Y-91419215D03*
X171779724Y-91065661D03*
X172133277Y-90712108D03*
X172486830Y-90358555D03*
X172840384Y-90005001D03*
X173193937Y-89651448D03*
X173547491Y-89297894D03*
D26*
X173547491Y-87300318D03*
X173193937Y-86946764D03*
X172840384Y-86593211D03*
X172486830Y-86239657D03*
X172133277Y-85886104D03*
X171779724Y-85532551D03*
X171426170Y-85178997D03*
X171072617Y-84825444D03*
X170719064Y-84471891D03*
X170365510Y-84118337D03*
X170011957Y-83764784D03*
X169658403Y-83411230D03*
D27*
X167660827Y-83411230D03*
X167307273Y-83764784D03*
X166953720Y-84118337D03*
X166600166Y-84471891D03*
X166246613Y-84825444D03*
X165893060Y-85178997D03*
X165539506Y-85532551D03*
X165185953Y-85886104D03*
X164832400Y-86239657D03*
X164478846Y-86593211D03*
X164125293Y-86946764D03*
X163771739Y-87300318D03*
%TD*%
D28*
%TO.C,D2*%
X176550000Y-119550000D03*
X174800000Y-119550000D03*
%TD*%
D29*
%TO.C,C6*%
X151300000Y-109737500D03*
X151300000Y-111462500D03*
%TD*%
D13*
%TO.C,R6*%
X179240000Y-114662500D03*
X179240000Y-116487500D03*
%TD*%
%TO.C,R2*%
X123460001Y-80917499D03*
X123460001Y-82742499D03*
%TD*%
D14*
%TO.C,C13*%
X164517501Y-117762500D03*
X164517501Y-116037500D03*
%TD*%
D30*
%TO.C,R7*%
X155999230Y-112599106D03*
X154174230Y-112599106D03*
%TD*%
D31*
%TO.C,U1*%
X141529999Y-115015001D03*
X141529999Y-117315001D03*
D32*
X147829999Y-117315001D03*
D31*
X141529999Y-119615001D03*
%TD*%
D30*
%TO.C,R1*%
X126054999Y-115397501D03*
X124229999Y-115397501D03*
%TD*%
D33*
%TO.C,L2*%
X133600000Y-66250000D03*
X133600000Y-64500000D03*
%TD*%
D14*
%TO.C,C10*%
X154565001Y-117762500D03*
X154565001Y-116037500D03*
%TD*%
D34*
%TO.C,U2*%
X129579999Y-120665001D03*
D35*
X130579999Y-117965001D03*
X135579999Y-117965001D03*
D34*
X136579999Y-120665001D03*
D36*
X131779999Y-117965001D03*
X132429999Y-117965001D03*
X133079999Y-117965001D03*
X133729999Y-117965001D03*
X134379999Y-117965001D03*
D37*
X130179999Y-120665001D03*
D38*
X132079999Y-120665001D03*
X134079999Y-120665001D03*
D37*
X135979999Y-120665001D03*
%TD*%
M02*
