%TF.GenerationSoftware,KiCad,Pcbnew,7.0.5*%
%TF.CreationDate,2024-05-26T12:51:26+03:00*%
%TF.ProjectId,LoRa_MuPr-VAF4751_L,4c6f5261-5f4d-4755-9072-2d5641463437,rev?*%
%TF.SameCoordinates,Original*%
%TF.FileFunction,Soldermask,Top*%
%TF.FilePolarity,Negative*%
%FSLAX46Y46*%
G04 Gerber Fmt 4.6, Leading zero omitted, Abs format (unit mm)*
G04 Created by KiCad (PCBNEW 7.0.5) date 2024-05-26 12:51:26*
%MOMM*%
%LPD*%
G01*
G04 APERTURE LIST*
G04 Aperture macros list*
%AMRoundRect*
0 Rectangle with rounded corners*
0 $1 Rounding radius*
0 $2 $3 $4 $5 $6 $7 $8 $9 X,Y pos of 4 corners*
0 Add a 4 corners polygon primitive as box body*
4,1,4,$2,$3,$4,$5,$6,$7,$8,$9,$2,$3,0*
0 Add four circle primitives for the rounded corners*
1,1,$1+$1,$2,$3*
1,1,$1+$1,$4,$5*
1,1,$1+$1,$6,$7*
1,1,$1+$1,$8,$9*
0 Add four rect primitives between the rounded corners*
20,1,$1+$1,$2,$3,$4,$5,0*
20,1,$1+$1,$4,$5,$6,$7,0*
20,1,$1+$1,$6,$7,$8,$9,0*
20,1,$1+$1,$8,$9,$2,$3,0*%
G04 Aperture macros list end*
%ADD10C,0.010000*%
%ADD11RoundRect,0.237500X0.237500X-0.250000X0.237500X0.250000X-0.237500X0.250000X-0.237500X-0.250000X0*%
%ADD12RoundRect,0.237500X-0.250000X-0.237500X0.250000X-0.237500X0.250000X0.237500X-0.250000X0.237500X0*%
%ADD13RoundRect,0.237500X-0.237500X0.250000X-0.237500X-0.250000X0.237500X-0.250000X0.237500X0.250000X0*%
%ADD14RoundRect,0.237500X0.237500X-0.300000X0.237500X0.300000X-0.237500X0.300000X-0.237500X-0.300000X0*%
%ADD15R,1.700000X1.700000*%
%ADD16O,1.700000X1.700000*%
%ADD17RoundRect,0.237500X-0.300000X-0.237500X0.300000X-0.237500X0.300000X0.237500X-0.300000X0.237500X0*%
%ADD18RoundRect,0.237500X0.300000X0.237500X-0.300000X0.237500X-0.300000X-0.237500X0.300000X-0.237500X0*%
%ADD19R,1.700000X0.900000*%
%ADD20RoundRect,0.250000X-0.537500X-0.425000X0.537500X-0.425000X0.537500X0.425000X-0.537500X0.425000X0*%
%ADD21R,4.500000X2.000000*%
%ADD22RoundRect,0.218750X0.218750X0.256250X-0.218750X0.256250X-0.218750X-0.256250X0.218750X-0.256250X0*%
%ADD23RoundRect,0.237500X-0.237500X0.287500X-0.237500X-0.287500X0.237500X-0.287500X0.237500X0.287500X0*%
%ADD24R,1.350000X1.350000*%
%ADD25O,1.350000X1.350000*%
%ADD26RoundRect,0.102000X-0.762000X-0.508000X0.762000X-0.508000X0.762000X0.508000X-0.762000X0.508000X0*%
%ADD27RoundRect,0.102000X0.508000X-0.762000X0.508000X0.762000X-0.508000X0.762000X-0.508000X-0.762000X0*%
%ADD28RoundRect,0.102000X0.762000X0.508000X-0.762000X0.508000X-0.762000X-0.508000X0.762000X-0.508000X0*%
%ADD29RoundRect,0.250000X0.537500X0.425000X-0.537500X0.425000X-0.537500X-0.425000X0.537500X-0.425000X0*%
%ADD30C,2.254000*%
%ADD31R,1.000000X1.000000*%
%ADD32O,1.000000X1.000000*%
%ADD33RoundRect,0.075000X-0.415425X-0.521491X0.521491X0.415425X0.415425X0.521491X-0.521491X-0.415425X0*%
%ADD34RoundRect,0.075000X0.415425X-0.521491X0.521491X-0.415425X-0.415425X0.521491X-0.521491X0.415425X0*%
%ADD35RoundRect,0.237500X0.287500X0.237500X-0.287500X0.237500X-0.287500X-0.237500X0.287500X-0.237500X0*%
%ADD36RoundRect,0.237500X-0.237500X0.300000X-0.237500X-0.300000X0.237500X-0.300000X0.237500X0.300000X0*%
%ADD37RoundRect,0.237500X0.250000X0.237500X-0.250000X0.237500X-0.250000X-0.237500X0.250000X-0.237500X0*%
%ADD38R,2.000000X1.500000*%
%ADD39R,2.000000X3.800000*%
%ADD40RoundRect,0.237500X0.237500X-0.287500X0.237500X0.287500X-0.237500X0.287500X-0.237500X-0.287500X0*%
%ADD41R,0.400000X1.350000*%
%ADD42O,0.890000X1.550000*%
%ADD43R,1.200000X1.550000*%
%ADD44O,1.250000X0.950000*%
%ADD45R,1.500000X1.550000*%
G04 APERTURE END LIST*
%TO.C,U5*%
D10*
X132310000Y-53280000D02*
X132265000Y-53319000D01*
X132214000Y-53366000D01*
X132165000Y-53414000D01*
X132117000Y-53463000D01*
X132070000Y-53514000D01*
X132025000Y-53566000D01*
X131981000Y-53620000D01*
X131939000Y-53675000D01*
X131899000Y-53730000D01*
X131860000Y-53788000D01*
X131823000Y-53846000D01*
X131788000Y-53905000D01*
X131754000Y-53965000D01*
X131722000Y-54026000D01*
X131692000Y-54088000D01*
X131664000Y-54151000D01*
X131638000Y-54215000D01*
X131613000Y-54280000D01*
X131590000Y-54345000D01*
X131570000Y-54411000D01*
X131551000Y-54477000D01*
X131534000Y-54544000D01*
X131519000Y-54611000D01*
X131506000Y-54679000D01*
X131495000Y-54747000D01*
X131486000Y-54815000D01*
X131479000Y-54884000D01*
X131474000Y-54953000D01*
X131471000Y-55022000D01*
X131470000Y-55100000D01*
X131474000Y-55176000D01*
X131479000Y-55240000D01*
X131486000Y-55304000D01*
X131494000Y-55368000D01*
X131505000Y-55431000D01*
X131517000Y-55494000D01*
X131532000Y-55557000D01*
X131548000Y-55619000D01*
X131566000Y-55681000D01*
X131585000Y-55742000D01*
X131607000Y-55803000D01*
X131630000Y-55863000D01*
X131655000Y-55922000D01*
X131682000Y-55981000D01*
X131710000Y-56038000D01*
X131740000Y-56095000D01*
X131772000Y-56151000D01*
X131805000Y-56206000D01*
X131840000Y-56260000D01*
X131876000Y-56313000D01*
X131914000Y-56365000D01*
X131954000Y-56416000D01*
X131995000Y-56466000D01*
X132037000Y-56514000D01*
X132081000Y-56561000D01*
X132126000Y-56607000D01*
X132172000Y-56652000D01*
X132220000Y-56695000D01*
X132269000Y-56737000D01*
X132310000Y-56770000D01*
X132310000Y-59030000D01*
X129670000Y-59030000D01*
X129670000Y-51070000D01*
X132310000Y-51070000D01*
X132310000Y-53280000D01*
G36*
X132310000Y-53280000D02*
G01*
X132265000Y-53319000D01*
X132214000Y-53366000D01*
X132165000Y-53414000D01*
X132117000Y-53463000D01*
X132070000Y-53514000D01*
X132025000Y-53566000D01*
X131981000Y-53620000D01*
X131939000Y-53675000D01*
X131899000Y-53730000D01*
X131860000Y-53788000D01*
X131823000Y-53846000D01*
X131788000Y-53905000D01*
X131754000Y-53965000D01*
X131722000Y-54026000D01*
X131692000Y-54088000D01*
X131664000Y-54151000D01*
X131638000Y-54215000D01*
X131613000Y-54280000D01*
X131590000Y-54345000D01*
X131570000Y-54411000D01*
X131551000Y-54477000D01*
X131534000Y-54544000D01*
X131519000Y-54611000D01*
X131506000Y-54679000D01*
X131495000Y-54747000D01*
X131486000Y-54815000D01*
X131479000Y-54884000D01*
X131474000Y-54953000D01*
X131471000Y-55022000D01*
X131470000Y-55100000D01*
X131474000Y-55176000D01*
X131479000Y-55240000D01*
X131486000Y-55304000D01*
X131494000Y-55368000D01*
X131505000Y-55431000D01*
X131517000Y-55494000D01*
X131532000Y-55557000D01*
X131548000Y-55619000D01*
X131566000Y-55681000D01*
X131585000Y-55742000D01*
X131607000Y-55803000D01*
X131630000Y-55863000D01*
X131655000Y-55922000D01*
X131682000Y-55981000D01*
X131710000Y-56038000D01*
X131740000Y-56095000D01*
X131772000Y-56151000D01*
X131805000Y-56206000D01*
X131840000Y-56260000D01*
X131876000Y-56313000D01*
X131914000Y-56365000D01*
X131954000Y-56416000D01*
X131995000Y-56466000D01*
X132037000Y-56514000D01*
X132081000Y-56561000D01*
X132126000Y-56607000D01*
X132172000Y-56652000D01*
X132220000Y-56695000D01*
X132269000Y-56737000D01*
X132310000Y-56770000D01*
X132310000Y-59030000D01*
X129670000Y-59030000D01*
X129670000Y-51070000D01*
X132310000Y-51070000D01*
X132310000Y-53280000D01*
G37*
X137630000Y-59030000D02*
X134990000Y-59030000D01*
X134990000Y-56770000D01*
X135041000Y-56727000D01*
X135091000Y-56683000D01*
X135139000Y-56638000D01*
X135186000Y-56592000D01*
X135231000Y-56544000D01*
X135275000Y-56495000D01*
X135317000Y-56445000D01*
X135358000Y-56393000D01*
X135398000Y-56340000D01*
X135436000Y-56287000D01*
X135472000Y-56232000D01*
X135507000Y-56176000D01*
X135540000Y-56119000D01*
X135571000Y-56061000D01*
X135601000Y-56002000D01*
X135629000Y-55942000D01*
X135655000Y-55882000D01*
X135680000Y-55821000D01*
X135703000Y-55759000D01*
X135724000Y-55697000D01*
X135743000Y-55634000D01*
X135760000Y-55570000D01*
X135775000Y-55506000D01*
X135789000Y-55441000D01*
X135800000Y-55377000D01*
X135810000Y-55311000D01*
X135818000Y-55246000D01*
X135824000Y-55180000D01*
X135828000Y-55115000D01*
X135830000Y-55050000D01*
X135829000Y-54998000D01*
X135826000Y-54931000D01*
X135821000Y-54864000D01*
X135814000Y-54797000D01*
X135806000Y-54730000D01*
X135795000Y-54663000D01*
X135782000Y-54597000D01*
X135768000Y-54531000D01*
X135751000Y-54466000D01*
X135733000Y-54401000D01*
X135712000Y-54337000D01*
X135690000Y-54273000D01*
X135666000Y-54210000D01*
X135640000Y-54148000D01*
X135613000Y-54086000D01*
X135583000Y-54025000D01*
X135552000Y-53966000D01*
X135520000Y-53907000D01*
X135485000Y-53849000D01*
X135449000Y-53792000D01*
X135411000Y-53736000D01*
X135371000Y-53682000D01*
X135330000Y-53628000D01*
X135288000Y-53576000D01*
X135244000Y-53525000D01*
X135198000Y-53475000D01*
X135151000Y-53427000D01*
X135103000Y-53380000D01*
X135053000Y-53334000D01*
X134990000Y-53280000D01*
X134990000Y-51070000D01*
X137630000Y-51070000D01*
X137630000Y-59030000D01*
G36*
X137630000Y-59030000D02*
G01*
X134990000Y-59030000D01*
X134990000Y-56770000D01*
X135041000Y-56727000D01*
X135091000Y-56683000D01*
X135139000Y-56638000D01*
X135186000Y-56592000D01*
X135231000Y-56544000D01*
X135275000Y-56495000D01*
X135317000Y-56445000D01*
X135358000Y-56393000D01*
X135398000Y-56340000D01*
X135436000Y-56287000D01*
X135472000Y-56232000D01*
X135507000Y-56176000D01*
X135540000Y-56119000D01*
X135571000Y-56061000D01*
X135601000Y-56002000D01*
X135629000Y-55942000D01*
X135655000Y-55882000D01*
X135680000Y-55821000D01*
X135703000Y-55759000D01*
X135724000Y-55697000D01*
X135743000Y-55634000D01*
X135760000Y-55570000D01*
X135775000Y-55506000D01*
X135789000Y-55441000D01*
X135800000Y-55377000D01*
X135810000Y-55311000D01*
X135818000Y-55246000D01*
X135824000Y-55180000D01*
X135828000Y-55115000D01*
X135830000Y-55050000D01*
X135829000Y-54998000D01*
X135826000Y-54931000D01*
X135821000Y-54864000D01*
X135814000Y-54797000D01*
X135806000Y-54730000D01*
X135795000Y-54663000D01*
X135782000Y-54597000D01*
X135768000Y-54531000D01*
X135751000Y-54466000D01*
X135733000Y-54401000D01*
X135712000Y-54337000D01*
X135690000Y-54273000D01*
X135666000Y-54210000D01*
X135640000Y-54148000D01*
X135613000Y-54086000D01*
X135583000Y-54025000D01*
X135552000Y-53966000D01*
X135520000Y-53907000D01*
X135485000Y-53849000D01*
X135449000Y-53792000D01*
X135411000Y-53736000D01*
X135371000Y-53682000D01*
X135330000Y-53628000D01*
X135288000Y-53576000D01*
X135244000Y-53525000D01*
X135198000Y-53475000D01*
X135151000Y-53427000D01*
X135103000Y-53380000D01*
X135053000Y-53334000D01*
X134990000Y-53280000D01*
X134990000Y-51070000D01*
X137630000Y-51070000D01*
X137630000Y-59030000D01*
G37*
%TD*%
D11*
%TO.C,R9*%
X133600000Y-69712500D03*
X133600000Y-67887500D03*
%TD*%
D12*
%TO.C,R3*%
X169402502Y-99849999D03*
X171227502Y-99849999D03*
%TD*%
D13*
%TO.C,R5*%
X179240000Y-110275000D03*
X179240000Y-112100000D03*
%TD*%
D14*
%TO.C,C11*%
X157882501Y-117762500D03*
X157882501Y-116037500D03*
%TD*%
%TO.C,C9*%
X167835001Y-117762500D03*
X167835001Y-116037500D03*
%TD*%
%TO.C,C12*%
X161200000Y-117762500D03*
X161200000Y-116037500D03*
%TD*%
D15*
%TO.C,J5*%
X173015000Y-111255000D03*
D16*
X175555000Y-111255000D03*
X173015000Y-113795000D03*
X175555000Y-113795000D03*
X173015000Y-116335000D03*
X175555000Y-116335000D03*
%TD*%
D17*
%TO.C,C15*%
X135287500Y-69750000D03*
X137012500Y-69750000D03*
%TD*%
D18*
%TO.C,C2*%
X141759999Y-111155001D03*
X140034999Y-111155001D03*
%TD*%
D19*
%TO.C,SW1*%
X157894227Y-106926605D03*
X157894227Y-110326605D03*
%TD*%
D20*
%TO.C,C4*%
X145519999Y-111015001D03*
X148394999Y-111015001D03*
%TD*%
D21*
%TO.C,Y1*%
X174650000Y-103800000D03*
X166150000Y-103800000D03*
%TD*%
D18*
%TO.C,C1*%
X125982499Y-118527501D03*
X124257499Y-118527501D03*
%TD*%
D22*
%TO.C,L1*%
X154100000Y-107200000D03*
X152525000Y-107200000D03*
%TD*%
D18*
%TO.C,C8*%
X174992501Y-99849999D03*
X173267501Y-99849999D03*
%TD*%
D23*
%TO.C,D1*%
X121329999Y-113615001D03*
X121329999Y-115365001D03*
%TD*%
D12*
%TO.C,R8*%
X170975000Y-119550000D03*
X172800000Y-119550000D03*
%TD*%
D17*
%TO.C,C5*%
X165637500Y-99850000D03*
X167362500Y-99850000D03*
%TD*%
D24*
%TO.C,J8*%
X173250000Y-75000000D03*
D25*
X175250000Y-75000000D03*
%TD*%
D24*
%TO.C,J7*%
X183000000Y-100299106D03*
D25*
X183000000Y-98299106D03*
X183000000Y-96299106D03*
X183000000Y-94299106D03*
X183000000Y-92299106D03*
X183000000Y-90299106D03*
X183000000Y-88299106D03*
X183000000Y-86299106D03*
X183000000Y-84299106D03*
X183000000Y-82299106D03*
X183000000Y-80299106D03*
X183000000Y-78299106D03*
X183000000Y-76299106D03*
%TD*%
D26*
%TO.C,U3*%
X145000000Y-97230000D03*
X145000000Y-95960000D03*
X145000000Y-94690000D03*
X145000000Y-93420000D03*
X145000000Y-92150000D03*
X145000000Y-90880000D03*
X145000000Y-89610000D03*
X145000000Y-88340000D03*
X145000000Y-87070000D03*
X145000000Y-85800000D03*
X145000000Y-84530000D03*
X145000000Y-83260000D03*
X145000000Y-81990000D03*
X145000000Y-80720000D03*
X145000000Y-79450000D03*
X145000000Y-78180000D03*
X145000000Y-76910000D03*
X145000000Y-75640000D03*
X145000000Y-74370000D03*
X145000000Y-73100000D03*
D27*
X139920000Y-71830000D03*
X138650000Y-71830000D03*
X137380000Y-71830000D03*
X136110000Y-71830000D03*
X134840000Y-71830000D03*
X133570000Y-71830000D03*
X132300000Y-71830000D03*
D28*
X127220000Y-73100000D03*
X127220000Y-74370000D03*
X127220000Y-75640000D03*
X127220000Y-76910000D03*
X127220000Y-78180000D03*
X127220000Y-79450000D03*
X127220000Y-80720000D03*
X127220000Y-81990000D03*
X127220000Y-83260000D03*
X127220000Y-84530000D03*
X127220000Y-85800000D03*
X127220000Y-87070000D03*
X127220000Y-88340000D03*
X127220000Y-89610000D03*
X127220000Y-90880000D03*
X127220000Y-92150000D03*
X127220000Y-93420000D03*
X127220000Y-94690000D03*
X127220000Y-95960000D03*
X127220000Y-97230000D03*
%TD*%
D29*
%TO.C,C3*%
X127404999Y-111517501D03*
X124529999Y-111517501D03*
%TD*%
D30*
%TO.C,U5*%
X133650000Y-55050000D03*
%TD*%
D18*
%TO.C,C7*%
X150562500Y-107200000D03*
X148837500Y-107200000D03*
%TD*%
D12*
%TO.C,R4*%
X137000000Y-114450000D03*
X138825000Y-114450000D03*
%TD*%
D31*
%TO.C,J1*%
X120859999Y-88060002D03*
D32*
X120859999Y-89330002D03*
X120859999Y-90600002D03*
X120859999Y-91870002D03*
X120859999Y-93140002D03*
X120859999Y-94410002D03*
X120859999Y-95680002D03*
X120859999Y-96950002D03*
%TD*%
D24*
%TO.C,J6*%
X154319230Y-76299106D03*
D25*
X154319230Y-78299106D03*
X154319230Y-80299106D03*
X154319230Y-82299106D03*
X154319230Y-84299106D03*
X154319230Y-86299106D03*
X154319230Y-88299106D03*
X154319230Y-90299106D03*
X154319230Y-92299106D03*
X154319230Y-94299106D03*
X154319230Y-96299106D03*
X154319230Y-98299106D03*
X154319230Y-100299106D03*
%TD*%
D17*
%TO.C,C14*%
X158574227Y-112599105D03*
X160299227Y-112599105D03*
%TD*%
D33*
%TO.C,U4*%
X163771739Y-89297894D03*
X164125293Y-89651448D03*
X164478846Y-90005001D03*
X164832400Y-90358555D03*
X165185953Y-90712108D03*
X165539506Y-91065661D03*
X165893060Y-91419215D03*
X166246613Y-91772768D03*
X166600166Y-92126321D03*
X166953720Y-92479875D03*
X167307273Y-92833428D03*
X167660827Y-93186982D03*
D34*
X169658403Y-93186982D03*
X170011957Y-92833428D03*
X170365510Y-92479875D03*
X170719064Y-92126321D03*
X171072617Y-91772768D03*
X171426170Y-91419215D03*
X171779724Y-91065661D03*
X172133277Y-90712108D03*
X172486830Y-90358555D03*
X172840384Y-90005001D03*
X173193937Y-89651448D03*
X173547491Y-89297894D03*
D33*
X173547491Y-87300318D03*
X173193937Y-86946764D03*
X172840384Y-86593211D03*
X172486830Y-86239657D03*
X172133277Y-85886104D03*
X171779724Y-85532551D03*
X171426170Y-85178997D03*
X171072617Y-84825444D03*
X170719064Y-84471891D03*
X170365510Y-84118337D03*
X170011957Y-83764784D03*
X169658403Y-83411230D03*
D34*
X167660827Y-83411230D03*
X167307273Y-83764784D03*
X166953720Y-84118337D03*
X166600166Y-84471891D03*
X166246613Y-84825444D03*
X165893060Y-85178997D03*
X165539506Y-85532551D03*
X165185953Y-85886104D03*
X164832400Y-86239657D03*
X164478846Y-86593211D03*
X164125293Y-86946764D03*
X163771739Y-87300318D03*
%TD*%
D35*
%TO.C,D2*%
X176550000Y-119550000D03*
X174800000Y-119550000D03*
%TD*%
D36*
%TO.C,C6*%
X151300000Y-109737500D03*
X151300000Y-111462500D03*
%TD*%
D13*
%TO.C,R6*%
X179240000Y-114662500D03*
X179240000Y-116487500D03*
%TD*%
%TO.C,R2*%
X123460001Y-80917499D03*
X123460001Y-82742499D03*
%TD*%
D14*
%TO.C,C13*%
X164517501Y-117762500D03*
X164517501Y-116037500D03*
%TD*%
D24*
%TO.C,J4*%
X167500000Y-75000000D03*
D25*
X165500000Y-75000000D03*
X163500000Y-75000000D03*
X161500000Y-75000000D03*
%TD*%
D37*
%TO.C,R7*%
X155999230Y-112599106D03*
X154174230Y-112599106D03*
%TD*%
D38*
%TO.C,U1*%
X141529999Y-115015001D03*
X141529999Y-117315001D03*
D39*
X147829999Y-117315001D03*
D38*
X141529999Y-119615001D03*
%TD*%
D37*
%TO.C,R1*%
X126054999Y-115397501D03*
X124229999Y-115397501D03*
%TD*%
D40*
%TO.C,L2*%
X133600000Y-66250000D03*
X133600000Y-64500000D03*
%TD*%
D14*
%TO.C,C10*%
X154565001Y-117762500D03*
X154565001Y-116037500D03*
%TD*%
D41*
%TO.C,U2*%
X131779999Y-117965001D03*
X132429999Y-117965001D03*
X133079999Y-117965001D03*
X133729999Y-117965001D03*
X134379999Y-117965001D03*
D42*
X129579999Y-120665001D03*
D43*
X130179999Y-120665001D03*
D44*
X130579999Y-117965001D03*
D45*
X132079999Y-120665001D03*
X134079999Y-120665001D03*
D44*
X135579999Y-117965001D03*
D43*
X135979999Y-120665001D03*
D42*
X136579999Y-120665001D03*
%TD*%
D24*
%TO.C,J2*%
X120860001Y-82729999D03*
D25*
X120860001Y-80729999D03*
X120860001Y-78729999D03*
X120860001Y-76729999D03*
X120860001Y-74729999D03*
X120860001Y-72729999D03*
%TD*%
M02*
