%TF.GenerationSoftware,KiCad,Pcbnew,7.0.5*%
%TF.CreationDate,2024-05-26T12:51:26+03:00*%
%TF.ProjectId,LoRa_MuPr-VAF4751_L,4c6f5261-5f4d-4755-9072-2d5641463437,rev?*%
%TF.SameCoordinates,Original*%
%TF.FileFunction,Soldermask,Bot*%
%TF.FilePolarity,Negative*%
%FSLAX46Y46*%
G04 Gerber Fmt 4.6, Leading zero omitted, Abs format (unit mm)*
G04 Created by KiCad (PCBNEW 7.0.5) date 2024-05-26 12:51:26*
%MOMM*%
%LPD*%
G01*
G04 APERTURE LIST*
%ADD10R,1.700000X1.700000*%
%ADD11O,1.700000X1.700000*%
%ADD12R,1.350000X1.350000*%
%ADD13O,1.350000X1.350000*%
%ADD14R,1.000000X1.000000*%
%ADD15O,1.000000X1.000000*%
%ADD16O,0.890000X1.550000*%
%ADD17O,1.250000X0.950000*%
G04 APERTURE END LIST*
D10*
%TO.C,J5*%
X173015000Y-111255000D03*
D11*
X175555000Y-111255000D03*
X173015000Y-113795000D03*
X175555000Y-113795000D03*
X173015000Y-116335000D03*
X175555000Y-116335000D03*
%TD*%
D12*
%TO.C,J8*%
X173250000Y-75000000D03*
D13*
X175250000Y-75000000D03*
%TD*%
D12*
%TO.C,J7*%
X183000000Y-100299106D03*
D13*
X183000000Y-98299106D03*
X183000000Y-96299106D03*
X183000000Y-94299106D03*
X183000000Y-92299106D03*
X183000000Y-90299106D03*
X183000000Y-88299106D03*
X183000000Y-86299106D03*
X183000000Y-84299106D03*
X183000000Y-82299106D03*
X183000000Y-80299106D03*
X183000000Y-78299106D03*
X183000000Y-76299106D03*
%TD*%
D14*
%TO.C,J1*%
X120859999Y-88060002D03*
D15*
X120859999Y-89330002D03*
X120859999Y-90600002D03*
X120859999Y-91870002D03*
X120859999Y-93140002D03*
X120859999Y-94410002D03*
X120859999Y-95680002D03*
X120859999Y-96950002D03*
%TD*%
D12*
%TO.C,J6*%
X154319230Y-76299106D03*
D13*
X154319230Y-78299106D03*
X154319230Y-80299106D03*
X154319230Y-82299106D03*
X154319230Y-84299106D03*
X154319230Y-86299106D03*
X154319230Y-88299106D03*
X154319230Y-90299106D03*
X154319230Y-92299106D03*
X154319230Y-94299106D03*
X154319230Y-96299106D03*
X154319230Y-98299106D03*
X154319230Y-100299106D03*
%TD*%
D12*
%TO.C,J4*%
X167500000Y-75000000D03*
D13*
X165500000Y-75000000D03*
X163500000Y-75000000D03*
X161500000Y-75000000D03*
%TD*%
D16*
%TO.C,U2*%
X129579999Y-120665001D03*
D17*
X130579999Y-117965001D03*
X135579999Y-117965001D03*
D16*
X136579999Y-120665001D03*
%TD*%
D12*
%TO.C,J2*%
X120860001Y-82729999D03*
D13*
X120860001Y-80729999D03*
X120860001Y-78729999D03*
X120860001Y-76729999D03*
X120860001Y-74729999D03*
X120860001Y-72729999D03*
%TD*%
M02*
