%TF.GenerationSoftware,KiCad,Pcbnew,7.0.5*%
%TF.CreationDate,2024-05-26T12:51:26+03:00*%
%TF.ProjectId,LoRa_MuPr-VAF4751_L,4c6f5261-5f4d-4755-9072-2d5641463437,rev?*%
%TF.SameCoordinates,Original*%
%TF.FileFunction,Legend,Bot*%
%TF.FilePolarity,Positive*%
%FSLAX46Y46*%
G04 Gerber Fmt 4.6, Leading zero omitted, Abs format (unit mm)*
G04 Created by KiCad (PCBNEW 7.0.5) date 2024-05-26 12:51:26*
%MOMM*%
%LPD*%
G01*
G04 APERTURE LIST*
%ADD10C,0.300000*%
%ADD11C,0.800000*%
%ADD12C,0.150000*%
G04 APERTURE END LIST*
D10*
%TO.C,REF\u002A\u002A*%
G36*
X145352180Y-103306793D02*
G01*
X145604239Y-104070296D01*
X145328733Y-104995000D01*
X145802076Y-104995000D01*
X145968039Y-104269598D01*
X145956315Y-104995000D01*
X146413538Y-104995000D01*
X146413538Y-103306793D01*
X145956315Y-103306793D01*
X145968039Y-103965150D01*
X145784124Y-103306793D01*
X145352180Y-103306793D01*
G37*
G36*
X144389375Y-103306793D02*
G01*
X144389375Y-103658503D01*
X144646929Y-103658503D01*
X144646929Y-104995000D01*
X145104152Y-104995000D01*
X145104152Y-103658503D01*
X145360607Y-103658503D01*
X145360607Y-103306793D01*
X144389375Y-103306793D01*
G37*
G36*
X143309699Y-103306793D02*
G01*
X143309699Y-104423471D01*
X143309750Y-104446668D01*
X143309900Y-104468998D01*
X143310150Y-104490460D01*
X143310501Y-104511055D01*
X143310952Y-104530783D01*
X143311503Y-104549644D01*
X143312154Y-104567637D01*
X143312905Y-104584763D01*
X143313757Y-104601022D01*
X143314708Y-104616414D01*
X143316324Y-104637875D01*
X143318164Y-104657385D01*
X143320231Y-104674943D01*
X143322522Y-104690551D01*
X143325364Y-104705221D01*
X143329082Y-104719969D01*
X143333676Y-104734794D01*
X143339146Y-104749696D01*
X143345492Y-104764675D01*
X143352713Y-104779732D01*
X143360810Y-104794866D01*
X143369783Y-104810077D01*
X143379632Y-104825366D01*
X143390357Y-104840732D01*
X143397993Y-104851018D01*
X143410022Y-104866123D01*
X143422753Y-104880526D01*
X143436186Y-104894228D01*
X143450320Y-104907227D01*
X143465157Y-104919524D01*
X143480696Y-104931119D01*
X143496936Y-104942012D01*
X143513879Y-104952204D01*
X143531523Y-104961693D01*
X143549870Y-104970480D01*
X143562491Y-104975949D01*
X143581900Y-104983543D01*
X143601934Y-104990391D01*
X143622592Y-104996492D01*
X143643875Y-105001846D01*
X143658411Y-105005000D01*
X143673224Y-105007822D01*
X143688315Y-105010312D01*
X143703684Y-105012470D01*
X143719330Y-105014297D01*
X143735254Y-105015791D01*
X143751456Y-105016953D01*
X143767935Y-105017783D01*
X143784692Y-105018281D01*
X143801727Y-105018447D01*
X143820594Y-105018251D01*
X143839187Y-105017663D01*
X143857506Y-105016682D01*
X143875549Y-105015310D01*
X143893318Y-105013545D01*
X143910812Y-105011389D01*
X143928031Y-105008840D01*
X143944975Y-105005899D01*
X143961645Y-105002566D01*
X143978039Y-104998841D01*
X143994159Y-104994723D01*
X144010005Y-104990214D01*
X144025575Y-104985312D01*
X144040871Y-104980019D01*
X144055892Y-104974333D01*
X144070638Y-104968255D01*
X144085019Y-104961861D01*
X144098945Y-104955226D01*
X144112416Y-104948351D01*
X144125432Y-104941236D01*
X144144103Y-104930112D01*
X144161750Y-104918447D01*
X144178372Y-104906241D01*
X144193971Y-104893494D01*
X144208546Y-104880206D01*
X144222097Y-104866377D01*
X144234624Y-104852007D01*
X144246127Y-104837096D01*
X144256696Y-104821779D01*
X144266421Y-104806326D01*
X144275303Y-104790738D01*
X144283341Y-104775015D01*
X144290536Y-104759156D01*
X144296887Y-104743163D01*
X144302394Y-104727034D01*
X144307057Y-104710770D01*
X144310877Y-104694370D01*
X144313854Y-104677835D01*
X144315369Y-104666737D01*
X144317203Y-104648298D01*
X144318856Y-104626504D01*
X144319857Y-104610111D01*
X144320779Y-104592226D01*
X144321620Y-104572851D01*
X144322382Y-104551984D01*
X144323063Y-104529625D01*
X144323664Y-104505776D01*
X144324185Y-104480435D01*
X144324626Y-104453603D01*
X144324986Y-104425280D01*
X144325137Y-104410559D01*
X144325267Y-104395466D01*
X144325377Y-104379999D01*
X144325467Y-104364160D01*
X144325537Y-104347948D01*
X144325587Y-104331364D01*
X144325618Y-104314406D01*
X144325628Y-104297076D01*
X144325628Y-103306793D01*
X143868405Y-103306793D01*
X143868405Y-104557194D01*
X143868318Y-104576338D01*
X143868057Y-104594065D01*
X143867622Y-104610376D01*
X143867014Y-104625269D01*
X143865932Y-104642923D01*
X143864541Y-104658059D01*
X143862367Y-104673436D01*
X143858513Y-104688353D01*
X143850384Y-104701683D01*
X143837476Y-104710645D01*
X143822134Y-104713607D01*
X143820411Y-104713632D01*
X143805344Y-104711869D01*
X143791788Y-104705670D01*
X143780940Y-104693549D01*
X143777180Y-104685422D01*
X143773183Y-104668484D01*
X143770929Y-104650955D01*
X143769487Y-104633673D01*
X143768615Y-104618810D01*
X143767924Y-104602319D01*
X143767413Y-104584197D01*
X143767082Y-104564447D01*
X143766932Y-104543067D01*
X143766922Y-104535579D01*
X143766922Y-103306793D01*
X143309699Y-103306793D01*
G37*
G36*
X142179832Y-103306793D02*
G01*
X142179832Y-104995000D01*
X142580635Y-104995000D01*
X142797522Y-104226367D01*
X142785799Y-104995000D01*
X143171946Y-104995000D01*
X143171946Y-103306793D01*
X142789096Y-103306793D01*
X142554256Y-104068098D01*
X142565980Y-103306793D01*
X142179832Y-103306793D01*
G37*
G36*
X141513415Y-104150896D02*
G01*
X141513415Y-104455711D01*
X142084211Y-104455711D01*
X142084211Y-104150896D01*
X141513415Y-104150896D01*
G37*
G36*
X140507745Y-104737079D02*
G01*
X140507745Y-104995000D01*
X141447103Y-104995000D01*
X141447103Y-104792400D01*
X141421897Y-104749098D01*
X141397341Y-104706844D01*
X141373434Y-104665638D01*
X141350177Y-104625481D01*
X141327570Y-104586372D01*
X141305612Y-104548311D01*
X141284305Y-104511299D01*
X141263647Y-104475335D01*
X141243638Y-104440419D01*
X141224280Y-104406551D01*
X141205571Y-104373732D01*
X141187511Y-104341961D01*
X141170102Y-104311238D01*
X141153342Y-104281564D01*
X141137232Y-104252938D01*
X141121772Y-104225360D01*
X141106961Y-104198830D01*
X141092801Y-104173349D01*
X141079289Y-104148916D01*
X141066428Y-104125531D01*
X141054216Y-104103195D01*
X141042654Y-104081907D01*
X141031742Y-104061667D01*
X141021480Y-104042475D01*
X141011867Y-104024332D01*
X141002904Y-104007237D01*
X140994591Y-103991190D01*
X140986927Y-103976192D01*
X140979913Y-103962242D01*
X140967835Y-103937487D01*
X140962770Y-103926681D01*
X140953542Y-103906364D01*
X140944910Y-103886627D01*
X140936873Y-103867472D01*
X140929431Y-103848898D01*
X140922584Y-103830904D01*
X140916333Y-103813492D01*
X140910677Y-103796661D01*
X140905617Y-103780410D01*
X140901152Y-103764741D01*
X140897282Y-103749653D01*
X140894008Y-103735146D01*
X140890213Y-103714474D01*
X140887757Y-103695110D01*
X140886641Y-103677054D01*
X140886566Y-103671325D01*
X140886887Y-103654953D01*
X140887848Y-103639726D01*
X140889952Y-103622303D01*
X140893058Y-103606668D01*
X140898107Y-103590267D01*
X140904598Y-103576443D01*
X140907083Y-103572407D01*
X140917040Y-103560273D01*
X140928961Y-103551119D01*
X140942846Y-103544946D01*
X140958694Y-103541753D01*
X140968632Y-103541266D01*
X140985477Y-103542896D01*
X141000428Y-103547788D01*
X141013486Y-103555940D01*
X141024651Y-103567352D01*
X141030181Y-103575338D01*
X141037153Y-103590644D01*
X141041862Y-103607472D01*
X141044907Y-103623600D01*
X141047311Y-103642099D01*
X141048694Y-103657528D01*
X141049716Y-103674290D01*
X141050377Y-103692386D01*
X141050677Y-103711814D01*
X141050697Y-103718586D01*
X141050697Y-103892976D01*
X141447103Y-103892976D01*
X141447103Y-103821901D01*
X141447046Y-103804859D01*
X141446875Y-103788264D01*
X141446588Y-103772116D01*
X141446188Y-103756413D01*
X141445672Y-103741158D01*
X141445043Y-103726349D01*
X141443883Y-103704972D01*
X141442467Y-103684600D01*
X141440792Y-103665233D01*
X141438860Y-103646871D01*
X141436671Y-103629513D01*
X141434223Y-103613159D01*
X141432449Y-103602815D01*
X141429253Y-103587653D01*
X141425296Y-103572530D01*
X141420580Y-103557445D01*
X141415104Y-103542400D01*
X141408868Y-103527392D01*
X141401872Y-103512423D01*
X141394116Y-103497493D01*
X141385600Y-103482602D01*
X141376324Y-103467749D01*
X141366289Y-103452935D01*
X141359176Y-103443080D01*
X141347948Y-103428584D01*
X141336108Y-103414770D01*
X141323656Y-103401639D01*
X141310593Y-103389191D01*
X141296917Y-103377425D01*
X141282630Y-103366341D01*
X141267731Y-103355941D01*
X141252221Y-103346223D01*
X141236098Y-103337188D01*
X141219364Y-103328835D01*
X141207868Y-103323646D01*
X141190035Y-103316444D01*
X141171572Y-103309950D01*
X141152477Y-103304165D01*
X141132751Y-103299088D01*
X141112395Y-103294719D01*
X141091407Y-103291059D01*
X141069788Y-103288108D01*
X141055024Y-103286533D01*
X141039980Y-103285274D01*
X141024656Y-103284330D01*
X141009051Y-103283700D01*
X140993166Y-103283385D01*
X140985118Y-103283346D01*
X140969438Y-103283473D01*
X140953996Y-103283854D01*
X140938792Y-103284489D01*
X140923827Y-103285378D01*
X140909099Y-103286521D01*
X140880360Y-103289569D01*
X140852573Y-103293634D01*
X140825740Y-103298714D01*
X140799860Y-103304810D01*
X140774933Y-103311923D01*
X140750959Y-103320052D01*
X140727938Y-103329197D01*
X140705870Y-103339358D01*
X140684756Y-103350534D01*
X140664594Y-103362728D01*
X140645386Y-103375937D01*
X140627131Y-103390162D01*
X140609828Y-103405403D01*
X140601535Y-103413405D01*
X140585697Y-103429886D01*
X140570880Y-103446904D01*
X140557086Y-103464461D01*
X140544313Y-103482556D01*
X140532562Y-103501189D01*
X140521833Y-103520360D01*
X140512126Y-103540070D01*
X140503441Y-103560317D01*
X140495777Y-103581102D01*
X140489135Y-103602426D01*
X140483515Y-103624288D01*
X140478917Y-103646687D01*
X140475341Y-103669625D01*
X140472786Y-103693101D01*
X140471254Y-103717115D01*
X140470743Y-103741667D01*
X140471026Y-103760415D01*
X140471876Y-103779288D01*
X140473293Y-103798288D01*
X140475276Y-103817413D01*
X140477827Y-103836664D01*
X140480944Y-103856042D01*
X140484627Y-103875545D01*
X140488878Y-103895174D01*
X140493695Y-103914929D01*
X140499079Y-103934810D01*
X140505029Y-103954817D01*
X140511547Y-103974950D01*
X140518631Y-103995209D01*
X140526281Y-104015593D01*
X140534499Y-104036104D01*
X140543283Y-104056741D01*
X140553346Y-104078761D01*
X140565494Y-104103515D01*
X140572349Y-104116917D01*
X140579725Y-104131002D01*
X140587621Y-104145771D01*
X140596039Y-104161223D01*
X140604978Y-104177359D01*
X140614438Y-104194177D01*
X140624418Y-104211679D01*
X140634920Y-104229865D01*
X140645942Y-104248734D01*
X140657485Y-104268286D01*
X140669550Y-104288521D01*
X140682135Y-104309440D01*
X140695241Y-104331043D01*
X140708868Y-104353328D01*
X140723016Y-104376297D01*
X140737685Y-104399950D01*
X140752875Y-104424285D01*
X140768585Y-104449304D01*
X140784817Y-104475007D01*
X140801570Y-104501392D01*
X140818843Y-104528461D01*
X140836638Y-104556214D01*
X140854953Y-104584650D01*
X140873789Y-104613769D01*
X140893146Y-104643571D01*
X140913025Y-104674057D01*
X140933424Y-104705226D01*
X140954344Y-104737079D01*
X140507745Y-104737079D01*
G37*
G36*
X139900989Y-103283619D02*
G01*
X139921792Y-103284439D01*
X139942205Y-103285806D01*
X139962229Y-103287719D01*
X139981864Y-103290179D01*
X140001109Y-103293186D01*
X140019966Y-103296739D01*
X140038433Y-103300840D01*
X140056511Y-103305486D01*
X140074199Y-103310680D01*
X140091498Y-103316420D01*
X140108408Y-103322707D01*
X140124929Y-103329540D01*
X140141061Y-103336921D01*
X140156803Y-103344848D01*
X140172156Y-103353321D01*
X140186956Y-103362248D01*
X140201133Y-103371536D01*
X140214686Y-103381185D01*
X140227614Y-103391194D01*
X140239919Y-103401564D01*
X140251600Y-103412294D01*
X140262656Y-103423386D01*
X140273089Y-103434837D01*
X140282898Y-103446650D01*
X140292083Y-103458823D01*
X140300644Y-103471356D01*
X140308581Y-103484251D01*
X140315894Y-103497506D01*
X140322583Y-103511121D01*
X140328648Y-103525097D01*
X140334089Y-103539434D01*
X140339013Y-103554392D01*
X140343620Y-103570232D01*
X140347909Y-103586953D01*
X140351880Y-103604556D01*
X140355534Y-103623040D01*
X140358870Y-103642406D01*
X140361888Y-103662653D01*
X140364589Y-103683782D01*
X140366971Y-103705792D01*
X140369037Y-103728684D01*
X140370784Y-103752458D01*
X140372214Y-103777113D01*
X140373326Y-103802650D01*
X140374120Y-103829068D01*
X140374596Y-103856368D01*
X140374755Y-103884549D01*
X140374755Y-104460108D01*
X140374657Y-104481722D01*
X140374360Y-104502600D01*
X140373867Y-104522743D01*
X140373175Y-104542150D01*
X140372287Y-104560822D01*
X140371200Y-104578758D01*
X140369917Y-104595959D01*
X140368435Y-104612424D01*
X140366757Y-104628153D01*
X140364881Y-104643147D01*
X140361696Y-104664258D01*
X140358067Y-104683714D01*
X140353994Y-104701516D01*
X140349476Y-104717662D01*
X140346179Y-104727847D01*
X140340718Y-104743023D01*
X140334638Y-104758076D01*
X140327941Y-104773007D01*
X140320625Y-104787816D01*
X140312691Y-104802503D01*
X140304139Y-104817067D01*
X140294968Y-104831508D01*
X140285179Y-104845828D01*
X140274772Y-104860025D01*
X140263747Y-104874099D01*
X140255986Y-104883243D01*
X140243749Y-104896383D01*
X140230797Y-104908835D01*
X140217130Y-104920598D01*
X140202749Y-104931671D01*
X140187652Y-104942056D01*
X140171841Y-104951751D01*
X140155315Y-104960758D01*
X140138074Y-104969075D01*
X140120118Y-104976703D01*
X140101448Y-104983642D01*
X140088569Y-104987857D01*
X140068527Y-104993669D01*
X140047615Y-104998869D01*
X140033191Y-105001996D01*
X140018380Y-105004851D01*
X140003183Y-105007434D01*
X139987600Y-105009746D01*
X139971630Y-105011785D01*
X139955274Y-105013552D01*
X139938531Y-105015048D01*
X139921402Y-105016272D01*
X139903887Y-105017223D01*
X139885985Y-105017903D01*
X139867697Y-105018311D01*
X139849023Y-105018447D01*
X139834637Y-105018317D01*
X139813381Y-105017633D01*
X139792511Y-105016363D01*
X139772027Y-105014507D01*
X139751930Y-105012065D01*
X139732220Y-105009038D01*
X139712895Y-105005424D01*
X139693957Y-105001224D01*
X139675406Y-104996438D01*
X139657241Y-104991066D01*
X139639462Y-104985108D01*
X139627800Y-104980727D01*
X139610709Y-104973528D01*
X139594102Y-104965576D01*
X139577977Y-104956870D01*
X139562335Y-104947411D01*
X139547177Y-104937198D01*
X139532501Y-104926232D01*
X139518308Y-104914512D01*
X139504599Y-104902039D01*
X139491372Y-104888812D01*
X139478628Y-104874832D01*
X139470428Y-104865218D01*
X139458804Y-104850636D01*
X139447991Y-104835860D01*
X139437990Y-104820891D01*
X139428800Y-104805729D01*
X139420421Y-104790374D01*
X139412854Y-104774826D01*
X139406099Y-104759085D01*
X139400155Y-104743150D01*
X139395022Y-104727022D01*
X139390701Y-104710701D01*
X139389394Y-104705130D01*
X139385721Y-104687231D01*
X139382421Y-104667554D01*
X139379495Y-104646101D01*
X139377752Y-104630811D01*
X139376175Y-104614731D01*
X139374764Y-104597861D01*
X139373519Y-104580201D01*
X139373266Y-104575879D01*
X139809089Y-104575879D01*
X139809139Y-104590863D01*
X139809402Y-104611996D01*
X139809890Y-104631520D01*
X139810604Y-104649434D01*
X139811543Y-104665738D01*
X139812708Y-104680432D01*
X139814611Y-104697520D01*
X139817554Y-104714854D01*
X139821912Y-104729752D01*
X139829743Y-104743216D01*
X139842384Y-104753764D01*
X139857027Y-104759054D01*
X139872470Y-104760526D01*
X139886093Y-104759625D01*
X139901331Y-104755618D01*
X139914478Y-104747278D01*
X139923394Y-104734881D01*
X139924116Y-104733138D01*
X139927963Y-104717768D01*
X139930069Y-104702842D01*
X139931809Y-104684171D01*
X139932874Y-104667712D01*
X139933733Y-104649146D01*
X139934385Y-104628475D01*
X139934706Y-104613524D01*
X139934935Y-104597637D01*
X139935072Y-104580815D01*
X139935118Y-104563056D01*
X139935118Y-103733241D01*
X139935068Y-103717502D01*
X139934805Y-103695320D01*
X139934317Y-103674852D01*
X139933603Y-103656096D01*
X139932664Y-103639054D01*
X139931499Y-103623725D01*
X139929596Y-103605950D01*
X139926653Y-103588015D01*
X139922295Y-103572773D01*
X139921446Y-103570835D01*
X139912877Y-103557543D01*
X139901148Y-103548189D01*
X139886258Y-103542774D01*
X139870638Y-103541266D01*
X139854695Y-103542669D01*
X139839823Y-103547706D01*
X139827361Y-103557752D01*
X139820080Y-103570575D01*
X139818116Y-103576985D01*
X139815271Y-103591733D01*
X139813382Y-103607189D01*
X139811837Y-103625896D01*
X139810903Y-103642061D01*
X139810162Y-103660054D01*
X139809615Y-103679876D01*
X139809261Y-103701528D01*
X139809132Y-103716978D01*
X139809089Y-103733241D01*
X139809089Y-104575879D01*
X139373266Y-104575879D01*
X139372440Y-104561751D01*
X139371527Y-104542511D01*
X139370780Y-104522481D01*
X139370199Y-104501661D01*
X139369784Y-104480052D01*
X139369535Y-104457652D01*
X139369452Y-104434462D01*
X139369452Y-103884549D01*
X139369471Y-103872856D01*
X139369622Y-103850064D01*
X139369926Y-103828065D01*
X139370381Y-103806859D01*
X139370988Y-103786446D01*
X139371746Y-103766825D01*
X139372656Y-103747997D01*
X139373718Y-103729963D01*
X139374932Y-103712721D01*
X139376297Y-103696271D01*
X139377814Y-103680615D01*
X139379483Y-103665752D01*
X139382270Y-103644943D01*
X139385399Y-103625918D01*
X139388869Y-103608677D01*
X139391438Y-103597799D01*
X139395822Y-103581735D01*
X139400845Y-103565973D01*
X139406504Y-103550514D01*
X139412801Y-103535357D01*
X139419736Y-103520503D01*
X139427309Y-103505952D01*
X139435519Y-103491703D01*
X139444366Y-103477758D01*
X139453851Y-103464115D01*
X139463974Y-103450774D01*
X139474833Y-103437713D01*
X139486664Y-103425044D01*
X139499468Y-103412768D01*
X139513244Y-103400886D01*
X139527993Y-103389396D01*
X139543714Y-103378298D01*
X139560407Y-103367594D01*
X139578073Y-103357283D01*
X139596712Y-103347364D01*
X139616323Y-103337838D01*
X139629937Y-103331706D01*
X139643836Y-103325850D01*
X139657964Y-103320371D01*
X139672320Y-103315271D01*
X139686906Y-103310548D01*
X139701721Y-103306203D01*
X139716765Y-103302236D01*
X139732038Y-103298647D01*
X139747540Y-103295436D01*
X139763270Y-103292602D01*
X139779230Y-103290146D01*
X139795419Y-103288068D01*
X139811837Y-103286368D01*
X139828483Y-103285046D01*
X139845359Y-103284101D01*
X139862464Y-103283535D01*
X139879797Y-103283346D01*
X139900989Y-103283619D01*
G37*
G36*
X138583967Y-103306793D02*
G01*
X138583967Y-104995000D01*
X139023970Y-104995000D01*
X139023970Y-104079455D01*
X139024005Y-104055800D01*
X139024108Y-104033379D01*
X139024279Y-104012192D01*
X139024520Y-103992238D01*
X139024829Y-103973517D01*
X139025207Y-103956030D01*
X139025653Y-103939777D01*
X139026168Y-103924758D01*
X139027070Y-103904542D01*
X139028126Y-103887101D01*
X139029337Y-103872436D01*
X139031192Y-103857201D01*
X139032763Y-103849012D01*
X139037852Y-103834003D01*
X139045746Y-103820712D01*
X139056445Y-103809139D01*
X139069949Y-103799284D01*
X139078925Y-103794424D01*
X139093257Y-103789041D01*
X139108381Y-103785392D01*
X139126757Y-103782326D01*
X139142672Y-103780410D01*
X139160417Y-103778823D01*
X139179990Y-103777564D01*
X139201392Y-103776633D01*
X139216676Y-103776195D01*
X139232773Y-103775903D01*
X139249683Y-103775757D01*
X139258443Y-103775739D01*
X139311200Y-103775739D01*
X139311200Y-103572773D01*
X139292158Y-103568565D01*
X139273408Y-103564092D01*
X139254952Y-103559355D01*
X139236788Y-103554352D01*
X139218916Y-103549085D01*
X139201338Y-103543553D01*
X139184052Y-103537756D01*
X139167058Y-103531695D01*
X139150358Y-103525369D01*
X139133950Y-103518778D01*
X139117834Y-103511922D01*
X139102012Y-103504801D01*
X139086481Y-103497416D01*
X139071244Y-103489766D01*
X139056299Y-103481851D01*
X139041647Y-103473672D01*
X139027288Y-103465228D01*
X139013221Y-103456519D01*
X138999447Y-103447545D01*
X138985966Y-103438306D01*
X138972777Y-103428803D01*
X138959881Y-103419035D01*
X138947277Y-103409002D01*
X138934967Y-103398705D01*
X138922948Y-103388142D01*
X138911223Y-103377315D01*
X138899790Y-103366223D01*
X138888650Y-103354867D01*
X138877803Y-103343245D01*
X138867248Y-103331359D01*
X138856986Y-103319209D01*
X138847016Y-103306793D01*
X138583967Y-103306793D01*
G37*
G36*
X137529937Y-104737079D02*
G01*
X137529937Y-104995000D01*
X138469295Y-104995000D01*
X138469295Y-104792400D01*
X138444089Y-104749098D01*
X138419532Y-104706844D01*
X138395625Y-104665638D01*
X138372368Y-104625481D01*
X138349761Y-104586372D01*
X138327804Y-104548311D01*
X138306496Y-104511299D01*
X138285838Y-104475335D01*
X138265829Y-104440419D01*
X138246471Y-104406551D01*
X138227762Y-104373732D01*
X138209703Y-104341961D01*
X138192293Y-104311238D01*
X138175534Y-104281564D01*
X138159423Y-104252938D01*
X138143963Y-104225360D01*
X138129153Y-104198830D01*
X138114992Y-104173349D01*
X138101481Y-104148916D01*
X138088619Y-104125531D01*
X138076408Y-104103195D01*
X138064846Y-104081907D01*
X138053933Y-104061667D01*
X138043671Y-104042475D01*
X138034058Y-104024332D01*
X138025095Y-104007237D01*
X138016782Y-103991190D01*
X138009118Y-103976192D01*
X138002104Y-103962242D01*
X137990026Y-103937487D01*
X137984961Y-103926681D01*
X137975733Y-103906364D01*
X137967101Y-103886627D01*
X137959064Y-103867472D01*
X137951622Y-103848898D01*
X137944776Y-103830904D01*
X137938524Y-103813492D01*
X137932869Y-103796661D01*
X137927808Y-103780410D01*
X137923343Y-103764741D01*
X137919474Y-103749653D01*
X137916199Y-103735146D01*
X137912404Y-103714474D01*
X137909948Y-103695110D01*
X137908832Y-103677054D01*
X137908757Y-103671325D01*
X137909078Y-103654953D01*
X137910040Y-103639726D01*
X137912143Y-103622303D01*
X137915249Y-103606668D01*
X137920298Y-103590267D01*
X137926789Y-103576443D01*
X137929274Y-103572407D01*
X137939231Y-103560273D01*
X137951153Y-103551119D01*
X137965037Y-103544946D01*
X137980885Y-103541753D01*
X137990823Y-103541266D01*
X138007668Y-103542896D01*
X138022619Y-103547788D01*
X138035678Y-103555940D01*
X138046842Y-103567352D01*
X138052372Y-103575338D01*
X138059345Y-103590644D01*
X138064053Y-103607472D01*
X138067098Y-103623600D01*
X138069503Y-103642099D01*
X138070885Y-103657528D01*
X138071907Y-103674290D01*
X138072568Y-103692386D01*
X138072869Y-103711814D01*
X138072889Y-103718586D01*
X138072889Y-103892976D01*
X138469295Y-103892976D01*
X138469295Y-103821901D01*
X138469237Y-103804859D01*
X138469066Y-103788264D01*
X138468779Y-103772116D01*
X138468379Y-103756413D01*
X138467864Y-103741158D01*
X138467234Y-103726349D01*
X138466075Y-103704972D01*
X138464658Y-103684600D01*
X138462983Y-103665233D01*
X138461051Y-103646871D01*
X138458862Y-103629513D01*
X138456415Y-103613159D01*
X138454640Y-103602815D01*
X138451444Y-103587653D01*
X138447487Y-103572530D01*
X138442771Y-103557445D01*
X138437295Y-103542400D01*
X138431059Y-103527392D01*
X138424063Y-103512423D01*
X138416307Y-103497493D01*
X138407791Y-103482602D01*
X138398516Y-103467749D01*
X138388480Y-103452935D01*
X138381367Y-103443080D01*
X138370139Y-103428584D01*
X138358299Y-103414770D01*
X138345847Y-103401639D01*
X138332784Y-103389191D01*
X138319109Y-103377425D01*
X138304821Y-103366341D01*
X138289923Y-103355941D01*
X138274412Y-103346223D01*
X138258289Y-103337188D01*
X138241555Y-103328835D01*
X138230059Y-103323646D01*
X138212226Y-103316444D01*
X138193763Y-103309950D01*
X138174668Y-103304165D01*
X138154943Y-103299088D01*
X138134586Y-103294719D01*
X138113598Y-103291059D01*
X138091979Y-103288108D01*
X138077216Y-103286533D01*
X138062172Y-103285274D01*
X138046847Y-103284330D01*
X138031243Y-103283700D01*
X138015357Y-103283385D01*
X138007309Y-103283346D01*
X137991629Y-103283473D01*
X137976187Y-103283854D01*
X137960983Y-103284489D01*
X137946018Y-103285378D01*
X137931291Y-103286521D01*
X137902551Y-103289569D01*
X137874765Y-103293634D01*
X137847931Y-103298714D01*
X137822051Y-103304810D01*
X137797124Y-103311923D01*
X137773150Y-103320052D01*
X137750129Y-103329197D01*
X137728061Y-103339358D01*
X137706947Y-103350534D01*
X137686785Y-103362728D01*
X137667577Y-103375937D01*
X137649322Y-103390162D01*
X137632020Y-103405403D01*
X137623726Y-103413405D01*
X137607888Y-103429886D01*
X137593072Y-103446904D01*
X137579277Y-103464461D01*
X137566504Y-103482556D01*
X137554754Y-103501189D01*
X137544025Y-103520360D01*
X137534317Y-103540070D01*
X137525632Y-103560317D01*
X137517968Y-103581102D01*
X137511327Y-103602426D01*
X137505707Y-103624288D01*
X137501108Y-103646687D01*
X137497532Y-103669625D01*
X137494978Y-103693101D01*
X137493445Y-103717115D01*
X137492934Y-103741667D01*
X137493217Y-103760415D01*
X137494067Y-103779288D01*
X137495484Y-103798288D01*
X137497468Y-103817413D01*
X137500018Y-103836664D01*
X137503135Y-103856042D01*
X137506819Y-103875545D01*
X137511069Y-103895174D01*
X137515886Y-103914929D01*
X137521270Y-103934810D01*
X137527220Y-103954817D01*
X137533738Y-103974950D01*
X137540822Y-103995209D01*
X137548472Y-104015593D01*
X137556690Y-104036104D01*
X137565474Y-104056741D01*
X137575538Y-104078761D01*
X137587685Y-104103515D01*
X137594540Y-104116917D01*
X137601916Y-104131002D01*
X137609813Y-104145771D01*
X137618230Y-104161223D01*
X137627169Y-104177359D01*
X137636629Y-104194177D01*
X137646609Y-104211679D01*
X137657111Y-104229865D01*
X137668133Y-104248734D01*
X137679677Y-104268286D01*
X137691741Y-104288521D01*
X137704326Y-104309440D01*
X137717432Y-104331043D01*
X137731059Y-104353328D01*
X137745207Y-104376297D01*
X137759876Y-104399950D01*
X137775066Y-104424285D01*
X137790777Y-104449304D01*
X137807008Y-104475007D01*
X137823761Y-104501392D01*
X137841034Y-104528461D01*
X137858829Y-104556214D01*
X137877144Y-104584650D01*
X137895980Y-104613769D01*
X137915338Y-104643571D01*
X137935216Y-104674057D01*
X137955615Y-104705226D01*
X137976535Y-104737079D01*
X137529937Y-104737079D01*
G37*
G36*
X136923180Y-103283619D02*
G01*
X136943983Y-103284439D01*
X136964396Y-103285806D01*
X136984420Y-103287719D01*
X137004055Y-103290179D01*
X137023301Y-103293186D01*
X137042157Y-103296739D01*
X137060624Y-103300840D01*
X137078702Y-103305486D01*
X137096390Y-103310680D01*
X137113690Y-103316420D01*
X137130600Y-103322707D01*
X137147120Y-103329540D01*
X137163252Y-103336921D01*
X137178994Y-103344848D01*
X137194347Y-103353321D01*
X137209148Y-103362248D01*
X137223324Y-103371536D01*
X137236877Y-103381185D01*
X137249805Y-103391194D01*
X137262110Y-103401564D01*
X137273791Y-103412294D01*
X137284848Y-103423386D01*
X137295280Y-103434837D01*
X137305089Y-103446650D01*
X137314274Y-103458823D01*
X137322835Y-103471356D01*
X137330772Y-103484251D01*
X137338085Y-103497506D01*
X137344774Y-103511121D01*
X137350839Y-103525097D01*
X137356280Y-103539434D01*
X137361204Y-103554392D01*
X137365811Y-103570232D01*
X137370100Y-103586953D01*
X137374072Y-103604556D01*
X137377725Y-103623040D01*
X137381061Y-103642406D01*
X137384079Y-103662653D01*
X137386780Y-103683782D01*
X137389163Y-103705792D01*
X137391228Y-103728684D01*
X137392975Y-103752458D01*
X137394405Y-103777113D01*
X137395517Y-103802650D01*
X137396311Y-103829068D01*
X137396788Y-103856368D01*
X137396946Y-103884549D01*
X137396946Y-104460108D01*
X137396848Y-104481722D01*
X137396551Y-104502600D01*
X137396058Y-104522743D01*
X137395367Y-104542150D01*
X137394478Y-104560822D01*
X137393392Y-104578758D01*
X137392108Y-104595959D01*
X137390627Y-104612424D01*
X137388948Y-104628153D01*
X137387072Y-104643147D01*
X137383887Y-104664258D01*
X137380258Y-104683714D01*
X137376185Y-104701516D01*
X137371667Y-104717662D01*
X137368370Y-104727847D01*
X137362909Y-104743023D01*
X137356830Y-104758076D01*
X137350132Y-104773007D01*
X137342816Y-104787816D01*
X137334882Y-104802503D01*
X137326330Y-104817067D01*
X137317159Y-104831508D01*
X137307370Y-104845828D01*
X137296963Y-104860025D01*
X137285938Y-104874099D01*
X137278177Y-104883243D01*
X137265940Y-104896383D01*
X137252988Y-104908835D01*
X137239321Y-104920598D01*
X137224940Y-104931671D01*
X137209843Y-104942056D01*
X137194032Y-104951751D01*
X137177506Y-104960758D01*
X137160265Y-104969075D01*
X137142309Y-104976703D01*
X137123639Y-104983642D01*
X137110760Y-104987857D01*
X137090718Y-104993669D01*
X137069806Y-104998869D01*
X137055382Y-105001996D01*
X137040571Y-105004851D01*
X137025374Y-105007434D01*
X137009791Y-105009746D01*
X136993821Y-105011785D01*
X136977465Y-105013552D01*
X136960723Y-105015048D01*
X136943594Y-105016272D01*
X136926078Y-105017223D01*
X136908176Y-105017903D01*
X136889888Y-105018311D01*
X136871214Y-105018447D01*
X136856828Y-105018317D01*
X136835572Y-105017633D01*
X136814702Y-105016363D01*
X136794219Y-105014507D01*
X136774121Y-105012065D01*
X136754411Y-105009038D01*
X136735087Y-105005424D01*
X136716149Y-105001224D01*
X136697597Y-104996438D01*
X136679432Y-104991066D01*
X136661653Y-104985108D01*
X136649991Y-104980727D01*
X136632901Y-104973528D01*
X136616293Y-104965576D01*
X136600168Y-104956870D01*
X136584527Y-104947411D01*
X136569368Y-104937198D01*
X136554692Y-104926232D01*
X136540499Y-104914512D01*
X136526790Y-104902039D01*
X136513563Y-104888812D01*
X136500819Y-104874832D01*
X136492619Y-104865218D01*
X136480995Y-104850636D01*
X136470182Y-104835860D01*
X136460181Y-104820891D01*
X136450991Y-104805729D01*
X136442613Y-104790374D01*
X136435046Y-104774826D01*
X136428290Y-104759085D01*
X136422346Y-104743150D01*
X136417213Y-104727022D01*
X136412892Y-104710701D01*
X136411585Y-104705130D01*
X136407912Y-104687231D01*
X136404612Y-104667554D01*
X136401686Y-104646101D01*
X136399943Y-104630811D01*
X136398366Y-104614731D01*
X136396955Y-104597861D01*
X136395710Y-104580201D01*
X136395457Y-104575879D01*
X136831280Y-104575879D01*
X136831330Y-104590863D01*
X136831593Y-104611996D01*
X136832081Y-104631520D01*
X136832795Y-104649434D01*
X136833734Y-104665738D01*
X136834899Y-104680432D01*
X136836802Y-104697520D01*
X136839745Y-104714854D01*
X136844103Y-104729752D01*
X136851934Y-104743216D01*
X136864576Y-104753764D01*
X136879219Y-104759054D01*
X136894661Y-104760526D01*
X136908284Y-104759625D01*
X136923522Y-104755618D01*
X136936670Y-104747278D01*
X136945586Y-104734881D01*
X136946307Y-104733138D01*
X136950154Y-104717768D01*
X136952260Y-104702842D01*
X136954001Y-104684171D01*
X136955065Y-104667712D01*
X136955924Y-104649146D01*
X136956577Y-104628475D01*
X136956897Y-104613524D01*
X136957126Y-104597637D01*
X136957264Y-104580815D01*
X136957309Y-104563056D01*
X136957309Y-103733241D01*
X136957259Y-103717502D01*
X136956996Y-103695320D01*
X136956508Y-103674852D01*
X136955794Y-103656096D01*
X136954855Y-103639054D01*
X136953690Y-103623725D01*
X136951787Y-103605950D01*
X136948844Y-103588015D01*
X136944487Y-103572773D01*
X136943638Y-103570835D01*
X136935068Y-103557543D01*
X136923339Y-103548189D01*
X136908449Y-103542774D01*
X136892829Y-103541266D01*
X136876886Y-103542669D01*
X136862014Y-103547706D01*
X136849552Y-103557752D01*
X136842271Y-103570575D01*
X136840307Y-103576985D01*
X136837462Y-103591733D01*
X136835573Y-103607189D01*
X136834028Y-103625896D01*
X136833094Y-103642061D01*
X136832353Y-103660054D01*
X136831806Y-103679876D01*
X136831452Y-103701528D01*
X136831323Y-103716978D01*
X136831280Y-103733241D01*
X136831280Y-104575879D01*
X136395457Y-104575879D01*
X136394631Y-104561751D01*
X136393718Y-104542511D01*
X136392971Y-104522481D01*
X136392390Y-104501661D01*
X136391975Y-104480052D01*
X136391726Y-104457652D01*
X136391643Y-104434462D01*
X136391643Y-103884549D01*
X136391662Y-103872856D01*
X136391814Y-103850064D01*
X136392117Y-103828065D01*
X136392572Y-103806859D01*
X136393179Y-103786446D01*
X136393937Y-103766825D01*
X136394848Y-103747997D01*
X136395909Y-103729963D01*
X136397123Y-103712721D01*
X136398488Y-103696271D01*
X136400005Y-103680615D01*
X136401674Y-103665752D01*
X136404461Y-103644943D01*
X136407590Y-103625918D01*
X136411060Y-103608677D01*
X136413629Y-103597799D01*
X136418014Y-103581735D01*
X136423036Y-103565973D01*
X136428695Y-103550514D01*
X136434993Y-103535357D01*
X136441927Y-103520503D01*
X136449500Y-103505952D01*
X136457710Y-103491703D01*
X136466557Y-103477758D01*
X136476042Y-103464115D01*
X136486165Y-103450774D01*
X136497024Y-103437713D01*
X136508855Y-103425044D01*
X136521659Y-103412768D01*
X136535435Y-103400886D01*
X136550184Y-103389396D01*
X136565905Y-103378298D01*
X136582598Y-103367594D01*
X136600264Y-103357283D01*
X136618903Y-103347364D01*
X136638514Y-103337838D01*
X136652128Y-103331706D01*
X136666027Y-103325850D01*
X136680155Y-103320371D01*
X136694512Y-103315271D01*
X136709098Y-103310548D01*
X136723912Y-103306203D01*
X136738956Y-103302236D01*
X136754229Y-103298647D01*
X136769731Y-103295436D01*
X136785462Y-103292602D01*
X136801421Y-103290146D01*
X136817610Y-103288068D01*
X136834028Y-103286368D01*
X136850674Y-103285046D01*
X136867550Y-103284101D01*
X136884655Y-103283535D01*
X136901988Y-103283346D01*
X136923180Y-103283619D01*
G37*
G36*
X135350802Y-104737079D02*
G01*
X135350802Y-104995000D01*
X136290160Y-104995000D01*
X136290160Y-104792400D01*
X136264954Y-104749098D01*
X136240397Y-104706844D01*
X136216491Y-104665638D01*
X136193234Y-104625481D01*
X136170627Y-104586372D01*
X136148669Y-104548311D01*
X136127361Y-104511299D01*
X136106703Y-104475335D01*
X136086695Y-104440419D01*
X136067336Y-104406551D01*
X136048627Y-104373732D01*
X136030568Y-104341961D01*
X136013159Y-104311238D01*
X135996399Y-104281564D01*
X135980289Y-104252938D01*
X135964829Y-104225360D01*
X135950018Y-104198830D01*
X135935857Y-104173349D01*
X135922346Y-104148916D01*
X135909485Y-104125531D01*
X135897273Y-104103195D01*
X135885711Y-104081907D01*
X135874799Y-104061667D01*
X135864536Y-104042475D01*
X135854924Y-104024332D01*
X135845960Y-104007237D01*
X135837647Y-103991190D01*
X135829984Y-103976192D01*
X135822970Y-103962242D01*
X135810891Y-103937487D01*
X135805826Y-103926681D01*
X135796599Y-103906364D01*
X135787966Y-103886627D01*
X135779929Y-103867472D01*
X135772487Y-103848898D01*
X135765641Y-103830904D01*
X135759390Y-103813492D01*
X135753734Y-103796661D01*
X135748674Y-103780410D01*
X135744209Y-103764741D01*
X135740339Y-103749653D01*
X135737064Y-103735146D01*
X135733269Y-103714474D01*
X135730813Y-103695110D01*
X135729697Y-103677054D01*
X135729623Y-103671325D01*
X135729943Y-103654953D01*
X135730905Y-103639726D01*
X135733009Y-103622303D01*
X135736114Y-103606668D01*
X135741163Y-103590267D01*
X135747655Y-103576443D01*
X135750139Y-103572407D01*
X135760097Y-103560273D01*
X135772018Y-103551119D01*
X135785903Y-103544946D01*
X135801751Y-103541753D01*
X135811688Y-103541266D01*
X135828533Y-103542896D01*
X135843485Y-103547788D01*
X135856543Y-103555940D01*
X135867708Y-103567352D01*
X135873237Y-103575338D01*
X135880210Y-103590644D01*
X135884918Y-103607472D01*
X135887964Y-103623600D01*
X135890368Y-103642099D01*
X135891750Y-103657528D01*
X135892772Y-103674290D01*
X135893433Y-103692386D01*
X135893734Y-103711814D01*
X135893754Y-103718586D01*
X135893754Y-103892976D01*
X136290160Y-103892976D01*
X136290160Y-103821901D01*
X136290103Y-103804859D01*
X136289931Y-103788264D01*
X136289645Y-103772116D01*
X136289244Y-103756413D01*
X136288729Y-103741158D01*
X136288099Y-103726349D01*
X136286940Y-103704972D01*
X136285523Y-103684600D01*
X136283849Y-103665233D01*
X136281917Y-103646871D01*
X136279727Y-103629513D01*
X136277280Y-103613159D01*
X136275505Y-103602815D01*
X136272309Y-103587653D01*
X136268353Y-103572530D01*
X136263637Y-103557445D01*
X136258160Y-103542400D01*
X136251924Y-103527392D01*
X136244928Y-103512423D01*
X136237172Y-103497493D01*
X136228657Y-103482602D01*
X136219381Y-103467749D01*
X136209345Y-103452935D01*
X136202233Y-103443080D01*
X136191004Y-103428584D01*
X136179165Y-103414770D01*
X136166713Y-103401639D01*
X136153649Y-103389191D01*
X136139974Y-103377425D01*
X136125687Y-103366341D01*
X136110788Y-103355941D01*
X136095277Y-103346223D01*
X136079155Y-103337188D01*
X136062420Y-103328835D01*
X136050924Y-103323646D01*
X136033092Y-103316444D01*
X136014628Y-103309950D01*
X135995534Y-103304165D01*
X135975808Y-103299088D01*
X135955451Y-103294719D01*
X135934463Y-103291059D01*
X135912844Y-103288108D01*
X135898081Y-103286533D01*
X135883037Y-103285274D01*
X135867713Y-103284330D01*
X135852108Y-103283700D01*
X135836223Y-103283385D01*
X135828175Y-103283346D01*
X135812494Y-103283473D01*
X135797052Y-103283854D01*
X135781849Y-103284489D01*
X135766883Y-103285378D01*
X135752156Y-103286521D01*
X135723416Y-103289569D01*
X135695630Y-103293634D01*
X135668797Y-103298714D01*
X135642916Y-103304810D01*
X135617989Y-103311923D01*
X135594015Y-103320052D01*
X135570994Y-103329197D01*
X135548927Y-103339358D01*
X135527812Y-103350534D01*
X135507651Y-103362728D01*
X135488442Y-103375937D01*
X135470187Y-103390162D01*
X135452885Y-103405403D01*
X135444591Y-103413405D01*
X135428753Y-103429886D01*
X135413937Y-103446904D01*
X135400142Y-103464461D01*
X135387370Y-103482556D01*
X135375619Y-103501189D01*
X135364890Y-103520360D01*
X135355183Y-103540070D01*
X135346497Y-103560317D01*
X135338834Y-103581102D01*
X135332192Y-103602426D01*
X135326572Y-103624288D01*
X135321974Y-103646687D01*
X135318397Y-103669625D01*
X135315843Y-103693101D01*
X135314310Y-103717115D01*
X135313799Y-103741667D01*
X135314083Y-103760415D01*
X135314933Y-103779288D01*
X135316349Y-103798288D01*
X135318333Y-103817413D01*
X135320883Y-103836664D01*
X135324000Y-103856042D01*
X135327684Y-103875545D01*
X135331934Y-103895174D01*
X135336751Y-103914929D01*
X135342135Y-103934810D01*
X135348086Y-103954817D01*
X135354603Y-103974950D01*
X135361687Y-103995209D01*
X135369338Y-104015593D01*
X135377555Y-104036104D01*
X135386339Y-104056741D01*
X135396403Y-104078761D01*
X135408550Y-104103515D01*
X135415405Y-104116917D01*
X135422781Y-104131002D01*
X135430678Y-104145771D01*
X135439096Y-104161223D01*
X135448035Y-104177359D01*
X135457494Y-104194177D01*
X135467475Y-104211679D01*
X135477976Y-104229865D01*
X135488999Y-104248734D01*
X135500542Y-104268286D01*
X135512606Y-104288521D01*
X135525191Y-104309440D01*
X135538298Y-104331043D01*
X135551925Y-104353328D01*
X135566073Y-104376297D01*
X135580741Y-104399950D01*
X135595931Y-104424285D01*
X135611642Y-104449304D01*
X135627874Y-104475007D01*
X135644626Y-104501392D01*
X135661900Y-104528461D01*
X135679694Y-104556214D01*
X135698009Y-104584650D01*
X135716846Y-104613769D01*
X135736203Y-104643571D01*
X135756081Y-104674057D01*
X135776480Y-104705226D01*
X135797400Y-104737079D01*
X135350802Y-104737079D01*
G37*
G36*
X134744046Y-103283619D02*
G01*
X134764848Y-103284439D01*
X134785262Y-103285806D01*
X134805286Y-103287719D01*
X134824920Y-103290179D01*
X134844166Y-103293186D01*
X134863022Y-103296739D01*
X134881489Y-103300840D01*
X134899567Y-103305486D01*
X134917256Y-103310680D01*
X134934555Y-103316420D01*
X134951465Y-103322707D01*
X134967986Y-103329540D01*
X134984117Y-103336921D01*
X134999859Y-103344848D01*
X135015212Y-103353321D01*
X135030013Y-103362248D01*
X135044189Y-103371536D01*
X135057742Y-103381185D01*
X135070671Y-103391194D01*
X135082975Y-103401564D01*
X135094656Y-103412294D01*
X135105713Y-103423386D01*
X135116146Y-103434837D01*
X135125955Y-103446650D01*
X135135139Y-103458823D01*
X135143700Y-103471356D01*
X135151637Y-103484251D01*
X135158950Y-103497506D01*
X135165639Y-103511121D01*
X135171704Y-103525097D01*
X135177145Y-103539434D01*
X135182070Y-103554392D01*
X135186677Y-103570232D01*
X135190966Y-103586953D01*
X135194937Y-103604556D01*
X135198591Y-103623040D01*
X135201926Y-103642406D01*
X135204945Y-103662653D01*
X135207645Y-103683782D01*
X135210028Y-103705792D01*
X135212093Y-103728684D01*
X135213840Y-103752458D01*
X135215270Y-103777113D01*
X135216382Y-103802650D01*
X135217176Y-103829068D01*
X135217653Y-103856368D01*
X135217812Y-103884549D01*
X135217812Y-104460108D01*
X135217713Y-104481722D01*
X135217417Y-104502600D01*
X135216923Y-104522743D01*
X135216232Y-104542150D01*
X135215343Y-104560822D01*
X135214257Y-104578758D01*
X135212973Y-104595959D01*
X135211492Y-104612424D01*
X135209813Y-104628153D01*
X135207937Y-104643147D01*
X135204753Y-104664258D01*
X135201124Y-104683714D01*
X135197050Y-104701516D01*
X135192533Y-104717662D01*
X135189235Y-104727847D01*
X135183774Y-104743023D01*
X135177695Y-104758076D01*
X135170997Y-104773007D01*
X135163681Y-104787816D01*
X135155747Y-104802503D01*
X135147195Y-104817067D01*
X135138025Y-104831508D01*
X135128236Y-104845828D01*
X135117829Y-104860025D01*
X135106803Y-104874099D01*
X135099042Y-104883243D01*
X135086805Y-104896383D01*
X135073854Y-104908835D01*
X135060187Y-104920598D01*
X135045805Y-104931671D01*
X135030709Y-104942056D01*
X135014897Y-104951751D01*
X134998371Y-104960758D01*
X134981130Y-104969075D01*
X134963175Y-104976703D01*
X134944504Y-104983642D01*
X134931625Y-104987857D01*
X134911583Y-104993669D01*
X134890671Y-104998869D01*
X134876247Y-105001996D01*
X134861437Y-105004851D01*
X134846240Y-105007434D01*
X134830656Y-105009746D01*
X134814687Y-105011785D01*
X134798330Y-105013552D01*
X134781588Y-105015048D01*
X134764459Y-105016272D01*
X134746944Y-105017223D01*
X134729042Y-105017903D01*
X134710754Y-105018311D01*
X134692079Y-105018447D01*
X134677694Y-105018317D01*
X134656437Y-105017633D01*
X134635567Y-105016363D01*
X134615084Y-105014507D01*
X134594987Y-105012065D01*
X134575276Y-105009038D01*
X134555952Y-105005424D01*
X134537014Y-105001224D01*
X134518462Y-104996438D01*
X134500297Y-104991066D01*
X134482519Y-104985108D01*
X134470857Y-104980727D01*
X134453766Y-104973528D01*
X134437158Y-104965576D01*
X134421034Y-104956870D01*
X134405392Y-104947411D01*
X134390233Y-104937198D01*
X134375557Y-104926232D01*
X134361365Y-104914512D01*
X134347655Y-104902039D01*
X134334428Y-104888812D01*
X134321685Y-104874832D01*
X134313485Y-104865218D01*
X134301860Y-104850636D01*
X134291048Y-104835860D01*
X134281046Y-104820891D01*
X134271856Y-104805729D01*
X134263478Y-104790374D01*
X134255911Y-104774826D01*
X134249155Y-104759085D01*
X134243211Y-104743150D01*
X134238079Y-104727022D01*
X134233757Y-104710701D01*
X134232450Y-104705130D01*
X134228777Y-104687231D01*
X134225478Y-104667554D01*
X134222552Y-104646101D01*
X134220809Y-104630811D01*
X134219232Y-104614731D01*
X134217821Y-104597861D01*
X134216575Y-104580201D01*
X134216322Y-104575879D01*
X134652145Y-104575879D01*
X134652195Y-104590863D01*
X134652458Y-104611996D01*
X134652947Y-104631520D01*
X134653661Y-104649434D01*
X134654600Y-104665738D01*
X134655764Y-104680432D01*
X134657668Y-104697520D01*
X134660610Y-104714854D01*
X134664968Y-104729752D01*
X134672799Y-104743216D01*
X134685441Y-104753764D01*
X134700084Y-104759054D01*
X134715526Y-104760526D01*
X134729149Y-104759625D01*
X134744388Y-104755618D01*
X134757535Y-104747278D01*
X134766451Y-104734881D01*
X134767172Y-104733138D01*
X134771019Y-104717768D01*
X134773126Y-104702842D01*
X134774866Y-104684171D01*
X134775931Y-104667712D01*
X134776789Y-104649146D01*
X134777442Y-104628475D01*
X134777762Y-104613524D01*
X134777991Y-104597637D01*
X134778129Y-104580815D01*
X134778175Y-104563056D01*
X134778175Y-103733241D01*
X134778125Y-103717502D01*
X134777862Y-103695320D01*
X134777373Y-103674852D01*
X134776659Y-103656096D01*
X134775720Y-103639054D01*
X134774556Y-103623725D01*
X134772652Y-103605950D01*
X134769710Y-103588015D01*
X134765352Y-103572773D01*
X134764503Y-103570835D01*
X134755933Y-103557543D01*
X134744204Y-103548189D01*
X134729315Y-103542774D01*
X134713695Y-103541266D01*
X134697751Y-103542669D01*
X134682879Y-103547706D01*
X134670418Y-103557752D01*
X134663136Y-103570575D01*
X134661172Y-103576985D01*
X134658328Y-103591733D01*
X134656439Y-103607189D01*
X134654893Y-103625896D01*
X134653959Y-103642061D01*
X134653219Y-103660054D01*
X134652671Y-103679876D01*
X134652317Y-103701528D01*
X134652188Y-103716978D01*
X134652145Y-103733241D01*
X134652145Y-104575879D01*
X134216322Y-104575879D01*
X134215496Y-104561751D01*
X134214583Y-104542511D01*
X134213836Y-104522481D01*
X134213255Y-104501661D01*
X134212840Y-104480052D01*
X134212591Y-104457652D01*
X134212508Y-104434462D01*
X134212508Y-103884549D01*
X134212527Y-103872856D01*
X134212679Y-103850064D01*
X134212982Y-103828065D01*
X134213437Y-103806859D01*
X134214044Y-103786446D01*
X134214803Y-103766825D01*
X134215713Y-103747997D01*
X134216775Y-103729963D01*
X134217988Y-103712721D01*
X134219354Y-103696271D01*
X134220871Y-103680615D01*
X134222539Y-103665752D01*
X134225327Y-103644943D01*
X134228455Y-103625918D01*
X134231926Y-103608677D01*
X134234494Y-103597799D01*
X134238879Y-103581735D01*
X134243901Y-103565973D01*
X134249561Y-103550514D01*
X134255858Y-103535357D01*
X134262793Y-103520503D01*
X134270365Y-103505952D01*
X134278575Y-103491703D01*
X134287423Y-103477758D01*
X134296908Y-103464115D01*
X134307030Y-103450774D01*
X134317889Y-103437713D01*
X134329720Y-103425044D01*
X134342524Y-103412768D01*
X134356300Y-103400886D01*
X134371049Y-103389396D01*
X134386770Y-103378298D01*
X134403464Y-103367594D01*
X134421130Y-103357283D01*
X134439768Y-103347364D01*
X134459379Y-103337838D01*
X134472993Y-103331706D01*
X134486892Y-103325850D01*
X134501020Y-103320371D01*
X134515377Y-103315271D01*
X134529963Y-103310548D01*
X134544778Y-103306203D01*
X134559822Y-103302236D01*
X134575094Y-103298647D01*
X134590596Y-103295436D01*
X134606327Y-103292602D01*
X134622287Y-103290146D01*
X134638475Y-103288068D01*
X134654893Y-103286368D01*
X134671540Y-103285046D01*
X134688415Y-103284101D01*
X134705520Y-103283535D01*
X134722854Y-103283346D01*
X134744046Y-103283619D01*
G37*
G36*
X133427023Y-103306793D02*
G01*
X133427023Y-104995000D01*
X133867027Y-104995000D01*
X133867027Y-104079455D01*
X133867061Y-104055800D01*
X133867164Y-104033379D01*
X133867336Y-104012192D01*
X133867576Y-103992238D01*
X133867885Y-103973517D01*
X133868263Y-103956030D01*
X133868710Y-103939777D01*
X133869225Y-103924758D01*
X133870127Y-103904542D01*
X133871183Y-103887101D01*
X133872393Y-103872436D01*
X133874248Y-103857201D01*
X133875819Y-103849012D01*
X133880908Y-103834003D01*
X133888802Y-103820712D01*
X133899501Y-103809139D01*
X133913005Y-103799284D01*
X133921981Y-103794424D01*
X133936314Y-103789041D01*
X133951438Y-103785392D01*
X133969813Y-103782326D01*
X133985729Y-103780410D01*
X134003473Y-103778823D01*
X134023046Y-103777564D01*
X134044449Y-103776633D01*
X134059733Y-103776195D01*
X134075830Y-103775903D01*
X134092740Y-103775757D01*
X134101500Y-103775739D01*
X134154256Y-103775739D01*
X134154256Y-103572773D01*
X134135214Y-103568565D01*
X134116465Y-103564092D01*
X134098008Y-103559355D01*
X134079844Y-103554352D01*
X134061973Y-103549085D01*
X134044394Y-103543553D01*
X134027108Y-103537756D01*
X134010115Y-103531695D01*
X133993414Y-103525369D01*
X133977006Y-103518778D01*
X133960891Y-103511922D01*
X133945068Y-103504801D01*
X133929538Y-103497416D01*
X133914301Y-103489766D01*
X133899356Y-103481851D01*
X133884704Y-103473672D01*
X133870344Y-103465228D01*
X133856278Y-103456519D01*
X133842504Y-103447545D01*
X133829022Y-103438306D01*
X133815833Y-103428803D01*
X133802937Y-103419035D01*
X133790334Y-103409002D01*
X133778023Y-103398705D01*
X133766005Y-103388142D01*
X133754280Y-103377315D01*
X133742847Y-103366223D01*
X133731707Y-103354867D01*
X133720859Y-103343245D01*
X133710304Y-103331359D01*
X133700042Y-103319209D01*
X133690073Y-103306793D01*
X133427023Y-103306793D01*
G37*
G36*
X132536758Y-103306793D02*
G01*
X132536758Y-103694773D01*
X132804937Y-104995000D01*
X133243108Y-104995000D01*
X132947452Y-103635055D01*
X133355582Y-103635055D01*
X133355582Y-103306793D01*
X132536758Y-103306793D01*
G37*
G36*
X148974438Y-94371566D02*
G01*
X148974438Y-95663513D01*
X148719448Y-95663513D01*
X148719448Y-96003500D01*
X149416420Y-96003500D01*
X149416420Y-94371566D01*
X148974438Y-94371566D01*
G37*
G36*
X148229076Y-94643806D02*
G01*
X148248941Y-94644557D01*
X148268354Y-94645809D01*
X148287316Y-94647562D01*
X148305828Y-94649815D01*
X148323888Y-94652570D01*
X148341497Y-94655825D01*
X148358656Y-94659581D01*
X148375363Y-94663837D01*
X148391620Y-94668595D01*
X148407425Y-94673853D01*
X148422779Y-94679612D01*
X148437683Y-94685872D01*
X148452135Y-94692633D01*
X148466137Y-94699895D01*
X148479687Y-94707657D01*
X148492756Y-94715833D01*
X148505313Y-94724335D01*
X148517359Y-94733164D01*
X148528892Y-94742320D01*
X148539914Y-94751801D01*
X148550424Y-94761610D01*
X148560421Y-94771745D01*
X148574459Y-94787559D01*
X148587344Y-94804108D01*
X148599078Y-94821392D01*
X148609660Y-94839410D01*
X148619090Y-94858163D01*
X148627369Y-94877650D01*
X148632301Y-94891152D01*
X148636914Y-94905274D01*
X148641210Y-94920015D01*
X148645187Y-94935377D01*
X148648846Y-94951358D01*
X148652187Y-94967959D01*
X148655210Y-94985179D01*
X148657914Y-95003020D01*
X148660301Y-95021480D01*
X148662369Y-95040560D01*
X148664119Y-95060260D01*
X148665551Y-95080579D01*
X148666664Y-95101518D01*
X148667460Y-95123077D01*
X148667937Y-95145256D01*
X148668096Y-95168055D01*
X148668096Y-95504499D01*
X148668009Y-95525247D01*
X148667748Y-95545348D01*
X148667312Y-95564802D01*
X148666702Y-95583608D01*
X148665917Y-95601766D01*
X148664959Y-95619278D01*
X148663826Y-95636141D01*
X148662518Y-95652358D01*
X148661037Y-95667927D01*
X148659381Y-95682848D01*
X148656570Y-95704016D01*
X148653367Y-95723728D01*
X148649772Y-95741982D01*
X148645785Y-95758780D01*
X148642832Y-95769355D01*
X148637958Y-95784865D01*
X148632548Y-95799951D01*
X148626603Y-95814613D01*
X148620122Y-95828853D01*
X148613106Y-95842669D01*
X148605555Y-95856062D01*
X148597468Y-95869031D01*
X148588846Y-95881577D01*
X148579689Y-95893700D01*
X148569996Y-95905399D01*
X148563192Y-95912893D01*
X148552375Y-95923683D01*
X148540823Y-95933931D01*
X148528536Y-95943637D01*
X148515515Y-95952802D01*
X148501759Y-95961425D01*
X148487268Y-95969506D01*
X148472043Y-95977046D01*
X148456084Y-95984045D01*
X148439389Y-95990501D01*
X148421960Y-95996416D01*
X148409939Y-96000019D01*
X148391315Y-96004987D01*
X148371981Y-96009432D01*
X148351937Y-96013354D01*
X148331184Y-96016753D01*
X148316954Y-96018728D01*
X148302409Y-96020471D01*
X148287549Y-96021982D01*
X148272373Y-96023260D01*
X148256881Y-96024306D01*
X148241074Y-96025119D01*
X148224952Y-96025700D01*
X148208515Y-96026049D01*
X148191762Y-96026165D01*
X148184174Y-96026131D01*
X148169162Y-96025857D01*
X148154365Y-96025309D01*
X148139783Y-96024488D01*
X148125418Y-96023392D01*
X148111269Y-96022022D01*
X148090449Y-96019454D01*
X148070115Y-96016270D01*
X148050267Y-96012470D01*
X148030904Y-96008053D01*
X148012027Y-96003019D01*
X147993635Y-95997370D01*
X147975729Y-95991104D01*
X147964042Y-95986569D01*
X147947009Y-95979197D01*
X147930574Y-95971139D01*
X147914737Y-95962396D01*
X147899497Y-95952969D01*
X147884856Y-95942857D01*
X147870811Y-95932060D01*
X147857364Y-95920579D01*
X147844515Y-95908412D01*
X147832264Y-95895561D01*
X147820610Y-95882025D01*
X147813163Y-95872733D01*
X147802621Y-95858644D01*
X147792831Y-95844375D01*
X147783795Y-95829924D01*
X147775512Y-95815294D01*
X147767983Y-95800483D01*
X147761207Y-95785491D01*
X147755184Y-95770319D01*
X147749914Y-95754966D01*
X147745397Y-95739433D01*
X147741634Y-95723719D01*
X147740501Y-95718338D01*
X147737318Y-95701098D01*
X147734458Y-95682214D01*
X147731923Y-95661687D01*
X147730719Y-95650056D01*
X148148201Y-95650056D01*
X148148238Y-95660261D01*
X148148434Y-95674661D01*
X148148957Y-95692167D01*
X148149779Y-95707736D01*
X148151226Y-95724473D01*
X148153580Y-95740564D01*
X148157763Y-95755239D01*
X148158379Y-95756568D01*
X148167574Y-95768403D01*
X148181205Y-95775133D01*
X148195657Y-95776842D01*
X148197345Y-95776819D01*
X148212396Y-95774038D01*
X148225118Y-95765627D01*
X148233197Y-95753114D01*
X148235521Y-95746031D01*
X148238427Y-95731422D01*
X148240315Y-95715596D01*
X148241477Y-95700544D01*
X148242329Y-95683368D01*
X148242765Y-95669091D01*
X148243026Y-95653619D01*
X148243114Y-95636952D01*
X148243114Y-95036664D01*
X148243075Y-95024528D01*
X148242872Y-95007459D01*
X148242494Y-94991753D01*
X148241942Y-94977411D01*
X148240935Y-94960409D01*
X148239618Y-94945831D01*
X148237536Y-94931016D01*
X148233197Y-94915190D01*
X148232538Y-94913817D01*
X148222955Y-94901594D01*
X148209103Y-94894643D01*
X148194595Y-94892878D01*
X148192843Y-94892900D01*
X148178789Y-94895023D01*
X148165797Y-94902335D01*
X148157409Y-94914836D01*
X148155251Y-94921543D01*
X148152553Y-94936168D01*
X148150800Y-94952541D01*
X148149720Y-94968378D01*
X148148929Y-94986650D01*
X148148525Y-95001952D01*
X148148282Y-95018623D01*
X148148201Y-95036664D01*
X148148201Y-95650056D01*
X147730719Y-95650056D01*
X147730412Y-95647090D01*
X147729045Y-95631762D01*
X147727822Y-95615703D01*
X147726743Y-95598914D01*
X147725808Y-95581394D01*
X147725017Y-95563145D01*
X147724369Y-95544164D01*
X147723866Y-95524453D01*
X147723506Y-95504012D01*
X147723290Y-95482841D01*
X147723218Y-95460938D01*
X147723218Y-95139368D01*
X147723238Y-95130650D01*
X147723396Y-95113626D01*
X147723711Y-95097152D01*
X147724184Y-95081229D01*
X147724815Y-95065856D01*
X147725604Y-95051035D01*
X147727082Y-95029834D01*
X147728915Y-95009873D01*
X147731104Y-94991150D01*
X147733647Y-94973666D01*
X147736545Y-94957421D01*
X147739797Y-94942415D01*
X147743405Y-94928648D01*
X147747429Y-94915471D01*
X147753742Y-94898018D01*
X147761141Y-94880698D01*
X147767402Y-94867794D01*
X147774272Y-94854966D01*
X147781753Y-94842213D01*
X147789844Y-94829534D01*
X147798545Y-94816929D01*
X147807856Y-94804400D01*
X147817777Y-94791945D01*
X147824727Y-94783723D01*
X147835817Y-94771770D01*
X147847703Y-94760271D01*
X147860386Y-94749226D01*
X147873866Y-94738635D01*
X147888142Y-94728500D01*
X147903216Y-94718818D01*
X147919087Y-94709591D01*
X147935754Y-94700819D01*
X147953218Y-94692501D01*
X147971479Y-94684637D01*
X147984068Y-94679662D01*
X148003512Y-94672802D01*
X148023628Y-94666664D01*
X148037412Y-94662973D01*
X148051495Y-94659603D01*
X148065877Y-94656554D01*
X148080558Y-94653826D01*
X148095537Y-94651419D01*
X148110816Y-94649332D01*
X148126393Y-94647567D01*
X148142269Y-94646123D01*
X148158444Y-94645000D01*
X148174917Y-94644197D01*
X148191690Y-94643716D01*
X148208761Y-94643555D01*
X148229076Y-94643806D01*
G37*
G36*
X147607411Y-96003500D02*
G01*
X147165429Y-96003500D01*
X147165429Y-95278196D01*
X147148883Y-95278616D01*
X147133953Y-95279878D01*
X147117563Y-95282638D01*
X147101228Y-95287685D01*
X147088529Y-95294624D01*
X147078307Y-95305112D01*
X147075143Y-95311027D01*
X147070560Y-95324745D01*
X147067517Y-95339193D01*
X147065027Y-95356729D01*
X147063522Y-95371908D01*
X147062329Y-95388823D01*
X147061447Y-95407475D01*
X147060876Y-95427864D01*
X147060669Y-95442422D01*
X147060600Y-95457751D01*
X147060600Y-96003500D01*
X146648367Y-96003500D01*
X146648367Y-95568247D01*
X146648409Y-95544312D01*
X146648538Y-95521559D01*
X146648753Y-95499988D01*
X146649053Y-95479598D01*
X146649439Y-95460389D01*
X146649910Y-95442362D01*
X146650468Y-95425516D01*
X146651111Y-95409852D01*
X146651840Y-95395369D01*
X146653095Y-95375860D01*
X146654542Y-95359009D01*
X146656182Y-95344816D01*
X146659345Y-95327069D01*
X146660065Y-95324227D01*
X146664658Y-95309771D01*
X146670911Y-95294899D01*
X146678824Y-95279613D01*
X146686349Y-95267084D01*
X146694938Y-95254291D01*
X146704588Y-95241231D01*
X146715301Y-95227906D01*
X146721215Y-95221265D01*
X146735061Y-95208770D01*
X146747209Y-95200088D01*
X146760871Y-95191999D01*
X146776045Y-95184500D01*
X146792732Y-95177593D01*
X146810932Y-95171278D01*
X146830644Y-95165553D01*
X146844626Y-95162066D01*
X146859281Y-95158841D01*
X146874608Y-95155879D01*
X146890607Y-95153180D01*
X146881734Y-95152961D01*
X146864541Y-95152140D01*
X146848084Y-95150806D01*
X146832363Y-95148961D01*
X146817378Y-95146603D01*
X146803129Y-95143734D01*
X146783135Y-95138470D01*
X146764798Y-95132055D01*
X146748116Y-95124488D01*
X146733090Y-95115770D01*
X146719720Y-95105900D01*
X146708006Y-95094878D01*
X146697948Y-95082704D01*
X146694897Y-95078312D01*
X146686327Y-95063690D01*
X146678629Y-95046903D01*
X146671801Y-95027949D01*
X146667734Y-95014109D01*
X146664054Y-94999307D01*
X146660762Y-94983541D01*
X146657857Y-94966813D01*
X146655339Y-94949122D01*
X146653208Y-94930468D01*
X146651465Y-94910852D01*
X146650110Y-94890272D01*
X146649224Y-94870567D01*
X147060600Y-94870567D01*
X147060695Y-94882941D01*
X147061196Y-94900263D01*
X147062127Y-94916098D01*
X147063487Y-94930444D01*
X147065969Y-94947258D01*
X147070145Y-94964555D01*
X147075514Y-94977720D01*
X147085036Y-94989208D01*
X147089895Y-94992246D01*
X147103387Y-94998172D01*
X147117353Y-95001957D01*
X147133534Y-95004547D01*
X147148712Y-95005792D01*
X147165429Y-95006207D01*
X147165429Y-94666221D01*
X147158431Y-94666304D01*
X147142076Y-94667238D01*
X147127346Y-94669209D01*
X147111816Y-94672944D01*
X147096656Y-94679191D01*
X147084682Y-94687470D01*
X147081766Y-94690284D01*
X147073041Y-94703314D01*
X147067396Y-94718420D01*
X147063986Y-94733787D01*
X147062105Y-94747897D01*
X147060976Y-94763624D01*
X147060600Y-94780966D01*
X147060600Y-94870567D01*
X146649224Y-94870567D01*
X146649141Y-94868730D01*
X146648560Y-94846224D01*
X146648367Y-94822756D01*
X146648635Y-94796988D01*
X146649440Y-94772096D01*
X146650782Y-94748081D01*
X146652661Y-94724944D01*
X146655076Y-94702684D01*
X146658028Y-94681300D01*
X146661517Y-94660794D01*
X146665543Y-94641165D01*
X146670105Y-94622413D01*
X146675205Y-94604538D01*
X146680841Y-94587540D01*
X146687013Y-94571419D01*
X146693723Y-94556175D01*
X146700969Y-94541809D01*
X146708752Y-94528319D01*
X146717072Y-94515706D01*
X146721383Y-94509692D01*
X146730237Y-94498096D01*
X146739400Y-94487079D01*
X146753727Y-94471637D01*
X146768751Y-94457496D01*
X146784472Y-94444656D01*
X146800890Y-94433117D01*
X146818005Y-94422880D01*
X146835818Y-94413943D01*
X146854328Y-94406308D01*
X146873535Y-94399974D01*
X146893440Y-94394941D01*
X146907683Y-94392110D01*
X146923410Y-94389462D01*
X146940620Y-94386997D01*
X146959312Y-94384714D01*
X146979488Y-94382614D01*
X147001146Y-94380697D01*
X147024288Y-94378962D01*
X147048913Y-94377410D01*
X147075020Y-94376040D01*
X147102611Y-94374853D01*
X147116962Y-94374328D01*
X147131685Y-94373849D01*
X147146778Y-94373415D01*
X147162241Y-94373027D01*
X147178076Y-94372685D01*
X147194281Y-94372388D01*
X147210857Y-94372137D01*
X147227804Y-94371932D01*
X147245121Y-94371772D01*
X147262809Y-94371658D01*
X147280868Y-94371589D01*
X147299298Y-94371566D01*
X147607411Y-94371566D01*
X147607411Y-96003500D01*
G37*
G36*
X146100997Y-94643804D02*
G01*
X146121897Y-94644551D01*
X146142300Y-94645796D01*
X146162204Y-94647540D01*
X146181611Y-94649781D01*
X146200519Y-94652520D01*
X146218929Y-94655757D01*
X146236842Y-94659492D01*
X146254256Y-94663725D01*
X146271172Y-94668457D01*
X146287591Y-94673686D01*
X146303511Y-94679413D01*
X146318933Y-94685639D01*
X146333857Y-94692362D01*
X146348284Y-94699583D01*
X146362212Y-94707303D01*
X146375607Y-94715349D01*
X146388436Y-94723549D01*
X146400697Y-94731905D01*
X146412391Y-94740416D01*
X146428868Y-94753473D01*
X146444069Y-94766878D01*
X146457994Y-94780632D01*
X146470643Y-94794734D01*
X146482016Y-94809185D01*
X146492112Y-94823985D01*
X146500932Y-94839133D01*
X146508476Y-94854630D01*
X146512894Y-94865343D01*
X146518985Y-94882409D01*
X146524435Y-94900670D01*
X146529245Y-94920126D01*
X146533412Y-94940778D01*
X146535835Y-94955209D01*
X146537972Y-94970172D01*
X146539824Y-94985666D01*
X146541392Y-95001692D01*
X146542674Y-95018248D01*
X146543672Y-95035336D01*
X146544384Y-95052955D01*
X146544812Y-95071105D01*
X146544954Y-95089787D01*
X146544954Y-95187533D01*
X146144762Y-95187533D01*
X146144762Y-95040914D01*
X146144730Y-95028051D01*
X146144563Y-95009991D01*
X146144253Y-94993413D01*
X146143800Y-94978317D01*
X146142972Y-94960493D01*
X146141891Y-94945303D01*
X146140180Y-94930020D01*
X146136617Y-94914128D01*
X146134868Y-94910330D01*
X146124677Y-94899602D01*
X146110255Y-94894206D01*
X146095181Y-94892878D01*
X146088253Y-94893288D01*
X146074445Y-94897204D01*
X146061994Y-94906417D01*
X146053391Y-94919086D01*
X146050237Y-94926755D01*
X146046294Y-94942451D01*
X146043731Y-94959374D01*
X146042154Y-94975427D01*
X146040998Y-94993716D01*
X146040406Y-95008899D01*
X146040051Y-95025340D01*
X146039933Y-95043039D01*
X146039945Y-95047834D01*
X146040236Y-95065971D01*
X146040914Y-95082436D01*
X146041979Y-95097230D01*
X146043855Y-95113373D01*
X146046906Y-95129297D01*
X146052329Y-95144681D01*
X146063364Y-95155434D01*
X146077818Y-95164664D01*
X146092384Y-95172669D01*
X146110144Y-95181601D01*
X146123758Y-95188071D01*
X146138791Y-95194954D01*
X146155244Y-95202248D01*
X146173117Y-95209955D01*
X146192408Y-95218074D01*
X146213119Y-95226606D01*
X146235249Y-95235550D01*
X146258799Y-95244906D01*
X146281764Y-95253963D01*
X146303644Y-95262895D01*
X146324439Y-95271704D01*
X146344150Y-95280387D01*
X146362776Y-95288946D01*
X146380318Y-95297381D01*
X146396775Y-95305691D01*
X146412147Y-95313877D01*
X146426435Y-95321938D01*
X146439638Y-95329874D01*
X146457409Y-95341546D01*
X146472740Y-95352937D01*
X146485631Y-95364048D01*
X146496081Y-95374879D01*
X146504815Y-95386354D01*
X146512690Y-95399528D01*
X146519706Y-95414401D01*
X146525863Y-95430974D01*
X146531161Y-95449246D01*
X146535600Y-95469218D01*
X146538081Y-95483477D01*
X146540181Y-95498491D01*
X146541900Y-95514260D01*
X146543236Y-95530785D01*
X146544191Y-95548065D01*
X146544763Y-95566101D01*
X146544954Y-95584892D01*
X146544954Y-95694325D01*
X146544864Y-95707132D01*
X146544145Y-95731898D01*
X146542706Y-95755532D01*
X146540548Y-95778034D01*
X146537671Y-95799405D01*
X146534074Y-95819644D01*
X146529757Y-95838752D01*
X146524722Y-95856728D01*
X146518967Y-95873572D01*
X146512493Y-95889285D01*
X146505299Y-95903866D01*
X146497386Y-95917316D01*
X146488753Y-95929634D01*
X146479401Y-95940820D01*
X146469330Y-95950874D01*
X146452875Y-95963834D01*
X146441298Y-95971382D01*
X146423685Y-95981791D01*
X146405772Y-95991104D01*
X146387561Y-95999322D01*
X146369051Y-96006443D01*
X146350242Y-96012470D01*
X146331135Y-96017400D01*
X146311728Y-96021235D01*
X146292023Y-96023974D01*
X146272019Y-96025617D01*
X146251716Y-96026165D01*
X146236181Y-96025838D01*
X146221050Y-96024858D01*
X146206324Y-96023224D01*
X146192003Y-96020936D01*
X146173537Y-96016869D01*
X146155791Y-96011639D01*
X146138764Y-96005248D01*
X146122456Y-95997695D01*
X146106868Y-95988979D01*
X146099425Y-95984348D01*
X146085569Y-95975184D01*
X146073085Y-95966153D01*
X146059410Y-95955051D01*
X146047879Y-95944157D01*
X146036873Y-95931358D01*
X146028954Y-95918857D01*
X146028954Y-96003500D01*
X145614951Y-96003500D01*
X145614951Y-95380192D01*
X146039933Y-95380192D01*
X146039933Y-95637306D01*
X146039971Y-95649520D01*
X146040167Y-95666664D01*
X146040531Y-95682394D01*
X146041063Y-95696711D01*
X146042034Y-95713603D01*
X146043304Y-95727982D01*
X146045312Y-95742423D01*
X146049495Y-95757364D01*
X146050731Y-95759722D01*
X146060542Y-95769975D01*
X146073892Y-95775301D01*
X146089515Y-95776842D01*
X146099084Y-95776202D01*
X146113782Y-95771826D01*
X146125231Y-95763303D01*
X146133429Y-95750635D01*
X146137845Y-95735354D01*
X146140335Y-95719956D01*
X146141929Y-95704949D01*
X146143169Y-95687552D01*
X146143866Y-95672934D01*
X146144364Y-95656973D01*
X146144663Y-95639666D01*
X146144762Y-95621015D01*
X146144706Y-95609897D01*
X146144408Y-95593857D01*
X146143855Y-95578583D01*
X146143046Y-95564075D01*
X146141572Y-95545922D01*
X146139643Y-95529130D01*
X146137261Y-95513700D01*
X146134425Y-95499631D01*
X146130242Y-95483958D01*
X146126981Y-95475103D01*
X146119153Y-95459942D01*
X146110736Y-95447453D01*
X146100405Y-95434643D01*
X146088159Y-95421511D01*
X146077718Y-95411452D01*
X146066200Y-95401213D01*
X146053605Y-95390792D01*
X146039933Y-95380192D01*
X145614951Y-95380192D01*
X145614951Y-95333090D01*
X145614972Y-95312874D01*
X145615035Y-95293087D01*
X145615141Y-95273729D01*
X145615288Y-95254800D01*
X145615478Y-95236299D01*
X145615710Y-95218228D01*
X145615984Y-95200585D01*
X145616301Y-95183372D01*
X145616660Y-95166587D01*
X145617060Y-95150231D01*
X145617503Y-95134304D01*
X145617989Y-95118805D01*
X145618516Y-95103736D01*
X145619086Y-95089095D01*
X145620351Y-95061101D01*
X145621786Y-95034821D01*
X145623389Y-95010258D01*
X145625162Y-94987409D01*
X145627102Y-94966276D01*
X145629212Y-94946859D01*
X145631491Y-94929157D01*
X145633938Y-94913170D01*
X145636554Y-94898899D01*
X145641291Y-94879071D01*
X145647535Y-94859829D01*
X145655286Y-94841172D01*
X145664543Y-94823099D01*
X145675307Y-94805612D01*
X145687577Y-94788711D01*
X145696594Y-94777768D01*
X145706280Y-94767085D01*
X145716637Y-94756663D01*
X145727662Y-94746500D01*
X145739358Y-94736598D01*
X145751723Y-94726955D01*
X145764757Y-94717573D01*
X145778521Y-94708610D01*
X145793073Y-94700225D01*
X145808413Y-94692419D01*
X145824542Y-94685190D01*
X145841460Y-94678540D01*
X145859166Y-94672469D01*
X145877661Y-94666975D01*
X145896944Y-94662060D01*
X145917016Y-94657723D01*
X145937877Y-94653964D01*
X145959525Y-94650784D01*
X145981963Y-94648181D01*
X146005189Y-94646158D01*
X146029204Y-94644712D01*
X146054007Y-94643844D01*
X146079598Y-94643555D01*
X146100997Y-94643804D01*
G37*
G36*
X145588035Y-96139494D02*
G01*
X144414729Y-96139494D01*
X144414729Y-96252823D01*
X145588035Y-96252823D01*
X145588035Y-96139494D01*
G37*
G36*
X143055139Y-94371566D02*
G01*
X143055139Y-96003500D01*
X143444352Y-96003500D01*
X143433019Y-94905628D01*
X143569722Y-96003500D01*
X143849502Y-96003500D01*
X143993996Y-94928294D01*
X143982663Y-96003500D01*
X144371877Y-96003500D01*
X144371877Y-94371566D01*
X143808066Y-94371566D01*
X143804831Y-94390736D01*
X143801587Y-94410263D01*
X143798334Y-94430147D01*
X143795074Y-94450387D01*
X143791805Y-94470985D01*
X143788527Y-94491939D01*
X143785242Y-94513251D01*
X143781948Y-94534919D01*
X143778646Y-94556944D01*
X143775335Y-94579327D01*
X143772016Y-94602066D01*
X143768689Y-94625162D01*
X143765354Y-94648614D01*
X143762010Y-94672424D01*
X143758658Y-94696591D01*
X143755298Y-94721115D01*
X143708904Y-95134410D01*
X143623199Y-94371566D01*
X143055139Y-94371566D01*
G37*
G36*
X141984891Y-94666221D02*
G01*
X141984891Y-96003500D01*
X142417665Y-96003500D01*
X142412707Y-95924524D01*
X142421580Y-95936468D01*
X142433591Y-95948661D01*
X142445997Y-95959013D01*
X142457490Y-95967418D01*
X142470378Y-95975934D01*
X142484660Y-95984561D01*
X142496287Y-95991104D01*
X142512517Y-95999322D01*
X142529334Y-96006443D01*
X142546737Y-96012470D01*
X142564727Y-96017400D01*
X142578604Y-96020379D01*
X142592811Y-96022741D01*
X142607349Y-96024488D01*
X142622216Y-96025617D01*
X142637413Y-96026131D01*
X142642552Y-96026165D01*
X142659812Y-96025876D01*
X142676530Y-96025007D01*
X142692706Y-96023560D01*
X142708341Y-96021534D01*
X142723434Y-96018928D01*
X142737986Y-96015744D01*
X142751996Y-96011981D01*
X142769834Y-96006063D01*
X142786709Y-95999115D01*
X142798733Y-95993229D01*
X142813807Y-95984569D01*
X142827862Y-95975234D01*
X142840899Y-95965223D01*
X142852918Y-95954538D01*
X142863919Y-95943177D01*
X142873902Y-95931142D01*
X142882866Y-95918431D01*
X142890812Y-95905045D01*
X142897896Y-95891266D01*
X142904270Y-95877377D01*
X142909937Y-95863377D01*
X142914895Y-95849266D01*
X142919145Y-95835045D01*
X142922686Y-95820713D01*
X142925519Y-95806270D01*
X142927644Y-95791717D01*
X142929304Y-95775365D01*
X142930404Y-95760813D01*
X142931379Y-95744300D01*
X142932230Y-95725827D01*
X142932957Y-95705392D01*
X142933372Y-95690679D01*
X142933731Y-95675095D01*
X142934036Y-95658640D01*
X142934285Y-95641313D01*
X142934478Y-95623114D01*
X142934617Y-95604044D01*
X142934700Y-95584102D01*
X142934727Y-95563288D01*
X142934727Y-94666221D01*
X142509745Y-94666221D01*
X142509745Y-95576038D01*
X142509714Y-95594616D01*
X142509623Y-95612189D01*
X142509471Y-95628758D01*
X142509258Y-95644323D01*
X142508984Y-95658883D01*
X142508459Y-95678841D01*
X142507797Y-95696538D01*
X142506998Y-95711976D01*
X142505720Y-95729044D01*
X142503780Y-95744731D01*
X142501953Y-95752760D01*
X142494525Y-95765459D01*
X142481977Y-95773456D01*
X142466308Y-95776630D01*
X142460163Y-95776842D01*
X142445749Y-95775656D01*
X142431300Y-95770644D01*
X142420634Y-95760476D01*
X142416957Y-95752051D01*
X142414550Y-95737854D01*
X142413222Y-95723090D01*
X142412115Y-95704087D01*
X142411430Y-95687054D01*
X142410870Y-95667636D01*
X142410566Y-95653366D01*
X142410317Y-95638037D01*
X142410123Y-95621647D01*
X142409985Y-95604199D01*
X142409902Y-95585690D01*
X142409874Y-95566122D01*
X142409874Y-94666221D01*
X141984891Y-94666221D01*
G37*
G36*
X141857397Y-96003500D02*
G01*
X141415415Y-96003500D01*
X141415415Y-95346193D01*
X141314127Y-95346193D01*
X141305435Y-95346155D01*
X141288352Y-95345854D01*
X141271674Y-95345251D01*
X141255400Y-95344346D01*
X141239529Y-95343140D01*
X141224063Y-95341632D01*
X141209000Y-95339822D01*
X141194341Y-95337711D01*
X141180087Y-95335298D01*
X141159462Y-95331114D01*
X141139747Y-95326251D01*
X141120940Y-95320709D01*
X141103042Y-95314489D01*
X141086053Y-95307591D01*
X141075245Y-95302588D01*
X141059836Y-95294587D01*
X141045392Y-95285987D01*
X141031913Y-95276790D01*
X141019399Y-95266996D01*
X141007850Y-95256604D01*
X140997266Y-95245614D01*
X140987647Y-95234027D01*
X140978993Y-95221841D01*
X140971303Y-95209059D01*
X140964579Y-95195678D01*
X140962531Y-95191039D01*
X140956777Y-95176156D01*
X140951608Y-95159829D01*
X140947024Y-95142058D01*
X140943025Y-95122842D01*
X140939611Y-95102182D01*
X140937661Y-95087607D01*
X140935970Y-95072389D01*
X140934540Y-95056530D01*
X140933369Y-95040029D01*
X140932459Y-95022885D01*
X140931809Y-95005100D01*
X140931419Y-94986673D01*
X140931289Y-94967605D01*
X140931289Y-94917669D01*
X141304565Y-94917669D01*
X141304736Y-94933074D01*
X141305250Y-94947414D01*
X141306467Y-94964878D01*
X141308293Y-94980449D01*
X141311432Y-94997253D01*
X141316454Y-95013513D01*
X141324043Y-95027102D01*
X141335841Y-95037793D01*
X141349541Y-95044642D01*
X141363793Y-95048651D01*
X141380361Y-95050942D01*
X141395936Y-95051539D01*
X141401105Y-95051522D01*
X141415415Y-95051184D01*
X141415415Y-94666221D01*
X141399627Y-94666559D01*
X141385201Y-94667571D01*
X141369083Y-94669786D01*
X141352548Y-94673837D01*
X141339077Y-94679407D01*
X141327231Y-94687824D01*
X141324486Y-94690699D01*
X141316274Y-94704203D01*
X141310962Y-94720040D01*
X141307752Y-94736244D01*
X141305982Y-94751173D01*
X141304919Y-94767852D01*
X141304565Y-94786279D01*
X141304565Y-94917669D01*
X140931289Y-94917669D01*
X140931289Y-94828777D01*
X140931355Y-94810221D01*
X140931554Y-94792272D01*
X140931886Y-94774928D01*
X140932351Y-94758190D01*
X140932949Y-94742058D01*
X140933679Y-94726532D01*
X140934543Y-94711612D01*
X140936086Y-94690368D01*
X140937929Y-94670487D01*
X140940071Y-94651970D01*
X140942511Y-94634816D01*
X140945250Y-94619026D01*
X140948288Y-94604599D01*
X140953030Y-94586598D01*
X140958758Y-94569250D01*
X140965470Y-94552555D01*
X140973167Y-94536513D01*
X140981850Y-94521124D01*
X140991517Y-94506388D01*
X141002169Y-94492305D01*
X141013806Y-94478875D01*
X141026572Y-94466081D01*
X141040788Y-94454084D01*
X141052402Y-94445609D01*
X141064830Y-94437583D01*
X141078075Y-94430004D01*
X141092135Y-94422874D01*
X141107010Y-94416192D01*
X141122701Y-94409959D01*
X141139208Y-94404173D01*
X141156530Y-94398836D01*
X141174884Y-94393963D01*
X141194620Y-94389569D01*
X141208546Y-94386906D01*
X141223085Y-94384456D01*
X141238239Y-94382219D01*
X141254007Y-94380195D01*
X141270389Y-94378384D01*
X141287386Y-94376786D01*
X141304997Y-94375401D01*
X141323222Y-94374230D01*
X141342061Y-94373271D01*
X141361514Y-94372525D01*
X141381582Y-94371993D01*
X141402264Y-94371673D01*
X141423560Y-94371566D01*
X141857397Y-94371566D01*
X141857397Y-96003500D01*
G37*
G36*
X140424497Y-94666221D02*
G01*
X140452829Y-94867025D01*
X140442455Y-94841373D01*
X140431254Y-94817272D01*
X140419225Y-94794724D01*
X140406369Y-94773728D01*
X140392686Y-94754285D01*
X140378175Y-94736393D01*
X140362837Y-94720054D01*
X140346672Y-94705266D01*
X140329680Y-94692031D01*
X140311860Y-94680348D01*
X140293213Y-94670218D01*
X140273739Y-94661639D01*
X140253437Y-94654613D01*
X140232309Y-94649139D01*
X140210353Y-94645217D01*
X140187569Y-94642847D01*
X140187569Y-95142202D01*
X140202168Y-95142308D01*
X140223035Y-95142867D01*
X140242662Y-95143906D01*
X140261051Y-95145424D01*
X140278200Y-95147421D01*
X140294111Y-95149898D01*
X140308783Y-95152854D01*
X140326419Y-95157541D01*
X140341852Y-95163080D01*
X140355083Y-95169471D01*
X140369235Y-95178529D01*
X140381589Y-95188659D01*
X140392145Y-95199861D01*
X140400902Y-95212136D01*
X140407860Y-95225482D01*
X140413020Y-95239900D01*
X140414581Y-95245968D01*
X140417154Y-95260339D01*
X140419384Y-95279015D01*
X140420831Y-95295847D01*
X140422086Y-95315101D01*
X140422815Y-95329282D01*
X140423458Y-95344540D01*
X140424016Y-95360874D01*
X140424487Y-95378284D01*
X140424873Y-95396771D01*
X140425174Y-95416333D01*
X140425388Y-95436972D01*
X140425517Y-95458688D01*
X140425560Y-95481479D01*
X140425560Y-96003500D01*
X140850542Y-96003500D01*
X140850542Y-94666221D01*
X140424497Y-94666221D01*
G37*
G36*
X140207756Y-96139494D02*
G01*
X139034450Y-96139494D01*
X139034450Y-96252823D01*
X140207756Y-96252823D01*
X140207756Y-96139494D01*
G37*
G36*
X137970931Y-94371566D02*
G01*
X138187318Y-96003500D01*
X138843562Y-96003500D01*
X139088989Y-94371566D01*
X138623279Y-94371566D01*
X138618465Y-94413525D01*
X138613761Y-94455110D01*
X138609169Y-94496324D01*
X138604686Y-94537166D01*
X138600315Y-94577635D01*
X138596054Y-94617733D01*
X138591904Y-94657458D01*
X138587864Y-94696811D01*
X138583935Y-94735792D01*
X138580117Y-94774401D01*
X138576410Y-94812637D01*
X138572813Y-94850502D01*
X138569326Y-94887994D01*
X138565951Y-94925115D01*
X138562686Y-94961863D01*
X138559532Y-94998239D01*
X138556488Y-95034243D01*
X138553556Y-95069874D01*
X138550733Y-95105134D01*
X138548022Y-95140021D01*
X138545421Y-95174537D01*
X138542931Y-95208680D01*
X138540552Y-95242451D01*
X138538283Y-95275850D01*
X138536125Y-95308876D01*
X138534077Y-95341531D01*
X138532140Y-95373814D01*
X138530314Y-95405724D01*
X138528599Y-95437262D01*
X138526994Y-95468428D01*
X138525500Y-95499222D01*
X138524117Y-95529644D01*
X138522753Y-95499200D01*
X138521361Y-95469005D01*
X138519942Y-95439058D01*
X138518495Y-95409360D01*
X138517020Y-95379909D01*
X138515517Y-95350707D01*
X138513987Y-95321754D01*
X138512430Y-95293048D01*
X138510844Y-95264591D01*
X138509231Y-95236382D01*
X138507591Y-95208422D01*
X138505922Y-95180710D01*
X138504226Y-95153246D01*
X138502502Y-95126031D01*
X138500751Y-95099064D01*
X138498972Y-95072345D01*
X138497165Y-95045875D01*
X138495331Y-95019652D01*
X138493469Y-94993679D01*
X138491579Y-94967953D01*
X138489662Y-94942476D01*
X138487717Y-94917247D01*
X138485744Y-94892267D01*
X138483743Y-94867534D01*
X138481715Y-94843051D01*
X138479660Y-94818815D01*
X138477576Y-94794828D01*
X138475465Y-94771089D01*
X138473326Y-94747598D01*
X138471160Y-94724356D01*
X138468966Y-94701362D01*
X138466744Y-94678616D01*
X138436641Y-94371566D01*
X137970931Y-94371566D01*
G37*
G36*
X138053449Y-96003500D02*
G01*
X137595530Y-96003500D01*
X137570739Y-95708845D01*
X137441120Y-95708845D01*
X137420225Y-96003500D01*
X136967264Y-96003500D01*
X137055123Y-95414190D01*
X137455286Y-95414190D01*
X137573927Y-95414190D01*
X137571878Y-95386910D01*
X137570744Y-95372464D01*
X137569538Y-95357482D01*
X137568260Y-95341963D01*
X137566909Y-95325907D01*
X137565485Y-95309314D01*
X137563988Y-95292185D01*
X137562419Y-95274519D01*
X137560777Y-95256316D01*
X137559063Y-95237576D01*
X137557276Y-95218300D01*
X137555416Y-95198487D01*
X137553484Y-95178137D01*
X137551479Y-95157250D01*
X137549402Y-95135827D01*
X137547251Y-95113867D01*
X137545029Y-95091370D01*
X137542733Y-95068336D01*
X137540365Y-95044765D01*
X137537924Y-95020658D01*
X137535411Y-94996014D01*
X137532825Y-94970833D01*
X137530167Y-94945116D01*
X137527435Y-94918862D01*
X137524632Y-94892071D01*
X137521755Y-94864743D01*
X137518806Y-94836878D01*
X137515784Y-94808477D01*
X137512690Y-94779539D01*
X137509523Y-94750064D01*
X137506284Y-94720052D01*
X137504990Y-94746333D01*
X137503677Y-94772317D01*
X137502345Y-94798006D01*
X137500993Y-94823398D01*
X137499622Y-94848495D01*
X137498232Y-94873295D01*
X137496822Y-94897799D01*
X137495393Y-94922007D01*
X137493945Y-94945920D01*
X137492477Y-94969536D01*
X137490990Y-94992856D01*
X137489483Y-95015880D01*
X137487958Y-95038608D01*
X137486412Y-95061040D01*
X137484848Y-95083176D01*
X137483264Y-95105016D01*
X137481660Y-95126559D01*
X137480038Y-95147807D01*
X137478395Y-95168759D01*
X137476734Y-95189414D01*
X137475053Y-95209774D01*
X137473353Y-95229838D01*
X137471633Y-95249605D01*
X137469894Y-95269077D01*
X137468136Y-95288252D01*
X137466358Y-95307131D01*
X137464561Y-95325715D01*
X137462745Y-95344002D01*
X137460909Y-95361993D01*
X137459054Y-95379688D01*
X137457179Y-95397087D01*
X137455286Y-95414190D01*
X137055123Y-95414190D01*
X137210566Y-94371566D01*
X137837062Y-94371566D01*
X138053449Y-96003500D01*
G37*
G36*
X136926182Y-94371566D02*
G01*
X136193087Y-94371566D01*
X136193087Y-94711553D01*
X136484200Y-94711553D01*
X136484200Y-94983541D01*
X136224961Y-94983541D01*
X136224961Y-95323527D01*
X136484200Y-95323527D01*
X136484200Y-96003500D01*
X136926182Y-96003500D01*
X136926182Y-94371566D01*
G37*
G36*
X136190254Y-95423752D02*
G01*
X136190254Y-95708845D01*
X135712149Y-95708845D01*
X135712149Y-96003500D01*
X135287166Y-96003500D01*
X135287166Y-95708845D01*
X135172775Y-95708845D01*
X135172775Y-95414190D01*
X135287166Y-95414190D01*
X135287166Y-94739176D01*
X135700816Y-94739176D01*
X135712149Y-95414190D01*
X135863726Y-95414190D01*
X135700816Y-94739176D01*
X135287166Y-94739176D01*
X135287166Y-94371566D01*
X135839644Y-94371566D01*
X136190254Y-95423752D01*
G37*
G36*
X134518302Y-94371566D02*
G01*
X134518302Y-96003500D01*
X134943639Y-96003500D01*
X134943639Y-95118473D01*
X134943672Y-95095607D01*
X134943772Y-95073933D01*
X134943938Y-95053452D01*
X134944170Y-95034163D01*
X134944469Y-95016067D01*
X134944834Y-94999163D01*
X134945266Y-94983451D01*
X134945764Y-94968933D01*
X134946635Y-94949390D01*
X134947656Y-94932531D01*
X134948826Y-94918355D01*
X134950619Y-94903627D01*
X134952138Y-94895712D01*
X134957058Y-94881203D01*
X134964689Y-94868355D01*
X134975031Y-94857168D01*
X134988085Y-94847641D01*
X134996762Y-94842943D01*
X135010616Y-94837740D01*
X135025236Y-94834212D01*
X135042999Y-94831249D01*
X135058384Y-94829397D01*
X135075537Y-94827862D01*
X135094458Y-94826645D01*
X135115147Y-94825746D01*
X135129921Y-94825322D01*
X135145482Y-94825040D01*
X135161828Y-94824899D01*
X135170296Y-94824881D01*
X135221294Y-94824881D01*
X135221294Y-94628681D01*
X135202887Y-94624613D01*
X135184762Y-94620289D01*
X135166921Y-94615709D01*
X135149362Y-94610874D01*
X135132087Y-94605782D01*
X135115094Y-94600435D01*
X135098384Y-94594831D01*
X135081957Y-94588972D01*
X135065813Y-94582856D01*
X135049952Y-94576485D01*
X135034374Y-94569858D01*
X135019079Y-94562975D01*
X135004066Y-94555836D01*
X134989337Y-94548441D01*
X134974890Y-94540790D01*
X134960727Y-94532883D01*
X134946846Y-94524720D01*
X134933248Y-94516301D01*
X134919933Y-94507627D01*
X134906901Y-94498696D01*
X134894152Y-94489510D01*
X134881686Y-94480067D01*
X134869502Y-94470369D01*
X134857602Y-94460414D01*
X134845984Y-94450204D01*
X134834650Y-94439738D01*
X134823598Y-94429016D01*
X134812829Y-94418038D01*
X134802343Y-94406804D01*
X134792140Y-94395314D01*
X134782220Y-94383568D01*
X134772583Y-94371566D01*
X134518302Y-94371566D01*
G37*
G36*
X133488428Y-94371566D02*
G01*
X133488428Y-94620890D01*
X133987428Y-94620890D01*
X133987428Y-94870567D01*
X133977524Y-94859545D01*
X133967025Y-94849235D01*
X133955932Y-94839635D01*
X133944244Y-94830747D01*
X133931960Y-94822570D01*
X133919082Y-94815103D01*
X133905609Y-94808348D01*
X133891541Y-94802304D01*
X133876879Y-94796971D01*
X133861621Y-94792349D01*
X133845769Y-94788438D01*
X133829321Y-94785238D01*
X133812279Y-94782750D01*
X133794642Y-94780972D01*
X133776410Y-94779905D01*
X133757583Y-94779550D01*
X133736525Y-94779929D01*
X133716114Y-94781066D01*
X133696351Y-94782961D01*
X133677235Y-94785615D01*
X133658766Y-94789026D01*
X133640945Y-94793196D01*
X133623772Y-94798123D01*
X133607246Y-94803809D01*
X133591367Y-94810253D01*
X133576136Y-94817455D01*
X133561552Y-94825415D01*
X133547615Y-94834133D01*
X133534326Y-94843610D01*
X133521685Y-94853844D01*
X133509691Y-94864837D01*
X133498344Y-94876587D01*
X133487622Y-94889348D01*
X133477593Y-94903459D01*
X133468255Y-94918920D01*
X133459608Y-94935731D01*
X133451654Y-94953892D01*
X133444391Y-94973404D01*
X133437820Y-94994266D01*
X133431940Y-95016478D01*
X133426753Y-95040040D01*
X133422257Y-95064952D01*
X133418452Y-95091215D01*
X133415339Y-95118827D01*
X133414043Y-95133140D01*
X133412919Y-95147790D01*
X133411967Y-95162778D01*
X133411189Y-95178104D01*
X133410584Y-95193767D01*
X133410152Y-95209767D01*
X133409892Y-95226105D01*
X133409806Y-95242781D01*
X133409806Y-95473334D01*
X133409872Y-95494541D01*
X133410071Y-95515046D01*
X133410403Y-95534848D01*
X133410868Y-95553948D01*
X133411466Y-95572344D01*
X133412196Y-95590038D01*
X133413060Y-95607029D01*
X133414056Y-95623317D01*
X133415185Y-95638903D01*
X133416446Y-95653785D01*
X133417841Y-95667965D01*
X133420181Y-95687917D01*
X133422821Y-95706288D01*
X133425759Y-95723078D01*
X133426805Y-95728323D01*
X133430269Y-95743626D01*
X133434417Y-95758724D01*
X133439250Y-95773616D01*
X133444767Y-95788302D01*
X133450970Y-95802783D01*
X133457857Y-95817059D01*
X133465429Y-95831129D01*
X133473686Y-95844994D01*
X133482628Y-95858654D01*
X133492254Y-95872108D01*
X133499052Y-95880963D01*
X133509794Y-95893888D01*
X133521302Y-95906234D01*
X133533575Y-95918000D01*
X133546614Y-95929188D01*
X133560418Y-95939797D01*
X133574989Y-95949827D01*
X133590325Y-95959279D01*
X133606427Y-95968151D01*
X133623294Y-95976444D01*
X133640927Y-95984158D01*
X133653108Y-95988979D01*
X133671939Y-95995625D01*
X133691510Y-96001617D01*
X133711823Y-96006955D01*
X133725776Y-96010151D01*
X133740058Y-96013056D01*
X133754669Y-96015670D01*
X133769610Y-96017994D01*
X133784880Y-96020028D01*
X133800480Y-96021771D01*
X133816408Y-96023224D01*
X133832666Y-96024386D01*
X133849253Y-96025257D01*
X133866169Y-96025838D01*
X133883415Y-96026129D01*
X133892161Y-96026165D01*
X133911763Y-96025948D01*
X133931079Y-96025296D01*
X133950111Y-96024210D01*
X133968857Y-96022690D01*
X133987319Y-96020735D01*
X134005495Y-96018346D01*
X134023387Y-96015523D01*
X134040993Y-96012265D01*
X134058315Y-96008572D01*
X134075352Y-96004446D01*
X134092103Y-95999885D01*
X134108570Y-95994889D01*
X134124752Y-95989459D01*
X134140649Y-95983595D01*
X134156260Y-95977296D01*
X134171587Y-95970563D01*
X134186497Y-95963400D01*
X134200860Y-95955811D01*
X134214675Y-95947795D01*
X134227942Y-95939354D01*
X134240661Y-95930486D01*
X134252832Y-95921192D01*
X134264455Y-95911473D01*
X134275531Y-95901327D01*
X134286058Y-95890755D01*
X134296038Y-95879757D01*
X134305470Y-95868332D01*
X134314355Y-95856482D01*
X134322691Y-95844206D01*
X134330480Y-95831503D01*
X134337720Y-95818375D01*
X134344413Y-95804820D01*
X134350589Y-95790596D01*
X134356366Y-95775459D01*
X134361745Y-95759408D01*
X134366725Y-95742445D01*
X134371307Y-95724569D01*
X134375490Y-95705779D01*
X134379275Y-95686077D01*
X134382662Y-95665461D01*
X134385650Y-95643933D01*
X134388240Y-95621491D01*
X134390431Y-95598136D01*
X134392224Y-95573869D01*
X134393618Y-95548688D01*
X134394614Y-95522594D01*
X134395212Y-95495587D01*
X134395411Y-95467667D01*
X134395411Y-95368859D01*
X133970429Y-95368859D01*
X133970429Y-95485729D01*
X133970390Y-95505750D01*
X133970274Y-95524996D01*
X133970080Y-95543467D01*
X133969809Y-95561163D01*
X133969460Y-95578085D01*
X133969034Y-95594232D01*
X133968531Y-95609605D01*
X133967950Y-95624203D01*
X133966933Y-95644647D01*
X133965742Y-95663347D01*
X133964376Y-95680305D01*
X133962837Y-95695520D01*
X133960512Y-95713095D01*
X133957242Y-95728036D01*
X133951178Y-95743910D01*
X133942917Y-95756672D01*
X133932460Y-95766321D01*
X133919807Y-95772858D01*
X133904958Y-95776282D01*
X133894994Y-95776842D01*
X133880434Y-95775217D01*
X133866575Y-95769674D01*
X133854975Y-95760197D01*
X133845978Y-95748209D01*
X133840412Y-95735134D01*
X133838330Y-95722303D01*
X133837676Y-95705499D01*
X133837272Y-95689155D01*
X133836955Y-95673680D01*
X133836625Y-95655447D01*
X133836282Y-95634456D01*
X133836047Y-95618930D01*
X133835807Y-95602179D01*
X133835560Y-95584201D01*
X133835309Y-95564998D01*
X133835051Y-95544570D01*
X133834788Y-95522915D01*
X133834788Y-95183637D01*
X133834935Y-95166661D01*
X133835374Y-95150792D01*
X133836105Y-95136032D01*
X133837536Y-95118076D01*
X133839486Y-95102089D01*
X133841957Y-95088072D01*
X133845777Y-95073322D01*
X133851434Y-95059684D01*
X133859699Y-95047679D01*
X133871552Y-95037569D01*
X133885972Y-95031310D01*
X133900697Y-95028993D01*
X133905265Y-95028873D01*
X133920296Y-95030798D01*
X133933737Y-95036573D01*
X133944576Y-95045164D01*
X133954235Y-95056497D01*
X133961813Y-95069720D01*
X133965471Y-95080225D01*
X133967867Y-95096445D01*
X133969029Y-95113328D01*
X133969731Y-95131107D01*
X133970119Y-95147757D01*
X133970351Y-95166566D01*
X133970424Y-95182089D01*
X133970429Y-95187533D01*
X134391870Y-95187533D01*
X134374162Y-94371566D01*
X133488428Y-94371566D01*
G37*
G36*
X132629255Y-94371566D02*
G01*
X132629255Y-94746614D01*
X132888494Y-96003500D01*
X133312060Y-96003500D01*
X133026259Y-94688887D01*
X133420785Y-94688887D01*
X133420785Y-94371566D01*
X132629255Y-94371566D01*
G37*
G36*
X133987079Y-97245045D02*
G01*
X134245000Y-97245045D01*
X134245000Y-96305687D01*
X134042400Y-96305687D01*
X133999098Y-96330893D01*
X133956844Y-96355449D01*
X133915638Y-96379356D01*
X133875481Y-96402613D01*
X133836372Y-96425220D01*
X133798311Y-96447178D01*
X133761299Y-96468486D01*
X133725335Y-96489144D01*
X133690419Y-96509152D01*
X133656551Y-96528511D01*
X133623732Y-96547220D01*
X133591961Y-96565279D01*
X133561238Y-96582688D01*
X133531564Y-96599448D01*
X133502938Y-96615558D01*
X133475360Y-96631018D01*
X133448830Y-96645829D01*
X133423349Y-96659990D01*
X133398916Y-96673501D01*
X133375531Y-96686362D01*
X133353195Y-96698574D01*
X133331907Y-96710136D01*
X133311667Y-96721048D01*
X133292475Y-96731311D01*
X133274332Y-96740923D01*
X133257237Y-96749886D01*
X133241190Y-96758200D01*
X133226192Y-96765863D01*
X133212242Y-96772877D01*
X133187487Y-96784956D01*
X133176681Y-96790020D01*
X133156364Y-96799248D01*
X133136627Y-96807881D01*
X133117472Y-96815918D01*
X133098898Y-96823360D01*
X133080904Y-96830206D01*
X133063492Y-96836457D01*
X133046661Y-96842113D01*
X133030410Y-96847173D01*
X133014741Y-96851638D01*
X132999653Y-96855508D01*
X132985146Y-96858782D01*
X132964474Y-96862578D01*
X132945110Y-96865034D01*
X132927054Y-96866150D01*
X132921325Y-96866224D01*
X132904953Y-96865904D01*
X132889726Y-96864942D01*
X132872303Y-96862838D01*
X132856668Y-96859733D01*
X132840267Y-96854684D01*
X132826443Y-96848192D01*
X132822407Y-96845708D01*
X132810273Y-96835750D01*
X132801119Y-96823829D01*
X132794946Y-96809944D01*
X132791753Y-96794096D01*
X132791266Y-96784159D01*
X132792896Y-96767314D01*
X132797788Y-96752362D01*
X132805940Y-96739304D01*
X132817352Y-96728139D01*
X132825338Y-96722609D01*
X132840644Y-96715637D01*
X132857472Y-96710929D01*
X132873600Y-96707883D01*
X132892099Y-96705479D01*
X132907528Y-96704097D01*
X132924290Y-96703075D01*
X132942386Y-96702414D01*
X132961814Y-96702113D01*
X132968586Y-96702093D01*
X133142976Y-96702093D01*
X133142976Y-96305687D01*
X133071901Y-96305687D01*
X133054859Y-96305744D01*
X133038264Y-96305916D01*
X133022116Y-96306202D01*
X133006413Y-96306603D01*
X132991158Y-96307118D01*
X132976349Y-96307748D01*
X132954972Y-96308907D01*
X132934600Y-96310324D01*
X132915233Y-96311998D01*
X132896871Y-96313930D01*
X132879513Y-96316120D01*
X132863159Y-96318567D01*
X132852815Y-96320341D01*
X132837653Y-96323538D01*
X132822530Y-96327494D01*
X132807445Y-96332210D01*
X132792400Y-96337686D01*
X132777392Y-96343923D01*
X132762423Y-96350919D01*
X132747493Y-96358674D01*
X132732602Y-96367190D01*
X132717749Y-96376466D01*
X132702935Y-96386502D01*
X132693080Y-96393614D01*
X132678584Y-96404842D01*
X132664770Y-96416682D01*
X132651639Y-96429134D01*
X132639191Y-96442198D01*
X132627425Y-96455873D01*
X132616341Y-96470160D01*
X132605941Y-96485059D01*
X132596223Y-96500570D01*
X132587188Y-96516692D01*
X132578835Y-96533427D01*
X132573646Y-96544923D01*
X132566444Y-96562755D01*
X132559950Y-96581219D01*
X132554165Y-96600313D01*
X132549088Y-96620039D01*
X132544719Y-96640396D01*
X132541059Y-96661384D01*
X132538108Y-96683003D01*
X132536533Y-96697766D01*
X132535274Y-96712810D01*
X132534330Y-96728134D01*
X132533700Y-96743739D01*
X132533385Y-96759624D01*
X132533346Y-96767672D01*
X132533473Y-96783353D01*
X132533854Y-96798795D01*
X132534489Y-96813998D01*
X132535378Y-96828964D01*
X132536521Y-96843691D01*
X132539569Y-96872431D01*
X132543634Y-96900217D01*
X132548714Y-96927050D01*
X132554810Y-96952931D01*
X132561923Y-96977858D01*
X132570052Y-97001832D01*
X132579197Y-97024852D01*
X132589358Y-97046920D01*
X132600534Y-97068035D01*
X132612728Y-97088196D01*
X132625937Y-97107405D01*
X132640162Y-97125660D01*
X132655403Y-97142962D01*
X132663405Y-97151256D01*
X132679886Y-97167094D01*
X132696904Y-97181910D01*
X132714461Y-97195704D01*
X132732556Y-97208477D01*
X132751189Y-97220228D01*
X132770360Y-97230957D01*
X132790070Y-97240664D01*
X132810317Y-97249350D01*
X132831102Y-97257013D01*
X132852426Y-97263655D01*
X132874288Y-97269275D01*
X132896687Y-97273873D01*
X132919625Y-97277449D01*
X132943101Y-97280004D01*
X132967115Y-97281537D01*
X132991667Y-97282048D01*
X133010415Y-97281764D01*
X133029288Y-97280914D01*
X133048288Y-97279497D01*
X133067413Y-97277514D01*
X133086664Y-97274964D01*
X133106042Y-97271847D01*
X133125545Y-97268163D01*
X133145174Y-97263913D01*
X133164929Y-97259096D01*
X133184810Y-97253712D01*
X133204817Y-97247761D01*
X133224950Y-97241244D01*
X133245209Y-97234160D01*
X133265593Y-97226509D01*
X133286104Y-97218292D01*
X133306741Y-97209508D01*
X133328761Y-97199444D01*
X133353515Y-97187297D01*
X133366917Y-97180442D01*
X133381002Y-97173066D01*
X133395771Y-97165169D01*
X133411223Y-97156751D01*
X133427359Y-97147812D01*
X133444177Y-97138353D01*
X133461679Y-97128372D01*
X133479865Y-97117871D01*
X133498734Y-97106848D01*
X133518286Y-97095305D01*
X133538521Y-97083241D01*
X133559440Y-97070655D01*
X133581043Y-97057549D01*
X133603328Y-97043922D01*
X133626297Y-97029774D01*
X133649950Y-97015105D01*
X133674285Y-96999916D01*
X133699304Y-96984205D01*
X133725007Y-96967973D01*
X133751392Y-96951221D01*
X133778461Y-96933947D01*
X133806214Y-96916153D01*
X133834650Y-96897837D01*
X133863769Y-96879001D01*
X133893571Y-96859644D01*
X133924057Y-96839766D01*
X133955226Y-96819367D01*
X133987079Y-96798447D01*
X133987079Y-97245045D01*
G37*
G36*
X133731722Y-97378134D02*
G01*
X133752600Y-97378430D01*
X133772743Y-97378924D01*
X133792150Y-97379615D01*
X133810822Y-97380504D01*
X133828758Y-97381590D01*
X133845959Y-97382874D01*
X133862424Y-97384355D01*
X133878153Y-97386034D01*
X133893147Y-97387910D01*
X133914258Y-97391094D01*
X133933714Y-97394723D01*
X133951516Y-97398797D01*
X133967662Y-97403314D01*
X133977847Y-97406612D01*
X133993023Y-97412073D01*
X134008076Y-97418152D01*
X134023007Y-97424850D01*
X134037816Y-97432165D01*
X134052503Y-97440099D01*
X134067067Y-97448652D01*
X134081508Y-97457822D01*
X134095828Y-97467611D01*
X134110025Y-97478018D01*
X134124099Y-97489043D01*
X134133243Y-97496804D01*
X134146383Y-97509041D01*
X134158835Y-97521993D01*
X134170598Y-97535660D01*
X134181671Y-97550042D01*
X134192056Y-97565138D01*
X134201751Y-97580949D01*
X134210758Y-97597475D01*
X134219075Y-97614716D01*
X134226703Y-97632672D01*
X134233642Y-97651343D01*
X134237857Y-97664221D01*
X134243669Y-97684264D01*
X134248869Y-97705175D01*
X134251996Y-97719600D01*
X134254851Y-97734410D01*
X134257434Y-97749607D01*
X134259746Y-97765191D01*
X134261785Y-97781160D01*
X134263552Y-97797516D01*
X134265048Y-97814259D01*
X134266272Y-97831388D01*
X134267223Y-97848903D01*
X134267903Y-97866805D01*
X134268311Y-97885093D01*
X134268447Y-97903768D01*
X134268317Y-97918153D01*
X134267633Y-97939410D01*
X134266363Y-97960280D01*
X134264507Y-97980763D01*
X134262065Y-98000860D01*
X134259038Y-98020571D01*
X134255424Y-98039895D01*
X134251224Y-98058833D01*
X134246438Y-98077384D01*
X134241066Y-98095549D01*
X134235108Y-98113328D01*
X134230727Y-98124990D01*
X134223528Y-98142081D01*
X134215576Y-98158689D01*
X134206870Y-98174813D01*
X134197411Y-98190455D01*
X134187198Y-98205614D01*
X134176232Y-98220289D01*
X134164512Y-98234482D01*
X134152039Y-98248192D01*
X134138812Y-98261418D01*
X134124832Y-98274162D01*
X134115218Y-98282362D01*
X134100636Y-98293987D01*
X134085860Y-98304799D01*
X134070891Y-98314801D01*
X134055729Y-98323990D01*
X134040374Y-98332369D01*
X134024826Y-98339936D01*
X134009085Y-98346691D01*
X133993150Y-98352636D01*
X133977022Y-98357768D01*
X133960701Y-98362090D01*
X133955130Y-98363397D01*
X133937231Y-98367070D01*
X133917554Y-98370369D01*
X133896101Y-98373295D01*
X133880811Y-98375038D01*
X133864731Y-98376615D01*
X133847861Y-98378026D01*
X133830201Y-98379271D01*
X133811751Y-98380350D01*
X133792511Y-98381264D01*
X133772481Y-98382011D01*
X133751661Y-98382592D01*
X133730052Y-98383007D01*
X133707652Y-98383256D01*
X133684462Y-98383339D01*
X133134549Y-98383339D01*
X133122856Y-98383320D01*
X133100064Y-98383168D01*
X133078065Y-98382865D01*
X133056859Y-98382410D01*
X133036446Y-98381803D01*
X133016825Y-98381044D01*
X132997997Y-98380134D01*
X132979963Y-98379072D01*
X132962721Y-98377859D01*
X132946271Y-98376493D01*
X132930615Y-98374976D01*
X132915752Y-98373308D01*
X132894943Y-98370520D01*
X132875918Y-98367391D01*
X132858677Y-98363921D01*
X132847799Y-98361352D01*
X132831735Y-98356968D01*
X132815973Y-98351946D01*
X132800514Y-98346286D01*
X132785357Y-98339989D01*
X132770503Y-98333054D01*
X132755952Y-98325482D01*
X132741703Y-98317272D01*
X132727758Y-98308424D01*
X132714115Y-98298939D01*
X132700774Y-98288817D01*
X132687713Y-98277958D01*
X132675044Y-98266126D01*
X132662768Y-98253323D01*
X132650886Y-98239546D01*
X132639396Y-98224798D01*
X132628298Y-98209077D01*
X132617594Y-98192383D01*
X132607283Y-98174717D01*
X132597364Y-98156079D01*
X132587838Y-98136468D01*
X132581706Y-98122854D01*
X132575850Y-98108955D01*
X132570371Y-98094827D01*
X132565271Y-98080470D01*
X132560548Y-98065884D01*
X132556203Y-98051069D01*
X132552236Y-98036025D01*
X132548647Y-98020753D01*
X132545436Y-98005251D01*
X132542602Y-97989520D01*
X132540146Y-97973560D01*
X132538068Y-97957371D01*
X132536368Y-97940954D01*
X132535046Y-97924307D01*
X132534101Y-97907431D01*
X132533535Y-97890327D01*
X132533446Y-97882152D01*
X132791266Y-97882152D01*
X132792669Y-97898096D01*
X132797706Y-97912968D01*
X132807752Y-97925429D01*
X132820575Y-97932711D01*
X132826985Y-97934675D01*
X132841733Y-97937519D01*
X132857189Y-97939408D01*
X132875896Y-97940954D01*
X132892061Y-97941888D01*
X132910054Y-97942628D01*
X132929876Y-97943176D01*
X132951528Y-97943530D01*
X132966978Y-97943659D01*
X132983241Y-97943702D01*
X133825879Y-97943702D01*
X133840863Y-97943651D01*
X133861996Y-97943388D01*
X133881520Y-97942900D01*
X133899434Y-97942186D01*
X133915738Y-97941247D01*
X133930432Y-97940083D01*
X133947520Y-97938179D01*
X133964854Y-97935237D01*
X133979752Y-97930879D01*
X133993216Y-97923048D01*
X134003764Y-97910406D01*
X134009054Y-97895763D01*
X134010526Y-97880321D01*
X134009625Y-97866698D01*
X134005618Y-97851459D01*
X133997278Y-97838312D01*
X133984881Y-97829396D01*
X133983138Y-97828675D01*
X133967768Y-97824828D01*
X133952842Y-97822721D01*
X133934171Y-97820981D01*
X133917712Y-97819916D01*
X133899146Y-97819058D01*
X133878475Y-97818405D01*
X133863524Y-97818084D01*
X133847637Y-97817855D01*
X133830815Y-97817718D01*
X133813056Y-97817672D01*
X132983241Y-97817672D01*
X132967502Y-97817722D01*
X132945320Y-97817985D01*
X132924852Y-97818474D01*
X132906096Y-97819187D01*
X132889054Y-97820127D01*
X132873725Y-97821291D01*
X132855950Y-97823195D01*
X132838015Y-97826137D01*
X132822773Y-97830495D01*
X132820835Y-97831344D01*
X132807543Y-97839913D01*
X132798189Y-97851643D01*
X132792774Y-97866532D01*
X132791266Y-97882152D01*
X132533446Y-97882152D01*
X132533346Y-97872993D01*
X132533619Y-97851801D01*
X132534439Y-97830999D01*
X132535806Y-97810585D01*
X132537719Y-97790561D01*
X132540179Y-97770926D01*
X132543186Y-97751681D01*
X132546739Y-97732825D01*
X132550840Y-97714357D01*
X132555486Y-97696280D01*
X132560680Y-97678591D01*
X132566420Y-97661292D01*
X132572707Y-97644382D01*
X132579540Y-97627861D01*
X132586921Y-97611730D01*
X132594848Y-97595987D01*
X132603321Y-97580635D01*
X132612248Y-97565834D01*
X132621536Y-97551657D01*
X132631185Y-97538105D01*
X132641194Y-97525176D01*
X132651564Y-97512871D01*
X132662294Y-97501191D01*
X132673386Y-97490134D01*
X132684837Y-97479701D01*
X132696650Y-97469892D01*
X132708823Y-97460707D01*
X132721356Y-97452147D01*
X132734251Y-97444210D01*
X132747506Y-97436897D01*
X132761121Y-97430208D01*
X132775097Y-97424143D01*
X132789434Y-97418702D01*
X132804392Y-97413777D01*
X132820232Y-97409170D01*
X132836953Y-97404881D01*
X132854556Y-97400910D01*
X132873040Y-97397256D01*
X132892406Y-97393920D01*
X132912653Y-97390902D01*
X132933782Y-97388202D01*
X132955792Y-97385819D01*
X132978684Y-97383754D01*
X133002458Y-97382006D01*
X133027113Y-97380577D01*
X133052650Y-97379465D01*
X133079068Y-97378671D01*
X133106368Y-97378194D01*
X133134549Y-97378035D01*
X133710108Y-97378035D01*
X133731722Y-97378134D01*
G37*
G36*
X133987079Y-99424180D02*
G01*
X134245000Y-99424180D01*
X134245000Y-98484822D01*
X134042400Y-98484822D01*
X133999098Y-98510028D01*
X133956844Y-98534584D01*
X133915638Y-98558491D01*
X133875481Y-98581748D01*
X133836372Y-98604355D01*
X133798311Y-98626313D01*
X133761299Y-98647620D01*
X133725335Y-98668278D01*
X133690419Y-98688287D01*
X133656551Y-98707645D01*
X133623732Y-98726354D01*
X133591961Y-98744414D01*
X133561238Y-98761823D01*
X133531564Y-98778583D01*
X133502938Y-98794693D01*
X133475360Y-98810153D01*
X133448830Y-98824964D01*
X133423349Y-98839124D01*
X133398916Y-98852636D01*
X133375531Y-98865497D01*
X133353195Y-98877709D01*
X133331907Y-98889271D01*
X133311667Y-98900183D01*
X133292475Y-98910445D01*
X133274332Y-98920058D01*
X133257237Y-98929021D01*
X133241190Y-98937334D01*
X133226192Y-98944998D01*
X133212242Y-98952012D01*
X133187487Y-98964090D01*
X133176681Y-98969155D01*
X133156364Y-98978383D01*
X133136627Y-98987015D01*
X133117472Y-98995052D01*
X133098898Y-99002494D01*
X133080904Y-99009341D01*
X133063492Y-99015592D01*
X133046661Y-99021248D01*
X133030410Y-99026308D01*
X133014741Y-99030773D01*
X132999653Y-99034643D01*
X132985146Y-99037917D01*
X132964474Y-99041712D01*
X132945110Y-99044168D01*
X132927054Y-99045284D01*
X132921325Y-99045359D01*
X132904953Y-99045038D01*
X132889726Y-99044077D01*
X132872303Y-99041973D01*
X132856668Y-99038867D01*
X132840267Y-99033818D01*
X132826443Y-99027327D01*
X132822407Y-99024842D01*
X132810273Y-99014885D01*
X132801119Y-99002964D01*
X132794946Y-98989079D01*
X132791753Y-98973231D01*
X132791266Y-98963293D01*
X132792896Y-98946448D01*
X132797788Y-98931497D01*
X132805940Y-98918439D01*
X132817352Y-98907274D01*
X132825338Y-98901744D01*
X132840644Y-98894772D01*
X132857472Y-98890063D01*
X132873600Y-98887018D01*
X132892099Y-98884614D01*
X132907528Y-98883231D01*
X132924290Y-98882209D01*
X132942386Y-98881548D01*
X132961814Y-98881248D01*
X132968586Y-98881228D01*
X133142976Y-98881228D01*
X133142976Y-98484822D01*
X133071901Y-98484822D01*
X133054859Y-98484879D01*
X133038264Y-98485051D01*
X133022116Y-98485337D01*
X133006413Y-98485737D01*
X132991158Y-98486253D01*
X132976349Y-98486882D01*
X132954972Y-98488042D01*
X132934600Y-98489458D01*
X132915233Y-98491133D01*
X132896871Y-98493065D01*
X132879513Y-98495254D01*
X132863159Y-98497702D01*
X132852815Y-98499476D01*
X132837653Y-98502673D01*
X132822530Y-98506629D01*
X132807445Y-98511345D01*
X132792400Y-98516821D01*
X132777392Y-98523057D01*
X132762423Y-98530053D01*
X132747493Y-98537809D01*
X132732602Y-98546325D01*
X132717749Y-98555601D01*
X132702935Y-98565636D01*
X132693080Y-98572749D01*
X132678584Y-98583977D01*
X132664770Y-98595817D01*
X132651639Y-98608269D01*
X132639191Y-98621332D01*
X132627425Y-98635008D01*
X132616341Y-98649295D01*
X132605941Y-98664194D01*
X132596223Y-98679704D01*
X132587188Y-98695827D01*
X132578835Y-98712561D01*
X132573646Y-98724057D01*
X132566444Y-98741890D01*
X132559950Y-98760353D01*
X132554165Y-98779448D01*
X132549088Y-98799174D01*
X132544719Y-98819530D01*
X132541059Y-98840518D01*
X132538108Y-98862137D01*
X132536533Y-98876901D01*
X132535274Y-98891945D01*
X132534330Y-98907269D01*
X132533700Y-98922874D01*
X132533385Y-98938759D01*
X132533346Y-98946807D01*
X132533473Y-98962487D01*
X132533854Y-98977929D01*
X132534489Y-98993133D01*
X132535378Y-99008098D01*
X132536521Y-99022826D01*
X132539569Y-99051565D01*
X132543634Y-99079352D01*
X132548714Y-99106185D01*
X132554810Y-99132065D01*
X132561923Y-99156992D01*
X132570052Y-99180966D01*
X132579197Y-99203987D01*
X132589358Y-99226055D01*
X132600534Y-99247169D01*
X132612728Y-99267331D01*
X132625937Y-99286539D01*
X132640162Y-99304795D01*
X132655403Y-99322097D01*
X132663405Y-99330390D01*
X132679886Y-99346228D01*
X132696904Y-99361045D01*
X132714461Y-99374839D01*
X132732556Y-99387612D01*
X132751189Y-99399363D01*
X132770360Y-99410092D01*
X132790070Y-99419799D01*
X132810317Y-99428484D01*
X132831102Y-99436148D01*
X132852426Y-99442790D01*
X132874288Y-99448410D01*
X132896687Y-99453008D01*
X132919625Y-99456584D01*
X132943101Y-99459139D01*
X132967115Y-99460671D01*
X132991667Y-99461182D01*
X133010415Y-99460899D01*
X133029288Y-99460049D01*
X133048288Y-99458632D01*
X133067413Y-99456649D01*
X133086664Y-99454098D01*
X133106042Y-99450981D01*
X133125545Y-99447298D01*
X133145174Y-99443047D01*
X133164929Y-99438230D01*
X133184810Y-99432846D01*
X133204817Y-99426896D01*
X133224950Y-99420379D01*
X133245209Y-99413295D01*
X133265593Y-99405644D01*
X133286104Y-99397426D01*
X133306741Y-99388642D01*
X133328761Y-99378579D01*
X133353515Y-99366431D01*
X133366917Y-99359576D01*
X133381002Y-99352200D01*
X133395771Y-99344304D01*
X133411223Y-99335886D01*
X133427359Y-99326947D01*
X133444177Y-99317487D01*
X133461679Y-99307507D01*
X133479865Y-99297005D01*
X133498734Y-99285983D01*
X133518286Y-99274440D01*
X133538521Y-99262375D01*
X133559440Y-99249790D01*
X133581043Y-99236684D01*
X133603328Y-99223057D01*
X133626297Y-99208909D01*
X133649950Y-99194240D01*
X133674285Y-99179050D01*
X133699304Y-99163340D01*
X133725007Y-99147108D01*
X133751392Y-99130355D01*
X133778461Y-99113082D01*
X133806214Y-99095287D01*
X133834650Y-99076972D01*
X133863769Y-99058136D01*
X133893571Y-99038779D01*
X133924057Y-99018901D01*
X133955226Y-98998501D01*
X133987079Y-98977581D01*
X133987079Y-99424180D01*
G37*
G36*
X133940184Y-99947348D02*
G01*
X134245000Y-99947348D01*
X134245000Y-100386985D01*
X133940184Y-100386985D01*
X133940184Y-100505321D01*
X133635369Y-100505321D01*
X133635369Y-100386985D01*
X132556793Y-100386985D01*
X132556793Y-99959071D01*
X132937079Y-99959071D01*
X133635369Y-99947348D01*
X133635369Y-99790544D01*
X132937079Y-99959071D01*
X132556793Y-99959071D01*
X132556793Y-99815457D01*
X133645261Y-99452756D01*
X133940184Y-99452756D01*
X133940184Y-99947348D01*
G37*
G36*
X133400896Y-101095900D02*
G01*
X133705711Y-101095900D01*
X133705711Y-100525104D01*
X133400896Y-100525104D01*
X133400896Y-101095900D01*
G37*
G36*
X132556793Y-101846214D02*
G01*
X134245000Y-101846214D01*
X134245000Y-101406210D01*
X133329455Y-101406210D01*
X133305800Y-101406176D01*
X133283379Y-101406073D01*
X133262192Y-101405901D01*
X133242238Y-101405661D01*
X133223517Y-101405352D01*
X133206030Y-101404974D01*
X133189777Y-101404527D01*
X133174758Y-101404012D01*
X133154542Y-101403110D01*
X133137101Y-101402054D01*
X133122436Y-101400844D01*
X133107201Y-101398989D01*
X133099012Y-101397418D01*
X133084003Y-101392328D01*
X133070712Y-101384434D01*
X133059139Y-101373735D01*
X133049284Y-101360232D01*
X133044424Y-101351256D01*
X133039041Y-101336923D01*
X133035392Y-101321799D01*
X133032326Y-101303424D01*
X133030410Y-101287508D01*
X133028823Y-101269764D01*
X133027564Y-101250191D01*
X133026633Y-101228788D01*
X133026195Y-101213504D01*
X133025903Y-101197407D01*
X133025757Y-101180497D01*
X133025739Y-101171737D01*
X133025739Y-101118981D01*
X132822773Y-101118981D01*
X132818565Y-101138023D01*
X132814092Y-101156772D01*
X132809355Y-101175229D01*
X132804352Y-101193393D01*
X132799085Y-101211264D01*
X132793553Y-101228843D01*
X132787756Y-101246129D01*
X132781695Y-101263122D01*
X132775369Y-101279823D01*
X132768778Y-101296231D01*
X132761922Y-101312346D01*
X132754801Y-101328169D01*
X132747416Y-101343699D01*
X132739766Y-101358936D01*
X132731851Y-101373881D01*
X132723672Y-101388533D01*
X132715228Y-101402893D01*
X132706519Y-101416959D01*
X132697545Y-101430733D01*
X132688306Y-101444215D01*
X132678803Y-101457404D01*
X132669035Y-101470300D01*
X132659002Y-101482903D01*
X132648705Y-101495214D01*
X132638142Y-101507232D01*
X132627315Y-101518957D01*
X132616223Y-101530390D01*
X132604867Y-101541530D01*
X132593245Y-101552378D01*
X132581359Y-101562933D01*
X132569209Y-101573195D01*
X132556793Y-101583164D01*
X132556793Y-101846214D01*
G37*
G36*
X133096081Y-102934316D02*
G01*
X133096081Y-102507868D01*
X132960526Y-102507868D01*
X132945493Y-102507755D01*
X132927192Y-102507254D01*
X132910883Y-102506352D01*
X132893299Y-102504662D01*
X132878826Y-102502345D01*
X132863795Y-102498050D01*
X132857944Y-102495045D01*
X132846681Y-102484403D01*
X132840093Y-102469605D01*
X132838180Y-102454407D01*
X132838161Y-102452547D01*
X132839786Y-102437182D01*
X132845502Y-102422142D01*
X132855333Y-102409477D01*
X132864173Y-102402355D01*
X132878965Y-102394821D01*
X132895138Y-102389995D01*
X132911401Y-102387170D01*
X132926646Y-102385741D01*
X132943430Y-102385152D01*
X132946971Y-102385136D01*
X132964980Y-102385468D01*
X132981821Y-102386464D01*
X132997495Y-102388124D01*
X133012001Y-102390448D01*
X133028491Y-102394287D01*
X133043156Y-102399163D01*
X133058346Y-102406385D01*
X133070490Y-102414596D01*
X133083798Y-102426635D01*
X133095281Y-102439023D01*
X133107509Y-102453860D01*
X133117167Y-102466597D01*
X133127245Y-102480711D01*
X133137741Y-102496203D01*
X133148656Y-102513074D01*
X133156165Y-102525087D01*
X133167385Y-102543103D01*
X133178469Y-102560698D01*
X133189416Y-102577873D01*
X133200226Y-102594627D01*
X133210899Y-102610961D01*
X133221436Y-102626873D01*
X133231837Y-102642365D01*
X133242100Y-102657436D01*
X133252227Y-102672086D01*
X133262217Y-102686316D01*
X133272071Y-102700124D01*
X133281788Y-102713512D01*
X133291368Y-102726480D01*
X133300812Y-102739026D01*
X133310118Y-102751152D01*
X133319289Y-102762857D01*
X133337219Y-102785005D01*
X133354603Y-102805470D01*
X133371440Y-102824252D01*
X133387730Y-102841351D01*
X133403474Y-102856767D01*
X133418671Y-102870500D01*
X133433321Y-102882549D01*
X133447424Y-102892916D01*
X133461823Y-102902277D01*
X133477266Y-102911034D01*
X133493754Y-102919187D01*
X133511286Y-102926736D01*
X133529864Y-102933682D01*
X133549486Y-102940023D01*
X133570152Y-102945760D01*
X133591864Y-102950894D01*
X133614620Y-102955423D01*
X133638420Y-102959349D01*
X133663266Y-102962670D01*
X133689156Y-102965388D01*
X133716091Y-102967502D01*
X133744071Y-102969011D01*
X133773095Y-102969917D01*
X133787999Y-102970144D01*
X133803164Y-102970219D01*
X133825062Y-102970050D01*
X133846241Y-102969544D01*
X133866701Y-102968699D01*
X133886443Y-102967517D01*
X133905467Y-102965998D01*
X133923772Y-102964140D01*
X133941359Y-102961945D01*
X133958228Y-102959412D01*
X133974378Y-102956541D01*
X133989810Y-102953332D01*
X134004523Y-102949786D01*
X134025246Y-102943833D01*
X134044352Y-102937121D01*
X134061842Y-102929648D01*
X134067313Y-102926988D01*
X134083142Y-102918184D01*
X134098482Y-102907982D01*
X134113333Y-102896382D01*
X134127694Y-102883385D01*
X134141566Y-102868991D01*
X134154948Y-102853199D01*
X134167841Y-102836009D01*
X134176165Y-102823773D01*
X134184270Y-102810916D01*
X134192159Y-102797438D01*
X134199829Y-102783339D01*
X134207283Y-102768618D01*
X134210928Y-102761025D01*
X134217893Y-102745578D01*
X134224409Y-102729827D01*
X134230475Y-102713773D01*
X134236092Y-102697415D01*
X134241260Y-102680754D01*
X134245978Y-102663790D01*
X134250247Y-102646522D01*
X134254067Y-102628951D01*
X134257437Y-102611076D01*
X134260358Y-102592898D01*
X134262830Y-102574417D01*
X134264852Y-102555632D01*
X134266425Y-102536544D01*
X134267548Y-102517153D01*
X134268222Y-102497458D01*
X134268447Y-102477459D01*
X134268183Y-102455493D01*
X134267394Y-102433925D01*
X134266077Y-102412755D01*
X134264234Y-102391982D01*
X134261864Y-102371607D01*
X134258967Y-102351630D01*
X134255544Y-102332051D01*
X134251594Y-102312870D01*
X134247118Y-102294087D01*
X134242114Y-102275701D01*
X134236585Y-102257714D01*
X134230528Y-102240124D01*
X134223945Y-102222932D01*
X134216835Y-102206138D01*
X134209199Y-102189742D01*
X134201036Y-102173743D01*
X134192418Y-102158285D01*
X134183508Y-102143507D01*
X134174306Y-102129410D01*
X134164812Y-102115995D01*
X134155026Y-102103261D01*
X134144948Y-102091208D01*
X134134578Y-102079837D01*
X134123916Y-102069146D01*
X134112962Y-102059137D01*
X134095984Y-102045401D01*
X134078350Y-102033197D01*
X134060058Y-102022526D01*
X134041109Y-102013387D01*
X134028112Y-102008147D01*
X134007650Y-102001141D01*
X133993178Y-101996853D01*
X133978043Y-101992872D01*
X133962244Y-101989197D01*
X133945780Y-101985828D01*
X133928653Y-101982766D01*
X133910861Y-101980009D01*
X133892405Y-101977559D01*
X133873286Y-101975415D01*
X133853502Y-101973578D01*
X133833054Y-101972047D01*
X133811943Y-101970822D01*
X133790167Y-101969903D01*
X133767727Y-101969290D01*
X133744623Y-101968984D01*
X133732822Y-101968946D01*
X133611922Y-101968946D01*
X133611922Y-102395394D01*
X133827344Y-102395394D01*
X133843781Y-102395519D01*
X133859020Y-102395896D01*
X133877476Y-102396789D01*
X133893802Y-102398129D01*
X133911215Y-102400431D01*
X133927719Y-102404115D01*
X133940917Y-102409682D01*
X133951897Y-102419664D01*
X133959284Y-102433124D01*
X133962833Y-102448007D01*
X133963632Y-102460973D01*
X133962212Y-102476125D01*
X133957111Y-102491295D01*
X133948301Y-102504175D01*
X133935782Y-102514765D01*
X133933956Y-102515928D01*
X133919378Y-102523208D01*
X133904343Y-102528025D01*
X133886963Y-102531529D01*
X133870690Y-102533444D01*
X133852788Y-102534448D01*
X133841266Y-102534612D01*
X133823890Y-102534466D01*
X133807297Y-102534028D01*
X133791489Y-102533298D01*
X133776465Y-102532277D01*
X133755400Y-102530197D01*
X133736099Y-102527460D01*
X133718563Y-102524066D01*
X133702792Y-102520015D01*
X133688785Y-102515307D01*
X133672854Y-102508009D01*
X133660060Y-102499542D01*
X133657351Y-102497243D01*
X133645547Y-102485382D01*
X133635507Y-102474022D01*
X133624450Y-102460549D01*
X133612375Y-102444965D01*
X133599282Y-102427267D01*
X133589989Y-102414296D01*
X133580243Y-102400385D01*
X133570045Y-102385536D01*
X133559395Y-102369748D01*
X133548292Y-102353021D01*
X133536737Y-102335356D01*
X133524730Y-102316751D01*
X133512271Y-102297208D01*
X133499570Y-102277299D01*
X133487295Y-102258236D01*
X133475447Y-102240021D01*
X133464025Y-102222653D01*
X133453030Y-102206132D01*
X133442461Y-102190459D01*
X133432319Y-102175632D01*
X133422603Y-102161653D01*
X133413314Y-102148522D01*
X133404451Y-102136237D01*
X133391956Y-102119398D01*
X133380421Y-102104466D01*
X133369846Y-102091440D01*
X133360230Y-102080321D01*
X133347378Y-102067143D01*
X133333371Y-102054538D01*
X133318207Y-102042505D01*
X133306075Y-102033856D01*
X133293292Y-102025529D01*
X133279860Y-102017524D01*
X133265776Y-102009841D01*
X133251043Y-102002480D01*
X133235659Y-101995441D01*
X133225041Y-101990928D01*
X133208421Y-101984642D01*
X133190982Y-101978975D01*
X133172726Y-101973926D01*
X133153652Y-101969495D01*
X133133760Y-101965683D01*
X133113050Y-101962489D01*
X133091522Y-101959913D01*
X133076716Y-101958539D01*
X133061546Y-101957440D01*
X133046013Y-101956615D01*
X133030116Y-101956066D01*
X133013856Y-101955791D01*
X133005589Y-101955757D01*
X132982079Y-101955954D01*
X132959359Y-101956547D01*
X132937428Y-101957534D01*
X132916288Y-101958917D01*
X132895937Y-101960694D01*
X132876377Y-101962866D01*
X132857607Y-101965434D01*
X132839626Y-101968396D01*
X132822436Y-101971754D01*
X132806035Y-101975506D01*
X132790425Y-101979653D01*
X132775604Y-101984196D01*
X132761573Y-101989133D01*
X132742009Y-101997280D01*
X132724221Y-102006315D01*
X132707674Y-102016336D01*
X132691828Y-102027438D01*
X132676685Y-102039623D01*
X132662243Y-102052889D01*
X132648503Y-102067237D01*
X132635465Y-102082668D01*
X132623130Y-102099180D01*
X132611496Y-102116774D01*
X132600564Y-102135450D01*
X132593666Y-102148501D01*
X132587080Y-102162034D01*
X132583904Y-102168981D01*
X132577782Y-102183170D01*
X132572054Y-102197712D01*
X132566722Y-102212605D01*
X132561785Y-102227851D01*
X132557242Y-102243448D01*
X132553095Y-102259398D01*
X132549343Y-102275700D01*
X132545985Y-102292354D01*
X132543023Y-102309360D01*
X132540455Y-102326718D01*
X132538283Y-102344428D01*
X132536506Y-102362490D01*
X132535123Y-102380904D01*
X132534136Y-102399670D01*
X132533543Y-102418788D01*
X132533346Y-102438258D01*
X132533565Y-102459498D01*
X132534221Y-102480350D01*
X132535316Y-102500817D01*
X132536849Y-102520896D01*
X132538820Y-102540590D01*
X132541228Y-102559897D01*
X132544075Y-102578818D01*
X132547359Y-102597352D01*
X132551081Y-102615500D01*
X132555242Y-102633262D01*
X132559840Y-102650637D01*
X132564876Y-102667625D01*
X132570350Y-102684228D01*
X132576262Y-102700444D01*
X132582612Y-102716273D01*
X132589399Y-102731716D01*
X132596523Y-102746690D01*
X132603882Y-102761020D01*
X132611476Y-102774705D01*
X132619304Y-102787747D01*
X132627367Y-102800145D01*
X132639901Y-102817534D01*
X132652964Y-102833474D01*
X132666554Y-102847965D01*
X132680673Y-102861007D01*
X132695319Y-102872600D01*
X132710494Y-102882744D01*
X132726197Y-102891439D01*
X132731549Y-102894016D01*
X132748637Y-102901218D01*
X132767754Y-102907711D01*
X132788900Y-102913497D01*
X132804124Y-102916960D01*
X132820250Y-102920108D01*
X132837277Y-102922942D01*
X132855206Y-102925461D01*
X132874037Y-102927665D01*
X132893769Y-102929554D01*
X132914403Y-102931128D01*
X132935938Y-102932387D01*
X132958375Y-102933332D01*
X132981714Y-102933961D01*
X133005954Y-102934276D01*
X133018412Y-102934316D01*
X133096081Y-102934316D01*
G37*
D11*
X128500000Y-122500000D02*
X123500000Y-117500000D01*
X123500000Y-117500000D02*
X128500000Y-112500000D01*
X128500000Y-110500000D02*
X123500000Y-115500000D01*
X128500000Y-108500000D02*
X123500000Y-103500000D01*
X128500000Y-108500000D02*
X128500000Y-103500000D01*
X123500000Y-105500000D02*
X128500000Y-110500000D01*
X123500000Y-103500000D02*
X128500000Y-108500000D01*
X128500000Y-101500000D02*
X123500000Y-96500000D01*
X123500000Y-96500000D02*
X123500000Y-101500000D01*
X128500000Y-99500000D02*
X123500000Y-94500000D01*
X123500000Y-94500000D02*
X128500000Y-89500000D01*
X128500000Y-87500000D02*
X123500000Y-92500000D01*
X128500000Y-85500000D02*
X123500000Y-80500000D01*
X128500000Y-85500000D02*
X128500000Y-80500000D01*
X123500000Y-82500000D02*
X128500000Y-87500000D01*
X123500000Y-80500000D02*
X128500000Y-85500000D01*
X128500000Y-78500000D02*
X123500000Y-73500000D01*
X123500000Y-73500000D02*
X123500000Y-78500000D01*
X128500000Y-76500000D02*
X123500000Y-71500000D01*
X123500000Y-71500000D02*
X128500000Y-66500000D01*
X128500000Y-64500000D02*
X123500000Y-69500000D01*
X128500000Y-62500000D02*
X123500000Y-57500000D01*
X128500000Y-62500000D02*
X128500000Y-57500000D01*
X123500000Y-59500000D02*
X128500000Y-64500000D01*
X123500000Y-57500000D02*
X128500000Y-62500000D01*
X128500000Y-55500000D02*
X123500000Y-50500000D01*
X123500000Y-50500000D02*
X123500000Y-55500000D01*
D10*
X151000000Y-106500000D02*
X131000000Y-106500000D01*
X151000000Y-92750000D02*
X151000000Y-106500000D01*
D12*
X150000000Y-105500000D02*
X132000000Y-105500000D01*
X150000000Y-93750000D02*
X150000000Y-105500000D01*
X150000000Y-93750000D02*
X132000000Y-93750000D01*
X132000000Y-105500000D02*
X132000000Y-93750000D01*
D10*
X131000000Y-106500000D02*
X131000000Y-92750000D01*
X131000000Y-92750000D02*
X151000000Y-92750000D01*
G36*
X138012927Y-97537396D02*
G01*
X138012927Y-97654663D01*
X137895660Y-97654663D01*
X137778393Y-97654663D01*
X137778393Y-97537396D01*
X137778393Y-97420129D01*
X137895660Y-97420129D01*
X138012927Y-97420129D01*
X138012927Y-97537396D01*
G37*
G36*
X137778393Y-97771930D02*
G01*
X137778393Y-97889196D01*
X137661127Y-97889196D01*
X137543860Y-97889196D01*
X137543860Y-97771930D01*
X137543860Y-97654663D01*
X137661127Y-97654663D01*
X137778393Y-97654663D01*
X137778393Y-97771930D01*
G37*
G36*
X137778393Y-97302862D02*
G01*
X137778393Y-97420129D01*
X137661127Y-97420129D01*
X137543860Y-97420129D01*
X137543860Y-97302862D01*
X137543860Y-97185595D01*
X137661127Y-97185595D01*
X137778393Y-97185595D01*
X137778393Y-97302862D01*
G37*
G36*
X149270545Y-102931671D02*
G01*
X149270545Y-103048938D01*
X142234534Y-103048938D01*
X135198523Y-103048938D01*
X135198523Y-102931671D01*
X135198523Y-102814404D01*
X142234534Y-102814404D01*
X149270545Y-102814404D01*
X149270545Y-102931671D01*
G37*
G36*
X148332410Y-96599261D02*
G01*
X148332410Y-96716528D01*
X141530933Y-96716528D01*
X134729455Y-96716528D01*
X134729455Y-96599261D01*
X134729455Y-96481994D01*
X141530933Y-96481994D01*
X148332410Y-96481994D01*
X148332410Y-96599261D01*
G37*
G36*
X149270545Y-100000000D02*
G01*
X149270545Y-100234533D01*
X149270545Y-102579870D01*
X148684211Y-102579870D01*
X148097876Y-102579870D01*
X148097876Y-102462604D01*
X148097876Y-102345337D01*
X147980609Y-102345337D01*
X147863343Y-102345337D01*
X147863343Y-102228070D01*
X147863343Y-102110803D01*
X147980609Y-102110803D01*
X148097876Y-102110803D01*
X148097876Y-101172668D01*
X148097876Y-100234533D01*
X147980609Y-100234533D01*
X147863343Y-100234533D01*
X147863343Y-101172668D01*
X147863343Y-102110803D01*
X147746076Y-102110803D01*
X147628809Y-102110803D01*
X147628809Y-101172668D01*
X147628809Y-100234533D01*
X147394275Y-100234533D01*
X147159741Y-100234533D01*
X147159741Y-100117267D01*
X147159741Y-100000000D01*
X147042475Y-100000000D01*
X146925208Y-100000000D01*
X146925208Y-99882733D01*
X146925208Y-99765466D01*
X147042475Y-99765466D01*
X147159741Y-99765466D01*
X147159741Y-99530932D01*
X147159741Y-99296399D01*
X147628809Y-99296399D01*
X148097876Y-99296399D01*
X148097876Y-99179132D01*
X148097876Y-99061865D01*
X147628809Y-99061865D01*
X147159741Y-99061865D01*
X147159741Y-99179132D01*
X147159741Y-99296399D01*
X147042475Y-99296399D01*
X146925208Y-99296399D01*
X146925208Y-99530932D01*
X146925208Y-99765466D01*
X146807941Y-99765466D01*
X146690674Y-99765466D01*
X146690674Y-99296399D01*
X146690674Y-98827331D01*
X147394275Y-98827331D01*
X148097876Y-98827331D01*
X148097876Y-98592798D01*
X148097876Y-98358264D01*
X147159741Y-98358264D01*
X146221607Y-98358264D01*
X146221607Y-100469067D01*
X146221607Y-102579870D01*
X145635272Y-102579870D01*
X145048938Y-102579870D01*
X145048938Y-102462604D01*
X145048938Y-102345337D01*
X144931671Y-102345337D01*
X144814404Y-102345337D01*
X144814404Y-102228070D01*
X144814404Y-102110803D01*
X144697138Y-102110803D01*
X144579871Y-102110803D01*
X144579871Y-100234533D01*
X144579871Y-98358264D01*
X144814404Y-98358264D01*
X144814404Y-100234533D01*
X144814404Y-102110803D01*
X144931671Y-102110803D01*
X145048938Y-102110803D01*
X145048938Y-100234533D01*
X145048938Y-98358264D01*
X144931671Y-98358264D01*
X144814404Y-98358264D01*
X144579871Y-98358264D01*
X144462604Y-98358264D01*
X144345337Y-98358264D01*
X144345337Y-98240997D01*
X144345337Y-98123730D01*
X144228070Y-98123730D01*
X144110803Y-98123730D01*
X144110803Y-98006463D01*
X144110803Y-97889196D01*
X143993536Y-97889196D01*
X143876270Y-97889196D01*
X143876270Y-100234533D01*
X143876270Y-102579870D01*
X143289935Y-102579870D01*
X142703601Y-102579870D01*
X142703601Y-102462604D01*
X142703601Y-102345337D01*
X142586334Y-102345337D01*
X142469067Y-102345337D01*
X142469067Y-102228070D01*
X142469067Y-102110803D01*
X142586334Y-102110803D01*
X142703601Y-102110803D01*
X142703601Y-101172668D01*
X142703601Y-100234533D01*
X142586334Y-100234533D01*
X142469067Y-100234533D01*
X142469067Y-101172668D01*
X142469067Y-102110803D01*
X142351801Y-102110803D01*
X142234534Y-102110803D01*
X142234534Y-102345337D01*
X142234534Y-102579870D01*
X141648199Y-102579870D01*
X141061865Y-102579870D01*
X141061865Y-102462604D01*
X141061865Y-102345337D01*
X140944598Y-102345337D01*
X140827332Y-102345337D01*
X140827332Y-102228070D01*
X140827332Y-102110803D01*
X140710065Y-102110803D01*
X140592798Y-102110803D01*
X140592798Y-99530932D01*
X140592798Y-96951062D01*
X141179132Y-96951062D01*
X141765466Y-96951062D01*
X141765466Y-97068328D01*
X141765466Y-97185595D01*
X141413666Y-97185595D01*
X141061865Y-97185595D01*
X141061865Y-97302862D01*
X141061865Y-97420129D01*
X140944598Y-97420129D01*
X140827332Y-97420129D01*
X140827332Y-99765466D01*
X140827332Y-102110803D01*
X140944598Y-102110803D01*
X141061865Y-102110803D01*
X141061865Y-99765466D01*
X141061865Y-97420129D01*
X141413666Y-97420129D01*
X141765466Y-97420129D01*
X141765466Y-97302862D01*
X141765466Y-97185595D01*
X141882733Y-97185595D01*
X142000000Y-97185595D01*
X142000000Y-97302862D01*
X142000000Y-97420129D01*
X142117267Y-97420129D01*
X142234534Y-97420129D01*
X142234534Y-97185595D01*
X142234534Y-96951062D01*
X142820868Y-96951062D01*
X143407202Y-96951062D01*
X143407202Y-97068328D01*
X143407202Y-97185595D01*
X143055402Y-97185595D01*
X142703601Y-97185595D01*
X142703601Y-97302862D01*
X142703601Y-97420129D01*
X142586334Y-97420129D01*
X142469067Y-97420129D01*
X142469067Y-98358264D01*
X142469067Y-99296399D01*
X142586334Y-99296399D01*
X142703601Y-99296399D01*
X142703601Y-98358264D01*
X142703601Y-97420129D01*
X143055402Y-97420129D01*
X143407202Y-97420129D01*
X143407202Y-97302862D01*
X143407202Y-97185595D01*
X143524469Y-97185595D01*
X143641736Y-97185595D01*
X143641736Y-97302862D01*
X143641736Y-97420129D01*
X143759003Y-97420129D01*
X143876270Y-97420129D01*
X143876270Y-97185595D01*
X143876270Y-96951062D01*
X146338874Y-96951062D01*
X148801477Y-96951062D01*
X148801477Y-97068328D01*
X148801477Y-97185595D01*
X146573407Y-97185595D01*
X144345337Y-97185595D01*
X144345337Y-97302862D01*
X144345337Y-97420129D01*
X144228070Y-97420129D01*
X144110803Y-97420129D01*
X144110803Y-97654663D01*
X144110803Y-97889196D01*
X144228070Y-97889196D01*
X144345337Y-97889196D01*
X144345337Y-97654663D01*
X144345337Y-97420129D01*
X146573407Y-97420129D01*
X148801477Y-97420129D01*
X148801477Y-97302862D01*
X148801477Y-97185595D01*
X148918744Y-97185595D01*
X149036011Y-97185595D01*
X149036011Y-97302862D01*
X149036011Y-97420129D01*
X149153278Y-97420129D01*
X149270545Y-97420129D01*
X149270545Y-99061865D01*
X149270545Y-100000000D01*
G37*
G36*
X140358264Y-100000000D02*
G01*
X140358264Y-102110803D01*
X140240997Y-102110803D01*
X140123730Y-102110803D01*
X140123730Y-102228070D01*
X140123730Y-102345337D01*
X139889197Y-102345337D01*
X139654663Y-102345337D01*
X139654663Y-102462604D01*
X139654663Y-102579870D01*
X139185596Y-102579870D01*
X138716528Y-102579870D01*
X138716528Y-102462604D01*
X138716528Y-102345337D01*
X138599261Y-102345337D01*
X138481994Y-102345337D01*
X138481994Y-102228070D01*
X138481994Y-102110803D01*
X138364728Y-102110803D01*
X138247461Y-102110803D01*
X138247461Y-102345337D01*
X138247461Y-102579870D01*
X137895660Y-102579870D01*
X137543860Y-102579870D01*
X137543860Y-102462604D01*
X137543860Y-102345337D01*
X137426593Y-102345337D01*
X137309326Y-102345337D01*
X137309326Y-102228070D01*
X137309326Y-102110803D01*
X137426593Y-102110803D01*
X137543860Y-102110803D01*
X137543860Y-101055401D01*
X137543860Y-100000000D01*
X138012927Y-100000000D01*
X138481994Y-100000000D01*
X138481994Y-99882733D01*
X138481994Y-99765466D01*
X138599261Y-99765466D01*
X138716528Y-99765466D01*
X138716528Y-99882733D01*
X138716528Y-100000000D01*
X138833795Y-100000000D01*
X138951062Y-100000000D01*
X138951062Y-100703601D01*
X138951062Y-101407202D01*
X138833795Y-101407202D01*
X138716528Y-101407202D01*
X138716528Y-101524469D01*
X138716528Y-101641736D01*
X138951062Y-101641736D01*
X139185596Y-101641736D01*
X139185596Y-100000000D01*
X139185596Y-98358264D01*
X139068329Y-98358264D01*
X138951062Y-98358264D01*
X138951062Y-98944598D01*
X138951062Y-99530932D01*
X138716528Y-99530932D01*
X138481994Y-99530932D01*
X138481994Y-99648199D01*
X138481994Y-99765466D01*
X138012927Y-99765466D01*
X137543860Y-99765466D01*
X137543860Y-99882733D01*
X137543860Y-100000000D01*
X137426593Y-100000000D01*
X137309326Y-100000000D01*
X137309326Y-101055401D01*
X137309326Y-102110803D01*
X137192059Y-102110803D01*
X137074792Y-102110803D01*
X137074792Y-102345337D01*
X137074792Y-102579870D01*
X136136657Y-102579870D01*
X135198523Y-102579870D01*
X135198523Y-102462604D01*
X135198523Y-102345337D01*
X135081256Y-102345337D01*
X134963989Y-102345337D01*
X134963989Y-102228070D01*
X134963989Y-102110803D01*
X134846722Y-102110803D01*
X134729455Y-102110803D01*
X134729455Y-101641736D01*
X134729455Y-101172668D01*
X135081256Y-101172668D01*
X135433056Y-101172668D01*
X135433056Y-99061865D01*
X135433056Y-96951062D01*
X136019391Y-96951062D01*
X136605725Y-96951062D01*
X136605725Y-97068328D01*
X136605725Y-97185595D01*
X136253924Y-97185595D01*
X135902124Y-97185595D01*
X135902124Y-97302862D01*
X135902124Y-97420129D01*
X135784857Y-97420129D01*
X135667590Y-97420129D01*
X135667590Y-99413665D01*
X135667590Y-101407202D01*
X135433056Y-101407202D01*
X135198523Y-101407202D01*
X135198523Y-101524469D01*
X135198523Y-101641736D01*
X135081256Y-101641736D01*
X134963989Y-101641736D01*
X134963989Y-101876269D01*
X134963989Y-102110803D01*
X135081256Y-102110803D01*
X135198523Y-102110803D01*
X135198523Y-101876269D01*
X135198523Y-101641736D01*
X135433056Y-101641736D01*
X135667590Y-101641736D01*
X135667590Y-101524469D01*
X135667590Y-101407202D01*
X135784857Y-101407202D01*
X135902124Y-101407202D01*
X135902124Y-99530932D01*
X137074792Y-99530932D01*
X137309326Y-99530932D01*
X137543860Y-99530932D01*
X137543860Y-99413665D01*
X137543860Y-99296399D01*
X137426593Y-99296399D01*
X137309326Y-99296399D01*
X137309326Y-99179132D01*
X137309326Y-99061865D01*
X137192059Y-99061865D01*
X137074792Y-99061865D01*
X137074792Y-99296399D01*
X137074792Y-99530932D01*
X135902124Y-99530932D01*
X135902124Y-99413665D01*
X135902124Y-97420129D01*
X136253924Y-97420129D01*
X136605725Y-97420129D01*
X136605725Y-97302862D01*
X136605725Y-97185595D01*
X136722992Y-97185595D01*
X136840259Y-97185595D01*
X136840259Y-97302862D01*
X136840259Y-97420129D01*
X136957525Y-97420129D01*
X137074792Y-97420129D01*
X137074792Y-97537396D01*
X137074792Y-97654663D01*
X137192059Y-97654663D01*
X137309326Y-97654663D01*
X137309326Y-97537396D01*
X137309326Y-97420129D01*
X137426593Y-97420129D01*
X137543860Y-97420129D01*
X137543860Y-97537396D01*
X137543860Y-97654663D01*
X137426593Y-97654663D01*
X137309326Y-97654663D01*
X137309326Y-97889196D01*
X137309326Y-98123730D01*
X137426593Y-98123730D01*
X137543860Y-98123730D01*
X137543860Y-98240997D01*
X137543860Y-98358264D01*
X137426593Y-98358264D01*
X137309326Y-98358264D01*
X137309326Y-98710064D01*
X137309326Y-99061865D01*
X137426593Y-99061865D01*
X137543860Y-99061865D01*
X137543860Y-98710064D01*
X137543860Y-98358264D01*
X137661127Y-98358264D01*
X137778393Y-98358264D01*
X137778393Y-98123730D01*
X137778393Y-97889196D01*
X137895660Y-97889196D01*
X138012927Y-97889196D01*
X138012927Y-97771930D01*
X138012927Y-97654663D01*
X138130194Y-97654663D01*
X138247461Y-97654663D01*
X138247461Y-97537396D01*
X138247461Y-97420129D01*
X138716528Y-97420129D01*
X139185596Y-97420129D01*
X139185596Y-97302862D01*
X139185596Y-97185595D01*
X139302862Y-97185595D01*
X139420129Y-97185595D01*
X139420129Y-97302862D01*
X139420129Y-97420129D01*
X139537396Y-97420129D01*
X139654663Y-97420129D01*
X139654663Y-97537396D01*
X139654663Y-97654663D01*
X139889197Y-97654663D01*
X140123730Y-97654663D01*
X140123730Y-97771930D01*
X140123730Y-97889196D01*
X140240997Y-97889196D01*
X140358264Y-97889196D01*
X140358264Y-98358264D01*
X140358264Y-100000000D01*
G37*
G36*
X139185596Y-97068328D02*
G01*
X139185596Y-97185595D01*
X138716528Y-97185595D01*
X138247461Y-97185595D01*
X138247461Y-97302862D01*
X138247461Y-97420129D01*
X138130194Y-97420129D01*
X138012927Y-97420129D01*
X138012927Y-97302862D01*
X138012927Y-97185595D01*
X137895660Y-97185595D01*
X137778393Y-97185595D01*
X137778393Y-97068328D01*
X137778393Y-96951062D01*
X138481994Y-96951062D01*
X139185596Y-96951062D01*
X139185596Y-97068328D01*
G37*
%TD*%
M02*
