%TF.GenerationSoftware,KiCad,Pcbnew,7.0.5*%
%TF.CreationDate,2024-05-26T12:51:41+03:00*%
%TF.ProjectId,LoRa_MuPr-VAF4751_L,4c6f5261-5f4d-4755-9072-2d5641463437,rev?*%
%TF.SameCoordinates,Original*%
%TF.FileFunction,Drillmap*%
%TF.FilePolarity,Positive*%
%FSLAX45Y45*%
G04 Gerber Fmt 4.5, Leading zero omitted, Abs format (unit mm)*
G04 Created by KiCad (PCBNEW 7.0.5) date 2024-05-26 12:51:41*
%MOMM*%
%LPD*%
G01*
G04 APERTURE LIST*
%ADD10C,0.100000*%
%ADD11C,0.200000*%
G04 APERTURE END LIST*
D10*
X12020000Y-5020000D02*
X18220000Y-5020000D01*
X12020000Y-5020000D02*
G75*
G03*
X11520000Y-5520000I0J-500000D01*
G01*
X11520000Y-11720000D02*
G75*
G03*
X12020000Y-12220000I500000J0D01*
G01*
X11520000Y-5520000D02*
X11520000Y-11720000D01*
X18720000Y-5520000D02*
X18720000Y-11720000D01*
X12020000Y-12220000D02*
X18220000Y-12220000D01*
X18220000Y-12220000D02*
G75*
G03*
X18720000Y-11720000I0J500000D01*
G01*
X18720000Y-5520000D02*
G75*
G03*
X18220000Y-5020000I-500000J0D01*
G01*
D11*
X11775777Y-12536484D02*
X11775777Y-12336484D01*
X11775777Y-12336484D02*
X11823396Y-12336484D01*
X11823396Y-12336484D02*
X11851967Y-12346008D01*
X11851967Y-12346008D02*
X11871015Y-12365055D01*
X11871015Y-12365055D02*
X11880539Y-12384103D01*
X11880539Y-12384103D02*
X11890062Y-12422198D01*
X11890062Y-12422198D02*
X11890062Y-12450769D01*
X11890062Y-12450769D02*
X11880539Y-12488865D01*
X11880539Y-12488865D02*
X11871015Y-12507912D01*
X11871015Y-12507912D02*
X11851967Y-12526960D01*
X11851967Y-12526960D02*
X11823396Y-12536484D01*
X11823396Y-12536484D02*
X11775777Y-12536484D01*
X11975777Y-12536484D02*
X11975777Y-12403150D01*
X11975777Y-12441246D02*
X11985301Y-12422198D01*
X11985301Y-12422198D02*
X11994824Y-12412674D01*
X11994824Y-12412674D02*
X12013872Y-12403150D01*
X12013872Y-12403150D02*
X12032920Y-12403150D01*
X12099586Y-12536484D02*
X12099586Y-12403150D01*
X12099586Y-12336484D02*
X12090062Y-12346008D01*
X12090062Y-12346008D02*
X12099586Y-12355531D01*
X12099586Y-12355531D02*
X12109110Y-12346008D01*
X12109110Y-12346008D02*
X12099586Y-12336484D01*
X12099586Y-12336484D02*
X12099586Y-12355531D01*
X12223396Y-12536484D02*
X12204348Y-12526960D01*
X12204348Y-12526960D02*
X12194824Y-12507912D01*
X12194824Y-12507912D02*
X12194824Y-12336484D01*
X12328158Y-12536484D02*
X12309110Y-12526960D01*
X12309110Y-12526960D02*
X12299586Y-12507912D01*
X12299586Y-12507912D02*
X12299586Y-12336484D01*
X12556729Y-12536484D02*
X12556729Y-12336484D01*
X12556729Y-12336484D02*
X12623396Y-12479341D01*
X12623396Y-12479341D02*
X12690062Y-12336484D01*
X12690062Y-12336484D02*
X12690062Y-12536484D01*
X12871015Y-12536484D02*
X12871015Y-12431722D01*
X12871015Y-12431722D02*
X12861491Y-12412674D01*
X12861491Y-12412674D02*
X12842443Y-12403150D01*
X12842443Y-12403150D02*
X12804348Y-12403150D01*
X12804348Y-12403150D02*
X12785301Y-12412674D01*
X12871015Y-12526960D02*
X12851967Y-12536484D01*
X12851967Y-12536484D02*
X12804348Y-12536484D01*
X12804348Y-12536484D02*
X12785301Y-12526960D01*
X12785301Y-12526960D02*
X12775777Y-12507912D01*
X12775777Y-12507912D02*
X12775777Y-12488865D01*
X12775777Y-12488865D02*
X12785301Y-12469817D01*
X12785301Y-12469817D02*
X12804348Y-12460293D01*
X12804348Y-12460293D02*
X12851967Y-12460293D01*
X12851967Y-12460293D02*
X12871015Y-12450769D01*
X12966253Y-12403150D02*
X12966253Y-12603150D01*
X12966253Y-12412674D02*
X12985301Y-12403150D01*
X12985301Y-12403150D02*
X13023396Y-12403150D01*
X13023396Y-12403150D02*
X13042443Y-12412674D01*
X13042443Y-12412674D02*
X13051967Y-12422198D01*
X13051967Y-12422198D02*
X13061491Y-12441246D01*
X13061491Y-12441246D02*
X13061491Y-12498388D01*
X13061491Y-12498388D02*
X13051967Y-12517436D01*
X13051967Y-12517436D02*
X13042443Y-12526960D01*
X13042443Y-12526960D02*
X13023396Y-12536484D01*
X13023396Y-12536484D02*
X12985301Y-12536484D01*
X12985301Y-12536484D02*
X12966253Y-12526960D01*
X13147205Y-12517436D02*
X13156729Y-12526960D01*
X13156729Y-12526960D02*
X13147205Y-12536484D01*
X13147205Y-12536484D02*
X13137682Y-12526960D01*
X13137682Y-12526960D02*
X13147205Y-12517436D01*
X13147205Y-12517436D02*
X13147205Y-12536484D01*
X13147205Y-12412674D02*
X13156729Y-12422198D01*
X13156729Y-12422198D02*
X13147205Y-12431722D01*
X13147205Y-12431722D02*
X13137682Y-12422198D01*
X13137682Y-12422198D02*
X13147205Y-12412674D01*
X13147205Y-12412674D02*
X13147205Y-12431722D01*
M02*
