M48
; DRILL file {KiCad 7.0.5} date Sun May 26 12:51:42 2024
; FORMAT={-:-/ absolute / inch / decimal}
; #@! TF.CreationDate,2024-05-26T12:51:42+03:00
; #@! TF.GenerationSoftware,Kicad,Pcbnew,7.0.5
; #@! TF.FileFunction,Plated,1,2,PTH
FMAT,2
INCH
; #@! TA.AperFunction,Plated,PTH,ViaDrill
T1C0.0118
; #@! TA.AperFunction,Plated,PTH,ViaDrill
T2C0.0138
; #@! TA.AperFunction,Plated,PTH,ViaDrill
T3C0.0157
; #@! TA.AperFunction,Plated,PTH,ViaDrill
T4C0.0197
; #@! TA.AperFunction,Plated,PTH,ComponentDrill
T5C0.0197
; #@! TA.AperFunction,Plated,PTH,ComponentDrill
T6C0.0217
; #@! TA.AperFunction,Plated,PTH,ComponentDrill
T7C0.0256
; #@! TA.AperFunction,Plated,PTH,ComponentDrill
T8C0.0315
; #@! TA.AperFunction,Plated,PTH,ComponentDrill
T9C0.0394
%
G90
G05
T1
X4.8547Y-3.102
X5.2835Y-4.5768
X6.0197Y-4.2087
X6.2165Y-4.2087
X6.2402Y-3.866
X6.3091Y-3.8445
X6.3386Y-3.3858
X6.3858Y-3.7717
X6.3945Y-3.4799
X6.4252Y-3.7402
X6.4783Y-2.8681
X6.5354Y-3.4449
X6.5354Y-3.5098
X6.5891Y-3.9311
X6.5945Y-3.3858
X6.5945Y-3.4449
X6.5945Y-3.5098
X6.5945Y-3.5689
X6.6614Y-3.2402
X6.6811Y-3.3858
X6.6811Y-3.4449
X6.6811Y-3.5098
X6.6811Y-3.5689
X6.6988Y-4.5453
X6.7402Y-3.4449
X6.7402Y-3.5098
X6.7412Y-3.9311
X6.7421Y-3.75
X6.7717Y-3.7697
X6.7736Y-4.5256
X6.8377Y-3.2314
X6.8484Y-3.189
X6.8756Y-3.4799
X7.0138Y-3.6122
X7.0567Y-4.3415
X7.0567Y-4.5861
T2
X4.5669Y-2.5591
X4.6063Y-2.7953
X4.6063Y-2.874
X4.6063Y-2.9528
X4.6063Y-3.0315
X4.6063Y-3.1102
X4.6063Y-3.189
X4.6063Y-3.2677
X4.6063Y-3.3465
X4.6063Y-3.4252
X4.6063Y-3.5039
X4.6063Y-3.5827
X4.6063Y-3.6614
X4.6063Y-3.7402
X4.6063Y-3.8189
X4.6063Y-3.8976
X4.6063Y-3.9764
X4.6063Y-4.0551
X4.6063Y-4.1339
X4.6063Y-4.2126
X4.6063Y-4.2913
X4.6063Y-4.3701
X4.6063Y-4.4488
X4.6063Y-4.5276
X4.6063Y-4.6063
X4.6063Y-4.685
X4.6457Y-2.4803
X4.6457Y-2.6378
X4.685Y-2.7559
X4.685Y-4.7638
X4.685Y-4.1339
X4.7244Y-2.5591
X4.7244Y-4.0551
X4.7638Y-4.1339
X4.7638Y-2.7559
X4.7638Y-4.7638
X4.7768Y-3.8988
X4.8031Y-2.4803
X4.8031Y-2.6378
X4.8425Y-2.7559
X4.8425Y-4.1339
X4.8425Y-4.7638
X4.8819Y-2.5591
X4.8819Y-4.0551
X4.9213Y-2.7559
X4.9213Y-2.8346
X4.9213Y-2.9134
X4.9213Y-3.0709
X4.9213Y-3.1496
X4.9213Y-3.8189
X4.9213Y-3.8976
X4.9213Y-4.7638
X4.9213Y-4.1339
X4.9606Y-2.4803
X4.9606Y-2.6378
X4.9606Y-3.937
X5.0Y-2.7559
X5.0Y-4.1339
X5.0Y-4.7638
X5.0394Y-2.5591
X5.0394Y-3.937
X5.0394Y-4.0551
X5.0787Y-2.7559
X5.0787Y-4.1339
X5.0917Y-2.9933
X5.0917Y-3.072
X5.0917Y-3.1508
X5.0917Y-3.3083
X5.0917Y-3.387
X5.0917Y-3.4657
X5.0917Y-3.5445
X5.0917Y-3.6232
X5.0917Y-3.702
X5.0917Y-3.7807
X5.1181Y-2.4803
X5.1181Y-2.6378
X5.1181Y-2.9154
X5.1181Y-3.937
X5.1575Y-2.7559
X5.1575Y-4.2126
X5.1575Y-4.2913
X5.1575Y-4.3701
X5.1575Y-4.4488
X5.1575Y-4.1339
X5.1705Y-2.9933
X5.1705Y-3.072
X5.1705Y-3.1508
X5.1705Y-3.2295
X5.1705Y-3.387
X5.1705Y-3.4657
X5.1705Y-3.5445
X5.1705Y-3.6232
X5.1705Y-3.702
X5.1705Y-3.8594
X5.1969Y-2.3819
X5.1969Y-2.4409
X5.1969Y-2.5
X5.1969Y-2.5591
X5.1969Y-2.6181
X5.1969Y-2.6772
X5.1969Y-2.7362
X5.1969Y-2.9154
X5.1969Y-3.937
X5.1969Y-4.0551
X5.2362Y-4.1339
X5.2492Y-2.9933
X5.2492Y-3.072
X5.2492Y-3.1508
X5.2492Y-3.2295
X5.2492Y-3.387
X5.2492Y-3.4657
X5.2492Y-3.5445
X5.2492Y-3.6232
X5.2492Y-3.702
X5.2492Y-3.7807
X5.2756Y-2.9154
X5.2756Y-3.937
X5.315Y-4.1339
X5.328Y-2.9933
X5.328Y-3.072
X5.328Y-3.1508
X5.328Y-3.2295
X5.328Y-3.387
X5.328Y-3.4657
X5.328Y-3.5445
X5.328Y-3.6232
X5.328Y-3.702
X5.328Y-3.8594
X5.3346Y-2.3819
X5.3346Y-2.4409
X5.3346Y-2.5
X5.3346Y-2.5591
X5.3346Y-2.6181
X5.3346Y-2.6772
X5.3543Y-2.9154
X5.3543Y-3.937
X5.3543Y-4.0551
X5.374Y-2.6772
X5.3937Y-4.1339
X5.4067Y-2.9933
X5.4067Y-3.072
X5.4067Y-3.1508
X5.4067Y-3.2295
X5.4067Y-3.387
X5.4067Y-3.4657
X5.4067Y-3.5445
X5.4067Y-3.6232
X5.4067Y-3.702
X5.4067Y-3.7807
X5.4134Y-2.6772
X5.4134Y-4.4488
X5.4134Y-4.626
X5.4331Y-2.5591
X5.4331Y-2.9154
X5.4331Y-3.937
X5.4331Y-4.7441
X5.4528Y-4.6654
X5.4691Y-4.3931
X5.4724Y-2.6969
X5.4724Y-2.7559
X5.4724Y-4.1339
X5.4724Y-4.7441
X5.4724Y-4.7835
X5.4854Y-2.9933
X5.4854Y-3.072
X5.4854Y-3.1508
X5.4854Y-3.2295
X5.4854Y-3.387
X5.4854Y-3.4657
X5.4854Y-3.5445
X5.4854Y-3.6232
X5.4854Y-3.702
X5.4854Y-3.8594
X5.5118Y-2.4803
X5.5118Y-2.6378
X5.5118Y-2.9154
X5.5118Y-3.937
X5.5118Y-4.0551
X5.5247Y-4.3375
X5.5512Y-2.7559
X5.5512Y-4.7835
X5.5642Y-2.9933
X5.5642Y-3.072
X5.5642Y-3.1508
X5.5642Y-3.2295
X5.5642Y-3.387
X5.5642Y-3.4657
X5.5642Y-3.5445
X5.5642Y-3.6232
X5.5642Y-3.702
X5.5642Y-3.7807
X5.5709Y-4.2913
X5.5906Y-2.5591
X5.5906Y-2.7165
X5.5906Y-2.7953
X5.5906Y-2.9154
X5.5906Y-3.937
X5.6299Y-2.7559
X5.6299Y-4.0551
X5.6299Y-4.7835
X5.6429Y-2.9933
X5.6429Y-3.072
X5.6429Y-3.1508
X5.6429Y-3.2295
X5.6429Y-3.387
X5.6429Y-3.4657
X5.6429Y-3.5445
X5.6429Y-3.6232
X5.6429Y-3.702
X5.6429Y-3.8594
X5.6496Y-4.5079
X5.6496Y-4.5669
X5.6496Y-4.6654
X5.6496Y-4.7244
X5.6693Y-2.4803
X5.6693Y-2.6378
X5.6693Y-2.7953
X5.6693Y-2.874
X5.6823Y-3.9382
X5.7087Y-2.7559
X5.7087Y-4.0157
X5.7087Y-4.1929
X5.7283Y-4.5079
X5.7283Y-4.5669
X5.7283Y-4.6654
X5.7283Y-4.7244
X5.748Y-2.5591
X5.748Y-2.7165
X5.7874Y-2.7559
X5.7874Y-2.8346
X5.7874Y-2.9134
X5.7874Y-2.9921
X5.7874Y-3.0709
X5.7874Y-3.1496
X5.7874Y-3.2283
X5.7874Y-3.4252
X5.7874Y-3.4941
X5.7874Y-3.622
X5.7874Y-3.7008
X5.7874Y-3.7795
X5.7874Y-3.8583
X5.7874Y-3.937
X5.7874Y-4.1929
X5.8268Y-2.4803
X5.8268Y-2.6378
X5.8268Y-2.7165
X5.8661Y-2.7756
X5.8661Y-4.1929
X5.8957Y-3.4941
X5.9055Y-2.5591
X5.9055Y-2.7165
X5.9449Y-2.7756
X5.9449Y-3.4941
X5.9449Y-4.7638
X5.9744Y-3.5236
X5.9744Y-3.563
X5.9744Y-3.6122
X5.9843Y-2.4803
X5.9843Y-2.6378
X5.9843Y-2.7165
X5.9843Y-2.9134
X5.9843Y-2.9921
X5.9843Y-3.0709
X5.9843Y-3.1496
X5.9843Y-3.2283
X6.0236Y-2.7756
X6.063Y-2.5591
X6.063Y-2.7165
X6.063Y-2.9134
X6.063Y-4.7638
X6.1024Y-2.7756
X6.1417Y-2.4803
X6.1417Y-2.6378
X6.1417Y-2.7165
X6.1417Y-2.9134
X6.1811Y-2.7756
X6.1811Y-4.7638
X6.2205Y-2.5591
X6.2205Y-2.7165
X6.2205Y-2.9134
X6.2598Y-2.7756
X6.2992Y-2.4803
X6.2992Y-2.6378
X6.2992Y-2.7165
X6.2992Y-4.7638
X6.3189Y-4.2323
X6.3189Y-4.311
X6.3189Y-4.3898
X6.3386Y-2.7756
X6.378Y-2.5591
X6.378Y-4.1929
X6.4173Y-2.7165
X6.4173Y-2.7756
X6.4173Y-4.7638
X6.4567Y-2.4803
X6.4567Y-2.6378
X6.4567Y-4.1929
X6.4961Y-2.7756
X6.5354Y-2.5591
X6.5354Y-2.7165
X6.5354Y-4.1929
X6.5354Y-4.7638
X6.5945Y-2.7756
X6.5945Y-3.189
X6.6142Y-2.4803
X6.6142Y-2.6378
X6.6142Y-4.1929
X6.6339Y-3.0709
X6.6339Y-4.7638
X6.6535Y-2.7165
X6.6535Y-3.0118
X6.6732Y-2.7756
X6.6929Y-2.5591
X6.7126Y-4.7638
X6.7323Y-4.2126
X6.7323Y-4.2913
X6.752Y-2.7756
X6.752Y-3.0709
X6.752Y-3.189
X6.7717Y-2.4803
X6.7717Y-2.6378
X6.7717Y-2.7165
X6.7913Y-4.7638
X6.7913Y-4.7638
X6.811Y-4.2126
X6.811Y-4.2913
X6.8307Y-2.7756
X6.8504Y-2.5591
X6.8701Y-4.7638
X6.8898Y-2.7165
X6.8898Y-4.2126
X6.8898Y-4.2913
X6.9094Y-2.7756
X6.9291Y-2.4803
X6.9291Y-2.6378
X6.9488Y-4.7638
X6.9685Y-4.2126
X6.9882Y-2.7756
X7.0079Y-2.5591
X7.0079Y-2.7165
X7.0079Y-2.9134
X7.0276Y-4.7638
X7.0669Y-2.7756
X7.0832Y-4.7081
X7.0866Y-2.4803
X7.0866Y-2.6378
X7.0866Y-2.9134
X7.126Y-2.7165
X7.1389Y-4.6524
X7.1457Y-2.7756
X7.1457Y-4.1929
X7.1457Y-4.2717
X7.1457Y-4.3504
X7.1457Y-4.4291
X7.1457Y-4.5079
X7.1457Y-4.5866
X7.1654Y-2.5591
X7.1654Y-2.9134
X7.2244Y-2.7756
X7.2244Y-4.1142
X7.2244Y-4.1929
X7.2244Y-4.2717
X7.2244Y-4.3504
X7.2244Y-4.4291
X7.2244Y-4.5079
X7.2441Y-2.4803
X7.2441Y-2.6378
X7.2441Y-2.7165
X7.2441Y-2.9134
X7.3031Y-2.7756
X7.3031Y-2.8543
X7.3031Y-2.9331
X7.3031Y-3.0118
X7.3031Y-3.0906
X7.3031Y-3.1693
X7.3031Y-3.248
X7.3031Y-3.3268
X7.3031Y-3.4055
X7.3031Y-3.4843
X7.3031Y-3.563
X7.3031Y-3.6417
X7.3031Y-3.7205
X7.3031Y-3.7992
X7.3031Y-3.878
X7.3031Y-3.9567
X7.3031Y-4.0354
X7.3031Y-4.1142
X7.3031Y-4.1929
X7.3031Y-4.2717
X7.3031Y-4.3504
X7.3228Y-2.5591
T3
X4.9606Y-4.5276
X4.9606Y-4.685
X5.0394Y-4.3307
X5.0433Y-4.5472
X5.5512Y-4.685
X5.5906Y-4.7146
X5.6594Y-4.3602
T4
X5.8465Y-3.376
X5.8465Y-3.4449
X5.9252Y-3.376
X5.9252Y-3.4449
T7
X4.7583Y-3.4669
X4.7583Y-3.5169
X4.7583Y-3.5669
X4.7583Y-3.6169
X4.7583Y-3.6669
X4.7583Y-3.7169
X4.7583Y-3.7669
X4.7583Y-3.8169
T8
X4.7583Y-2.8634
X4.7583Y-2.9421
X4.7583Y-3.0209
X4.7583Y-3.0996
X4.7583Y-3.1783
X4.7583Y-3.2571
X6.0756Y-3.0039
X6.0756Y-3.0826
X6.0756Y-3.1614
X6.0756Y-3.2401
X6.0756Y-3.3189
X6.0756Y-3.3976
X6.0756Y-3.4763
X6.0756Y-3.5551
X6.0756Y-3.6338
X6.0756Y-3.7126
X6.0756Y-3.7913
X6.0756Y-3.87
X6.0756Y-3.9488
X6.3583Y-2.9528
X6.437Y-2.9528
X6.5157Y-2.9528
X6.5945Y-2.9528
X6.8209Y-2.9528
X6.8996Y-2.9528
X7.2047Y-3.0039
X7.2047Y-3.0826
X7.2047Y-3.1614
X7.2047Y-3.2401
X7.2047Y-3.3189
X7.2047Y-3.3976
X7.2047Y-3.4763
X7.2047Y-3.5551
X7.2047Y-3.6338
X7.2047Y-3.7126
X7.2047Y-3.7913
X7.2047Y-3.87
X7.2047Y-3.9488
T9
X6.8116Y-4.3801
X6.8116Y-4.4801
X6.8116Y-4.5801
X6.9116Y-4.3801
X6.9116Y-4.4801
X6.9116Y-4.5801
T5
G00X5.1016Y-4.7378
M15
G01X5.1016Y-4.7634
M16
G05
G00X5.3772Y-4.7378
M15
G01X5.3772Y-4.7634
M16
G05
T6
G00X5.135Y-4.6443
M15
G01X5.1469Y-4.6443
M16
G05
G00X5.3319Y-4.6443
M15
G01X5.3437Y-4.6443
M16
G05
T0
M30
